<svg width="461" height="142" viewBox="0 0 461 142" fill="none" xmlns="http://www.w3.org/2000/svg">
<g style="mix-blend-mode:difference">
<path d="M397.568 43.2025L397.043 44.2502L397.08 44.6003L396.768 44.9879L396.587 45.2904C396.517 45.2979 396.525 45.3679 396.532 45.4379L396.555 45.648L396.319 46.0981L396.436 47.8563C396.374 47.9338 396.409 48.9217 396.726 49.2419C397.199 49.6872 396.988 49.7097 398.799 50.0829L400.019 50.2359L400.93 50.1387L401.965 49.8865L406.958 48.2201L407.893 47.6952L410.527 46.4932L411.05 46.0832L411.315 45.9132L411.455 45.8983L415.47 43.6989L415.75 43.669L416.21 43.3365L416.826 43.1291L419.047 42.042L419.319 41.9421C421.728 40.6224 422.641 39.8875 424.973 38.5053L426.453 37.7805L426.509 37.633L426.906 37.378L428.122 36.8232L429.393 36.1209L429.378 35.9808L429.588 35.9584L430.383 35.4485L430.438 35.301L433.973 32.5862L434.316 32.4788C434.776 32.1463 435.229 31.7438 435.744 31.2638C435.869 31.1088 436.087 31.1564 436.172 31.289L436.164 31.219L436.422 30.979L436.71 31.0191L436.987 31.6269L436.652 31.8043L436.044 32.0817L435.709 32.2592L434.218 33.5516L433.92 34.0792L433.57 34.1166L433.305 34.2866C432.719 34.7741 432.056 35.199 431.464 35.6164L431.401 35.6939L430.941 36.0264L430.683 36.2664L430.473 36.2888L428.352 37.6486L428.297 37.7961L428.024 37.8961L427.494 38.236L427.361 38.321L426.448 39.056L423.907 40.4606C423.111 40.9705 422.323 41.5505 421.52 41.9903L421.333 42.2229L418.011 44.2775L417.753 44.5175L417.59 44.3223L416.872 44.8948L416.047 45.1246L415.517 45.4645L415.447 45.472C414.581 45.9894 413.708 46.4368 412.835 46.8841L411.845 47.5565L409.786 48.8388L409.241 49.0387L408.415 49.2685L407.262 49.7457L406.569 49.8906L406.304 50.0605L406.047 50.3005L405.159 50.6078L405.019 50.6228C404.208 50.9926 403.25 51.3074 402.285 51.5522L402.097 51.7847L401.754 51.8921L401.824 51.8847L400.454 52.3143L400.019 52.2191L399.278 52.5815L397.568 52.4809L395.945 51.8751L395.14 50.9695L394.692 50.0965L394.378 49.1386L394.251 47.9481L394.306 47.8005L394.221 47.668L394.168 47.1778L394.472 45.3747L394.872 44.482L395.298 43.1617L395.643 42.4165L395.768 42.2615L395.918 41.6788L396.301 41.2838L396.459 40.7712L396.812 40.0961L396.999 39.8636L397.732 39.4311L397.975 39.0511L398.443 38.7887L398.958 38.3087L399.091 38.2237L399.724 37.5186L400.302 36.9611L400.717 36.2085L400.967 35.8985L401.272 35.4409L401.53 35.2009L401.935 35.016L402.053 34.7909L402.366 34.4034L402.904 34.1335L403.239 33.956C404.66 32.6711 406.143 31.3086 407.719 30.1487L407.844 29.9937L408.492 29.4287L409.365 28.9813C409.435 28.9739 409.505 28.9664 409.498 28.8963L410.278 28.2464L410.739 27.9139L410.941 27.8214L411.907 27.5767C412.647 27.2143 413.387 26.8519 414.135 26.5596L414.728 26.1421L415.428 26.0674L415.834 25.8824L416.059 26.0001C416.619 25.9402 417.179 25.8804 417.677 25.8981L417.739 25.8206L417.942 25.7281L418.09 25.7832L418.292 25.6907L418.355 25.6132L418.79 25.7084L418.782 25.6384L418.852 25.6309L418.797 25.7784L419.022 25.896L419.232 25.8736L419.317 26.0062L419.387 25.9987L419.83 26.1639L419.908 26.2265C420.288 26.4692 420.59 26.6494 420.698 26.992L420.915 27.0396L420.86 27.1872L420.93 27.1797L420.868 27.2572L420.905 27.6073L421.005 27.88L420.917 28.3851L420.8 28.6102L420.844 29.0303L420.676 30.1107L420.213 31.0809L419.588 31.8559L418.87 32.4284L418.285 32.9159L415.968 34.4381L415.648 34.7556L415.173 34.948C413.682 36.2405 412.036 37.4079 410.382 38.5052L410.327 38.6527L408.401 39.85L407.558 40.5775L405.82 41.5422L404.541 42.1745L402.688 42.7266L401.575 42.9163L401.085 42.9686L400.642 42.8034L400.465 42.4682L400.582 42.2432L400.968 41.2104L401.851 40.1954L402.724 39.748L403.284 39.6882L403.789 39.7759L404.365 39.8561L405.275 39.7589L406.1 39.5291L406.973 39.0817L407.253 39.0518L407.371 38.8268L409.327 37.9096L411.121 36.7973L411.979 36.2099L412.284 35.7523L413.157 35.305L413.267 35.0099L414.28 34.5476L414.53 34.2376L415.366 33.4401L418.233 30.4424L418.476 30.0624L418.563 29.5572L418.681 29.3322L418.919 28.2444L418.841 28.1818L418.756 28.0492L418.579 27.7141L418.184 27.3313L417.671 27.1735L417.166 27.0858L416.396 27.1681L415.913 27.2905L415.626 27.2504C413.78 27.8725 411.861 29.1398 410.73 29.8271L409.935 30.337L409.747 30.5696L409.427 30.8871L409.139 30.8469C409.077 30.9244 409.077 30.9244 409.007 30.9319L409.022 31.072L408.617 31.2569L408.492 31.4119L408.351 31.4269L406.901 32.4317L406.198 33.1443L405.76 33.6868L405.082 33.9717L404.817 34.1417C404.231 34.6291 403.723 35.1792 403.146 35.7367L402.84 36.1942L402.02 37.1318L401.582 37.6743L400.886 38.4569L400.011 39.542L399.15 40.7671L398.962 40.9996L398.609 41.6748L398.194 42.4274L397.568 43.2025Z" fill="#D36E6E"/>
</g>
<g style="mix-blend-mode:difference">
<path d="M322.206 123.423C322.253 123.205 322.301 122.988 322.279 122.777L322.271 122.707L322.281 122.14L322.399 121.915L322.302 121.004L322.57 120.197L322.472 119.286L322.508 118.291L322.658 117.708L323.401 116.708L323.464 116.631C323.456 116.561 323.519 116.483 323.511 116.413L323.536 115.985L323.702 115.543C324.175 114.005 324.718 112.46 325.331 110.907L325.397 110.191L325.639 109.811L325.752 108.879L325.98 108.358L326.263 107.691L326.358 107.256L326.516 106.743L327.064 105.905L328.017 104.883L329.961 101.205L332.396 97.4742C332.631 97.0241 332.867 96.574 333.234 96.0389L333.282 95.8214L333.627 95.0762L334.393 94.2862L334.848 93.246L335.599 92.3159L336.247 91.7509L336.56 91.3634L336.865 90.9058L337.185 90.5883C337.991 89.5107 338.914 88.208 339.948 86.6103L340.526 86.0528L340.668 85.4001L341.449 84.7501L341.519 84.7426L342.104 84.2552L343.723 82.17L343.998 81.4323L344.374 80.9672L345.007 80.2622L345.835 79.3947L346.28 78.9221L346.71 78.3096L347.811 77.3421L349.515 75.3895L349.618 75.0244L349.588 74.7443L349.798 74.7218L350.141 74.6144C351.602 73.0418 353 71.5468 354.281 70.2767L354.336 70.1292L354.641 69.6716L354.837 69.5092L355.374 69.2392C355.562 69.0067 355.757 68.8442 355.952 68.6817L359.052 65.8718L359.155 65.5067L359.28 65.3517L359.63 65.3143L360.348 64.7418L361.153 63.6642L362.862 62.4193L362.932 62.4118C364.485 61.0419 366.039 59.6719 367.6 58.372L367.773 57.9994L368.381 57.722L372.166 54.6972L372.603 54.1547L372.673 54.1472L372.931 53.9072L372.964 53.5496L373.159 53.3871L373.727 53.3973L373.992 53.2273L374.625 52.5223L375.015 52.1973L375.615 51.8499L376.426 51.48L377.089 51.0551L377.151 50.9776L378.405 48.7897L378.467 48.7122C378.703 48.2621 378.86 47.7495 379.143 47.0818L380.157 44.6363L380.267 44.3412L380.715 43.2309L381.369 41.3905L381.439 41.383L381.857 39.9927L382.175 38.3297L382.145 38.0495L381.897 37.7218L381.82 37.6593L381.687 37.7443L381.477 37.7667L381.12 37.7341L380.387 38.1665L379.889 38.1488L379.764 38.3038L379.624 38.3188L379.296 38.5662L379.179 38.7913L378.991 39.0238L378.461 39.3637L378.173 39.3236L377.985 39.5561L376.097 41.1036L375.979 41.3286L375.769 41.351L373.553 43.1459L373.35 43.2384L372.952 43.4934L372.484 43.7558L371.049 44.9007L370.283 45.6907L368.209 46.8329L368.084 46.988L367.889 47.1504L367.484 47.3354L367.024 47.6678L366.961 47.7453L366.758 47.8378L364.66 49.4077L364.159 50.0277L363.769 50.3527L363.581 50.5852L363.486 51.0203L363.354 51.1053L362.793 51.1652L362.318 51.3576L361.08 51.7023L360.807 51.8022C359.397 52.5195 358.103 53.0117 357.046 53.0539C356.765 53.0838 356.618 53.0287 356.595 52.8186L356.2 52.4358L355.86 51.9055L355.816 51.4854L355.918 51.1203L355.954 50.1249L356.141 49.8924L356.196 49.7448L356.494 49.2173C356.487 49.1472 356.549 49.0697 356.612 48.9922C356.737 48.8372 356.869 48.7522 356.917 48.5346L356.987 48.5272L357.708 47.317L358.091 46.922L359.349 45.4419L359.529 45.1393L359.794 44.9693L360.427 44.2643L360.49 44.1868L360.935 43.7143L360.99 43.5667L361.568 43.0092L362.171 42.0241L362.554 41.6291L362.764 41.6066L363.217 41.2041L363.537 40.8866L364.108 40.2591L364.178 40.2516L364.45 40.1517L364.583 40.0667L364.7 39.8416L364.911 39.8192C365.754 39.0917 365.816 39.0142 366.659 38.2868L366.972 37.8992L368.408 36.7543L368.61 36.6618L368.868 36.4218L369.586 35.8494L369.781 35.6869L371.287 34.5345L371.81 34.1245L372.248 33.582L372.708 33.2495L373.106 32.9945L374.351 32.7199C376.278 31.5226 378.156 30.5429 378.801 30.6156C379.089 30.6558 379.657 30.666 379.959 30.8461C380.262 31.0263 380.462 31.5716 380.764 31.7517C380.989 31.8694 381.199 33.8302 381.081 34.0552L380.963 34.2802L380.946 34.7779L380.74 35.5081L380.575 35.9507L381.035 35.6183L382.811 35.0036L383.777 34.7589L384.337 34.6991L384.772 34.7942L385.005 34.9819L385.057 35.4721L385.022 36.4675L384.614 37.2901L384.378 37.7402L384.066 38.1277L383.515 39.6031L382.762 41.1709L381.62 44.4092L381.61 44.9769L381.419 45.8472L380.879 46.7548L380.641 47.8426L380.406 48.2927L380.123 48.9604L380.06 49.0379L384.053 46.6284L384.701 46.0634L385.176 45.871L386.532 45.3012L388.535 44.1665C389.268 43.7341 390.009 43.3717 390.819 43.0019L391.209 42.6769L391.559 42.6395L391.677 42.4145L393.46 41.8699L393.6 41.8549C393.67 41.8474 393.74 41.84 393.873 41.755L394.006 41.67L394.013 41.74L394.831 41.4402L395.026 41.2777L395.104 41.3402C395.166 41.2627 395.236 41.2553 395.376 41.2403L395.439 41.1628L395.641 41.0703L396.109 40.8079L396.437 40.5604L396.99 40.4306L397.738 40.1382L398.92 39.9411L400.004 39.4713C400.144 39.4563 400.221 39.5188 400.299 39.5814L400.556 39.3414L400.766 39.319L401.069 39.4991L401.184 39.9118L400.996 40.1443L400.794 40.2368L400.373 40.2817L400.046 40.5292L399.968 40.4666L399.703 40.6366L398.815 40.9439L398.535 40.9738L397.632 41.141L395.248 42.033L394.726 42.443L394.033 42.5878L393.417 42.7952L391.984 43.3024L391.509 43.4948L389.918 44.5146L389.535 44.9096L388.102 45.4168L387.244 46.0042L385.888 46.574C384.555 47.3538 383.697 47.9412 382.574 48.6986L382.051 49.1086L381.193 49.696L380.67 50.106L380.132 50.3759L380.062 50.3834L378.612 51.3882L378.119 52.0783L378.064 52.2258L377.758 52.6834L377.638 53.5462L377.73 53.7488L377.528 53.8413L377.075 54.2437L376.88 54.4062L376.582 54.9338L376.417 55.3764L376.229 55.6089L376.159 55.6164L375.453 56.9667L372.06 62.9952L372.068 63.0653L371.292 64.423L371.159 64.508L370.799 65.1131L370.821 65.3232L369.498 67.5185L369.428 67.526C369.082 68.2711 368.652 68.8837 368.236 69.6363L367.641 70.6915L366.387 72.8794L363.732 77.2001L363.685 77.4176L363.615 77.4251L362.228 79.698L362.048 80.0005L361.287 81.4983L358.077 86.5866L356.635 89.007L352.697 95.2354C351.428 97.2832 350.082 99.2685 348.743 101.324L348.641 101.689L345.853 106.094C345.019 108.237 343.511 110.028 342.297 111.928C341.466 113.433 340.115 114.711 339.222 116.293L338.011 117.556L337.651 118.161L336.938 119.441C335.849 121.187 334.288 122.487 333.425 124.349L333.097 124.597L332.564 125.575L331.866 126.995C331.796 127.002 331.803 127.072 331.733 127.08C330.445 128.28 329.304 129.535 327.668 130.135L326.375 130.627L324.424 130.268L324.254 130.003C323.579 129.65 323.007 128.932 322.552 127.989C322.544 127.919 322.529 127.779 322.429 127.507C322.215 126.821 322.14 126.121 322.135 125.413L321.956 123.733L322.206 123.423ZM368.365 66.8604L370.229 63.7574L370.277 63.5398L371.24 61.9496L371.31 61.9421L371.303 61.8721L371.586 61.2044L372.714 59.1715L373.295 57.9763L375.167 54.9433L375.897 53.1654L375.765 53.2504C374.704 53.9303 373.721 54.6727 372.738 55.4152L372.628 55.7102L372.098 56.0502L371.855 56.4302L370.452 57.2175L367.712 59.4224L367.657 59.5699L367.587 59.5774L367.322 59.7474L367.337 59.8874L367.009 60.1349L366.892 60.36L366.612 60.3899L364.598 62.0923L364.167 62.7049L363.685 62.8273L360.522 65.7147L360.022 66.3348L359.882 66.3497C356.992 69.1373 354.18 71.9873 351.516 74.8925L351.328 75.125L350.843 75.8851L350.055 76.4651C347.906 78.8902 345.819 81.2378 343.888 83.7106L343.762 83.8656L343.347 84.6182L342.824 85.0282L341.698 86.4233L341.658 86.7109L341.29 87.246L341.165 87.401L340.305 88.6261L339.867 89.1687L339.539 89.4162L338.528 91.224L336.564 94.0543L334.334 97.0547L333.191 98.9475C332.33 100.173 331.594 101.243 331.061 102.22L330.823 103.308L329.995 104.176L329.102 105.759C329.109 105.829 329.117 105.899 329.054 105.976C328.411 107.249 328.041 108.422 327.545 109.749C326.286 113.213 325.019 116.606 323.985 120.187L323.993 120.257L323.957 121.252L323.892 121.968L323.587 122.425L323.624 122.775L323.474 123.358C323.489 123.498 323.434 123.646 323.449 123.786L323.471 123.996C323.458 125.201 323.515 126.399 323.76 127.365C323.845 127.497 323.86 127.637 323.937 127.7L324.723 127.758C325.743 127.365 326.601 126.778 327.452 126.12L328.553 125.153L329.303 124.223L331.074 122.901C332.808 121.228 334.704 119.751 336.286 117.315C337.93 114.802 340.411 112.838 345.106 104.404L345.051 104.551C346.217 102.868 347.305 101.123 348.401 99.4479L350.876 95.4298C351.644 94.0021 352.623 92.5519 353.553 91.3192C354.407 90.0241 355.253 88.6588 356.028 87.3011L356.271 86.9211L357.367 85.2458L359.456 82.2604L360.169 80.9802L360.46 80.3826L361.298 78.9474L362.059 77.4496L362.427 76.9145L362.544 76.6895L362.927 76.2945L362.99 76.2169L363.147 75.7043L363.287 75.6894L363.35 75.6118L363.335 75.4718L364.111 74.1141L364.298 73.8815C364.949 72.6788 365.6 71.4761 366.32 70.2659L366.611 69.6683L367.034 68.9857L367.254 68.3955L367.872 67.5504L368.365 66.8604ZM365.221 47.3646L367.054 45.9647L367.124 45.9572L368.225 44.9898L368.468 44.6097L368.74 44.5098L368.81 44.5023L368.858 44.2847L369.186 44.0372L369.303 43.8122L369.653 43.7748L371.605 42.1499L371.652 41.9323L371.582 41.9398L371.645 41.8623L371.785 41.8473L371.917 41.7624L372.043 41.6073L372.223 41.3048L372.956 40.8724L373.714 40.0123L374.104 39.6874L374.384 39.6574L374.914 39.3175L375.57 38.8225L375.492 38.76L375.54 38.5424L375.742 38.45L375.82 38.5125L375.96 38.4976L375.842 38.7226L375.968 38.5676L376.248 38.5377L376.435 38.3051L376.505 38.2977L376.708 38.2052L377.573 37.6878L377.581 37.7578L377.643 37.6803L377.318 37.2901L377.251 36.6598L377.597 35.9147L377.777 35.6121L378.535 34.7521L379.083 33.9145L379.34 33.6745L379.373 33.3168L379.803 32.7043L379.814 32.1366L379.636 31.8014L379.411 31.6837C378.501 31.781 376.88 32.5207 375.617 33.293L375.156 33.6255L374.634 34.0355L373.853 34.6854L373.338 35.1654L372.87 35.4279L371.99 35.8052L371.061 36.4001C370.726 36.5775 370.469 36.8175 370.211 37.0575C369.165 37.8775 368.057 38.7749 366.956 39.7424L366.839 39.9674L366.323 40.4474L365.668 40.9424L365.223 41.4149L364.052 42.3899L362.701 43.6674L361.365 45.0849L360.169 46.4875L360.114 46.6351L359.996 46.8601L359.706 47.4577L359.448 47.6977L358.227 49.528L357.927 50.6933L357.802 50.8483L357.629 51.2209L357.519 51.516L357.471 51.7335L357.571 52.0062L357.719 52.0612C357.999 52.0313 358.271 51.9314 358.614 51.8239C359.027 51.709 359.494 51.4466 359.9 51.2617L360.087 51.0292L360.64 50.8993L360.765 50.7443L361.546 50.0943L362.216 49.7394C362.739 49.3295 363.269 48.9895 363.722 48.587L363.98 48.347L364.097 48.122L364.44 48.0146L365.033 47.5971L365.221 47.3646Z" fill="#D36E6E"/>
</g>
<g style="mix-blend-mode:difference">
<path d="M342.696 50.5508L342.876 50.2483L342.931 50.1007L343.048 49.8757L344.144 48.2005L344.365 47.6103L344.552 47.3778L344.607 47.2303L344.803 47.0678L345.546 46.0677L345.788 45.6876L345.773 45.5475L345.851 45.6101L345.986 44.8874L345.909 44.8248L345.551 44.7922L344.921 44.8595L344.103 45.1593L342.154 46.1465L341.679 46.3389L341.336 46.4463L339.44 47.9237L339.37 47.9312L338.847 48.3412L338.38 48.6036L337.919 48.9361L336.391 49.8784L334.878 50.9608L334.277 51.3082L333.287 51.9806L332.951 52.158L332.163 52.738L331.758 52.9229L330.58 53.8278L330.19 54.1528L329.807 54.5478L329.199 54.8252L328.599 55.1726L327.015 56.2625L326.89 56.4175L326.235 56.9125L326.095 56.9274L326.102 56.9974L325.472 57.0647L324.669 57.5046L324.109 57.5645C323.914 57.7269 323.641 57.8269 323.438 57.9194L323.181 58.1594L321.832 58.7991L321.56 58.8991L320.554 59.4314L320.422 59.5164L320.219 59.6089L320.009 59.6313L319.581 59.6061L319.511 59.6136C318.406 59.8733 317.473 59.7605 317.111 59.0201C316.733 58.1396 316.901 57.0593 317.272 55.8865L317.462 55.0162L317.665 54.9238L317.705 54.6362L317.94 54.1861L318.05 53.891L318.183 53.806L318.19 53.876L318.293 53.511L318.708 52.7583L319.419 52.1158L319.544 51.9608L320.007 50.9906L320.25 50.6106L320.765 50.1306L321.531 49.3405L324.383 46.2029L324.375 46.1328L324.445 46.1254L325.273 45.2578L325.461 45.0253L326.547 43.9178L327.07 43.5078L328.748 41.9828L328.811 41.9053L329.554 40.9052L329.867 40.5177L330.095 39.9976L330.227 39.9126L330.725 39.9303L330.92 39.7678L331.395 39.5754L331.668 39.4754L332.01 39.368L332.268 39.128L332.253 38.9879L332.791 38.718L334.912 37.3583L335.295 36.9633L335.56 36.7933L336.105 36.5934L336.253 36.6485L336.386 36.5635L336.993 36.2861L337.203 36.2637L337.531 36.0162L338.014 35.8938L338.419 35.7089L338.894 35.5165L339.167 35.4165L339.89 35.5518L340.302 35.4369L340.723 35.3921L341.01 35.4322L341.15 35.4172L341.158 35.4872L341.438 35.4573L341.663 35.575L341.748 35.7075L342.035 35.7476L342.213 36.0828L342.28 36.7131L342.085 36.8756C342.037 37.0931 341.842 37.2556 341.404 37.7982C341.209 37.9607 340.992 37.9131 340.914 37.8505L340.166 38.1429L339.684 38.2653L338.423 38.3999L337.288 38.3795L337.295 38.4495L337.015 38.4794L337.008 38.4094L336.868 38.4243L336.385 38.5467L335.895 38.5991L334.959 39.1239L333.891 39.7338L332.355 40.6061L331.287 41.2159C330.889 41.4709 330.569 41.7884 330.179 42.1134C330.116 42.1909 330.116 42.1909 330.109 42.1209L329.531 42.6784L329.468 42.7559L329.336 42.8409L326.431 45.4883L326.181 45.7983L325.626 46.5659L325.188 47.1085L324.727 47.4409L324.135 47.8584L323.947 48.0909L323.392 48.8585L323.266 49.0135L323.149 49.2386L322.421 50.3787L322.226 50.5412L322.1 50.6962L321.905 50.8587L321.795 51.1538L321.615 51.4563L321.475 51.4713L321.372 51.8364L321.13 52.2165L321.019 52.5115L320.707 52.8991L320.401 53.3566L319.791 54.2718L319.806 54.4118L319.921 54.8245L319.866 54.972L319.881 55.1121L319.755 55.2671L319.498 55.5071L319.318 55.8097L319.012 56.2672L318.777 56.7173L318.792 56.8574L318.737 57.0049L318.782 57.4251L318.944 57.6202L319.192 57.9479L319.417 58.0655L320.828 57.3482L321.443 57.1409L322.386 56.686L322.456 56.6786L322.799 56.5711C323.672 56.1238 324.537 55.6064 325.403 55.089L325.73 54.8415L326.191 54.5091L326.511 54.1916L327.071 54.1317C327.804 53.6993 328.607 53.2594 329.332 52.757L329.653 52.4395L330.12 52.1771L330.113 52.107L330.245 52.022L330.433 51.7895L330.706 51.6896L331.704 51.0872L332.234 50.7473L332.694 50.4148L334.48 49.2325L334.933 48.83L336.797 47.7102L337.202 47.5253L338.395 46.7604L338.973 46.2029L340.166 45.4381L340.487 45.1206L341.009 44.7106L341.33 44.3931L342.11 43.7431L342.961 43.0857L345.079 42.3636L345.92 42.2739L346.565 42.3466L347.085 42.5744L347.387 42.7546C347.675 42.7947 347.83 42.9198 348 43.185L348.008 43.255L348.155 43.3101L348.185 43.5902L348.137 43.8077L348.277 43.7928L348.222 43.9403L348.145 43.8778L348.02 44.0328L347.902 44.2578L347.792 44.5529L347.409 44.9479C347.354 45.0954 347.229 45.2504 347.104 45.4055L346.696 46.2281L346.313 46.6231L346.111 46.7156L345.375 47.7857L345.25 47.9407L345.257 48.0108L345.125 48.0958L344.764 48.7009L344.647 48.9259L344.537 49.221L344.059 50.0511C343.934 50.2061 343.886 50.4237 343.831 50.5712L343.681 51.1539L343.618 51.2314C343.508 51.5265 343.468 51.8141 343.553 51.9466C343.575 52.1567 343.49 52.0241 343.778 52.0643C343.848 52.0568 343.925 52.1193 343.995 52.1118L344.338 52.0044L344.828 51.9521L344.961 51.8671L345.451 51.8147L345.794 51.7073L345.941 51.7624C346.424 51.64 346.829 51.4551 347.445 51.2477L347.99 51.0478L348.458 50.7854L348.878 50.7405L351.254 49.7785L351.449 49.616L352.197 49.3237L352.204 49.3937L353.085 49.0164L353.615 48.6764L353.888 48.5765L354.146 48.3365L356.389 47.4594L356.374 47.3194L356.599 47.437L357.207 47.1596L357.395 46.9271L360.651 45.5877L361.002 45.5503L362.692 44.8031C362.762 44.7957 362.832 44.7882 362.91 44.8507L363.05 44.8358L363.172 45.3185L362.915 45.5585L362.354 45.6183L361.194 46.0256L360.398 46.5355L360.118 46.5654L359.028 46.9652L358.49 47.2351L356.962 48.1774L355.823 48.7947L354.538 49.357L353.057 50.0817L352.792 50.2517L352.121 50.6066L351.794 50.8541L351.256 51.124L351.186 51.1315L350.718 51.3939L350.195 51.8039L349.993 51.8963L349.868 52.0514L348.114 52.8761L348.129 53.0161L348.052 52.9536L347.514 53.2235L347.459 53.371L346.313 53.9183L345.3 54.3806L344.98 54.6981L344.917 54.7757L344.832 54.6431L344.63 54.7355L344.505 54.8905L344.357 54.8355L344.295 54.913L343.819 55.1054L343.049 55.1877L342.902 55.1326L342.411 55.1849L342.046 55.0823L341.751 54.9721L341.511 54.7144L341.544 54.3568L341.444 54.0842C341.344 53.8116 341.321 53.6015 341.417 53.1663L341.574 52.6537L341.615 52.3661L342.037 51.6835L342.21 51.3109L342.696 50.5508Z" fill="#D36E6E"/>
</g>
<g style="mix-blend-mode:difference">
<path d="M318.387 17.944L319.36 17.7693L320.481 17.6496L320.794 17.2621L322.408 14.4691L322.595 14.2366L323.316 13.0264L323.629 12.6389L324.052 11.9563L324.247 11.7938L324.905 10.6611L324.89 10.521L325.14 10.211L325.25 9.91592L325.368 9.69088L325.173 9.85337L325.103 9.86085L325.088 9.72079L325.205 9.49575L325.478 9.39581L325.5 9.60589L325.743 9.22584L326.056 8.83831L326.354 8.31072L326.401 8.09315L326.637 7.64307L327.55 6.90811L328.043 6.21803L328.3 5.97803L328.503 5.88557L328.558 5.73803L328.55 5.668L328.613 5.59049L328.62 5.66052L328.943 4.70529L329.381 4.16273L330.354 3.98801L331.019 4.90858L331.194 5.8815L330.281 6.61645L329.648 7.32149L329.24 8.14415L328.942 8.67175L328.917 9.09939L326.9 11.4396L326.252 12.0045L323.773 15.3149L322.434 17.3702L323.267 17.2104L323.525 16.9704L323.735 16.948L323.967 17.1356L325.703 16.8086L325.688 16.6686L330.38 16.1675L332.388 15.7405L334.489 15.5162L334.722 15.7038L335.282 15.644L335.304 15.8541L337.14 15.7997L337.755 15.5924L338.758 15.6977L339.934 15.4305L340.424 15.3782L341.062 15.3809L341.924 15.5013L342.422 15.5189L342.99 15.5291L344.793 15.8324L344.933 15.8174L345.508 15.8976L346.418 15.8004L347.009 16.0207L348.572 16.0663L348.859 16.1064L349.317 16.4117C349.604 16.4518 349.892 16.4919 350.187 16.602L350.25 16.5245L350.327 16.5871L352.223 17.0929L352.355 17.0079L352.44 17.1405L352.51 17.133L352.518 17.2031L353.621 17.5811L353.761 17.5661L353.986 17.6837C354.063 17.7463 354.141 17.8088 354.281 17.7939L354.638 17.8265L355.524 18.157L355.771 18.4847L356.454 18.9076L356.734 18.8776L357.044 19.1278L357.129 19.2604C357.579 19.4957 357.966 19.8084 358.346 20.0511C358.354 20.1212 358.424 20.1137 358.431 20.1837L358.649 20.2313L359.214 20.8792L359.221 20.9493L359.376 21.0744L359.812 21.1696L359.967 21.2947L359.956 21.8624L360.219 22.3301L360.704 23.5532L360.833 24.106C360.841 24.176 360.918 24.2386 360.996 24.3011C361.018 24.5112 361.033 24.6513 360.971 24.7288L361.048 24.7913L360.883 25.2339L360.488 24.8511L360.396 24.6485C360.311 24.516 360.296 24.3759 360.281 24.2358L359.686 23.3078L359.061 22.0996L358.891 21.8345L358.814 21.7719L358.326 21.1865L357.776 20.6787C357.698 20.6161 357.698 20.6161 357.691 20.5461L356.846 19.9281L356.551 19.8179L355.643 19.2774L355.566 19.2149C355.418 19.1598 355.201 19.1122 355.046 18.9871L354.828 18.9395L354.68 18.8844L354.083 18.5941L353.5 18.4439L353.065 18.3487L352.903 18.1535L352.825 18.091L352.685 18.106L352.46 17.9883L351.295 17.6878L349.949 17.6899L349.444 17.6021L348.559 17.2717L347.478 17.1038C346.328 16.9433 345.123 16.9304 343.91 16.8474L343.777 16.9324L342.564 16.8495L341.997 16.8393L341.296 16.9141L340.813 17.0364L339.531 16.961L338.893 16.9582L338.48 17.0731L338.263 17.0256L337.407 16.9752C336.84 16.965 336.209 17.0323 335.719 17.0847L335.446 17.1846L335.229 17.137C334.809 17.1819 334.451 17.1493 334.101 17.1867C331.86 17.426 329.619 17.6653 327.386 17.9746L326.903 18.097L326.435 18.3594L326.458 18.5695L326.178 18.5994L325.452 19.1019L325.172 19.1318L325.194 19.3419L324.984 19.3643L323.979 19.8967L320.547 20.2631C320.187 20.8682 319.749 21.4107 319.451 21.9383L319.286 22.3809L318.903 22.776C318.536 23.311 318.168 23.8461 317.87 24.3737L317.822 24.5912L316.962 25.8164L316.083 27.5392L315.535 28.3768L314.487 29.8345L314.362 29.9895L312.442 33.2401L312.02 33.9227L310.806 35.8229L310.641 36.2656L310.328 36.6531L309.975 37.3282L309.575 38.2209L309.332 38.601L308.902 39.2135L308.401 39.8336L308.041 40.4387L307.978 40.5162L307.798 40.8187L307.64 41.3314L306.747 42.9142L306.557 43.7844L303.751 48.6877L302.766 50.0679L301.459 51.7656L301.147 52.1531L300.529 52.9982L300.183 53.7434L300.096 54.2485L299.5 55.3037L299.074 56.624L298.659 57.3767L297.813 58.7419L297.55 60.2574L297.595 60.6775L297.562 61.0351L297.099 62.0053L297.126 62.9232L296.929 63.7234L296.826 64.0885L296.996 64.3537L297.361 64.4563L297.774 64.3414L299.004 63.9267L299.41 63.7418L299.527 63.5167L300.688 63.1095L301.288 62.7621L301.826 62.4922L302.216 62.1672L302.769 62.0373L303.377 61.7599L303.704 61.5124L303.985 61.4825L304.187 61.3901L305.911 60.2853L307.181 59.5829L307.174 59.5129L307.314 59.498L307.487 59.1254L307.697 59.1029L308.102 58.918L308.312 58.8956L308.5 58.6631L308.71 58.6406L310.643 57.5134L311.299 57.0184L311.571 56.9185L314.698 55.0264L315.354 54.5314L315.821 54.269L316.624 53.8291L317.685 53.1492L317.755 53.1417L318.06 52.6842L318.786 52.1817L319.596 51.8119L320.539 51.357L322.325 50.1747L322.318 50.1047L322.388 50.0972L322.715 49.8497L322.973 49.6097L323.894 48.9448L324.104 48.9224L324.089 48.7823L324.502 48.6674L324.822 48.3499L325.009 48.1174L325.367 48.15L325.544 48.4852L325.629 48.6178L325.582 48.8354L325.394 49.0679L324.841 49.1977L324.654 49.4303L322.898 50.8927L322.367 51.2326L321.649 51.8051L320.659 52.4775L319.926 52.9099L319.248 53.1948L318.32 53.7897L317.86 54.1221L317.672 54.3547L316.947 54.8571L316.096 55.5145L314.958 56.1319L314.623 56.3093L314.052 56.9369L313.445 57.2142L312.774 57.5691L312.501 57.6691L312.119 58.0641L311.791 58.3116L311.448 58.419L310.87 58.9765L310.675 59.139L310.123 59.2688L309.625 59.2512L309.227 59.5061L307.971 60.3485L307.309 60.7734L306.373 61.2983L306.163 61.3207L305.367 61.8306L304.609 62.6907L303.954 63.1857L303.611 63.2931L303.541 63.3006L303.626 63.4331L303.579 63.6507L303.306 63.7506L302.886 63.7955L302.996 63.5004L302.723 63.6004L302.138 64.0879L301.95 64.3204L300.064 65.2301L297.556 66.2771L296.638 66.3043L296.435 66.3967L295.93 66.309L295.642 66.2689L295.13 66.1112L294.875 65.7134L294.667 65.0981C294.567 64.8255 294.648 64.2503 294.618 63.9702C294.628 63.4025 294.763 62.6798 295.024 61.802L295.009 61.662L295.096 61.1568L295.262 60.7142L295.387 60.5592L295.349 60.2091L295.467 59.984L295.772 59.5265L295.89 59.3014L296.25 58.6963L296.816 57.361L296.933 57.136L297.014 56.5608L297.109 56.1257L297.289 55.8231L297.657 55.2881L298.01 54.6129L298.167 54.1003L298.403 53.6502L298.723 53.3327L298.778 53.1852L299.223 52.7127L299.794 52.0851L300.092 51.5575L300.132 51.2699L300.234 50.9048L300.695 50.5724L301.47 49.2146L301.518 48.9971L301.706 48.7646C301.948 48.3845 302.184 47.9344 302.496 47.5469L302.849 46.8718L303.327 46.0416L303.68 45.3665L304.04 44.7614L304.235 44.5989L304.353 44.3739L304.596 43.9938L304.658 43.9163C304.776 43.6913 304.971 43.5288 305.019 43.3112L305.074 43.1637L305.254 42.8611L305.379 42.7061L305.559 42.4036L305.544 42.2635L305.794 41.9535L305.757 41.6033L306.72 40.0131L306.986 39.8431C306.986 39.8431 307.056 39.8356 307.048 39.7656L307.081 39.408L307.746 38.3453L307.942 38.1828L308.162 37.5927L308.67 37.0427L310.864 33.0544L311.185 32.7369L312.148 31.1467L312.273 30.9917C312.523 30.6817 312.759 30.2316 312.994 29.7815L313.056 29.704L313.174 29.4789L313.244 29.4715L314.207 27.8812L314.17 27.5311L315.156 26.1509L315.351 25.9884L315.656 25.5308L315.696 25.2433L317.075 22.9004L317.473 22.6454L317.911 22.1029L317.903 22.0328L318.154 21.7228L318.139 21.5828L318.319 21.2802L318.521 21.1877L318.639 20.9627L318.632 20.8927L318.742 20.5976L318.789 20.38L319.33 19.4724L319.19 19.4873L318.792 19.7423L317.406 20.0319L316.581 20.2617L314.495 20.6261L312.354 21.1381L311.801 21.2679L311.179 21.4053L309.388 21.8798L308.842 22.0797L305.383 23.5115L304.79 23.929L304.525 24.099L303.7 24.3288L302.712 24.3634L301.549 25.4084L301.011 25.6783L299.64 26.108L297.992 25.9299L297.365 25.3594L297.22 24.6666L297.308 24.1615L297.378 24.154C297.363 24.0139 297.418 23.8664 297.543 23.7114L297.683 23.6964L297.598 23.5639L297.583 23.4238L297.753 23.689C298.883 23.0016 300.239 22.4319 301.882 21.9022L302.951 21.2924L304.064 21.1027L304.499 21.1979L307.332 20.5411L307.465 20.4561L307.535 20.4487L309.403 20.0367L309.466 19.9591L309.606 19.9442L310.852 19.6695L311.069 19.7171L311.489 19.6722L311.552 19.5947L311.902 19.5573L313.615 19.0202L313.748 18.9353L314.083 18.7578L314.503 18.7129L315.679 18.4457L315.881 18.3533L316.379 18.371C316.722 18.2635 317.064 18.1561 317.415 18.1187L317.477 18.0412L317.757 18.0113L318.387 17.944Z" fill="#D36E6E"/>
</g>
<g style="mix-blend-mode:difference">
<path d="M278.115 46.6805L278.038 46.6179L277.448 46.3976L277.09 46.365L276.415 46.0121L276.33 45.8796C276.112 45.832 275.895 45.7844 275.74 45.6593L274.342 45.1711L273.977 45.0684L273.549 45.0433L273.044 44.9556L272.819 44.838L272.671 44.7829L272.291 44.5402L271.399 44.1397L269.418 43.5013C267.958 43.0906 268.013 42.9431 266.397 42.4073L265.962 42.3121L265.037 42.2693L263.429 41.8036L263.009 41.8484L262.341 41.5656L262.164 41.2304L261.061 40.8524L260.206 40.8021L258.428 40.0712L257.185 39.7081L255.492 39.1098L255.422 39.1173L253.394 38.6965L251.491 38.1206L250.831 37.9078L249.913 37.935L249.68 37.7473L249.613 37.1171L249.303 36.8669L248.178 36.2788L247.588 36.0585L246.463 35.4704L246.175 35.4302L245.81 35.3276L245.43 35.0849L245.182 34.7572L244.747 34.662L244.592 34.5369L244.452 34.5518L244.25 34.6443L244.094 34.5192L243.892 34.6117L243.822 34.6191L243.379 34.4539L243.387 34.5239L243.309 34.4614L243.372 34.3839L243.209 34.1888L242.992 34.1412L242.984 34.0711L242.519 33.6958L242.187 33.2356L242.032 33.1105L241.644 32.7977L241.327 32.4775L241.142 32.0723L241.112 31.7922L241.027 31.6596L240.787 31.4019L240.694 31.1993L240.547 31.1442L240.329 31.0966L240.097 30.909L239.949 30.8539L239.702 30.5262L239.639 30.6037L239.632 30.5337L239.694 30.4562L239.672 30.2461L239.509 30.051L239.494 29.9109L239.302 29.4357L239.212 28.5953L239.267 28.4478L239.275 28.5178L239.292 28.0201L239.215 27.9576L239.435 27.3674L239.693 27.1274L239.91 27.175C239.881 26.8949 239.921 26.6073 239.961 26.3197L239.908 25.8295L239.838 25.837L239.831 25.767L239.971 25.752L240.019 25.5345L239.996 25.3244L240.059 25.2469L240.051 25.1768L240.139 24.6717L240.374 24.2216L240.484 23.9265L240.617 23.8416L240.624 23.9116L240.86 23.4615L240.852 23.3915L241.11 23.1515L241.375 22.9815L241.445 22.974L241.61 22.5314L242.408 21.3838L243.462 20.6339L243.649 20.4013L245.303 19.304L245.841 19.0341C245.833 18.9641 245.903 18.9566 245.903 18.9566L246.286 18.5616L247.939 17.4642L248.392 17.0618L250.186 15.9495L251.191 15.4171L253.32 14.1274L254.093 13.4074L254.491 13.1524L254.789 12.6248L254.999 12.6024L255.434 12.6976L255.636 12.6051L256.112 12.4127L256.384 12.3128L256.804 12.2679L258.886 11.1957L259.081 11.0332L259.408 10.7858L259.759 10.7484L260.539 10.0984L261.589 9.98622L262.065 9.79382L262.352 9.83393L263.715 9.33422L264.588 8.88686L265.414 8.65706L266.457 8.47485L266.792 8.2974L267.08 8.33752L267.695 8.13016L267.897 8.03769L268.793 7.80042L269.238 7.3279L269.596 7.36053L269.721 7.20552L270.344 7.06818L270.259 6.93561L270.384 6.78059L270.414 7.0607L270.771 7.09334L270.966 6.93085L271.184 6.97844L271.262 7.04099L271.892 6.97369L272.397 7.0614L272.887 7.00904L273.61 7.14435C274.178 7.15454 274.675 7.17223 275.188 7.32997L275.32 7.24498L275.771 7.48022L275.981 7.45778L276.043 7.38028L276.121 7.44282L276.058 7.52034L276.283 7.63796L276.446 7.83308L276.391 7.98062C276.623 8.16827 276.863 8.42594 277.033 8.6911C277.118 8.82368 277.126 8.89371 277.07 9.04124L276.843 9.56136L276.913 9.55388L277.448 9.9217L277.908 9.58924L277.788 10.452L277.327 10.7845L277.41 11.5548L277.359 12.4101L277.389 12.6902L276.859 13.0301L276.354 12.9424L275.749 12.5821L275.029 11.8091L274.721 10.9211L274.186 10.5533L274.074 9.50288L273.702 9.33018L273.499 9.42264L272.346 9.89992L271.738 10.1773L271.606 10.2623L271.318 10.2222L271.1 10.1746L270.783 9.85436L270.348 9.75918L270.123 9.64155L269.477 9.5688L268.887 9.34852L268.747 9.36348L268.6 9.3084L268.047 9.43826L267.797 9.74829L267.289 10.2983L266.471 10.5981L266.091 10.3554L265.726 10.2528L264.363 10.7525L264.16 10.8449L263.98 11.1475L263.762 11.0999L263.357 11.2848L263.07 11.2447L262.874 11.4072L262.454 11.4521L261.817 11.4493L261.201 11.6567L260.991 11.6791L260.704 11.639L260.143 11.6989C258.18 12.546 256.301 13.5257 254.43 14.5754L254.298 14.6604L253.44 15.2478L253.002 15.7904L252.457 15.9903L251.436 16.3826L247.193 19.1021L246.35 19.8296L245.007 21.1771L245.014 21.2471L244.944 21.2546L244.569 21.7196L244.437 21.8046L242.593 23.7722L242.39 23.8647L242.483 24.0673L242.572 24.9076L242.687 25.3203L242.632 25.4678L242.647 25.6079L242.522 25.7629L242.264 26.0029L242.084 26.3055L241.779 26.763L241.544 27.2131L241.559 27.3532L241.503 27.5007L241.548 27.9209L241.626 27.9834L241.633 28.0535L241.711 28.116L241.958 28.4437L242.026 29.074L241.838 29.3065L242.281 29.4717L242.621 30.002L243.053 30.7349L243.743 31.2279L243.983 31.4855L244.16 31.8207L244.81 32.6012L245.811 33.3444L246.331 33.5721L246.858 33.8699L247.021 34.065L248.441 34.7633L249.101 34.9761L249.256 35.1012L250.931 36.1972L251.592 36.41L252.237 36.4827L252.764 36.7805L253.214 37.0158L254.402 37.5264C254.472 37.5189 254.542 37.5114 254.62 37.574L254.977 37.6066L255.933 37.9296L256.298 38.0322L256.445 38.0873C256.74 38.1974 256.965 38.3151 257.253 38.3552L260.436 39.6442L260.654 39.6918L261.602 39.9448L261.827 40.0624L262.199 40.2351L262.627 40.2602L263.387 40.7457C264.272 41.0761 265.15 41.3365 266.028 41.5969L266.68 41.7397L266.968 41.7798L267.03 41.7023L267.1 41.6948L267.208 42.0375C267.425 42.0851 267.488 42.0076 267.713 42.1252L268.001 42.1653L268.693 42.0205L268.981 42.0606L269.781 42.2584L270.394 42.6888L271.349 43.0118L273.617 43.6903L273.967 43.6529L274.557 43.8732L274.565 43.9432L274.783 43.9908L274.923 43.9759L275.218 44.086L275.28 44.0085L275.428 44.0636L275.738 44.3138L275.823 44.4463L275.9 44.5089L276.048 44.564L276.055 44.634L278.198 45.4675L278.851 45.6103L278.943 45.8129C279.013 45.8055 279.083 45.798 279.091 45.868L279.666 45.9482L279.744 46.0108L280.241 46.0285L280.699 46.3337L281.127 46.3589L281.632 46.4466L281.934 46.6268L282.484 47.1347L282.787 47.3148L283.097 47.565L283.167 47.5575L283.912 47.9029C284.735 48.3109 285.495 48.7963 286.262 49.3518L286.332 49.3443L286.635 49.5245L287.118 49.4021L287.273 49.5272L287.473 50.0725L287.72 50.4002L288.54 51.4458L289.297 52.569L289.312 52.7091C289.93 53.8472 290.274 55.0853 290.269 56.3607L290.346 56.4233L290.369 56.6334L290.531 56.8285L290.671 56.8135L290.679 56.8836L290.539 56.8985L290.606 57.5288L289.856 58.4589C289.478 59.5616 288.804 60.5543 287.789 61.6543C286.961 62.5219 286.055 63.3269 285.149 64.1318L284.454 64.9144L283.853 65.2618L283.651 65.3543C282.27 66.3517 280.882 67.279 279.493 68.2064L279.516 68.4165L279.383 68.5014L279.306 68.4389L279.291 68.2988L277.029 69.6736L276.334 70.4561L275.804 70.796L275.101 71.5086L274.633 71.771L274.442 72.6413L274.177 72.8112L272.917 72.9458L271.896 73.3381L269.162 74.2675L266.469 74.9093L266.399 74.9168L263.22 76.3187L261.256 77.1658L261.053 77.2583L260.258 77.7682L260.133 77.9232L259.385 78.2156L259.112 78.3155L258.917 78.478L257.702 79.0328L257.491 79.0552L257.219 79.1552L257.009 79.1776L256.478 79.5176L256.331 79.4625L256.003 79.71L255.598 79.8949L255.403 80.0574L254.928 80.2498L254.382 80.4497L252.629 81.2744L252.239 81.5993L252.021 81.5518L251.874 81.4967L251.166 81.5014L249.71 81.7985L244.998 83.435L238.842 86.1464L234.97 87.6931L232.154 87.8522L231.501 87.7094L229.135 88.1037C228.723 88.2186 228.31 88.3335 227.89 88.3784L227.897 88.4484L226.862 88.7007L225.056 89.0352L224.916 89.0501C222.487 89.5219 220.051 89.9238 217.608 90.2555L217.343 90.4255L217.125 90.3779L216.845 90.4078L216.65 90.5703L213.576 90.9694L213.444 91.0544L213.296 90.9993L212.401 91.2366L209.094 91.448L207.739 92.0177L207.241 92.0001L205.353 91.5643L205.018 91.7417L204.66 91.7091L204.35 91.4589C204.21 91.4738 204.063 91.4188 203.922 91.4337L203.93 91.5037L203.152 91.516L202.654 91.4983L202.577 91.4357C202.227 91.4731 201.869 91.4405 201.519 91.4779L201.386 91.5629L200.609 91.5751L200.391 91.5275L200.166 91.4099L199.956 91.4323L197.91 91.5092L197.708 91.6016L197.7 91.5316L197.055 91.4588L196.915 91.4738L193.659 90.8299L193.371 90.7898L192.003 90.5818L191.801 90.6742L191.513 90.6341L191.351 90.439L190.893 90.1337C189.278 89.598 187.927 88.8922 187.052 87.9941L186.912 88.0091L186.757 87.884L186.262 87.2285L185.985 86.6207L185.49 85.9653L185.305 85.5601L185.36 85.4126L184.843 84.5471L184.773 84.5545L184.533 84.2969L184.363 84.0317L184.355 83.9617L184.163 83.4864L184.17 83.5565L184.015 83.4314L183.986 83.1512L183.793 82.676L183.811 82.1783L183.788 81.9682L183.843 81.8207L183.821 81.6106L183.673 81.5555L183.736 81.478L183.806 81.4706L183.909 81.1055L183.971 81.028L184.104 80.943L184.151 80.7254L184.284 80.6404C184.394 80.3454 184.504 80.0503 184.684 79.7477L184.795 79.4527L184.937 78.8L185.383 78.3275L185.898 77.8475C186.328 77.2349 186.836 76.6849 187.289 76.2824L191.557 71.152L192.065 70.6019L192.12 70.4544L193.074 69.4318L193.324 69.1218L193.629 68.6643L194.129 68.0442L194.262 67.9592L194.958 67.1767L195.138 66.8741L195.521 66.4791L195.856 66.3017L196.213 66.3343L196.243 66.6144L196.126 66.8394L195.93 67.0019C195.938 67.072 195.868 67.0794 195.875 67.1495C195.5 67.6145 194.97 67.9545 194.595 68.4195L194.414 68.722L194.219 68.8845L193.649 69.5121L193.391 69.7521L192.898 70.4422L192.725 70.8147L192.538 71.0473L192.343 71.2098L191.342 72.4499L190.849 73.1399L190.279 73.7675L190.098 74.07L189.848 74.3801L189.293 75.1476L189.308 75.2877L188.917 75.6127L188.675 75.9927L187.416 77.4728C186.758 78.6055 186.24 79.7233 185.995 80.7411L186.002 80.8111L185.812 81.6813L186.067 82.0791L186.012 82.2266L186.097 82.3592L185.964 82.4442L186.041 82.5067L185.986 82.6543L186.071 82.7868L185.836 83.2369L186.006 83.5021L185.841 83.9447L185.926 84.0773L185.871 84.2248C185.886 84.3649 185.971 84.4974 185.986 84.6375L186.288 84.8177L186.606 85.1379L186.813 85.7532L186.688 85.9082C186.688 85.9082 186.696 85.9782 186.773 86.0408L187.061 86.0809L187.533 86.5262L188.588 87.1218L189.666 87.9275L189.891 88.0451L190.434 88.4829L191.016 88.6332L191.304 88.6733L191.964 88.8861L192.919 89.2091L193.299 89.4518L193.672 89.6245L195.125 89.9651L195.685 89.9053L196.058 90.078L196.493 90.1732L196.843 90.1358L197.27 90.1609L197.425 90.286L197.713 90.3261C199.501 90.4893 201.422 90.5675 203.328 90.5057L203.398 90.4982L203.545 90.5533L203.615 90.5458L204.953 90.4737L205.373 90.4288C205.513 90.4139 205.591 90.4764 205.731 90.4615L206.354 90.3241L206.641 90.3643L206.984 90.2568L207.762 90.2446L207.894 90.1596L208.259 90.2623L208.602 90.1549L209.31 90.1501L212.181 89.8435L213.224 89.6613L213.512 89.7014L216.088 89.2846L217.053 89.0399L217.934 88.6626L218.711 88.6503L219.419 88.6456L221.428 88.2186L221.848 88.1737L223.233 87.8841L223.841 87.6067L225.444 87.3647L226.41 87.1199L228.831 86.5781L231.314 85.9587L231.937 85.8214L232.693 85.599L234.303 85.427L238.835 84.0931L238.898 84.0156L238.883 83.8756L238.938 83.728L239.093 83.8531L239.498 83.6682L240.434 83.1433L240.776 83.0359L241.797 82.6436L242.87 82.7415L242.94 82.734L244.856 82.1045L245.869 81.6422L249.446 79.9853L252.302 79.5386L253.658 78.9689L253.838 78.6663L254.118 78.6364L254.601 78.514L254.928 78.2666L255.076 78.3216L255.193 78.0966L256.207 77.6343L256.557 77.5969L259.205 76.5349L260.064 75.9475L260.999 75.4226L261.607 75.1452L262.37 74.9929L264.473 74.1308L265.004 73.7909L266.422 73.1437L266.875 72.7412L268.51 72.1415L269.509 71.5391L272.01 70.4221L274.334 68.9699L275.082 68.6775L275.807 68.1751L276.422 67.9677C276.617 67.8052 276.82 67.7128 277.023 67.6203L277.453 67.0077L277.578 66.8527L278.061 66.7303L278.856 66.2204L279.449 65.803L279.659 65.7805L280.462 65.3406L281.118 64.8457L281.383 64.6757L281.578 64.5132L281.718 64.4983L282.896 63.5934L283.021 63.4383L283.552 63.0984L284.325 62.3784L284.755 61.7658L285.108 61.0907L285.801 60.9459C285.793 60.8759 285.793 60.8759 285.863 60.8684L285.856 60.7984L285.966 60.5033L286.621 60.0083C287.615 58.6982 288.118 57.4404 288.138 56.305L288.038 56.0324L287.801 55.1369L287.641 54.3041L287.571 54.3116L287.549 54.1015L287.604 53.9539L287.356 53.6262L287.264 53.4236L286.699 52.7757L286.049 51.9952L285.059 50.6843C284.206 49.9963 283.214 49.3232 282.236 48.7902L280.583 47.9043L280.358 47.7867L280.211 47.7316L278.418 46.8606C278.41 46.7906 278.34 46.7981 278.34 46.7981L278.263 46.7355C278.193 46.743 278.123 46.7505 278.115 46.6805Z" fill="#D36E6E"/>
</g>
<g style="mix-blend-mode:difference">
<path d="M152.127 70.4051L152.002 70.5601L151.892 70.8551L152.4 70.3051L153.305 69.5001L153.563 69.2601L153.695 69.1751L153.835 69.1602L153.828 69.0902L154.366 68.8202L154.056 68.57L154.476 68.5252L155.609 67.2001L155.819 67.1776L156.82 65.9375L157.998 65.0326L159.092 63.9951L159.217 63.8401L159.287 63.8326L160.505 62.6401L160.568 62.5626L162.379 60.9526L162.386 61.0227L163.557 60.0477L163.87 59.6602L164.143 59.5602L164.728 59.0727L164.853 58.9177L164.923 58.9103L166.234 57.9203L166.734 57.3003L167.125 56.9753L168.13 56.443L168.826 55.6604L169.551 55.158L170.969 54.5107L171.57 54.1633C172.03 53.8309 172.825 53.3209 173.761 52.7961L174.144 52.4011L175.352 51.7762L176.568 51.2215L176.763 51.059L177.356 50.6415L178.096 50.2791L178.564 50.0167L179.467 49.8495C180.62 49.3722 181.718 49.0425 182.636 49.0153L183.041 48.8303L183.351 49.0805C183.716 49.1832 184.018 49.3634 184.251 49.551C184.328 49.6136 184.406 49.6761 184.421 49.8162L184.971 50.324L185.025 52.1597L184.364 53.9302L183.554 54.3L182.784 54.3823L182.311 53.937L182.236 53.2367L181.916 53.5542L181.879 53.204L182.011 53.1191L182.044 52.7614L181.922 52.2787L181.684 51.3833L181.367 51.0631L180.331 51.3153L179.396 51.8402L179.053 51.9476L178.486 51.9374L177.753 52.3698L177.34 52.4847L174.599 53.3441C173.328 54.0464 172.267 54.7263 171.87 54.9812L171.472 55.2362L171.159 55.6237L168.515 57.3934L167.532 58.1359L167.157 58.6009L165.901 59.4433L165.573 59.6908L164.995 60.2483L164.02 61.0607L163.652 61.5958L161.763 63.1432L159.021 65.9858L158.668 66.6609L158.215 67.0634L157.41 68.1411L156.652 69.0011L156.386 69.1711L155.864 69.581L155.426 70.1236L155.371 70.2711L154.863 70.8212L154.307 71.5887L153.995 71.9763L153.737 72.2163L153.111 72.9913L152.884 73.5115L152.626 73.7515L152.383 74.1315L151.75 74.8366L150.687 76.1542L150.397 76.7518L150.154 77.1318L149.871 77.7995L149.776 78.2346L149.721 78.3822L149.618 78.7473L149.243 79.2123L148.212 80.1723L147.564 80.7373L146.919 80.6645L146.516 80.2117L146.509 80.1417C146.346 79.9466 146.254 79.744 146.294 79.4564L146.264 79.1762L146.389 79.0212L146.51 78.1585L146.385 78.3135L146.285 78.0408L146.442 77.5282L146.633 76.6579L147.048 75.9053L147.103 75.7578L147.088 75.6177L147.346 75.3777L147.519 75.0051L147.504 74.8651L148.082 74.3076L148.222 74.2926L148.417 74.1301L149.13 72.8499L149.545 72.0973L149.748 72.0048L150.023 71.2671L150.331 70.1718L150.777 69.6993L150.872 69.2642L151.537 68.2015L151.733 68.039L152.493 66.5413L152.463 66.2611L153.497 64.6634L154.07 63.3981L154.305 62.9481L154.588 62.2804L154.636 62.0628L154.761 61.9078L155.176 61.1552L155.154 60.9451L155.499 60.2L155.912 60.0851L156.137 60.2027L156.505 59.6676L156.662 59.155L156.695 58.7974L156.673 58.5873L156.378 58.4771L156.565 58.2446L156.51 58.3921L156.69 58.0896L156.613 58.027L156.37 58.4071C156.057 58.7946 155.74 58.4744 155.702 58.1243L155.828 57.9693L155.813 57.8292L155.86 57.6116L156.033 57.2391L156.088 57.0915L155.925 56.8964L155.863 56.9739L155.498 56.8712L155.475 56.6612L155.601 56.5061L155.873 56.4062L155.733 56.4212L155.866 56.3362L155.726 56.3511L155.626 56.0785L155.861 55.6284L156.233 55.8011L156.406 55.4285L156.376 55.1484L156.424 54.9308L156.276 54.8758L156.619 54.7684L156.582 54.4182L156.714 54.3332L156.854 54.3183L157.104 54.0082L157.455 53.9708L157.952 53.9885L158.31 54.0212L158.575 53.8512L158.56 53.7111L158.818 53.4711L159.105 53.5113L159.315 53.4888L159.47 53.6139L159.408 53.6914L159.073 53.8689C159.655 54.0191 159.973 54.3394 160.08 54.682L160.158 54.7446L160.11 54.9621C160.2 55.8025 159.604 56.8577 158.931 57.8503L159.016 57.9829L158.351 59.0455L157.938 59.1604L157.382 59.928L157.14 60.3081L156.982 60.8207L156.912 60.8282C156.614 61.3558 156.324 61.9534 155.949 62.4184C155.956 62.4885 155.879 62.4259 155.879 62.4259L155.526 63.101L155.431 63.5362L155.203 64.0563L154.685 65.174L154.317 65.7091L154.207 66.0042L153.861 66.7493L153.163 68.1696L152.785 69.2724L152.44 70.0175L152.127 70.4051Z" fill="#D36E6E"/>
</g>
<g style="mix-blend-mode:difference">
<path d="M134.295 76.6309L134.413 76.4059C134.453 76.1183 134.423 75.8382 134.603 75.5356L134.588 75.3955L134.636 75.178L134.919 74.5103L134.959 74.2227L135.139 73.9202C135.132 73.8502 135.257 73.6952 135.249 73.6251L135.304 73.4776C135.635 72.5924 136.043 71.7697 136.373 70.8845L136.476 70.5194L136.656 70.2169L136.939 69.5492L136.986 69.3316L137.269 68.664L137.294 68.2363L137.53 67.7863L137.47 67.226L137.307 67.0309L137.13 66.6957L136.872 66.9357L136.732 66.9507L135.859 67.398L134.441 68.0453L134.246 68.2078L133.771 68.4002L133.108 68.8251L131.454 69.9224L130.276 70.8274L129.878 71.0823L126.001 73.9045L125.688 74.2921L125.548 74.307L125.368 74.6096L123.457 75.9469L122.716 76.3093L122.591 76.4643L120.025 78.2966L119.9 78.4516L119.767 78.5366L119.524 78.9166L119.322 79.0091L119.329 79.0791L118.729 79.4265L118.541 79.659L118.331 79.6815L118.011 79.999L117.878 80.084L117.816 80.1615L117.683 80.2465L117.48 80.3389L117.215 80.5089L116.84 80.9739L116.567 81.0739L116.092 81.2663L115.702 81.5913L115.514 81.8238L114.984 82.1637L113.948 82.416L113.481 82.6784L113.488 82.7484L113.293 82.9109L113.216 82.8484L113.145 82.8559L112.74 83.0408L112.53 83.0632L112.475 83.2108L112.413 83.2883L112.335 83.2257L112.398 83.1482L112.118 83.1781L110.134 83.1774L110.127 83.1074L109.707 83.1523L109.264 82.9871L108.519 82.6417C108.379 82.6566 108.301 82.5941 108.161 82.609L108.154 82.539L108.091 82.6165L107.844 82.2888C107.806 81.9387 107.776 81.6586 107.817 81.371L107.772 80.9508L107.847 79.6678L107.927 79.0927L108.17 78.7126L108.32 78.1299L108.368 77.9124L108.673 77.4548L108.783 77.1597L109.214 76.5472L109.897 74.9868L110.047 74.4042L110.408 73.7991L110.705 73.2715L110.911 72.5413L111.264 71.8662L111.506 71.4861L111.889 71.0911L111.944 70.9436L112.069 70.7885L112.367 70.2609L112.352 70.1209L112.422 70.1134L112.712 69.5158L113.581 68.3607L113.808 67.8406L113.926 67.6155L113.981 67.468L114.046 66.7527L113.964 65.9824L114.052 65.4773L113.867 65.0721L113.837 64.7919L114.002 64.3493L114.385 63.9543L115.051 62.8917L115.636 62.4042L116.126 62.3518L116.506 62.5946L116.514 62.6646C116.514 62.6646 116.521 62.7346 116.591 62.7271C116.831 62.9848 116.869 63.335 116.906 63.6851L116.984 63.7476L117.251 64.9232L117.13 65.786L116.84 66.3836L116.222 67.2287L115.796 68.549L115.351 69.0215L115.163 69.254L114.788 69.7191L114.42 70.2542L114.163 70.4942L114.108 70.6417L113.865 71.0217L113.482 71.4168L113.434 71.6343L113.364 71.6418L113.232 71.7268L111.963 73.7746L111.853 74.0697L111.68 74.4422L111.43 74.7523C111.132 75.2799 110.835 75.8075 110.607 76.3276L110.011 77.3828C109.901 77.6778 109.783 77.9029 109.666 78.1279L109.438 78.648L109.42 79.1457L109.355 79.8609L109.065 80.4586L109.04 80.8862L108.977 80.9637C109 81.1738 109.022 81.3839 109.107 81.5165C109.517 82.0393 111.293 81.4247 112.976 80.6075L113.359 80.2125L114.052 80.0676L115.057 79.5353L115.603 79.3354L116.133 78.9955C117.068 78.4706 117.934 77.9532 118.862 77.3583L119.245 76.9633L119.713 76.7009L120.313 76.3534L120.711 76.0985L121.211 75.4784L122.887 74.5912C122.949 74.5137 123.012 74.4362 123.082 74.4287L123.2 74.2037L123.675 74.0112L125.118 72.9364L125.181 72.8588L125.424 72.4788L125.696 72.3789L125.814 72.1538L126.142 71.9063L126.329 71.6738L127.28 71.289L129.246 69.8041L129.824 69.2466L130.682 68.6592L131.432 67.7291L131.893 67.3967L132.486 66.9792L133.289 66.5393L133.616 66.2919L134.139 65.8819L135.752 65.0721L136.018 64.9022L136.611 64.4847L136.986 64.0197L137.041 63.8722L137.173 63.7872L137.469 63.8973C137.796 63.6498 138.194 63.3949 138.599 63.21L138.662 63.1324L139.262 62.785L139.48 62.8326C139.697 62.8802 139.86 63.0753 139.945 63.2079L140.077 63.1229L140.512 63.2181L140.885 63.3908L140.915 63.6709L140.797 63.896L140.937 63.881L140.952 64.0211L140.805 63.966L140.82 64.1061L140.695 64.2611L140.529 64.7037L140.036 65.3938L139.746 65.9914L139.791 66.4115L139.25 67.3192L139.148 67.6843L138.975 68.0569L138.677 68.5845L138.56 68.8095L138.354 69.5397L138.142 70.1999L137.774 70.7349L137.734 71.0225L137.263 71.9227L137.223 72.2103L137.01 72.8705L136.985 73.2981L136.702 73.9658L136.515 74.1983C136.262 75.146 136.196 75.8613 136.576 76.104C136.964 76.4167 137.407 76.582 138.044 76.5847L138.752 76.5799L139.312 76.5201L139.74 76.5453L140.23 76.4929C141 76.4106 141.756 76.1883 142.651 75.951L142.714 75.8735L143.134 75.8287L144.084 75.4439L144.442 75.4765L145.96 75.1019L146.023 75.0244L146.093 75.0169L146.498 74.832L147.401 74.6647L148.094 74.5199L148.164 74.5124C148.226 74.4349 148.296 74.4274 148.366 74.42L148.436 74.4125L148.849 74.2976L149.214 74.4003L149.377 74.5954L149.119 74.8354L148.846 74.9353L148.644 75.0278L147.391 75.2324L147.133 75.4724L146.938 75.6349L146.783 75.5098L145.895 75.8171L143.596 76.8417L142.974 76.979L142.561 77.0939L141.68 77.4713L141.058 77.6086L140.575 77.731L140.435 77.7459C140.372 77.8234 140.302 77.8309 140.232 77.8384L140.092 77.8534L139.267 78.0832L138.239 78.4054L137.679 78.4652C136.846 78.625 136.16 78.8399 135.663 78.8222L135.53 78.9072L135.383 78.8521C135.243 78.8671 135.165 78.8045 135.095 78.812L134.885 78.8344L134.645 78.5767L134.552 78.3741L134.537 78.2341L134.46 78.1715L134.452 78.1015C134.29 77.9064 134.245 77.4862 134.278 77.1286L134.295 76.6309Z" fill="#D36E6E"/>
</g>
<g style="mix-blend-mode:difference">
<path d="M26.6574 105.69L26.69 105.333C26.6125 105.27 26.5275 105.137 26.5126 104.997L26.28 104.81L26.1951 104.677L26.0625 104.762L26.0475 104.622L26.1176 104.615L26.0251 104.412L26.0027 104.202L26.0577 104.054C25.5954 103.041 25.5002 103.476 25.3031 102.293L25.2256 102.231L24.8611 100.145L24.7911 100.152L24.8537 100.075L24.7938 99.5147L24.8639 99.5073L24.8414 99.2972L24.7191 98.8145L24.7918 98.1692L24.7469 97.7491L24.817 97.7416C24.7945 97.5315 24.7721 97.3214 24.8197 97.1039C24.7973 96.8938 24.7823 96.7537 24.8374 96.6062L24.8149 96.3961L24.9455 94.9656L24.8605 94.833L24.7055 94.7079L24.683 94.4979L24.5981 94.3653L24.5205 94.3027L24.4757 93.8826L24.4056 93.89L24.3982 93.82L24.5382 93.8051L24.5858 93.5875L24.5634 93.3774L24.6259 93.2999L24.6185 93.2299L24.7062 92.7247L24.9414 92.2746L25.0515 91.9796L25.1841 91.8946L25.1916 91.9646L25.2392 91.747L25.3595 90.8843L25.3623 90.2465L25.3324 89.9664L25.6301 89.4388C25.6227 89.3688 25.6152 89.2988 25.6777 89.2213L25.6478 88.9411L25.7505 88.5761L26.344 86.1754L26.2842 85.6151L26.3243 85.3276L26.342 84.8299L26.3821 84.5423L26.565 83.602L26.8628 83.0744L27.3482 82.3143C27.3884 82.0267 27.4985 81.7316 27.6086 81.4366L27.6637 81.289L27.9717 80.1937L28.0118 79.9061L28.9004 77.6156L28.9331 77.258L29.1758 76.8779L29.3009 76.7229L30.3221 74.3474L31.2406 72.337L31.3657 72.182L32.4719 69.939L32.7473 69.2013L33.3028 68.4338C33.2953 68.3637 33.3653 68.3562 33.3653 68.3562L33.6733 67.2609L33.8385 66.8183L34.2689 66.2058L34.7693 65.5857L35.1371 65.0506L35.3023 64.608L36.0053 63.8955L37.0864 62.0802L37.1339 61.8627L37.2441 61.5676L37.4542 61.5452L39.0981 59.0323L39.2008 58.6672L39.2409 58.3796L39.7638 57.9696L39.9439 57.6671L40.6245 56.7445L40.6646 56.4569L42.0407 54.7517L43.0191 53.3015L43.582 52.604L43.5746 52.534C44.8256 50.9838 46.0691 49.3637 47.335 47.9536L47.5628 47.4335L48.1257 46.7359L48.6037 45.9058L50.0498 44.1931L50.7705 42.9829L51.1084 42.1678L52.1718 40.8501L52.4369 40.6802L52.6321 40.5177L53.4602 39.6501L54.6833 39.1654L54.9185 38.7153L55.1211 38.6228L55.3414 38.0327L55.8493 37.4827L56.1321 36.815L56.6325 36.195L56.8902 35.955L57.7632 35.5076L58.146 35.1126L58.2085 35.0351L58.1385 35.0426C58.2085 35.0351 58.201 34.9651 58.201 34.9651L53.6689 36.299L53.4112 36.539L53.006 36.7239L52.7184 36.6838L52.5233 36.8463L51.893 36.9136L50.795 37.2433L50.725 37.2508L48.4814 38.1279L47.1331 38.7676L45.7774 39.3374L45.5748 39.4298L44.024 40.1621L43.5562 40.4245L42.8009 40.6468L42.7309 40.6543L42.0605 41.0092L41.2575 41.4491L40.8598 41.704L38.4211 42.7436L38.4285 42.8136L38.3585 42.8211L37.6106 43.1134L37.4855 43.2684L34.7041 44.4154L34.6341 44.4229L34.1588 44.6153L33.8862 44.7152L33.0832 45.1551L30.7818 46.8174L29.5512 47.2321C27.8903 48.2594 26.2368 49.3568 24.6533 50.4466L24.7233 50.4392L24.2005 50.8491L23.5526 51.4141L23.3649 51.6466L23.1548 51.6691L22.8271 51.9165L22.7721 52.0641L22.632 52.079L22.1792 52.4815L21.5088 52.8364L20.5182 53.5088C20.5257 53.5788 20.4557 53.5863 20.3931 53.6638L20.0178 54.1289L20.0253 54.1989L19.8927 54.2839L19.8852 54.2139L19.7377 54.1588L19.6126 54.3138L19.48 54.3988C18.6995 55.0488 17.849 55.7062 17.0759 56.4262L16.2478 57.2937L15.9827 57.4637L13.531 59.7087L12.6329 60.5837L12.2426 60.9087L11.6647 61.4662L11.2194 61.9387L10.9542 62.1087L8.2673 64.8037L8.14967 65.0288L7.81449 65.2062L5.23771 67.6062L4.85493 68.0012L4.71487 68.0162L4.45719 68.2562L4.27702 68.5587L4.07442 68.6512L3.80178 68.7511L3.7168 68.6186L3.69436 68.4085L3.73448 68.1209L4.13969 67.936L5.5457 66.5109L5.99851 66.1084L6.31126 65.7209L6.50638 65.5584L6.96667 65.2259C7.02922 65.1484 7.09177 65.0709 7.1618 65.0634L7.15432 64.9934L7.48203 64.7459L7.55205 64.7385L7.80225 64.4284L7.84985 64.2109L8.04498 64.0484L8.23262 63.8159L9.13076 62.9408L9.33337 62.8484L9.44351 62.5533L10.0914 61.9883L10.2941 61.8959L10.6843 61.5709L11.012 61.3234L13.3787 58.9458L13.5738 58.7834L14.6671 57.7459L14.9873 57.4283L15.6978 56.7859L15.8929 56.6234L16.7911 55.7484L16.8461 55.6008L16.9087 55.5233L17.1113 55.4308L17.1739 55.3533L17.354 55.0508L17.4866 54.9658L17.284 55.0583L17.269 54.9182L17.5267 54.6782L17.7293 54.5857L17.7518 54.7958L18.0094 54.5558L18.4772 54.2934L18.86 53.8984L18.9776 53.6733L19.3529 53.2083L20.436 52.7385L21.1539 52.166L21.4891 51.9886L21.6992 51.9662C21.7692 51.9587 21.8318 51.8812 21.9018 51.8737L21.8168 51.7411L21.9644 51.7962L22.4246 51.4637L22.6599 51.0136L23.0576 50.7587L23.3003 50.3786L23.6756 49.9136L23.9408 49.7436L24.6261 49.5288L24.8838 49.2888L25.219 49.1113L25.7643 48.9114L25.9669 48.819L26.6223 48.324L27.2226 47.9766L27.6605 47.4341L27.9256 47.2641L28.511 46.7766L28.6762 46.334L28.8088 46.249L29.3765 46.2592L29.8592 46.1368L30.2094 46.0995L31.5351 45.2496L31.5202 45.1095L31.7153 44.9471L32.198 44.8247C33.7965 43.8749 35.5349 42.9101 37.4135 41.9304L37.8812 41.668L38.6067 41.1655L38.8018 41.0031L39.0819 40.9731L39.3471 40.8032L39.4171 40.7957L39.4796 40.7182L40.2275 40.4258L40.3676 40.4109L42.8689 39.2938L43.3217 38.8913L44.1546 38.7316L45.8454 37.9844L46.1106 37.8144L46.991 37.4371L47.3188 37.1896L49.7174 36.4377L49.935 36.4853L52.6688 35.5559L53.074 35.3709L53.0815 35.441C53.2916 35.4185 53.5567 35.2486 53.8368 35.2186L54.3046 34.9562L54.5772 34.8563L54.9349 34.8889C55.1449 34.8665 55.3475 34.774 55.5576 34.7516L55.6202 34.6741L55.6902 34.6666L59.2093 33.795L59.8872 33.5101L60.1374 33.2001L60.34 33.1076L60.6425 33.2878L61.0253 32.8928L61.7133 32.0402L61.971 31.8002L62.4014 31.1876L62.6591 30.9476L62.8168 30.435L63.067 30.125L63.8149 29.8326L64.3826 29.8428L66.0959 29.3057L67.2014 29.046L67.6766 28.8536L67.8017 28.6986L68.0118 28.6761L68.1845 28.3036L68.8651 27.381L69.613 27.0886L69.9855 27.2613L70.148 27.4564L70.2106 27.3789L72.2591 26.6644L74.2525 26.0974L74.4551 26.0049L74.5102 25.8574L74.5802 25.8499L74.4701 26.145L74.9678 26.1626L75.2628 26.2728L75.4777 26.9581L75.5123 27.946L74.5591 28.9685L73.196 29.4682L72.7907 29.6532L71.8654 29.6103L70.73 29.5899L70.6749 29.7375L70.4649 29.7599L70.4499 29.6198L70.2874 29.4247L69.8196 29.6872L69.5395 29.7171L68.8692 30.072L68.5965 30.1719L68.5415 30.3194L68.1512 30.6444L67.8711 30.6743L67.4808 30.9993L66.648 31.1591L66.3679 31.189L63.9889 32.7888L65.3745 32.4991L65.4371 32.4216L65.7097 32.3217L65.6322 32.2591L65.6948 32.1816L65.7723 32.2442L65.9198 32.2993L66.1224 32.2068L66.4651 32.0994L67.3204 32.1497L68.4259 31.89L68.7135 31.9301L75.5538 30.9871L75.8965 30.8797L76.7219 30.6499L77.142 30.605L78.2149 30.7029L78.6976 30.5806L79.3353 30.5833L79.4128 30.6458C80.7434 30.5037 82.0114 30.4392 83.3569 30.4371L83.7696 30.3222L84.1897 30.2774L87.566 30.0584L89.4541 30.4943L89.5316 30.5568C90.3169 30.6146 91.1021 30.6724 91.8949 30.8002L91.9649 30.7927L92.4476 30.6704L93.5681 30.5507L94.4234 30.601L95.3861 30.994L96.529 31.0844L97.0342 31.1721L97.6318 31.4625L98.5095 31.7228L98.7345 31.8405C100.047 32.1961 101.445 32.6842 102.633 33.1948L102.766 33.1098L102.928 33.305C103.448 33.5327 103.906 33.838 104.363 34.1433L104.573 34.1208L104.868 34.231L104.961 34.4336L106.124 35.3718C107.541 36.7078 108.546 38.1587 109.278 39.7095L109.611 40.1698L109.711 40.4424L109.726 40.5825L109.981 40.9802L110.033 41.4704L110.288 41.8682L110.488 42.4134L110.518 42.6936L110.382 43.4163L110.49 43.7589L110.465 44.1866L110.417 44.4042C110.469 44.8943 110.459 45.4621 110.511 45.9523L110.564 46.4425L110.779 47.1278L110.809 47.4079L110.931 47.8906L110.996 49.1586L110.908 49.6638L110.545 50.9066L110.104 52.0869L110.182 52.1494L110.242 52.7096L110.109 52.7946L110.069 53.0822L110.004 53.7975L109.268 54.8676L108.872 56.4681L108.184 57.3206L107.982 57.4131C107.368 58.966 106.685 60.5263 105.909 61.884L105.877 62.2416L105.531 62.9868L104.843 63.8394L104.465 64.9422L104.23 65.3922L103.862 65.9273L102.986 67.0124L102.681 67.47L102.048 68.175L100.812 69.8652L100.702 70.1603L100.794 70.3629L100.584 70.3853L100.312 70.4852C99.3184 71.7954 98.3176 73.0355 97.2468 74.2831L97.0816 74.7257L96.6661 75.4783L95.8231 76.2058L95.29 77.1835L94.9773 77.571L94.4619 78.051L93.8065 78.546L93.041 79.336L91.7301 80.3259C91.4099 80.6434 91.0897 80.9609 90.7769 81.3484L90.5968 81.651L90.6117 81.791L90.2616 81.8284L88.3327 83.6634L88.2851 83.881L87.8724 83.9959C85.6234 86.1484 83.2893 88.1684 80.8852 90.1958L80.565 90.5133L80.2998 90.6832L79.4493 91.3407L75.2041 94.698C74.6738 95.0379 74.1509 95.4479 73.6281 95.8578L73.5655 95.9353L73.2378 96.1828L72.6599 96.7403L72.3322 96.9878L70.9514 97.9852L70.2185 98.4176L69.2054 98.8799C67.6845 99.8923 66.1636 100.905 64.6352 101.847L64.2524 102.242L63.2292 103.272L60.993 104.219L59.8148 105.124L59.2845 105.464L58.3965 105.771L57.2985 106.101L56.6132 106.316L56.4731 106.331L56.4106 106.408C54.4471 107.255 51.7357 108.395 48.8543 109.269L47.8488 109.802L47.0234 110.031L46.3156 110.036L46.2531 110.114L46.268 110.254L45.8628 110.439L45.8778 110.579L45.7928 110.446L45.3876 110.631L45.3101 110.568L45.17 110.583L44.7648 110.768L44.1896 110.688L43.917 110.788L43.762 110.663L43.832 110.655L43.4043 110.63C42.0112 110.85 40.6807 110.992 39.4827 111.049L39.0775 111.234L38.93 111.179L38.5173 111.294L38.0822 111.199L38.0271 111.346L37.8095 111.299L37.1643 111.226L37.0243 111.241L37.1793 111.366L37.0467 111.451L36.6116 111.356L35.7638 111.375L35.0186 111.03L34.8711 110.975L34.7385 111.06L34.3659 110.887L34.0709 110.777L34.0933 110.987L33.9383 110.862L33.9158 110.652L33.1782 110.377L33.0007 110.041L32.9157 109.909L32.4255 109.961L32.2005 109.844L31.7028 109.826L31.4077 109.716L31.0025 109.901L30.785 109.853L30.46 109.463L30.0024 109.158L29.0023 108.414L27.9872 107.531L27.6799 106.643C27.4474 106.456 27.3549 106.253 27.1925 106.058L27.1149 105.995L26.7349 105.753L26.6574 105.69ZM90.0671 80.0077L91.7281 78.9804L92.4162 78.1278L92.7065 77.5302L93.3469 76.8952L93.9248 76.3377L95.4811 74.33L95.7789 73.8024L96.9198 72.5473L97.0625 71.8946L98.3061 70.2745L98.9166 69.3593L100.786 66.9641L102.437 64.5213L102.867 63.9087L103.746 62.1859L104.532 60.2604L105.455 58.9578L105.698 58.5777C106.161 57.6075 106.826 56.5449 107.142 55.5196L107.16 55.0219L107.413 54.0742L107.493 53.499L108.081 52.3738C108.073 52.3037 108.073 52.3037 108.136 52.2262L107.919 50.1954L107.999 49.6202L108.19 48.75L108.273 47.5371L108.393 46.6743L108.341 46.1841L108.453 45.2513L108.519 44.536L108.364 44.4109L108.031 43.9507L107.974 42.7527L107.914 42.1925L107.77 41.4997L107.492 40.8918L107.23 40.4241L107.185 40.0039C106.752 39.271 106.32 38.5381 105.825 37.8827L104.478 36.5392L103.695 35.8437L103.215 35.3283L103.067 35.2732C102.912 35.1481 102.757 35.023 102.61 34.968L102.3 34.7178L102.152 34.6627L102.16 34.7327L102.097 34.8102L102.082 34.6702L101.367 34.6049L100.784 34.4546L100.489 34.3445L99.8693 33.8441L99.6143 33.4464C98.0689 32.9031 95.9783 32.5598 94.2453 32.2491L93.0949 32.0886L93.0248 32.0961L92.3796 32.0233L92.0995 32.0533L91.3143 31.9955L91.1042 32.0179L89.2535 31.9322L86.8426 31.9064L85.3571 31.9234L84.8669 31.9757L83.949 32.0029L83.5214 31.9777L82.3234 32.0348L81.5456 32.0471L80.4102 32.0267C78.6595 32.2136 77.0489 32.3857 75.6408 32.4652L74.1002 32.6297L72.737 33.1294L71.5867 32.969L71.229 32.9363L67.6025 33.4653L67.3299 33.5652L66.1394 33.6923L64.2636 34.0343L63.7258 34.3042L63.0731 34.1615L61.8901 34.3586L60.5942 35.4886L60.6017 35.5586L59.6009 36.7987L57.772 38.9064L57.1316 39.5414L56.5686 40.2389L54.4446 42.2364L52.5205 44.7792L51.5449 45.5917L50.3714 47.2044L49.7785 47.6218L48.7002 48.7994L48.1074 49.2168L46.5511 51.2245L46.2057 51.9697L45.5952 52.8848L44.8072 53.4647L44.4169 53.7897L44.3544 53.8672L44.1892 54.3098L43.7289 54.6423L43.376 55.3174L43.236 55.3324L42.0774 57.0851L41.9197 57.5978L41.7171 57.6902C41.3968 58.0077 41.2167 58.3103 41.0365 58.6128L40.7136 59.5681L40.3083 59.753L39.6353 60.7456L38.8745 62.2434L38.7419 62.3284L37.2454 64.8963L37.1203 65.0513L36.8851 65.5014L36.5023 65.8964L35.5464 67.5567L35.0983 68.667L34.4878 69.5821L34.4327 69.7296L33.7746 70.8623L33.6019 71.2349L33.3816 71.825L33.2416 71.84L33.0138 72.3601L32.7935 72.9502L32.6684 73.1053L32.6208 73.3228L31.5248 74.9981L31.6173 75.2007L31.4772 75.2156L31.242 75.6657L31.1944 75.8833L30.779 76.6359L30.2759 77.8937L30.2357 78.1813L29.9427 79.4166L29.4797 80.3868L29.0568 81.0694L28.859 81.8697C28.4483 83.3301 28.1158 82.8698 27.6474 85.1154L27.6623 85.2555L27.6073 85.403C27.4971 85.6981 27.457 85.9857 27.4169 86.2733L27.4244 86.3433L27.5393 86.756L26.4453 89.7767L26.5303 89.9093L26.2951 90.3594C26.1999 90.7945 26.1047 91.2296 26.087 91.7273L25.8762 93.733L25.8137 93.8105C25.6458 94.8908 26.1781 95.8964 26.2277 97.0243L26.3698 98.3549L26.3222 98.5724L26.3521 98.8525L26.3046 99.0701L26.4045 99.3427L26.4419 99.6929L26.3793 99.7704L26.4942 100.183L26.5391 100.603L26.639 100.876L26.6989 101.436C26.8661 102.339 27.166 103.157 27.6058 103.96L28.1484 104.398L28.5033 105.068L28.6032 105.341L30.1785 106.164L30.821 106.875L30.9135 107.077L31.3636 107.312L32.4113 107.838L32.9864 107.918L33.6391 108.061L34.2218 108.211L34.557 108.034L34.9697 107.919L35.2022 108.107L35.4973 108.217L36.0398 108.655L37.4601 109.353L38.3378 109.613L38.4779 109.598L39.0456 109.608L39.9158 109.799L40.2034 109.839L41.8841 109.659L42.9121 109.337L43.6675 109.115L43.9251 108.875L44.1352 108.852L44.2678 108.767L44.4854 108.815L44.8579 108.988L46.1885 108.846L46.3211 108.761L46.4686 108.816L46.8038 108.638L47.7468 108.183L48.222 107.991L49.7477 107.686L50.6982 107.302L51.5086 106.932L52.1314 106.794L53.3844 106.59L54.8176 106.083L54.8876 106.075C56.6486 105.32 58.1368 104.666 59.275 104.048C60.5457 103.346 61.8089 102.574 63.0721 101.801L63.1347 101.724L63.5399 101.539L64.9983 100.604L65.4987 99.984L66.7068 99.3592L68.2352 98.4169L69.0307 97.907C72.065 95.8123 75.0844 93.5775 78.0113 91.1401L78.2466 90.69L78.9571 90.0475L79.3874 89.435L79.7553 88.8999L80.2931 88.63L81.2837 87.9576L81.954 87.6027L82.2593 87.1451L82.9847 86.6427L83.6401 86.1477L85.3188 84.6228L88.6611 81.4327L90.0671 80.0077Z" fill="#D36E6E"/>
</g>
<g style="mix-blend-mode:difference">
<path d="M250.194 95.1338C250.578 95.0299 251.795 94.9988 251.905 94.9933C252.296 94.974 251.918 95.155 252.048 95.1419C253.121 95.0298 252.885 94.6875 254.315 94.4418C254.359 94.4352 254.184 94.5356 254.305 94.5218C254.681 94.4792 255.046 94.3882 255.419 94.3486C256.269 94.259 256.599 94.3871 257.864 94.0636C258.024 94.0225 257.741 93.8553 259.026 93.6472C259.538 93.5641 261.801 93.1776 262.437 93.0846C263.07 92.9918 262.651 93.1303 262.694 93.1265C264.413 92.9279 263.773 93.0737 264.648 93.0609C265.523 93.0475 265.235 92.7766 265.577 92.6837C265.921 92.5907 267.178 92.4551 267.492 92.4288C267.803 92.4027 267.427 92.509 267.703 92.4776C269.534 92.2677 268.475 92.1919 269.065 92.0434C270.456 91.6938 271.592 91.7397 272.884 91.5492C273.234 91.4977 272.942 91.4933 273.252 91.4373C274.479 91.2166 275.23 91.1656 276.618 90.8726C276.845 90.8246 277.953 90.5051 278.7 90.4857C278.806 90.4831 278.522 90.5875 279.047 90.515C279.831 90.407 281.249 90.1894 282.088 90.0352C282.708 89.9211 281.981 89.9439 282.769 89.8464C283.118 89.8033 282.483 89.9604 283.14 89.8746C283.793 89.7892 285.456 89.5203 286.088 89.4176C286.718 89.3151 286.364 89.302 286.413 89.2892C286.718 89.2133 287.925 88.9872 288.032 88.9704C293.429 88.1066 298.438 87.4433 303.697 86.6015C304.109 86.5357 303.824 86.5083 303.886 86.4975C305.296 86.2529 304.21 86.608 305.207 86.5195C305.042 86.3996 305.629 86.3367 306.623 86.1701C307.102 86.0898 306.832 86.0745 306.875 86.0623C307.574 85.8717 308.087 85.9045 308.218 85.907C308.701 85.916 309.2 85.744 309.529 85.7491C309.858 85.7539 309.132 85.9436 310.088 85.7985C310.348 85.7081 309.619 85.6837 310.342 85.5535C313.07 85.0615 318.201 84.4076 320.402 84.0969C322.601 83.7859 323.311 83.6738 324.596 83.5053C326.918 83.2017 326.055 83.2318 327.489 82.9825C328.928 82.7331 328.259 83.0612 328.473 83.0803C328.685 83.0998 328.898 83.0178 329.155 83.0084C329.41 82.9991 328.871 83.1104 329.464 83.0354C330.057 82.9601 331.663 82.6418 331.867 82.5614C332.296 82.391 331.55 82.3825 333.125 82.1998C333.215 82.1893 332.931 82.2897 333.278 82.2468C336.029 81.9034 338.896 81.504 341.648 81.1619C342.025 81.1151 341.697 81.2252 341.917 81.1987C344.204 80.9227 343.374 80.9282 344.609 80.6372C344.35 80.8338 345.055 80.8351 346.792 80.5968C347.836 80.4538 347.647 80.4098 348.316 80.2695C348.516 80.2273 349.264 80.1734 349.393 80.1232C349.822 79.9589 349.108 79.9364 350.91 79.7398C350.989 79.7313 350.746 79.8218 351.018 79.7885C352.781 79.573 352.988 79.4355 354.873 79.1703C356.353 78.962 359.003 78.6758 360.701 78.4622C360.69 78.6341 362.285 78.3832 362.922 78.1834C364.024 78.0432 365.221 77.8806 366.287 77.7575C366.65 77.7156 366.42 77.7937 366.465 77.7933C367.179 77.7817 367.641 77.6094 367.877 77.5745C370.434 77.2006 372.54 77.0122 374.993 76.6187C375.08 76.6045 375.207 76.477 375.876 76.4733C375.919 76.4733 375.112 76.6272 376.272 76.4832C377.435 76.3392 379.629 76.1198 381.214 75.8698C381.599 75.809 382.566 75.5998 383.362 75.5687C383.468 75.5647 383.357 75.6094 383.511 75.6073C384.007 75.5996 384.261 75.4596 384.847 75.4779C385.435 75.4964 386.641 75.4124 388.258 75.1484C388.309 75.1401 388.684 75.0091 389.195 74.947C390.011 74.8481 391.18 74.7211 392.028 74.616C392.43 74.5661 392.166 74.547 392.236 74.5375C394.946 74.176 396.89 73.9848 399.824 73.6479C400.363 73.586 401.901 73.3339 402.953 73.2599C404.106 73.1784 402.966 73.5523 405.582 73.179C406.629 73.0291 407.924 72.5805 409.838 72.5045C413.498 72.0327 416.999 71.6955 420.645 71.2202C420.811 71.1986 421.325 71.063 421.714 71.0191C422.291 70.954 422.613 70.9522 423.026 70.9067C424.759 70.7167 426.347 70.5042 428.03 70.3162C428.669 70.2448 428.449 70.3048 429.212 70.2193C429.975 70.1338 430.479 70.0311 431.519 69.9345C432.311 69.861 433.073 69.8649 434.099 69.7579C434.129 69.666 434.83 69.5876 436.079 69.4234C436.319 69.3918 436.059 69.3912 436.172 69.3747C436.633 69.3072 437.066 69.2834 437.504 69.2172C437.611 69.2012 437.613 69.1714 437.7 69.1567C438.44 69.0307 439.678 68.9579 439.892 68.9451C440.709 68.8967 441.085 68.8173 441.711 68.7642C442.336 68.7111 441.407 68.8358 442.135 68.7643C443.639 68.6167 445.622 68.3912 447.116 68.2265C447.719 68.1597 447.304 68.1687 447.39 68.1583C448.636 68.0112 449.906 67.9092 450.594 67.7633C451.484 67.8463 451.348 67.6622 453.15 67.5008C453.292 67.4881 453.482 67.551 452.94 67.6233C452.397 67.6958 451.57 67.7604 450.82 67.8631C450.642 67.8873 449.633 68.0809 449.493 68.1018C448.41 68.2621 448.242 68.1502 448.183 68.1493C447.523 68.1449 446.295 68.3703 445.968 68.4136C444.446 68.6127 443.154 68.7391 441.89 68.9028C441.063 69.0098 440.992 69.1094 440.342 69.1807C438.186 69.4182 437.421 69.3728 435.416 69.7171C434.987 69.7909 435.426 69.845 433.871 69.9421C433.771 69.9484 432.62 70.0053 431.96 70.13C431.876 70.1458 431.882 70.1758 431.77 70.1914C431.023 70.295 430.521 70.3285 429.708 70.435C428.896 70.5415 427.922 70.6736 426.995 70.7711C426.437 70.83 425.716 70.8542 425.448 70.8706C424.691 70.9159 423.894 71.0792 423.424 71.0819C422.951 71.0841 423.856 70.899 422.625 71.0075C422.59 71.098 422.495 71.1973 422.432 71.2917C419.753 71.6046 417.097 71.8917 414.372 72.221C414.035 72.2618 414.385 72.2686 414.024 72.3137C412.503 72.504 411.173 72.6285 409.605 72.832C408.392 72.9897 407.07 73.2039 405.809 73.3718C405.039 73.3562 403.119 73.6277 401.744 73.7865C401.261 73.8422 401.29 73.8086 400.946 73.841C399.648 73.9639 400.266 73.9877 399.913 74.0468C398.402 74.301 398.244 74.0922 396.46 74.3174C396.364 74.3293 395.225 74.5944 395.067 74.622C394.065 74.7971 394.895 74.6001 394.263 74.6696C393.104 74.797 392.322 74.864 390.95 75.0725C390.553 75.133 389.606 75.3316 388.826 75.3685C388.723 75.3733 388.774 75.3243 388.692 75.3321C387.208 75.4774 387.185 75.6134 386.348 75.7652C385.51 75.9172 384.199 75.9918 383.93 75.9988C383.23 76.018 384.457 75.9023 384.493 75.8908C384.924 75.7549 383.976 75.889 383.252 75.9741C383.131 75.8561 382.122 75.9909 382.501 76.0619C382.545 76.0694 383.106 75.9866 383.252 75.9741C382.633 76.1834 381.524 76.3431 380.285 76.3777C379.704 76.394 380.243 76.2567 378.497 76.5049C377.7 76.6183 378.02 76.6713 377.319 76.7873C375.716 77.0529 373.619 77.236 371.971 77.4649C371.374 77.548 371.963 77.5236 371.555 77.5823C370.471 77.7385 369.51 77.8247 368.427 77.988C368.328 78.0029 368.576 78.0268 368.238 78.0721C365.693 78.4149 363.413 78.682 360.732 79.0407C359.433 79.2143 357.122 79.559 355.783 79.7347C353.473 80.0378 350.572 80.3476 348.588 80.6426C347.292 80.8353 347.585 80.8561 347.035 80.974C345.973 81.202 344.059 81.3241 343.802 81.3374C343.805 81.336 344.902 81.1689 344.307 81.2206C343.952 81.2042 343.814 81.3353 343.802 81.3374C343.63 81.3466 341.408 81.644 340.969 81.718C340.729 81.7583 340.871 81.7969 340.746 81.8169C337.763 82.29 334.78 82.7317 331.76 83.1388C331.707 83.145 331.777 83.0671 331.652 83.0831C329.901 83.3051 328.801 83.5483 327.36 83.8084C325.923 84.068 324.777 84.2202 323.906 84.2288C322.82 84.4033 321.252 84.5814 320.35 84.6825C319.449 84.7835 319.343 84.9365 319.265 84.951C316.818 85.402 315.381 85.5381 312.823 85.9115C311.606 86.0887 309.2 86.4748 307.888 86.6912C306.852 86.8623 306.221 86.9258 305.267 87.0937C305.138 87.1164 305.277 87.1583 305.239 87.1669C304.183 87.4056 304.672 87.1757 304.448 87.1825C303.634 87.2073 303.131 87.2305 301.77 87.4888C301.456 87.5483 300.57 87.9107 299.997 88.0136C299.253 88.1466 299.522 88.023 298.743 88.1645C298.676 88.1765 298.697 88.2238 298.214 88.2974C295.97 88.6396 293.52 88.9975 291.192 89.3737C290.874 89.4249 291.294 89.4382 290.835 89.5136C288.681 89.8671 286.318 90.2447 284.21 90.5482C283.691 90.6226 284.006 90.5144 283.891 90.5159C283.186 90.5269 282.231 90.8325 282.07 90.8618C278.228 91.5611 275.28 91.9099 271.367 92.6285C271.152 92.6682 269.538 93.1029 268.782 93.0883C268.73 93.0876 267.98 93.0681 267.355 93.273C267.316 93.2857 267.778 93.283 266.991 93.4079C266.205 93.5329 264.949 93.7954 263.854 93.8985C263.508 93.9313 262.675 93.9264 261.672 94.2144C261.607 94.2334 260.072 94.7612 259.478 94.68C259.382 94.6662 259.445 94.4613 258.241 94.7676C258.01 94.8265 258.441 94.7954 257.83 94.9276C256.897 95.1301 255.631 95.2969 254.495 95.581C254.297 95.6308 253.464 95.9082 252.761 95.9297C252.651 95.933 252.844 95.834 252.481 95.8899C250.751 96.1559 248.949 96.5155 247.185 96.7805C246.56 96.8744 246.86 96.7142 246.206 96.8006C245.552 96.8871 244.238 97.0917 243.566 97.2599C242.894 97.4282 243.666 97.4624 242.65 97.6569C238.272 98.4952 233.87 99.1868 229.452 99.9778C228.802 100.094 229.351 100.056 228.394 100.233C224.875 100.879 218.709 102.081 215.631 102.524C213.158 102.879 216.231 102.222 214.347 102.53C213.438 102.68 212.493 103.064 212.275 103.112C210.147 103.579 208.637 103.773 206.704 104.169C206.305 104.251 206.712 104.257 206.372 104.326C205.208 104.562 203.983 104.758 202.889 104.974C202.397 105.072 202.499 105.117 202.044 105.199C200.955 105.397 199.987 105.556 198.913 105.702C198.815 105.715 199.453 105.511 198.646 105.664C197.338 105.911 195.7 106.167 194.199 106.521C193.754 106.626 193.764 106.773 192.778 106.862C192.572 106.88 192.797 106.658 191.7 107.026C191.51 107.089 189.694 107.651 188.75 107.701C188.502 107.714 187.857 107.694 187.327 107.821C187.255 107.839 187.561 107.859 187.119 107.954C185.562 108.286 183.918 108.601 182.307 108.944C181.877 109.036 182.535 108.989 181.893 109.124C180.13 109.493 177.898 109.916 176.198 110.229C175.566 110.345 175.988 110.191 175.94 110.193C175.179 110.222 174.774 110.469 174.531 110.527C173.015 110.888 171.834 111.047 170.423 111.351C170.034 111.435 170.325 111.456 170.249 111.478C169.456 111.706 170.029 111.449 169.516 111.536C168.075 111.781 166.475 112.111 165.019 112.416C164.485 112.528 165.103 112.495 164.625 112.595C161.843 113.174 158.927 113.758 156.163 114.273C155.642 114.37 155.954 114.236 155.843 114.242C155.076 114.285 154.012 114.659 153.762 114.725C152.629 115.025 152.169 115.056 151.155 115.277C146.31 116.332 140.202 117.561 135.549 118.51C135.091 118.604 134.64 118.696 134.196 118.786C128.857 119.872 124.305 120.775 119.068 121.9C118.705 121.978 119.09 121.991 118.777 122.059C114.744 122.935 110.685 123.76 106.593 124.658C106.263 124.73 106.757 124.711 106.227 124.83C105.141 125.074 103.755 125.364 102.641 125.575C102.098 125.677 102.808 125.453 102.261 125.558C100.988 125.802 99.6221 126.087 98.3133 126.38C97.7562 126.505 98.6161 126.407 97.8909 126.563C92.8991 127.638 88.1398 128.667 83.126 129.641C82.7823 129.708 82.4487 129.619 81.7264 129.806C81.6808 129.86 81.6946 129.909 81.6806 129.96C74.3647 131.557 67.5016 132.983 60.1555 134.568C59.8566 134.632 60.3877 134.587 59.8088 134.712C56.4573 135.434 53.177 136.156 49.6737 136.854C49.3265 136.923 49.481 136.782 48.4628 137.021C48.2818 137.063 46.7445 137.413 46.3492 137.521C46.2957 137.536 46.5874 137.52 46.0894 137.629C43.147 138.275 40.2533 138.89 37.3814 139.49C36.9206 139.586 37.4006 139.439 37.0723 139.508C34.7443 139.995 32.2064 140.58 29.9501 141.041C28.4392 141.351 28.9828 141.17 28.1691 141.293C28.0541 141.31 27.1186 141.519 27.0629 141.499C26.921 141.448 27.3539 141.258 27.149 141.216C27.1137 141.21 26.3641 141.393 26.3603 141.378C26.3614 141.373 26.4264 141.351 26.5901 141.303C26.6438 141.287 27.5439 141.061 27.7636 140.993C27.9164 140.946 27.6298 140.979 27.9432 140.891C28.2566 140.802 28.611 140.748 29.1311 140.608C29.6501 140.467 29.4124 140.483 30.4543 140.23C32.8744 139.642 36.0289 138.905 38.4109 138.363C39.157 138.193 38.7859 138.308 39.3012 138.193C40.3086 137.967 41.2396 137.734 42.2307 137.516C42.5591 137.444 42.1622 137.583 42.5057 137.507C44.3906 137.089 46.255 136.644 48.1935 136.206C57.7064 134.059 67.1639 131.934 76.7169 129.823C79.9455 129.109 83.8452 128.307 87.1085 127.554C87.4891 127.466 87.2478 127.453 87.3192 127.431C88.4398 127.098 88.09 127.311 88.8359 127.164C91.7552 126.589 95.1447 125.852 97.9948 125.201C99.2112 124.923 97.9608 125.056 99.203 124.862C99.2892 124.849 98.9961 124.988 99.3313 124.922C100.092 124.774 101.522 124.449 102.107 124.328C103.233 124.094 103.419 124.053 104.479 123.824C105.925 123.511 107.657 123.174 109.248 122.813C109.584 122.736 109.121 122.757 109.657 122.627C110.193 122.498 111.618 122.197 112.1 122.112C112.582 122.027 112.392 122.131 112.479 122.127C113.201 122.093 114.804 121.579 115.013 121.53C118.838 120.637 122.077 120.042 125.739 119.266C128.47 118.686 131.36 118.045 133.928 117.51C133.949 117.506 133.97 117.501 133.991 117.497C137.032 116.864 139.764 116.339 142.767 115.708C143.086 115.641 142.694 115.625 143.083 115.543C147.215 114.674 151.264 113.851 155.438 113.062C155.853 112.984 155.336 113.174 155.752 113.1C158.301 112.648 162.306 112.001 163.718 111.35C165.421 111.02 167.537 110.608 169.082 110.371C170.081 110.218 169.138 110.499 170.345 110.218C170.617 110.155 170.246 110.149 170.655 110.06C172.378 109.686 174.264 109.335 175.952 108.958C176.295 108.882 176.188 108.832 176.283 108.8C177.083 108.537 178.486 108.431 178.797 108.382C181.121 108.016 182.791 107.65 184.923 107.234C185.417 107.137 184.816 107.16 185.291 107.064C187.764 106.566 190.269 106.086 192.724 105.653C193.267 105.558 192.785 105.733 193.045 105.691C194.192 105.507 194.416 105.31 195.513 105.132C195.744 105.094 195.628 105.185 195.671 105.185C196.35 105.173 196.888 104.901 197.056 104.865C199.177 104.406 200.567 104.317 202.608 103.903C202.852 103.853 202.285 103.874 202.971 103.74C207.575 102.84 212.494 101.94 217.032 101.166C217.742 101.045 217.25 101.201 217.294 101.201C218.05 101.184 218.494 100.936 218.725 100.887C220.554 100.504 222.288 100.323 223.495 99.9061C231.211 98.5602 238.93 97.0715 246.649 95.8938C246.747 95.8788 246.586 95.9858 246.781 95.9553C249.138 95.5877 248.666 95.5474 250.194 95.1338ZM458.735 66.9518C455.888 67.2582 454.158 67.3075 457.25 66.988C457.809 66.93 456.047 67.1623 456.761 67.097C458.068 66.9766 458.928 66.7991 460.271 66.6988C460.512 66.6805 458.898 66.9343 458.73 66.9526C458.732 66.9524 458.733 66.952 458.735 66.9518ZM31.1755 140.602C30.8295 140.721 32.1643 140.426 31.8702 140.447C31.8474 140.451 31.191 140.597 31.1755 140.602ZM439.611 69.0759C439.208 69.0951 438.067 69.2542 438.564 69.2307C438.965 69.2115 440.111 69.0518 439.611 69.0759ZM428.392 70.4044C427.105 70.501 426.927 70.7329 428.294 70.5313C428.373 70.5197 428.467 70.3991 428.392 70.4044ZM417.095 71.7722C415.987 71.8323 415.249 72.0236 416.03 71.9856C416.81 71.9471 417.432 71.7535 417.095 71.7722ZM316.292 85.1397C315.45 85.1988 315.363 85.4556 316.255 85.264C316.298 85.2538 316.335 85.1365 316.292 85.1397ZM315.069 85.0265C314.719 85.1561 316.065 84.9619 315.77 84.9255C315.751 84.9251 315.085 85.021 315.069 85.0265ZM272.941 91.6712C272.927 91.6695 272.446 91.7458 272.459 91.7663C272.505 91.8312 273.168 91.7008 272.941 91.6712ZM243.244 96.5603C242.462 96.8445 245.592 96.3082 244.88 96.2802C244.834 96.2803 243.3 96.5432 243.244 96.5603Z" fill="#D36E6E"/>
</g>
</svg>
