<svg width="461" height="141" viewBox="0 0 461 141" fill="none" xmlns="http://www.w3.org/2000/svg">
<g style="mix-blend-mode:difference">
<path d="M397.568 42.2201L397.043 43.2678L397.08 43.6179L396.768 44.0054L396.587 44.308C396.517 44.3155 396.525 44.3855 396.532 44.4555L396.555 44.6656L396.319 45.1157L396.436 46.8739C396.374 46.9514 396.409 47.9393 396.726 48.2595C397.199 48.7048 396.988 48.7273 398.799 49.1005L400.019 49.2535L400.93 49.1563L401.965 48.904L406.958 47.2377L407.893 46.7128L410.527 45.5108L411.05 45.1008L411.315 44.9308L411.455 44.9159L415.47 42.7164L415.75 42.6865L416.21 42.3541L416.826 42.1467L419.047 41.0596L419.319 40.9596C421.728 39.64 422.641 38.905 424.973 37.5228L426.453 36.7981L426.509 36.6505L426.906 36.3956L428.122 35.8408L429.393 35.1385L429.378 34.9984L429.588 34.976L430.383 34.4661L430.438 34.3185L433.973 31.6038L434.316 31.4964C434.776 31.1639 435.229 30.7614 435.744 30.2814C435.869 30.1264 436.087 30.174 436.172 30.3066L436.164 30.2365L436.422 29.9965L436.71 30.0366L436.987 30.6445L436.652 30.8219L436.044 31.0993L435.709 31.2768L434.218 32.5692L433.92 33.0968L433.57 33.1342L433.305 33.3042C432.719 33.7916 432.056 34.2166 431.464 34.634L431.401 34.7115L430.941 35.044L430.683 35.284L430.473 35.3064L428.352 36.6662L428.297 36.8137L428.024 36.9137L427.494 37.2536L427.361 37.3386L426.448 38.0735L423.907 39.4782C423.111 39.9881 422.323 40.568 421.52 41.0079L421.333 41.2404L418.011 43.295L417.753 43.535L417.59 43.3399L416.872 43.9124L416.047 44.1422L415.517 44.4821L415.447 44.4896C414.581 45.007 413.708 45.4543 412.835 45.9017L411.845 46.5741L409.786 47.8564L409.241 48.0563L408.415 48.2861L407.262 48.7633L406.569 48.9081L406.304 49.0781L406.047 49.3181L405.159 49.6254L405.019 49.6404C404.208 50.0102 403.25 50.325 402.285 50.5698L402.097 50.8023L401.754 50.9097L401.824 50.9022L400.454 51.3319L400.019 51.2367L399.278 51.5991L397.568 51.4985L395.945 50.8927L395.14 49.9871L394.692 49.1141L394.378 48.1561L394.251 46.9657L394.306 46.8181L394.221 46.6855L394.168 46.1953L394.472 44.3923L394.872 43.4996L395.298 42.1793L395.643 41.4341L395.768 41.2791L395.918 40.6964L396.301 40.3014L396.459 39.7888L396.812 39.1136L396.999 38.8811L397.732 38.4487L397.975 38.0687L398.443 37.8062L398.958 37.3262L399.091 37.2412L399.724 36.5362L400.302 35.9787L400.717 35.2261L400.967 34.916L401.272 34.4585L401.53 34.2185L401.935 34.0336L402.053 33.8085L402.366 33.421L402.904 33.1511L403.239 32.9736C404.66 31.6886 406.143 30.3262 407.719 29.1663L407.844 29.0113L408.492 28.4463L409.365 27.9989C409.435 27.9914 409.505 27.984 409.498 27.9139L410.278 27.264L410.739 26.9315L410.941 26.839L411.907 26.5943C412.647 26.2319 413.387 25.8695 414.135 25.5772L414.728 25.1597L415.428 25.0849L415.834 24.9L416.059 25.0176C416.619 24.9578 417.179 24.898 417.677 24.9157L417.739 24.8381L417.942 24.7457L418.09 24.8008L418.292 24.7083L418.355 24.6308L418.79 24.726L418.782 24.6559L418.852 24.6485L418.797 24.796L419.022 24.9136L419.232 24.8912L419.317 25.0238L419.387 25.0163L419.83 25.1815L419.908 25.2441C420.288 25.4868 420.59 25.6669 420.698 26.0096L420.915 26.0572L420.86 26.2047L420.93 26.1973L420.868 26.2748L420.905 26.6249L421.005 26.8975L420.917 27.4027L420.8 27.6277L420.844 28.0479L420.676 29.1282L420.213 30.0984L419.588 30.8735L418.87 31.446L418.285 31.9334L415.968 33.4557L415.648 33.7732L415.173 33.9656C413.682 35.2581 412.036 36.4254 410.382 37.5228L410.327 37.6703L408.401 38.8676L407.558 39.5951L405.82 40.5598L404.541 41.1921L402.688 41.7442L401.575 41.9338L401.085 41.9862L400.642 41.821L400.465 41.4858L400.582 41.2607L400.968 40.228L401.851 39.2129L402.724 38.7656L403.284 38.7057L403.789 38.7935L404.365 38.8737L405.275 38.7765L406.1 38.5467L406.973 38.0993L407.253 38.0694L407.371 37.8443L409.327 36.9272L411.121 35.8149L411.979 35.2275L412.284 34.7699L413.157 34.3226L413.267 34.0275L414.28 33.5652L414.53 33.2551L415.366 32.4576L418.233 29.46L418.476 29.08L418.563 28.5748L418.681 28.3498L418.919 27.262L418.841 27.1994L418.756 27.0668L418.579 26.7316L418.184 26.3489L417.671 26.1911L417.166 26.1034L416.396 26.1857L415.913 26.3081L415.626 26.2679C413.78 26.89 411.861 28.1573 410.73 28.8447L409.935 29.3546L409.747 29.5871L409.427 29.9046L409.139 29.8645C409.077 29.942 409.077 29.942 409.007 29.9495L409.022 30.0896L408.617 30.2745L408.492 30.4295L408.351 30.4445L406.901 31.4493L406.198 32.1618L405.76 32.7044L405.082 32.9893L404.817 33.1592C404.231 33.6467 403.723 34.1967 403.146 34.7542L402.84 35.2118L402.02 36.1494L401.582 36.6919L400.886 37.4745L400.011 38.5596L399.15 39.7847L398.962 40.0172L398.609 40.6924L398.194 41.445L397.568 42.2201Z" fill="#2B9191"/>
</g>
<g style="mix-blend-mode:difference">
<path d="M322.206 122.44C322.253 122.223 322.301 122.005 322.279 121.795L322.271 121.725L322.281 121.157L322.399 120.932L322.302 120.022L322.57 119.214L322.472 118.304L322.508 117.308L322.658 116.726L323.401 115.726L323.464 115.648C323.456 115.578 323.519 115.501 323.511 115.431L323.536 115.003L323.702 114.56C324.175 113.022 324.718 111.477 325.331 109.924L325.397 109.209L325.639 108.829L325.752 107.896L325.98 107.376L326.263 106.708L326.358 106.273L326.516 105.761L327.064 104.923L328.017 103.9L329.961 100.222L332.396 96.4917C332.631 96.0417 332.867 95.5916 333.234 95.0565L333.282 94.8389L333.627 94.0938L334.393 93.3038L334.848 92.2635L335.599 91.3335L336.247 90.7685L336.56 90.3809L336.865 89.9234L337.185 89.6059C337.991 88.5283 338.914 87.2256 339.948 85.6279L340.526 85.0704L340.668 84.4177L341.449 83.7677L341.519 83.7602L342.104 83.2727L343.723 81.1875L343.998 80.4499L344.374 79.9848L345.007 79.2798L345.835 78.4122L346.28 77.9397L346.71 77.3271L347.811 76.3597L349.515 74.407L349.618 74.0419L349.588 73.7618L349.798 73.7394L350.141 73.632C351.602 72.0594 353 70.5643 354.281 69.2943L354.336 69.1468L354.641 68.6892L354.837 68.5267L355.374 68.2568C355.562 68.0243 355.757 67.8618 355.952 67.6993L359.052 64.8894L359.155 64.5242L359.28 64.3692L359.63 64.3318L360.348 63.7594L361.153 62.6818L362.862 61.4369L362.932 61.4294C364.485 60.0595 366.039 58.6895 367.6 57.3896L367.773 57.017L368.381 56.7396L372.166 53.7148L372.603 53.1722L372.673 53.1648L372.931 52.9248L372.964 52.5671L373.159 52.4046L373.727 52.4148L373.992 52.2449L374.625 51.5398L375.015 51.2148L375.615 50.8674L376.426 50.4976L377.089 50.0727L377.151 49.9951L378.405 47.8073L378.467 47.7298C378.703 47.2797 378.86 46.767 379.143 46.0994L380.157 43.6539L380.267 43.3588L380.715 42.2485L381.369 40.4081L381.439 40.4006L381.857 39.0102L382.175 37.3472L382.145 37.0671L381.897 36.7394L381.82 36.6769L381.687 36.7618L381.477 36.7843L381.12 36.7516L380.387 37.184L379.889 37.1664L379.764 37.3214L379.624 37.3363L379.296 37.5838L379.179 37.8089L378.991 38.0414L378.461 38.3813L378.173 38.3412L377.985 38.5737L376.097 40.1211L375.979 40.3462L375.769 40.3686L373.553 42.1635L373.35 42.256L372.952 42.5109L372.484 42.7734L371.049 43.9183L370.283 44.7083L368.209 45.8505L368.084 46.0055L367.889 46.168L367.484 46.3529L367.024 46.6854L366.961 46.7629L366.758 46.8554L364.66 48.4252L364.159 49.0453L363.769 49.3703L363.581 49.6028L363.486 50.0379L363.354 50.1229L362.793 50.1827L362.318 50.3751L361.08 50.7198L360.807 50.8198C359.397 51.5371 358.103 52.0293 357.046 52.0714C356.765 52.1014 356.618 52.0463 356.595 51.8362L356.2 51.4534L355.86 50.9231L355.816 50.5029L355.918 50.1378L355.954 49.1425L356.141 48.91L356.196 48.7624L356.494 48.2348C356.487 48.1648 356.549 48.0873 356.612 48.0098C356.737 47.8548 356.869 47.7698 356.917 47.5522L356.987 47.5447L357.708 46.3346L358.091 45.9395L359.349 44.4594L359.529 44.1569L359.794 43.9869L360.427 43.2819L360.49 43.2044L360.935 42.7318L360.99 42.5843L361.568 42.0268L362.171 41.0417L362.554 40.6466L362.764 40.6242L363.217 40.2217L363.537 39.9042L364.108 39.2767L364.178 39.2692L364.45 39.1693L364.583 39.0843L364.7 38.8592L364.911 38.8368C365.754 38.1093 365.816 38.0318 366.659 37.3043L366.972 36.9168L368.408 35.7719L368.61 35.6794L368.868 35.4394L369.586 34.8669L369.781 34.7045L371.287 33.5521L371.81 33.1421L372.248 32.5995L372.708 32.2671L373.106 32.0121L374.351 31.7375C376.278 30.5402 378.156 29.5605 378.801 29.6332C379.089 29.6733 379.657 29.6835 379.959 29.8637C380.262 30.0439 380.462 30.5891 380.764 30.7693C380.989 30.8869 381.199 32.8477 381.081 33.0728L380.963 33.2978L380.946 33.7955L380.74 34.5257L380.575 34.9683L381.035 34.6358L382.811 34.0212L383.777 33.7765L384.337 33.7166L384.772 33.8118L385.005 33.9995L385.057 34.4897L385.022 35.485L384.614 36.3077L384.378 36.7578L384.066 37.1453L383.515 38.6207L382.762 40.1885L381.62 43.4268L381.61 43.9945L381.419 44.8647L380.879 45.7724L380.641 46.8602L380.406 47.3103L380.123 47.9779L380.06 48.0554L384.053 45.6459L384.701 45.081L385.176 44.8885L386.532 44.3188L388.535 43.1841C389.268 42.7517 390.009 42.3893 390.819 42.0194L391.209 41.6945L391.559 41.6571L391.677 41.432L393.46 40.8874L393.6 40.8725C393.67 40.865 393.74 40.8575 393.873 40.7725L394.006 40.6876L394.013 40.7576L394.831 40.4578L395.026 40.2953L395.104 40.3578C395.166 40.2803 395.236 40.2728 395.376 40.2579L395.439 40.1804L395.641 40.0879L396.109 39.8255L396.437 39.578L396.99 39.4481L397.738 39.1558L398.92 38.9586L400.004 38.4888C400.144 38.4739 400.221 38.5364 400.299 38.599L400.556 38.359L400.766 38.3365L401.069 38.5167L401.184 38.9294L400.996 39.1619L400.794 39.2544L400.373 39.2993L400.046 39.5467L399.968 39.4842L399.703 39.6542L398.815 39.9615L398.535 39.9914L397.632 40.1586L395.248 41.0506L394.726 41.4606L394.033 41.6054L393.417 41.8128L391.984 42.32L391.509 42.5124L389.918 43.5322L389.535 43.9272L388.102 44.4344L387.244 45.0218L385.888 45.5916C384.555 46.3714 383.697 46.9588 382.574 47.7162L382.051 48.1262L381.193 48.7136L380.67 49.1235L380.132 49.3935L380.062 49.4009L378.612 50.4058L378.119 51.0959L378.064 51.2434L377.758 51.701L377.638 52.5638L377.73 52.7664L377.528 52.8588L377.075 53.2613L376.88 53.4238L376.582 53.9514L376.417 54.394L376.229 54.6265L376.159 54.634L375.453 55.9843L372.06 62.0128L372.068 62.0828L371.292 63.4406L371.159 63.5255L370.799 64.1306L370.821 64.3407L369.498 66.5361L369.428 66.5436C369.082 67.2887 368.652 67.9013 368.236 68.6539L367.641 69.7091L366.387 71.897L363.732 76.2176L363.685 76.4352L363.615 76.4427L362.228 78.7155L362.048 79.0181L361.287 80.5159L358.077 85.6041L356.635 88.0245L352.697 94.253C351.428 96.3008 350.082 98.286 348.743 100.341L348.641 100.706L345.853 105.112C345.019 107.255 343.511 109.045 342.297 110.945C341.466 112.451 340.115 113.728 339.222 115.311L338.011 116.574L337.651 117.179L336.938 118.459C335.849 120.204 334.288 121.504 333.425 123.367L333.097 123.614L332.564 124.592L331.866 126.012C331.796 126.02 331.803 126.09 331.733 126.097C330.445 127.297 329.304 128.552 327.668 129.152L326.375 129.644L324.424 129.286L324.254 129.021C323.579 128.668 323.007 127.95 322.552 127.007C322.544 126.937 322.529 126.797 322.429 126.524C322.215 125.839 322.14 125.139 322.135 124.431L321.956 122.75L322.206 122.44ZM368.365 65.8779L370.229 62.7749L370.277 62.5574L371.24 60.9671L371.31 60.9597L371.303 60.8896L371.586 60.222L372.714 58.1891L373.295 56.9939L375.167 53.9609L375.897 52.183L375.765 52.268C374.704 52.9479 373.721 53.6903 372.738 54.4327L372.628 54.7278L372.098 55.0678L371.855 55.4478L370.452 56.2351L367.712 58.44L367.657 58.5875L367.587 58.595L367.322 58.765L367.337 58.905L367.009 59.1525L366.892 59.3775L366.612 59.4075L364.598 61.1099L364.167 61.7225L363.685 61.8448L360.522 64.7323L360.022 65.3524L359.882 65.3673C356.992 68.1548 354.18 71.0049 351.516 73.9101L351.328 74.1426L350.843 74.9027L350.055 75.4826C347.906 77.9078 345.819 80.2554 343.888 82.7282L343.762 82.8832L343.347 83.6358L342.824 84.0458L341.698 85.4409L341.658 85.7285L341.29 86.2636L341.165 86.4186L340.305 87.6437L339.867 88.1863L339.539 88.4337L338.528 90.2416L336.564 93.0719L334.334 96.0723L333.191 97.9651C332.33 99.1902 331.594 100.26 331.061 101.238L330.823 102.326L329.995 103.193L329.102 104.776C329.109 104.846 329.117 104.916 329.054 104.994C328.411 106.266 328.041 107.439 327.545 108.767C326.286 112.23 325.019 115.624 323.985 119.205L323.993 119.275L323.957 120.27L323.892 120.985L323.587 121.443L323.624 121.793L323.474 122.376C323.489 122.516 323.434 122.663 323.449 122.803L323.471 123.013C323.458 124.219 323.515 125.417 323.76 126.382C323.845 126.515 323.86 126.655 323.937 126.717L324.723 126.775C325.743 126.383 326.601 125.796 327.452 125.138L328.553 124.171L329.303 123.241L331.074 121.918C332.808 120.246 334.704 118.768 336.286 116.333C337.93 113.82 340.411 111.855 345.106 103.421L345.051 103.569C346.217 101.886 347.305 100.141 348.401 98.4655L350.876 94.4474C351.644 93.0196 352.623 91.5694 353.553 90.3368C354.407 89.0416 355.253 87.6764 356.028 86.3187L356.271 85.9386L357.367 84.2634L359.456 81.278L360.169 79.9978L360.46 79.4002L361.298 77.9649L362.059 76.4672L362.427 75.9321L362.544 75.707L362.927 75.312L362.99 75.2345L363.147 74.7219L363.287 74.7069L363.35 74.6294L363.335 74.4894L364.111 73.1316L364.298 72.8991C364.949 71.6964 365.6 70.4937 366.32 69.2835L366.611 68.6859L367.034 68.0033L367.254 67.4131L367.872 66.568L368.365 65.8779ZM365.221 46.3822L367.054 44.9823L367.124 44.9748L368.225 44.0073L368.468 43.6273L368.74 43.5273L368.81 43.5199L368.858 43.3023L369.186 43.0548L369.303 42.8298L369.653 42.7924L371.605 41.1675L371.652 40.9499L371.582 40.9574L371.645 40.8799L371.785 40.8649L371.917 40.7799L372.043 40.6249L372.223 40.3224L372.956 39.89L373.714 39.0299L374.104 38.7049L374.384 38.675L374.914 38.3351L375.57 37.8401L375.492 37.7776L375.54 37.56L375.742 37.4675L375.82 37.5301L375.96 37.5151L375.842 37.7402L375.968 37.5852L376.248 37.5552L376.435 37.3227L376.505 37.3152L376.708 37.2228L377.573 36.7054L377.581 36.7754L377.643 36.6979L377.318 36.3077L377.251 35.6774L377.597 34.9322L377.777 34.6297L378.535 33.7696L379.083 32.932L379.34 32.692L379.373 32.3344L379.803 31.7218L379.814 31.1541L379.636 30.8189L379.411 30.7013C378.501 30.7985 376.88 31.5383 375.617 32.3106L375.156 32.6431L374.634 33.053L373.853 33.703L373.338 34.183L372.87 34.4454L371.99 34.8228L371.061 35.4177C370.726 35.5951 370.469 35.8351 370.211 36.0751C369.165 36.8951 368.057 37.7925 366.956 38.76L366.839 38.985L366.323 39.465L365.668 39.96L365.223 40.4325L364.052 41.4074L362.701 42.6849L361.365 44.1025L360.169 45.5051L360.114 45.6526L359.996 45.8777L359.706 46.4753L359.448 46.7153L358.227 48.5455L357.927 49.7109L357.802 49.8659L357.629 50.2385L357.519 50.5335L357.471 50.7511L357.571 51.0237L357.719 51.0788C357.999 51.0489 358.271 50.9489 358.614 50.8415C359.027 50.7266 359.494 50.4642 359.9 50.2793L360.087 50.0467L360.64 49.9169L360.765 49.7619L361.546 49.1119L362.216 48.757C362.739 48.347 363.269 48.0071 363.722 47.6046L363.98 47.3646L364.097 47.1396L364.44 47.0321L365.033 46.6147L365.221 46.3822Z" fill="#2B9191"/>
</g>
<g style="mix-blend-mode:difference">
<path d="M342.696 49.5684L342.876 49.2659L342.931 49.1183L343.048 48.8933L344.144 47.218L344.365 46.6279L344.552 46.3954L344.607 46.2478L344.803 46.0854L345.546 45.0852L345.788 44.7052L345.773 44.5651L345.851 44.6277L345.986 43.905L345.909 43.8424L345.551 43.8098L344.921 43.8771L344.103 44.1769L342.154 45.1641L341.679 45.3565L341.336 45.4639L339.44 46.9413L339.37 46.9488L338.847 47.3588L338.38 47.6212L337.919 47.9537L336.391 48.896L334.878 49.9783L334.277 50.3258L333.287 50.9982L332.951 51.1756L332.163 51.7556L331.758 51.9405L330.58 52.8454L330.19 53.1704L329.807 53.5654L329.199 53.8428L328.599 54.1902L327.015 55.2801L326.89 55.4351L326.235 55.93L326.095 55.945L326.102 56.015L325.472 56.0823L324.669 56.5222L324.109 56.582C323.914 56.7445 323.641 56.8445 323.438 56.9369L323.181 57.1769L321.832 57.8167L321.56 57.9166L320.554 58.449L320.422 58.534L320.219 58.6264L320.009 58.6489L319.581 58.6237L319.511 58.6312C318.406 58.8909 317.473 58.778 317.111 58.0376C316.733 57.1572 316.901 56.0769 317.272 54.904L317.462 54.0338L317.665 53.9413L317.705 53.6537L317.94 53.2037L318.05 52.9086L318.183 52.8236L318.19 52.8936L318.293 52.5285L318.708 51.7759L319.419 51.1334L319.544 50.9784L320.007 50.0082L320.25 49.6281L320.765 49.1481L321.531 48.3581L324.383 45.2204L324.375 45.1504L324.445 45.1429L325.273 44.2754L325.461 44.0429L326.547 42.9354L327.07 42.5254L328.748 41.0004L328.811 40.9229L329.554 39.9228L329.867 39.5353L330.095 39.0151L330.227 38.9302L330.725 38.9478L330.92 38.7853L331.395 38.5929L331.668 38.493L332.01 38.3856L332.268 38.1456L332.253 38.0055L332.791 37.7356L334.912 36.3758L335.295 35.9808L335.56 35.8109L336.105 35.611L336.253 35.666L336.386 35.5811L336.993 35.3037L337.203 35.2812L337.531 35.0338L338.014 34.9114L338.419 34.7265L338.894 34.534L339.167 34.4341L339.89 34.5694L340.302 34.4545L340.723 34.4096L341.01 34.4498L341.15 34.4348L341.158 34.5048L341.438 34.4749L341.663 34.5925L341.748 34.7251L342.035 34.7652L342.213 35.1004L342.28 35.7307L342.085 35.8932C342.037 36.1107 341.842 36.2732 341.404 36.8158C341.209 36.9782 340.992 36.9307 340.914 36.8681L340.166 37.1605L339.684 37.2828L338.423 37.4174L337.288 37.397L337.295 37.4671L337.015 37.497L337.008 37.427L336.868 37.4419L336.385 37.5643L335.895 37.6166L334.959 38.1415L333.891 38.7514L332.355 39.6237L331.287 40.2335C330.889 40.4885 330.569 40.806 330.179 41.131C330.116 41.2085 330.116 41.2085 330.109 41.1384L329.531 41.6959L329.468 41.7734L329.336 41.8584L326.431 44.5059L326.181 44.8159L325.626 45.5835L325.188 46.1261L324.727 46.4585L324.135 46.876L323.947 47.1085L323.392 47.8761L323.266 48.0311L323.149 48.2561L322.421 49.3963L322.226 49.5588L322.1 49.7138L321.905 49.8763L321.795 50.1714L321.615 50.4739L321.475 50.4889L321.372 50.854L321.13 51.234L321.019 51.5291L320.707 51.9166L320.401 52.3742L319.791 53.2893L319.806 53.4294L319.921 53.8421L319.866 53.9896L319.881 54.1297L319.755 54.2847L319.498 54.5247L319.318 54.8272L319.012 55.2848L318.777 55.7349L318.792 55.8749L318.737 56.0225L318.782 56.4426L318.944 56.6378L319.192 56.9655L319.417 57.0831L320.828 56.3658L321.443 56.1585L322.386 55.7036L322.456 55.6961L322.799 55.5887C323.672 55.1414 324.537 54.624 325.403 54.1066L325.73 53.8591L326.191 53.5266L326.511 53.2091L327.071 53.1493C327.804 52.7169 328.607 52.277 329.332 51.7746L329.653 51.4571L330.12 51.1946L330.113 51.1246L330.245 51.0396L330.433 50.8071L330.706 50.7072L331.704 50.1048L332.234 49.7648L332.694 49.4324L334.48 48.2501L334.933 47.8476L336.797 46.7278L337.202 46.5429L338.395 45.778L338.973 45.2205L340.166 44.4556L340.487 44.1381L341.009 43.7282L341.33 43.4107L342.11 42.7607L342.961 42.1032L345.079 41.3812L345.92 41.2915L346.565 41.3642L347.085 41.592L347.387 41.7722C347.675 41.8123 347.83 41.9374 348 42.2025L348.008 42.2726L348.155 42.3276L348.185 42.6077L348.137 42.8253L348.277 42.8103L348.222 42.9579L348.145 42.8953L348.02 43.0503L347.902 43.2754L347.792 43.5705L347.409 43.9655C347.354 44.113 347.229 44.268 347.104 44.423L346.696 45.2457L346.313 45.6407L346.111 45.7332L345.375 46.8033L345.25 46.9583L345.257 47.0284L345.125 47.1133L344.764 47.7184L344.647 47.9435L344.537 48.2386L344.059 49.0687C343.934 49.2237 343.886 49.4413 343.831 49.5888L343.681 50.1715L343.618 50.249C343.508 50.544 343.468 50.8316 343.553 50.9642C343.575 51.1743 343.49 51.0417 343.778 51.0818C343.848 51.0744 343.925 51.1369 343.995 51.1294L344.338 51.022L344.828 50.9697L344.961 50.8847L345.451 50.8323L345.794 50.7249L345.941 50.78C346.424 50.6576 346.829 50.4727 347.445 50.2653L347.99 50.0654L348.458 49.803L348.878 49.7581L351.254 48.7961L351.449 48.6336L352.197 48.3412L352.204 48.4113L353.085 48.0339L353.615 47.694L353.888 47.5941L354.146 47.3541L356.389 46.477L356.374 46.337L356.599 46.4546L357.207 46.1772L357.395 45.9447L360.651 44.6053L361.002 44.5679L362.692 43.8207C362.762 43.8132 362.832 43.8058 362.91 43.8683L363.05 43.8534L363.172 44.3361L362.915 44.5761L362.354 44.6359L361.194 45.0432L360.398 45.5531L360.118 45.583L359.028 45.9827L358.49 46.2527L356.962 47.195L355.823 47.8123L354.538 48.3746L353.057 49.0993L352.792 49.2693L352.121 49.6242L351.794 49.8717L351.256 50.1416L351.186 50.1491L350.718 50.4115L350.195 50.8215L349.993 50.9139L349.868 51.0689L348.114 51.8936L348.129 52.0337L348.052 51.9711L347.514 52.2411L347.459 52.3886L346.313 52.9359L345.3 53.3982L344.98 53.7157L344.917 53.7932L344.832 53.6606L344.63 53.7531L344.505 53.9081L344.357 53.8531L344.295 53.9306L343.819 54.123L343.049 54.2052L342.902 54.1502L342.411 54.2025L342.046 54.0998L341.751 53.9897L341.511 53.732L341.544 53.3744L341.444 53.1018C341.344 52.8291 341.321 52.619 341.417 52.1839L341.574 51.6713L341.615 51.3837L342.037 50.7011L342.21 50.3285L342.696 49.5684Z" fill="#2B9191"/>
</g>
<g style="mix-blend-mode:difference">
<path d="M318.387 16.9616L319.36 16.7868L320.481 16.6672L320.794 16.2797L322.408 13.4867L322.595 13.2542L323.316 12.044L323.629 11.6564L324.052 10.9738L324.247 10.8113L324.905 9.67865L324.89 9.5386L325.14 9.22857L325.25 8.9335L325.368 8.70846L325.173 8.87095L325.103 8.87843L325.088 8.73837L325.205 8.51333L325.478 8.41339L325.5 8.62347L325.743 8.24342L326.056 7.85588L326.354 7.32829L326.401 7.11073L326.637 6.66065L327.55 5.92569L328.043 5.23561L328.3 4.99561L328.503 4.90315L328.558 4.75561L328.55 4.68558L328.613 4.60807L328.62 4.6781L328.943 3.72286L329.381 3.18031L330.354 3.00558L331.019 3.92616L331.194 4.89907L330.281 5.63403L329.648 6.33907L329.24 7.16173L328.942 7.68932L328.917 8.11697L326.9 10.4571L326.252 11.0221L323.773 14.3325L322.434 16.3878L323.267 16.228L323.525 15.988L323.735 15.9656L323.967 16.1532L325.703 15.8262L325.688 15.6861L330.38 15.1851L332.388 14.7581L334.489 14.5338L334.722 14.7214L335.282 14.6616L335.304 14.8717L337.14 14.8173L337.755 14.6099L338.758 14.7153L339.934 14.4481L340.424 14.3958L341.062 14.3985L341.924 14.5188L342.422 14.5365L342.99 14.5467L344.793 14.85L344.933 14.835L345.508 14.9152L346.418 14.818L347.009 15.0383L348.572 15.0839L348.859 15.124L349.317 15.4292C349.604 15.4694 349.892 15.5095 350.187 15.6196L350.25 15.5421L350.327 15.6047L352.223 16.1105L352.355 16.0255L352.44 16.1581L352.51 16.1506L352.518 16.2206L353.621 16.5987L353.761 16.5837L353.986 16.7013C354.063 16.7639 354.141 16.8264 354.281 16.8115L354.638 16.8441L355.524 17.1745L355.771 17.5022L356.454 17.9251L356.734 17.8952L357.044 18.1454L357.129 18.278C357.579 18.5132 357.966 18.826 358.346 19.0687C358.354 19.1387 358.424 19.1313 358.431 19.2013L358.649 19.2489L359.214 19.8968L359.221 19.9668L359.376 20.0919L359.812 20.1871L359.967 20.3122L359.956 20.8799L360.219 21.3477L360.704 22.5708L360.833 23.1236C360.841 23.1936 360.918 23.2561 360.996 23.3187C361.018 23.5288 361.033 23.6688 360.971 23.7463L361.048 23.8089L360.883 24.2515L360.488 23.8687L360.396 23.6661C360.311 23.5335 360.296 23.3935 360.281 23.2534L359.686 22.3254L359.061 21.1172L358.891 20.8521L358.814 20.7895L358.326 20.2041L357.776 19.6962C357.698 19.6337 357.698 19.6337 357.691 19.5637L356.846 18.9456L356.551 18.8355L355.643 18.295L355.566 18.2324C355.418 18.1774 355.201 18.1298 355.046 18.0047L354.828 17.9571L354.68 17.902L354.083 17.6117L353.5 17.4614L353.065 17.3663L352.903 17.1711L352.825 17.1086L352.685 17.1235L352.46 17.0059L351.295 16.7054L349.949 16.7074L349.444 16.6197L348.559 16.2893L347.478 16.1214C346.328 15.9609 345.123 15.948 343.91 15.865L343.777 15.95L342.564 15.8671L341.997 15.8569L341.296 15.9316L340.813 16.054L339.531 15.9785L338.893 15.9758L338.48 16.0907L338.263 16.0431L337.407 15.9928C336.84 15.9826 336.209 16.0499 335.719 16.1023L335.446 16.2022L335.229 16.1546C334.809 16.1995 334.451 16.1669 334.101 16.2042C331.86 16.4436 329.619 16.6829 327.386 16.9922L326.903 17.1146L326.435 17.377L326.458 17.5871L326.178 17.617L325.452 18.1195L325.172 18.1494L325.194 18.3595L324.984 18.3819L323.979 18.9142L320.547 19.2807C320.187 19.8858 319.749 20.4283 319.451 20.9559L319.286 21.3985L318.903 21.7935C318.536 22.3286 318.168 22.8637 317.87 23.3913L317.822 23.6088L316.962 24.834L316.083 26.5568L315.535 27.3944L314.487 28.8521L314.362 29.0071L312.442 32.2576L312.02 32.9402L310.806 34.8405L310.641 35.2831L310.328 35.6707L309.975 36.3458L309.575 37.2385L309.332 37.6185L308.902 38.2311L308.401 38.8512L308.041 39.4563L307.978 39.5338L307.798 39.8363L307.64 40.349L306.747 41.9317L306.557 42.802L303.751 47.7053L302.766 49.0855L301.459 50.7832L301.147 51.1707L300.529 52.0158L300.183 52.7609L300.096 53.2661L299.5 54.3213L299.074 55.6416L298.659 56.3943L297.813 57.7595L297.55 59.2749L297.595 59.6951L297.562 60.0527L297.099 61.0229L297.126 61.9408L296.929 62.741L296.826 63.1061L296.996 63.3712L297.361 63.4739L297.774 63.359L299.004 62.9443L299.41 62.7594L299.527 62.5343L300.688 62.1271L301.288 61.7796L301.826 61.5097L302.216 61.1848L302.769 61.0549L303.377 60.7775L303.704 60.53L303.985 60.5001L304.187 60.4077L305.911 59.3028L307.181 58.6005L307.174 58.5305L307.314 58.5155L307.487 58.143L307.697 58.1205L308.102 57.9356L308.312 57.9132L308.5 57.6806L308.71 57.6582L310.643 56.531L311.299 56.036L311.571 55.9361L314.698 54.044L315.354 53.549L315.821 53.2866L316.624 52.8467L317.685 52.1668L317.755 52.1593L318.06 51.7018L318.786 51.1993L319.596 50.8295L320.539 50.3746L322.325 49.1923L322.318 49.1223L322.388 49.1148L322.715 48.8673L322.973 48.6273L323.894 47.9624L324.104 47.94L324.089 47.7999L324.502 47.685L324.822 47.3675L325.009 47.135L325.367 47.1676L325.544 47.5028L325.629 47.6354L325.582 47.8529L325.394 48.0855L324.841 48.2153L324.654 48.4478L322.898 49.9103L322.367 50.2502L321.649 50.8227L320.659 51.4951L319.926 51.9275L319.248 52.2124L318.32 52.8073L317.86 53.1397L317.672 53.3722L316.947 53.8747L316.096 54.5321L314.958 55.1494L314.623 55.3269L314.052 55.9544L313.445 56.2318L312.774 56.5867L312.501 56.6867L312.119 57.0817L311.791 57.3292L311.448 57.4366L310.87 57.9941L310.675 58.1566L310.123 58.2864L309.625 58.2687L309.227 58.5237L307.971 59.3661L307.309 59.791L306.373 60.3159L306.163 60.3383L305.367 60.8482L304.609 61.7083L303.954 62.2032L303.611 62.3107L303.541 62.3181L303.626 62.4507L303.579 62.6683L303.306 62.7682L302.886 62.8131L302.996 62.518L302.723 62.618L302.138 63.1054L301.95 63.338L300.064 64.2476L297.556 65.2946L296.638 65.3218L296.435 65.4143L295.93 65.3266L295.642 65.2865L295.13 65.1287L294.875 64.731L294.667 64.1157C294.567 63.8431 294.648 63.2679 294.618 62.9878C294.628 62.4201 294.763 61.6974 295.024 60.8196L295.009 60.6796L295.096 60.1744L295.262 59.7318L295.387 59.5768L295.349 59.2266L295.467 59.0016L295.772 58.544L295.89 58.319L296.25 57.7139L296.816 56.3786L296.933 56.1536L297.014 55.5784L297.109 55.1433L297.289 54.8407L297.657 54.3056L298.01 53.6305L298.167 53.1179L298.403 52.6678L298.723 52.3503L298.778 52.2028L299.223 51.7302L299.794 51.1027L300.092 50.5751L300.132 50.2875L300.234 49.9224L300.695 49.59L301.47 48.2322L301.518 48.0147L301.706 47.7821C301.948 47.4021 302.184 46.952 302.496 46.5645L302.849 45.8893L303.327 45.0592L303.68 44.3841L304.04 43.779L304.235 43.6165L304.353 43.3914L304.596 43.0114L304.658 42.9339C304.776 42.7088 304.971 42.5463 305.019 42.3288L305.074 42.1812L305.254 41.8787L305.379 41.7237L305.559 41.4211L305.544 41.2811L305.794 40.971L305.757 40.6209L306.72 39.0307L306.986 38.8607C306.986 38.8607 307.056 38.8532 307.048 38.7832L307.081 38.4256L307.746 37.3629L307.942 37.2004L308.162 36.6103L308.67 36.0602L310.864 32.072L311.185 31.7545L312.148 30.1643L312.273 30.0093C312.523 29.6992 312.759 29.2492 312.994 28.7991L313.056 28.7216L313.174 28.4965L313.244 28.489L314.207 26.8988L314.17 26.5486L315.156 25.1685L315.351 25.006L315.656 24.5484L315.696 24.2608L317.075 21.9179L317.473 21.663L317.911 21.1204L317.903 21.0504L318.154 20.7404L318.139 20.6003L318.319 20.2978L318.521 20.2053L318.639 19.9803L318.632 19.9102L318.742 19.6152L318.789 19.3976L319.33 18.49L319.19 18.5049L318.792 18.7599L317.406 19.0495L316.581 19.2793L314.495 19.6437L312.354 20.1557L311.801 20.2855L311.179 20.4228L309.388 20.8974L308.842 21.0973L305.383 22.5291L304.79 22.9466L304.525 23.1165L303.7 23.3463L302.712 23.381L301.549 24.426L301.011 24.6959L299.64 25.1256L297.992 24.9474L297.365 24.377L297.22 23.6842L297.308 23.1791L297.378 23.1716C297.363 23.0315 297.418 22.884 297.543 22.729L297.683 22.714L297.598 22.5814L297.583 22.4414L297.753 22.7065C298.883 22.0192 300.239 21.4494 301.882 20.9198L302.951 20.31L304.064 20.1203L304.499 20.2155L307.332 19.5587L307.465 19.4737L307.535 19.4662L309.403 19.0542L309.466 18.9767L309.606 18.9618L310.852 18.6871L311.069 18.7347L311.489 18.6898L311.552 18.6123L311.902 18.5749L313.615 18.0378L313.748 17.9528L314.083 17.7754L314.503 17.7305L315.679 17.4633L315.881 17.3709L316.379 17.3885C316.722 17.2811 317.064 17.1737 317.415 17.1363L317.477 17.0588L317.757 17.0289L318.387 16.9616Z" fill="#2B9191"/>
</g>
<g style="mix-blend-mode:difference">
<path d="M278.115 45.698L278.038 45.6355L277.448 45.4152L277.09 45.3826L276.415 45.0297L276.33 44.8971C276.112 44.8495 275.895 44.8019 275.74 44.6768L274.342 44.1887L273.977 44.086L273.549 44.0609L273.044 43.9732L272.819 43.8555L272.671 43.8005L272.291 43.5577L271.399 43.1573L269.418 42.5189C267.958 42.1082 268.013 41.9607 266.397 41.4249L265.962 41.3297L265.037 41.2869L263.429 40.8212L263.009 40.866L262.341 40.5832L262.164 40.248L261.061 39.87L260.206 39.8197L258.428 39.0888L257.185 38.7257L255.492 38.1274L255.422 38.1349L253.394 37.714L251.491 37.1382L250.831 36.9253L249.913 36.9525L249.68 36.7649L249.613 36.1346L249.303 35.8844L248.178 35.2963L247.588 35.076L246.463 34.4879L246.175 34.4478L245.81 34.3452L245.43 34.1024L245.182 33.7747L244.747 33.6795L244.592 33.5544L244.452 33.5694L244.25 33.6619L244.094 33.5368L243.892 33.6292L243.822 33.6367L243.379 33.4715L243.387 33.5415L243.309 33.479L243.372 33.4015L243.209 33.2063L242.992 33.1587L242.984 33.0887L242.519 32.7134L242.187 32.2531L242.032 32.128L241.644 31.8153L241.327 31.4951L241.142 31.0898L241.112 30.8097L241.027 30.6771L240.787 30.4195L240.694 30.2169L240.547 30.1618L240.329 30.1142L240.097 29.9266L239.949 29.8715L239.702 29.5438L239.639 29.6213L239.632 29.5513L239.694 29.4737L239.672 29.2637L239.509 29.0685L239.494 28.9285L239.302 28.4532L239.212 27.6129L239.267 27.4654L239.275 27.5354L239.292 27.0377L239.215 26.9752L239.435 26.385L239.693 26.145L239.91 26.1926C239.881 25.9125 239.921 25.6249 239.961 25.3373L239.908 24.8471L239.838 24.8546L239.831 24.7846L239.971 24.7696L240.019 24.552L239.996 24.342L240.059 24.2645L240.051 24.1944L240.139 23.6893L240.374 23.2392L240.484 22.9441L240.617 22.8591L240.624 22.9292L240.86 22.4791L240.852 22.409L241.11 22.169L241.375 21.9991L241.445 21.9916L241.61 21.549L242.408 20.4013L243.462 19.6514L243.649 19.4189L245.303 18.3216L245.841 18.0517C245.833 17.9816 245.903 17.9742 245.903 17.9742L246.286 17.5791L247.939 16.4818L248.392 16.0793L250.186 14.967L251.191 14.4347L253.32 13.145L254.093 12.425L254.491 12.17L254.789 11.6424L254.999 11.62L255.434 11.7152L255.636 11.6227L256.112 11.4303L256.384 11.3304L256.804 11.2855L258.886 10.2133L259.081 10.0508L259.408 9.80334L259.759 9.76594L260.539 9.11598L261.589 9.0038L262.065 8.81139L262.352 8.85151L263.715 8.3518L264.588 7.90444L265.414 7.67464L266.457 7.49243L266.792 7.31498L267.08 7.3551L267.695 7.14774L267.897 7.05527L268.793 6.81799L269.238 6.34548L269.596 6.37811L269.721 6.22309L270.344 6.08576L270.259 5.95318L270.384 5.79817L270.414 6.07828L270.771 6.11092L270.966 5.94843L271.184 5.99602L271.262 6.05857L271.892 5.99127L272.397 6.07897L272.887 6.02662L273.61 6.16192C274.178 6.17212 274.675 6.1898 275.188 6.34754L275.32 6.26255L275.771 6.4978L275.981 6.47536L276.043 6.39786L276.121 6.4604L276.058 6.53791L276.283 6.65554L276.446 6.85066L276.391 6.9982C276.623 7.18585 276.863 7.44352 277.033 7.70868C277.118 7.84126 277.126 7.91129 277.07 8.05882L276.843 8.57893L276.913 8.57145L277.448 8.93928L277.908 8.60681L277.788 9.46959L277.327 9.80205L277.41 10.5724L277.359 11.4277L277.389 11.7078L276.859 12.0477L276.354 11.96L275.749 11.5997L275.029 10.8266L274.721 9.9387L274.186 9.57088L274.074 8.52046L273.702 8.34776L273.499 8.44022L272.346 8.9175L271.738 9.19489L271.606 9.27987L271.318 9.23976L271.1 9.19217L270.783 8.87194L270.348 8.77675L270.123 8.65913L269.477 8.58638L268.887 8.3661L268.747 8.38105L268.6 8.32598L268.047 8.45584L267.797 8.76586L267.289 9.31589L266.471 9.61572L266.091 9.373L265.726 9.27033L264.363 9.77004L264.16 9.86251L263.98 10.1651L263.762 10.1175L263.357 10.3024L263.07 10.2623L262.874 10.4248L262.454 10.4696L261.817 10.4669L261.201 10.6743L260.991 10.6967L260.704 10.6566L260.143 10.7164C258.18 11.5636 256.301 12.5433 254.43 13.593L254.298 13.678L253.44 14.2654L253.002 14.808L252.457 15.0078L251.436 15.4001L247.193 18.1197L246.35 18.8471L245.007 20.1947L245.014 20.2647L244.944 20.2722L244.569 20.7372L244.437 20.8222L242.593 22.7898L242.39 22.8823L242.483 23.0849L242.572 23.9252L242.687 24.3379L242.632 24.4854L242.647 24.6255L242.522 24.7805L242.264 25.0205L242.084 25.323L241.779 25.7806L241.544 26.2307L241.559 26.3707L241.503 26.5183L241.548 26.9385L241.626 27.001L241.633 27.071L241.711 27.1336L241.958 27.4613L242.026 28.0915L241.838 28.3241L242.281 28.4893L242.621 29.0196L243.053 29.7525L243.743 30.2454L243.983 30.5031L244.16 30.8383L244.81 31.6188L245.811 32.3619L246.331 32.5897L246.858 32.8875L247.021 33.0826L248.441 33.7809L249.101 33.9937L249.256 34.1188L250.931 35.2148L251.592 35.4276L252.237 35.5003L252.764 35.7981L253.214 36.0333L254.402 36.5439C254.472 36.5365 254.542 36.529 254.62 36.5915L254.977 36.6242L255.933 36.9471L256.298 37.0498L256.445 37.1049C256.74 37.215 256.965 37.3326 257.253 37.3727L260.436 38.6618L260.654 38.7094L261.602 38.9623L261.827 39.08L262.199 39.2527L262.627 39.2778L263.387 39.7633C264.272 40.0937 265.15 40.3541 266.028 40.6145L266.68 40.7573L266.968 40.7974L267.03 40.7199L267.1 40.7124L267.208 41.055C267.425 41.1026 267.488 41.0251 267.713 41.1428L268.001 41.1829L268.693 41.0381L268.981 41.0782L269.781 41.276L270.394 41.7064L271.349 42.0293L273.617 42.7079L273.967 42.6705L274.557 42.8908L274.565 42.9608L274.783 43.0084L274.923 42.9934L275.218 43.1036L275.28 43.0261L275.428 43.0811L275.738 43.3313L275.823 43.4639L275.9 43.5265L276.048 43.5815L276.055 43.6516L278.198 44.4851L278.851 44.6279L278.943 44.8305C279.013 44.823 279.083 44.8156 279.091 44.8856L279.666 44.9658L279.744 45.0284L280.241 45.046L280.699 45.3513L281.127 45.3765L281.632 45.4642L281.934 45.6443L282.484 46.1522L282.787 46.3324L283.097 46.5826L283.167 46.5751L283.912 46.9205C284.735 47.3284 285.495 47.8139 286.262 48.3694L286.332 48.3619L286.635 48.5421L287.118 48.4197L287.273 48.5448L287.473 49.09L287.72 49.4177L288.54 50.4634L289.297 51.5866L289.312 51.7266C289.93 52.8648 290.274 54.1029 290.269 55.3783L290.346 55.4409L290.369 55.651L290.531 55.8461L290.671 55.8311L290.679 55.9012L290.539 55.9161L290.606 56.5464L289.856 57.4765C289.478 58.5792 288.804 59.5719 287.789 60.6719C286.961 61.5394 286.055 62.3444 285.149 63.1494L284.454 63.932L283.853 64.2794L283.651 64.3718C282.27 65.3692 280.882 66.2966 279.493 67.2239L279.516 67.434L279.383 67.519L279.306 67.4565L279.291 67.3164L277.029 68.6911L276.334 69.4737L275.804 69.8136L275.101 70.5261L274.633 70.7886L274.442 71.6588L274.177 71.8288L272.917 71.9634L271.896 72.3557L269.162 73.2851L266.469 73.9269L266.399 73.9344L263.22 75.3363L261.256 76.1834L261.053 76.2759L260.258 76.7858L260.133 76.9408L259.385 77.2332L259.112 77.3331L258.917 77.4956L257.702 78.0504L257.491 78.0728L257.219 78.1728L257.009 78.1952L256.478 78.5351L256.331 78.4801L256.003 78.7275L255.598 78.9125L255.403 79.075L254.928 79.2674L254.382 79.4672L252.629 80.2919L252.239 80.6169L252.021 80.5693L251.874 80.5143L251.166 80.519L249.71 80.8161L244.998 82.4526L238.842 85.164L234.97 86.7107L232.154 86.8698L231.501 86.727L229.135 87.1213C228.723 87.2362 228.31 87.3511 227.89 87.396L227.897 87.466L226.862 87.7182L225.056 88.0527L224.916 88.0677C222.487 88.5395 220.051 88.9413 217.608 89.2731L217.343 89.4431L217.125 89.3955L216.845 89.4254L216.65 89.5879L213.576 89.987L213.444 90.072L213.296 90.0169L212.401 90.2542L209.094 90.4656L207.739 91.0353L207.241 91.0176L205.353 90.5818L205.018 90.7593L204.66 90.7266L204.35 90.4764C204.21 90.4914 204.063 90.4363 203.922 90.4513L203.93 90.5213L203.152 90.5336L202.654 90.5159L202.577 90.4533C202.227 90.4907 201.869 90.4581 201.519 90.4955L201.386 90.5805L200.609 90.5927L200.391 90.5451L200.166 90.4275L199.956 90.4499L197.91 90.5267L197.708 90.6192L197.7 90.5492L197.055 90.4764L196.915 90.4914L193.659 89.8475L193.371 89.8074L192.003 89.5993L191.801 89.6918L191.513 89.6517L191.351 89.4566L190.893 89.1513C189.278 88.6155 187.927 87.9098 187.052 87.0117L186.912 87.0266L186.757 86.9015L186.262 86.2461L185.985 85.6383L185.49 84.9829L185.305 84.5777L185.36 84.4301L184.843 83.5646L184.773 83.5721L184.533 83.3144L184.363 83.0493L184.355 82.9793L184.163 82.504L184.17 82.574L184.015 82.4489L183.986 82.1688L183.793 81.6936L183.811 81.1959L183.788 80.9858L183.843 80.8383L183.821 80.6282L183.673 80.5731L183.736 80.4956L183.806 80.4881L183.909 80.123L183.971 80.0455L184.104 79.9606L184.151 79.743L184.284 79.658C184.394 79.3629 184.504 79.0679 184.684 78.7653L184.795 78.4702L184.937 77.8176L185.383 77.345L185.898 76.865C186.328 76.2525 186.836 75.7024 187.289 75.2999L191.557 70.1695L192.065 69.6195L192.12 69.472L193.074 68.4494L193.324 68.1394L193.629 67.6818L194.129 67.0618L194.262 66.9768L194.958 66.1942L195.138 65.8917L195.521 65.4967L195.856 65.3192L196.213 65.3519L196.243 65.632L196.126 65.857L195.93 66.0195C195.938 66.0895 195.868 66.097 195.875 66.1671C195.5 66.6321 194.97 66.972 194.595 67.4371L194.414 67.7396L194.219 67.9021L193.649 68.5297L193.391 68.7697L192.898 69.4597L192.725 69.8323L192.538 70.0648L192.343 70.2273L191.342 71.4674L190.849 72.1575L190.279 72.7851L190.098 73.0876L189.848 73.3976L189.293 74.1652L189.308 74.3053L188.917 74.6303L188.675 75.0103L187.416 76.4904C186.758 77.6231 186.24 78.7408 185.995 79.7586L186.002 79.8287L185.812 80.6989L186.067 81.0967L186.012 81.2442L186.097 81.3768L185.964 81.4617L186.041 81.5243L185.986 81.6718L186.071 81.8044L185.836 82.2545L186.006 82.5197L185.841 82.9623L185.926 83.0948L185.871 83.2424C185.886 83.3824 185.971 83.515 185.986 83.6551L186.288 83.8352L186.606 84.1555L186.813 84.7708L186.688 84.9258C186.688 84.9258 186.696 84.9958 186.773 85.0584L187.061 85.0985L187.533 85.5438L188.588 86.1394L189.666 86.9451L189.891 87.0627L190.434 87.5005L191.016 87.6508L191.304 87.6909L191.964 87.9037L192.919 88.2267L193.299 88.4694L193.672 88.6421L195.125 88.9827L195.685 88.9229L196.058 89.0956L196.493 89.1908L196.843 89.1534L197.27 89.1785L197.425 89.3036L197.713 89.3437C199.501 89.5069 201.422 89.5851 203.328 89.5232L203.398 89.5158L203.545 89.5708L203.615 89.5634L204.953 89.4913L205.373 89.4464C205.513 89.4315 205.591 89.494 205.731 89.4791L206.354 89.3417L206.641 89.3818L206.984 89.2744L207.762 89.2622L207.894 89.1772L208.259 89.2799L208.602 89.1724L209.31 89.1677L212.181 88.8611L213.224 88.6789L213.512 88.719L216.088 88.3022L217.053 88.0575L217.934 87.6801L218.711 87.6679L219.419 87.6631L221.428 87.2362L221.848 87.1913L223.233 86.9017L223.841 86.6243L225.444 86.3823L226.41 86.1375L228.831 85.5956L231.314 84.9763L231.937 84.8389L232.693 84.6166L234.303 84.4446L238.835 83.1107L238.898 83.0332L238.883 82.8931L238.938 82.7456L239.093 82.8707L239.498 82.6858L240.434 82.1609L240.776 82.0535L241.797 81.6612L242.87 81.7591L242.94 81.7516L244.856 81.122L245.869 80.6597L249.446 79.0029L252.302 78.5562L253.658 77.9865L253.838 77.6839L254.118 77.654L254.601 77.5316L254.928 77.2841L255.076 77.3392L255.193 77.1142L256.207 76.6518L256.557 76.6145L259.205 75.5525L260.064 74.9651L260.999 74.4402L261.607 74.1628L262.37 74.0105L264.473 73.1484L265.004 72.8085L266.422 72.1612L266.875 71.7587L268.51 71.1591L269.509 70.5567L272.01 69.4397L274.334 67.9874L275.082 67.6951L275.807 67.1927L276.422 66.9853C276.617 66.8228 276.82 66.7303 277.023 66.6379L277.453 66.0253L277.578 65.8703L278.061 65.7479L278.856 65.238L279.449 64.8205L279.659 64.7981L280.462 64.3582L281.118 63.8633L281.383 63.6933L281.578 63.5308L281.718 63.5159L282.896 62.6109L283.021 62.4559L283.552 62.116L284.325 61.396L284.755 60.7834L285.108 60.1083L285.801 59.9635C285.793 59.8934 285.793 59.8934 285.863 59.886L285.856 59.8159L285.966 59.5209L286.621 59.0259C287.615 57.7158 288.118 56.458 288.138 55.3226L288.038 55.0499L287.801 54.1545L287.641 53.3217L287.571 53.3291L287.549 53.1191L287.604 52.9715L287.356 52.6438L287.264 52.4412L286.699 51.7933L286.049 51.0128L285.059 49.7019C284.206 49.0139 283.214 48.3408 282.236 47.8077L280.583 46.9219L280.358 46.8042L280.211 46.7492L278.418 45.8782C278.41 45.8082 278.34 45.8157 278.34 45.8157L278.263 45.7531C278.193 45.7606 278.123 45.7681 278.115 45.698Z" fill="#2B9191"/>
</g>
<g style="mix-blend-mode:difference">
<path d="M152.127 69.4226L152.002 69.5776L151.892 69.8727L152.4 69.3227L153.305 68.5177L153.563 68.2777L153.695 68.1927L153.835 68.1778L153.828 68.1077L154.366 67.8378L154.056 67.5876L154.476 67.5428L155.609 66.2177L155.819 66.1952L156.82 64.9551L157.998 64.0502L159.092 63.0127L159.217 62.8577L159.287 62.8502L160.505 61.6577L160.568 61.5802L162.379 59.9702L162.386 60.0402L163.557 59.0653L163.87 58.6777L164.143 58.5778L164.728 58.0903L164.853 57.9353L164.923 57.9278L166.234 56.9379L166.734 56.3179L167.125 55.9929L168.13 55.4605L168.826 54.678L169.551 54.1756L170.969 53.5283L171.57 53.1809C172.03 52.8484 172.825 52.3385 173.761 51.8136L174.144 51.4186L175.352 50.7938L176.568 50.239L176.763 50.0766L177.356 49.6591L178.096 49.2967L178.564 49.0343L179.467 48.867C180.62 48.3898 181.718 48.06 182.636 48.0328L183.041 47.8479L183.351 48.0981C183.716 48.2008 184.018 48.3809 184.251 48.5686C184.328 48.6311 184.406 48.6937 184.421 48.8337L184.971 49.3416L185.025 51.1773L184.364 52.9477L183.554 53.3176L182.784 53.3999L182.311 52.9545L182.236 52.2543L181.916 52.5718L181.879 52.2216L182.011 52.1366L182.044 51.779L181.922 51.2963L181.684 50.4009L181.367 50.0806L180.331 50.3329L179.396 50.8578L179.053 50.9652L178.486 50.955L177.753 51.3874L177.34 51.5023L174.599 52.3616C173.328 53.064 172.267 53.7438 171.87 53.9988L171.472 54.2538L171.159 54.6413L168.515 56.411L167.532 57.1535L167.157 57.6185L165.901 58.4609L165.573 58.7083L164.995 59.2659L164.02 60.0783L163.652 60.6134L161.763 62.1608L159.021 65.0034L158.668 65.6785L158.215 66.081L157.41 67.1586L156.652 68.0187L156.386 68.1887L155.864 68.5986L155.426 69.1412L155.371 69.2887L154.863 69.8387L154.307 70.6063L153.995 70.9939L153.737 71.2339L153.111 72.0089L152.884 72.529L152.626 72.769L152.383 73.1491L151.75 73.8541L150.687 75.1717L150.397 75.7694L150.154 76.1494L149.871 76.8171L149.776 77.2522L149.721 77.3997L149.618 77.7648L149.243 78.2299L148.212 79.1899L147.564 79.7548L146.919 79.6821L146.516 79.2293L146.509 79.1593C146.346 78.9641 146.254 78.7615 146.294 78.4739L146.264 78.1938L146.389 78.0388L146.51 77.176L146.385 77.3311L146.285 77.0584L146.442 76.5458L146.633 75.6755L147.048 74.9229L147.103 74.7754L147.088 74.6353L147.346 74.3953L147.519 74.0227L147.504 73.8827L148.082 73.3252L148.222 73.3102L148.417 73.1477L149.13 71.8675L149.545 71.1149L149.748 71.0224L150.023 70.2847L150.331 69.1894L150.777 68.7169L150.872 68.2818L151.537 67.2191L151.733 67.0566L152.493 65.5588L152.463 65.2787L153.497 63.681L154.07 62.4157L154.305 61.9656L154.588 61.298L154.636 61.0804L154.761 60.9254L155.176 60.1728L155.154 59.9627L155.499 59.2175L155.912 59.1026L156.137 59.2203L156.505 58.6852L156.662 58.1726L156.695 57.8149L156.673 57.6049L156.378 57.4947L156.565 57.2622L156.51 57.4097L156.69 57.1072L156.613 57.0446L156.37 57.4247C156.057 57.8122 155.74 57.492 155.702 57.1418L155.828 56.9868L155.813 56.8468L155.86 56.6292L156.033 56.2566L156.088 56.1091L155.925 55.914L155.863 55.9915L155.498 55.8888L155.475 55.6787L155.601 55.5237L155.873 55.4238L155.733 55.4387L155.866 55.3537L155.726 55.3687L155.626 55.0961L155.861 54.646L156.233 54.8187L156.406 54.4461L156.376 54.166L156.424 53.9484L156.276 53.8933L156.619 53.7859L156.582 53.4358L156.714 53.3508L156.854 53.3358L157.104 53.0258L157.455 52.9884L157.952 53.0061L158.31 53.0387L158.575 52.8688L158.56 52.7287L158.818 52.4887L159.105 52.5288L159.315 52.5064L159.47 52.6315L159.408 52.709L159.073 52.8864C159.655 53.0367 159.973 53.3569 160.08 53.6996L160.158 53.7621L160.11 53.9797C160.2 54.8201 159.604 55.8752 158.931 56.8679L159.016 57.0004L158.351 58.0631L157.938 58.178L157.382 58.9456L157.14 59.3256L156.982 59.8383L156.912 59.8458C156.614 60.3734 156.324 60.971 155.949 61.436C155.956 61.506 155.879 61.4435 155.879 61.4435L155.526 62.1186L155.431 62.5537L155.203 63.0739L154.685 64.1916L154.317 64.7267L154.207 65.0217L153.861 65.7669L153.163 67.1872L152.785 68.2899L152.44 69.0351L152.127 69.4226Z" fill="#2B9191"/>
</g>
<g style="mix-blend-mode:difference">
<path d="M134.295 75.6485L134.413 75.4234C134.453 75.1358 134.423 74.8557 134.603 74.5532L134.588 74.4131L134.636 74.1956L134.919 73.5279L134.959 73.2403L135.139 72.9378C135.132 72.8677 135.257 72.7127 135.249 72.6427L135.304 72.4952C135.635 71.61 136.043 70.7873 136.373 69.9021L136.476 69.537L136.656 69.2344L136.939 68.5668L136.986 68.3492L137.269 67.6816L137.294 67.2539L137.53 66.8038L137.47 66.2436L137.307 66.0485L137.13 65.7133L136.872 65.9533L136.732 65.9683L135.859 66.4156L134.441 67.0629L134.246 67.2254L133.771 67.4178L133.108 67.8427L131.454 68.94L130.276 69.8449L129.878 70.0999L126.001 72.9221L125.688 73.3096L125.548 73.3246L125.368 73.6271L123.457 74.9645L122.716 75.3268L122.591 75.4819L120.025 77.3141L119.9 77.4692L119.767 77.5541L119.524 77.9342L119.322 78.0267L119.329 78.0967L118.729 78.4441L118.541 78.6766L118.331 78.6991L118.011 79.0166L117.878 79.1016L117.816 79.1791L117.683 79.264L117.48 79.3565L117.215 79.5265L116.84 79.9915L116.567 80.0915L116.092 80.2839L115.702 80.6089L115.514 80.8414L114.984 81.1813L113.948 81.4335L113.481 81.696L113.488 81.766L113.293 81.9285L113.216 81.866L113.145 81.8734L112.74 82.0584L112.53 82.0808L112.475 82.2283L112.413 82.3058L112.335 82.2433L112.398 82.1658L112.118 82.1957L110.134 82.195L110.127 82.125L109.707 82.1699L109.264 82.0046L108.519 81.6593C108.379 81.6742 108.301 81.6117 108.161 81.6266L108.154 81.5566L108.091 81.6341L107.844 81.3064C107.806 80.9562 107.776 80.6761 107.817 80.3885L107.772 79.9684L107.847 78.6854L107.927 78.1102L108.17 77.7302L108.32 77.1475L108.368 76.93L108.673 76.4724L108.783 76.1773L109.214 75.5647L109.897 74.0044L110.047 73.4217L110.408 72.8166L110.705 72.2891L110.911 71.5589L111.264 70.8837L111.506 70.5037L111.889 70.1087L111.944 69.9611L112.069 69.8061L112.367 69.2785L112.352 69.1385L112.422 69.131L112.712 68.5334L113.581 67.3782L113.808 66.8581L113.926 66.6331L113.981 66.4856L114.046 65.7703L113.964 65L114.052 64.4948L113.867 64.0896L113.837 63.8095L114.002 63.3669L114.385 62.9719L115.051 61.9092L115.636 61.4218L116.126 61.3694L116.506 61.6121L116.514 61.6822C116.514 61.6822 116.521 61.7522 116.591 61.7447C116.831 62.0024 116.869 62.3525 116.906 62.7027L116.984 62.7652L117.251 63.9408L117.13 64.8035L116.84 65.4011L116.222 66.2462L115.796 67.5666L115.351 68.0391L115.163 68.2716L114.788 68.7367L114.42 69.2717L114.163 69.5117L114.108 69.6593L113.865 70.0393L113.482 70.4343L113.434 70.6519L113.364 70.6594L113.232 70.7444L111.963 72.7922L111.853 73.0872L111.68 73.4598L111.43 73.7699C111.132 74.2974 110.835 74.825 110.607 75.3451L110.011 76.4003C109.901 76.6954 109.783 76.9204 109.666 77.1455L109.438 77.6656L109.42 78.1633L109.355 78.8785L109.065 79.4761L109.04 79.9038L108.977 79.9813C109 80.1914 109.022 80.4015 109.107 80.534C109.517 81.0569 111.293 80.4423 112.976 79.625L113.359 79.23L114.052 79.0852L115.057 78.5529L115.603 78.353L116.133 78.013C117.068 77.4882 117.934 76.9708 118.862 76.3759L119.245 75.9809L119.713 75.7184L120.313 75.371L120.711 75.1161L121.211 74.496L122.887 73.6088C122.949 73.5313 123.012 73.4538 123.082 73.4463L123.2 73.2212L123.675 73.0288L125.118 71.9539L125.181 71.8764L125.424 71.4964L125.696 71.3964L125.814 71.1714L126.142 70.9239L126.329 70.6914L127.28 70.3066L129.246 68.8217L129.824 68.2642L130.682 67.6768L131.432 66.7467L131.893 66.4142L132.486 65.9968L133.289 65.5569L133.616 65.3094L134.139 64.8995L135.752 64.0897L136.018 63.9198L136.611 63.5023L136.986 63.0373L137.041 62.8897L137.173 62.8047L137.469 62.9149C137.796 62.6674 138.194 62.4125 138.599 62.2275L138.662 62.15L139.262 61.8026L139.48 61.8502C139.697 61.8978 139.86 62.0929 139.945 62.2255L140.077 62.1405L140.512 62.2357L140.885 62.4084L140.915 62.6885L140.797 62.9135L140.937 62.8986L140.952 63.0386L140.805 62.9836L140.82 63.1236L140.695 63.2786L140.529 63.7212L140.036 64.4113L139.746 65.009L139.791 65.4291L139.25 66.3368L139.148 66.7019L138.975 67.0744L138.677 67.602L138.56 67.8271L138.354 68.5573L138.142 69.2174L137.774 69.7525L137.734 70.0401L137.263 70.9403L137.223 71.2279L137.01 71.888L136.985 72.3157L136.702 72.9833L136.515 73.2159C136.262 74.1636 136.196 74.8789 136.576 75.1216C136.964 75.4343 137.407 75.5995 138.044 75.6023L138.752 75.5975L139.312 75.5377L139.74 75.5628L140.23 75.5105C141 75.4282 141.756 75.2059 142.651 74.9686L142.714 74.8911L143.134 74.8462L144.084 74.4614L144.442 74.4941L145.96 74.1195L146.023 74.042L146.093 74.0345L146.498 73.8495L147.401 73.6823L148.094 73.5375L148.164 73.53C148.226 73.4525 148.296 73.445 148.366 73.4375L148.436 73.4301L148.849 73.3152L149.214 73.4178L149.377 73.613L149.119 73.853L148.846 73.9529L148.644 74.0454L147.391 74.25L147.133 74.49L146.938 74.6525L146.783 74.5274L145.895 74.8347L143.596 75.8593L142.974 75.9966L142.561 76.1115L141.68 76.4888L141.058 76.6262L140.575 76.7486L140.435 76.7635C140.372 76.841 140.302 76.8485 140.232 76.856L140.092 76.8709L139.267 77.1007L138.239 77.423L137.679 77.4828C136.846 77.6426 136.16 77.8574 135.663 77.8398L135.53 77.9247L135.383 77.8697C135.243 77.8846 135.165 77.8221 135.095 77.8296L134.885 77.852L134.645 77.5943L134.552 77.3917L134.537 77.2517L134.46 77.1891L134.452 77.1191C134.29 76.9239 134.245 76.5038 134.278 76.1462L134.295 75.6485Z" fill="#2B9191"/>
</g>
<g style="mix-blend-mode:difference">
<path d="M26.6574 104.708L26.69 104.35C26.6125 104.288 26.5275 104.155 26.5126 104.015L26.28 103.827L26.1951 103.695L26.0625 103.78L26.0475 103.64L26.1176 103.632L26.0251 103.43L26.0027 103.219L26.0577 103.072C25.5954 102.059 25.5002 102.494 25.3031 101.311L25.2256 101.248L24.8611 99.1626L24.7911 99.1701L24.8537 99.0926L24.7938 98.5323L24.8639 98.5248L24.8414 98.3148L24.7191 97.832L24.7918 97.1868L24.7469 96.7667L24.817 96.7592C24.7945 96.5491 24.7721 96.339 24.8197 96.1214C24.7973 95.9114 24.7823 95.7713 24.8374 95.6238L24.8149 95.4137L24.9455 93.9832L24.8605 93.8506L24.7055 93.7255L24.683 93.5154L24.5981 93.3829L24.5205 93.3203L24.4757 92.9001L24.4056 92.9076L24.3982 92.8376L24.5382 92.8226L24.5858 92.6051L24.5634 92.395L24.6259 92.3175L24.6185 92.2474L24.7062 91.7423L24.9414 91.2922L25.0515 90.9971L25.1841 90.9122L25.1916 90.9822L25.2392 90.7646L25.3595 89.9018L25.3623 89.2641L25.3324 88.984L25.6301 88.4564C25.6227 88.3864 25.6152 88.3163 25.6777 88.2388L25.6478 87.9587L25.7505 87.5936L26.344 85.1929L26.2842 84.6327L26.3243 84.3451L26.342 83.8475L26.3821 83.5599L26.565 82.6196L26.8628 82.092L27.3482 81.3319C27.3884 81.0443 27.4985 80.7492 27.6086 80.4541L27.6637 80.3066L27.9717 79.2113L28.0118 78.9237L28.9004 76.6332L28.9331 76.2756L29.1758 75.8955L29.3009 75.7405L30.3221 73.365L31.2406 71.3546L31.3657 71.1995L32.4719 68.9566L32.7473 68.2189L33.3028 67.4513C33.2953 67.3813 33.3653 67.3738 33.3653 67.3738L33.6733 66.2785L33.8385 65.8359L34.2689 65.2233L34.7693 64.6033L35.1371 64.0682L35.3023 63.6256L36.0053 62.9131L37.0864 61.0978L37.1339 60.8802L37.2441 60.5852L37.4542 60.5627L39.0981 58.0499L39.2008 57.6848L39.2409 57.3972L39.7638 56.9872L39.9439 56.6847L40.6245 55.7621L40.6646 55.4745L42.0407 53.7693L43.0191 52.3191L43.582 51.6216L43.5746 51.5515C44.8256 50.0014 46.0691 48.3812 47.335 46.9712L47.5628 46.451L48.1257 45.7535L48.6037 44.9233L50.0498 43.2107L50.7705 42.0005L51.1084 41.1853L52.1718 39.8677L52.4369 39.6977L52.6321 39.5353L53.4602 38.6677L54.6833 38.183L54.9185 37.7329L55.1211 37.6404L55.3414 37.0503L55.8493 36.5003L56.1321 35.8326L56.6325 35.2125L56.8902 34.9726L57.7632 34.5252L58.146 34.1302L58.2085 34.0527L58.1385 34.0601C58.2085 34.0527 58.201 33.9826 58.201 33.9826L53.6689 35.3166L53.4112 35.5566L53.006 35.7415L52.7184 35.7014L52.5233 35.8639L51.893 35.9312L50.795 36.2609L50.725 36.2684L48.4814 37.1454L47.1331 37.7852L45.7774 38.3549L45.5748 38.4474L44.024 39.1796L43.5562 39.4421L42.8009 39.6644L42.7309 39.6719L42.0605 40.0268L41.2575 40.4667L40.8598 40.7216L38.4211 41.7611L38.4285 41.8312L38.3585 41.8387L37.6106 42.131L37.4855 42.286L34.7041 43.433L34.6341 43.4404L34.1588 43.6329L33.8862 43.7328L33.0832 44.1727L30.7818 45.835L29.5512 46.2497C27.8903 47.277 26.2368 48.3744 24.6533 49.4642L24.7233 49.4567L24.2005 49.8667L23.5526 50.4317L23.3649 50.6642L23.1548 50.6866L22.8271 50.9341L22.7721 51.0817L22.632 51.0966L22.1792 51.4991L21.5088 51.854L20.5182 52.5264C20.5257 52.5964 20.4557 52.6039 20.3931 52.6814L20.0178 53.1465L20.0253 53.2165L19.8927 53.3015L19.8852 53.2314L19.7377 53.1764L19.6126 53.3314L19.48 53.4164C18.6995 54.0663 17.849 54.7238 17.0759 55.4438L16.2478 56.3113L15.9827 56.4813L13.531 58.7263L12.6329 59.6013L12.2426 59.9263L11.6647 60.4838L11.2194 60.9563L10.9542 61.1262L8.2673 63.8213L8.14967 64.0464L7.81449 64.2238L5.23771 66.6238L4.85493 67.0188L4.71487 67.0338L4.45719 67.2738L4.27702 67.5763L4.07442 67.6688L3.80178 67.7687L3.7168 67.6361L3.69436 67.4261L3.73448 67.1385L4.13969 66.9535L5.5457 65.5285L5.99851 65.126L6.31126 64.7385L6.50638 64.576L6.96667 64.2435C7.02922 64.166 7.09177 64.0885 7.1618 64.081L7.15432 64.011L7.48203 63.7635L7.55205 63.756L7.80225 63.446L7.84985 63.2284L8.04498 63.066L8.23262 62.8334L9.13076 61.9584L9.33337 61.866L9.44351 61.5709L10.0914 61.0059L10.2941 60.9134L10.6843 60.5885L11.012 60.341L13.3787 57.9634L13.5738 57.8009L14.6671 56.7634L14.9873 56.4459L15.6978 55.8034L15.8929 55.6409L16.7911 54.7659L16.8461 54.6184L16.9087 54.5409L17.1113 54.4484L17.1739 54.3709L17.354 54.0684L17.4866 53.9834L17.284 54.0758L17.269 53.9358L17.5267 53.6958L17.7293 53.6033L17.7518 53.8134L18.0094 53.5734L18.4772 53.311L18.86 52.916L18.9776 52.6909L19.3529 52.2259L20.436 51.7561L21.1539 51.1836L21.4891 51.0062L21.6992 50.9837C21.7692 50.9763 21.8318 50.8988 21.9018 50.8913L21.8168 50.7587L21.9644 50.8138L22.4246 50.4813L22.6599 50.0312L23.0576 49.7763L23.3003 49.3962L23.6756 48.9312L23.9408 48.7612L24.6261 48.5464L24.8838 48.3064L25.219 48.1289L25.7643 47.929L25.9669 47.8366L26.6223 47.3416L27.2226 46.9942L27.6605 46.4516L27.9256 46.2817L28.511 45.7942L28.6762 45.3516L28.8088 45.2666L29.3765 45.2768L29.8592 45.1544L30.2094 45.117L31.5351 44.2672L31.5202 44.1271L31.7153 43.9646L32.198 43.8423C33.7965 42.8925 35.5349 41.9277 37.4135 40.948L37.8812 40.6856L38.6067 40.1831L38.8018 40.0206L39.0819 39.9907L39.3471 39.8208L39.4171 39.8133L39.4796 39.7358L40.2275 39.4434L40.3676 39.4285L42.8689 38.3114L43.3217 37.9089L44.1546 37.7492L45.8454 37.002L46.1106 36.832L46.991 36.4547L47.3188 36.2072L49.7174 35.4552L49.935 35.5028L52.6688 34.5734L53.074 34.3885L53.0815 34.4585C53.2916 34.4361 53.5567 34.2661 53.8368 34.2362L54.3046 33.9738L54.5772 33.8738L54.9349 33.9065C55.1449 33.884 55.3476 33.7916 55.5576 33.7691L55.6202 33.6916L55.6902 33.6842L59.2093 32.8126L59.8872 32.5277L60.1374 32.2177L60.34 32.1252L60.6425 32.3054L61.0253 31.9104L61.7133 31.0578L61.971 30.8178L62.4014 30.2052L62.6591 29.9652L62.8168 29.4526L63.067 29.1425L63.8149 28.8502L64.3826 28.8604L66.0959 28.3233L67.2014 28.0636L67.6766 27.8712L67.8017 27.7162L68.0118 27.6937L68.1845 27.3212L68.8651 26.3985L69.613 26.1062L69.9855 26.2789L70.148 26.474L70.2106 26.3965L72.2591 25.682L74.2525 25.1149L74.4551 25.0225L74.5102 24.8749L74.5802 24.8675L74.4701 25.1625L74.9678 25.1802L75.2628 25.2904L75.4777 25.9757L75.5123 26.9636L74.5591 27.9861L73.196 28.4858L72.7907 28.6707L71.8654 28.6279L70.73 28.6075L70.6749 28.755L70.4649 28.7775L70.4499 28.6374L70.2874 28.4423L69.8196 28.7047L69.5395 28.7346L68.8692 29.0895L68.5965 29.1895L68.5415 29.337L68.1512 29.662L67.8711 29.6919L67.4808 30.0169L66.648 30.1767L66.3679 30.2066L63.9889 31.8063L65.3745 31.5167L65.4371 31.4392L65.7097 31.3393L65.6322 31.2767L65.6948 31.1992L65.7723 31.2618L65.9198 31.3168L66.1224 31.2244L66.4651 31.117L67.3204 31.1673L68.4259 30.9076L68.7135 30.9477L75.5538 30.0047L75.8965 29.8973L76.7219 29.6675L77.142 29.6226L78.2149 29.7205L78.6976 29.5981L79.3353 29.6009L79.4128 29.6634C80.7434 29.5213 82.0114 29.4567 83.3569 29.4547L83.7696 29.3398L84.1897 29.2949L87.566 29.076L89.4541 29.5118L89.5316 29.5744C90.3169 29.6322 91.1021 29.69 91.8949 29.8178L91.9649 29.8103L92.4476 29.6879L93.5681 29.5683L94.4234 29.6186L95.3861 30.0116L96.529 30.102L97.0342 30.1897L97.6318 30.48L98.5095 30.7404L98.7345 30.8581C100.047 31.2136 101.445 31.7018 102.633 32.2124L102.766 32.1274L102.928 32.3225C103.448 32.5503 103.906 32.8556 104.363 33.1609L104.573 33.1384L104.868 33.2486L104.961 33.4512L106.124 34.3894C107.541 35.7254 108.546 37.1763 109.278 38.7271L109.611 39.1874L109.711 39.46L109.726 39.6001L109.981 39.9978L110.033 40.488L110.288 40.8858L110.488 41.431L110.518 41.7111L110.382 42.4339L110.49 42.7765L110.465 43.2042L110.417 43.4217C110.469 43.9119 110.459 44.4796 110.511 44.9698L110.564 45.46L110.779 46.1454L110.809 46.4255L110.931 46.9082L110.996 48.1762L110.908 48.6813L110.545 49.9242L110.104 51.1045L110.182 51.167L110.242 51.7272L110.109 51.8122L110.069 52.0998L110.004 52.815L109.268 53.8852L108.872 55.4856L108.184 56.3382L107.982 56.4307C107.368 57.9835 106.685 59.5439 105.909 60.9016L105.877 61.2592L105.531 62.0044L104.843 62.857L104.465 63.9597L104.23 64.4098L103.862 64.9449L102.986 66.03L102.681 66.4875L102.048 67.1926L100.812 68.8828L100.702 69.1778L100.794 69.3805L100.584 69.4029L100.312 69.5028C99.3184 70.813 98.3176 72.0531 97.2468 73.3007L97.0816 73.7433L96.6661 74.4959L95.8231 75.2234L95.29 76.2011L94.9773 76.5886L94.4619 77.0686L93.8065 77.5635L93.041 78.3536L91.7301 79.3435C91.4099 79.661 91.0897 79.9785 90.7769 80.366L90.5968 80.6686L90.6117 80.8086L90.2616 80.846L88.3327 82.681L88.2851 82.8986L87.8724 83.0135C85.6234 85.166 83.2893 87.1859 80.8852 89.2133L80.565 89.5309L80.2998 89.7008L79.4493 90.3583L75.2041 93.7155C74.6738 94.0555 74.1509 94.4654 73.6281 94.8754L73.5655 94.9529L73.2378 95.2004L72.6599 95.7579L72.3322 96.0054L70.9514 97.0028L70.2185 97.4352L69.2054 97.8975C67.6845 98.9098 66.1636 99.9222 64.6352 100.865L64.2524 101.26L63.2292 102.29L60.993 103.237L59.8148 104.142L59.2845 104.481L58.3965 104.789L57.2985 105.119L56.6132 105.333L56.4731 105.348L56.4106 105.426C54.4471 106.273 51.7357 107.412 48.8543 108.287L47.8488 108.819L47.0234 109.049L46.3156 109.054L46.2531 109.131L46.268 109.271L45.8628 109.456L45.8778 109.596L45.7928 109.464L45.3876 109.649L45.3101 109.586L45.17 109.601L44.7648 109.786L44.1896 109.706L43.917 109.806L43.762 109.681L43.832 109.673L43.4043 109.648C42.0112 109.867 40.6807 110.01 39.4827 110.067L39.0775 110.252L38.93 110.197L38.5173 110.311L38.0822 110.216L38.0271 110.364L37.8095 110.316L37.1643 110.243L37.0243 110.258L37.1793 110.383L37.0467 110.468L36.6116 110.373L35.7638 110.393L35.0186 110.048L34.8711 109.993L34.7385 110.078L34.3659 109.905L34.0709 109.795L34.0933 110.005L33.9383 109.88L33.9158 109.67L33.1782 109.394L33.0007 109.059L32.9157 108.926L32.4255 108.979L32.2005 108.861L31.7028 108.844L31.4077 108.733L31.0025 108.918L30.785 108.871L30.46 108.48L30.0024 108.175L29.0023 107.432L27.9872 106.549L27.6799 105.661C27.4474 105.473 27.3549 105.271 27.1925 105.076L27.1149 105.013L26.7349 104.77L26.6574 104.708ZM90.0671 79.0253L91.7281 77.998L92.4162 77.1454L92.7065 76.5478L93.3469 75.9128L93.9248 75.3553L95.4811 73.3476L95.7789 72.82L96.9198 71.5649L97.0625 70.9122L98.3061 69.2921L98.9166 68.3769L100.786 65.9817L102.437 63.5389L102.867 62.9263L103.746 61.2035L104.532 59.278L105.455 57.9754L105.698 57.5953C106.161 56.6251 106.826 55.5625 107.142 54.5372L107.16 54.0395L107.413 53.0917L107.493 52.5166L108.081 51.3914C108.073 51.3213 108.073 51.3213 108.136 51.2438L107.919 49.213L107.999 48.6378L108.19 47.7676L108.273 46.5546L108.393 45.6919L108.341 45.2017L108.453 44.2689L108.519 43.5536L108.364 43.4285L108.031 42.9682L107.974 41.7703L107.914 41.21L107.77 40.5172L107.492 39.9094L107.23 39.4417L107.185 39.0215C106.752 38.2886 106.32 37.5556 105.825 36.9002L104.478 35.5568L103.695 34.8612L103.215 34.3459L103.067 34.2908C102.912 34.1657 102.757 34.0406 102.61 33.9855L102.3 33.7353L102.152 33.6803L102.16 33.7503L102.097 33.8278L102.082 33.6878L101.367 33.6225L100.784 33.4722L100.489 33.3621L99.8693 32.8617L99.6143 32.4639C98.0689 31.9207 95.9783 31.5774 94.2453 31.2666L93.0949 31.1062L93.0248 31.1137L92.3796 31.0409L92.0995 31.0708L91.3143 31.013L91.1042 31.0355L89.2535 30.9498L86.8426 30.9239L85.3571 30.9409L84.8669 30.9933L83.949 31.0205L83.5214 30.9953L82.3234 31.0524L81.5456 31.0647L80.4102 31.0443C78.6595 31.2312 77.0489 31.4032 75.6408 31.4828L74.1002 31.6473L72.737 32.147L71.5867 31.9866L71.229 31.9539L67.6025 32.4828L67.3299 32.5828L66.1394 32.7099L64.2636 33.0519L63.7258 33.3218L63.0731 33.179L61.8901 33.3762L60.5942 34.5062L60.6017 34.5762L59.6009 35.8163L57.772 37.9239L57.1316 38.559L56.5686 39.2565L54.4446 41.254L52.5205 43.7968L51.5449 44.6092L50.3714 46.2219L49.7785 46.6394L48.7002 47.8169L48.1074 48.2344L46.5511 50.2421L46.2057 50.9872L45.5952 51.9024L44.8072 52.4823L44.4169 52.8073L44.3544 52.8848L44.1892 53.3274L43.7289 53.6599L43.376 54.335L43.236 54.35L42.0774 56.1027L41.9197 56.6153L41.7171 56.7078C41.3968 57.0253 41.2167 57.3278 41.0365 57.6304L40.7136 58.5856L40.3083 58.7706L39.6353 59.7632L38.8745 61.261L38.7419 61.346L37.2454 63.9139L37.1203 64.0689L36.8851 64.519L36.5023 64.914L35.5464 66.5743L35.0983 67.6845L34.4878 68.5997L34.4327 68.7472L33.7746 69.8799L33.6019 70.2525L33.3816 70.8426L33.2416 70.8576L33.0138 71.3777L32.7935 71.9678L32.6684 72.1228L32.6208 72.3404L31.5248 74.0156L31.6173 74.2182L31.4772 74.2332L31.242 74.6833L31.1944 74.9008L30.779 75.6535L30.2759 76.9113L30.2357 77.1989L29.9427 78.4342L29.4797 79.4044L29.0568 80.087L28.859 80.8872C28.4483 82.3476 28.1158 81.8873 27.6474 84.133L27.6623 84.2731L27.6073 84.4206C27.4971 84.7157 27.457 85.0033 27.4169 85.2909L27.4244 85.3609L27.5393 85.7736L26.4453 88.7943L26.5303 88.9269L26.2951 89.377C26.1999 89.8121 26.1047 90.2472 26.087 90.7449L25.8762 92.7506L25.8137 92.8281C25.6458 93.9084 26.1781 94.914 26.2277 96.0419L26.3698 97.3724L26.3222 97.59L26.3521 97.8701L26.3046 98.0877L26.4045 98.3603L26.4419 98.7105L26.3793 98.788L26.4942 99.2007L26.5391 99.6208L26.639 99.8935L26.6989 100.454C26.8661 101.357 27.166 102.174 27.6058 102.977L28.1484 103.415L28.5033 104.086L28.6032 104.358L30.1785 105.182L30.821 105.892L30.9135 106.095L31.3636 106.33L32.4113 106.856L32.9864 106.936L33.6391 107.079L34.2218 107.229L34.557 107.051L34.9697 106.936L35.2022 107.124L35.4973 107.234L36.0398 107.672L37.4601 108.37L38.3378 108.631L38.4779 108.616L39.0456 108.626L39.9158 108.816L40.2034 108.856L41.8841 108.677L42.9121 108.355L43.6675 108.132L43.9251 107.892L44.1352 107.87L44.2678 107.785L44.4854 107.833L44.8579 108.005L46.1885 107.863L46.3211 107.778L46.4686 107.833L46.8038 107.656L47.7468 107.201L48.222 107.009L49.7477 106.704L50.6982 106.319L51.5086 105.949L52.1314 105.812L53.3844 105.607L54.8176 105.1L54.8876 105.093C56.6486 104.338 58.1368 103.683 59.275 103.066C60.5457 102.364 61.8089 101.591 63.0721 100.819L63.1347 100.741L63.5399 100.557L64.9983 99.6217L65.4987 99.0016L66.7068 98.3768L68.2352 97.4345L69.0307 96.9246C72.065 94.8299 75.0844 92.5951 78.0113 90.1577L78.2466 89.7076L78.9571 89.0651L79.3874 88.4525L79.7553 87.9175L80.2931 87.6476L81.2837 86.9752L81.954 86.6203L82.2593 86.1627L82.9847 85.6603L83.6401 85.1653L85.3188 83.6403L88.6611 80.4503L90.0671 79.0253Z" fill="#2B9191"/>
</g>
<g style="mix-blend-mode:difference">
<path d="M250.194 94.1514C250.578 94.0475 251.795 94.0163 251.905 94.0109C252.296 93.9916 251.918 94.1726 252.048 94.1595C253.121 94.0474 252.885 93.705 254.315 93.4594C254.359 93.4528 254.184 93.5532 254.305 93.5394C254.681 93.4967 255.046 93.4058 255.419 93.3662C256.269 93.2766 256.599 93.4047 257.864 93.0812C258.024 93.04 257.741 92.8729 259.026 92.6648C259.538 92.5816 261.801 92.1952 262.437 92.1022C263.07 92.0094 262.651 92.1479 262.694 92.1441C264.413 91.9455 263.773 92.0913 264.648 92.0785C265.523 92.0651 265.235 91.7941 265.577 91.7012C265.921 91.6082 267.178 91.4727 267.492 91.4464C267.803 91.4203 267.427 91.5266 267.703 91.4951C269.534 91.2853 268.475 91.2095 269.065 91.061C270.456 90.7113 271.592 90.7573 272.884 90.5668C273.234 90.5153 272.942 90.5109 273.252 90.4549C274.479 90.2342 275.23 90.1832 276.618 89.8902C276.845 89.8422 277.953 89.5227 278.7 89.5032C278.806 89.5007 278.522 89.6051 279.047 89.5326C279.831 89.4246 281.249 89.207 282.088 89.0527C282.708 88.9387 281.981 88.9615 282.769 88.8639C283.118 88.8208 282.483 88.978 283.14 88.8922C283.793 88.8068 285.456 88.5379 286.088 88.4352C286.718 88.3326 286.364 88.3196 286.413 88.3068C286.718 88.2308 287.925 88.0048 288.032 87.988C293.429 87.1242 298.438 86.4609 303.697 85.6191C304.109 85.5533 303.824 85.5259 303.886 85.5151C305.296 85.2704 304.21 85.6255 305.207 85.537C305.042 85.4172 305.629 85.3542 306.623 85.1877C307.102 85.1074 306.832 85.0921 306.875 85.0798C307.574 84.8893 308.087 84.9221 308.218 84.9246C308.701 84.9336 309.2 84.7615 309.529 84.7667C309.858 84.7715 309.132 84.9612 310.088 84.8161C310.348 84.7257 309.619 84.7012 310.342 84.5711C313.07 84.0791 318.201 83.4252 320.402 83.1145C322.601 82.8035 323.311 82.6913 324.596 82.5229C326.918 82.2192 326.055 82.2494 327.489 82.0001C328.928 81.7507 328.259 82.0788 328.473 82.0979C328.685 82.1173 328.898 82.0354 329.155 82.026C329.41 82.0166 328.87 82.128 329.464 82.053C330.057 81.9777 331.663 81.6594 331.867 81.5789C332.296 81.4086 331.55 81.4 333.125 81.2174C333.215 81.2069 332.931 81.3073 333.278 81.2643C336.029 80.921 338.896 80.5216 341.648 80.1795C342.025 80.1327 341.697 80.2428 341.917 80.2163C344.204 79.9403 343.374 79.9458 344.609 79.6548C344.35 79.8514 345.055 79.8526 346.792 79.6143C347.836 79.4714 347.647 79.4274 348.316 79.287C348.516 79.2449 349.264 79.191 349.393 79.1408C349.822 78.9765 349.108 78.954 350.91 78.7574C350.989 78.7489 350.746 78.8394 351.018 78.806C352.781 78.5905 352.988 78.4531 354.873 78.1878C356.353 77.9796 359.003 77.6934 360.701 77.4798C360.69 77.6517 362.285 77.4007 362.922 77.2009C364.024 77.0608 365.221 76.8981 366.287 76.7751C366.65 76.7332 366.42 76.8113 366.465 76.8109C367.179 76.7993 367.641 76.627 367.877 76.5921C370.434 76.2182 372.54 76.0298 374.993 75.6363C375.08 75.6221 375.207 75.4946 375.876 75.4908C375.919 75.4909 375.112 75.6447 376.272 75.5008C377.435 75.3568 379.629 75.1374 381.214 74.8874C381.598 74.8266 382.566 74.6174 383.362 74.5863C383.468 74.5823 383.357 74.627 383.511 74.6249C384.007 74.6172 384.261 74.4772 384.847 74.4955C385.435 74.514 386.641 74.43 388.258 74.1659C388.309 74.1577 388.684 74.0267 389.195 73.9646C390.011 73.8657 391.18 73.7387 392.028 73.6336C392.43 73.5837 392.166 73.5646 392.236 73.5551C394.946 73.1936 396.89 73.0024 399.824 72.6655C400.363 72.6036 401.901 72.3515 402.953 72.2774C404.106 72.196 402.966 72.5698 405.582 72.1966C406.629 72.0466 407.924 71.598 409.838 71.522C413.498 71.0503 416.999 70.7131 420.645 70.2378C420.811 70.2162 421.325 70.0806 421.714 70.0367C422.291 69.9716 422.613 69.9698 423.026 69.9243C424.759 69.7342 426.347 69.5218 428.03 69.3338C428.669 69.2623 428.449 69.3224 429.212 69.2369C429.975 69.1514 430.479 69.0487 431.519 68.9521C432.311 68.8785 433.073 68.8824 434.099 68.7755C434.129 68.6836 434.83 68.6052 436.079 68.441C436.319 68.4094 436.059 68.4088 436.172 68.3923C436.633 68.3247 437.066 68.301 437.504 68.2348C437.611 68.2187 437.613 68.189 437.7 68.1743C438.44 68.0483 439.678 67.9754 439.892 67.9627C440.709 67.9142 441.085 67.8349 441.711 67.7818C442.336 67.7287 441.407 67.8534 442.135 67.7819C443.639 67.6343 445.622 67.4088 447.116 67.2441C447.719 67.1773 447.304 67.1863 447.39 67.1759C448.636 67.0288 449.906 66.9268 450.594 66.7808C451.484 66.8639 451.348 66.6798 453.15 66.5184C453.292 66.5057 453.482 66.5685 452.94 66.6409C452.397 66.7134 451.57 66.7779 450.82 66.8807C450.642 66.9048 449.633 67.0985 449.493 67.1194C448.41 67.2796 448.242 67.1678 448.183 67.1669C447.523 67.1625 446.295 67.3879 445.968 67.4312C444.446 67.6302 443.154 67.7567 441.89 67.9204C441.063 68.0274 440.992 68.1269 440.342 68.1982C438.186 68.4358 437.421 68.3904 435.416 68.7347C434.987 68.8085 435.427 68.8625 433.871 68.9597C433.771 68.966 432.62 69.0228 431.96 69.1475C431.876 69.1634 431.882 69.1934 431.77 69.209C431.023 69.3126 430.521 69.3461 429.708 69.4526C428.896 69.5591 427.922 69.6912 426.995 69.7887C426.437 69.8476 425.716 69.8718 425.448 69.8881C424.691 69.9335 423.894 70.0968 423.424 70.0994C422.951 70.1017 423.856 69.9166 422.625 70.0251C422.59 70.1156 422.495 70.2149 422.432 70.3093C419.753 70.6222 417.097 70.9093 414.372 71.2386C414.035 71.2794 414.385 71.2862 414.024 71.3313C412.503 71.5216 411.173 71.6461 409.605 71.8496C408.392 72.0073 407.07 72.2214 405.809 72.3894C405.038 72.3738 403.119 72.6453 401.744 72.8041C401.261 72.8598 401.29 72.8262 400.946 72.8586C399.648 72.9814 400.266 73.0053 399.913 73.0644C398.402 73.3185 398.244 73.1097 396.46 73.335C396.364 73.3468 395.225 73.612 395.067 73.6396C394.065 73.8147 394.895 73.6177 394.263 73.6871C393.104 73.8146 392.322 73.8815 390.95 74.09C390.553 74.1506 389.606 74.3492 388.826 74.386C388.723 74.3909 388.774 74.3419 388.692 74.3497C387.208 74.495 387.185 74.6309 386.348 74.7828C385.51 74.9347 384.199 75.0094 383.93 75.0164C383.23 75.0356 384.457 74.9199 384.493 74.9084C384.924 74.7725 383.976 74.9066 383.252 74.9916C383.131 74.8736 382.122 75.0085 382.501 75.0795C382.545 75.087 383.106 75.0041 383.252 74.9916C382.633 75.201 381.524 75.3607 380.285 75.3953C379.704 75.4116 380.243 75.2743 378.497 75.5224C377.7 75.6359 378.02 75.6889 377.319 75.8049C375.716 76.0705 373.619 76.2536 371.971 76.4824C371.374 76.5656 371.963 76.5412 371.555 76.5999C370.471 76.7561 369.511 76.8423 368.427 77.0056C368.328 77.0205 368.576 77.0444 368.238 77.0897C365.693 77.4325 363.413 77.6996 360.732 78.0583C359.433 78.2319 357.122 78.5766 355.783 78.7523C353.473 79.0554 350.572 79.3652 348.588 79.6602C347.292 79.8529 347.585 79.8737 347.035 79.9915C345.973 80.2196 344.059 80.3417 343.802 80.355C343.805 80.3536 344.902 80.1865 344.307 80.2381C343.952 80.2218 343.814 80.3529 343.802 80.355C343.63 80.3642 341.408 80.6616 340.969 80.7356C340.729 80.7759 340.871 80.8145 340.746 80.8344C337.763 81.3075 334.78 81.7493 331.76 82.1564C331.707 82.1626 331.777 82.0847 331.652 82.1007C329.901 82.3226 328.801 82.5659 327.36 82.826C325.923 83.0856 324.777 83.2378 323.906 83.2464C322.82 83.4209 321.252 83.599 320.35 83.7001C319.449 83.8011 319.343 83.9541 319.265 83.9686C316.818 84.4196 315.381 84.5557 312.823 84.9291C311.606 85.1063 309.2 85.4924 307.888 85.7088C306.852 85.8798 306.22 85.9434 305.267 86.1113C305.138 86.134 305.277 86.1759 305.239 86.1845C304.183 86.4232 304.672 86.1932 304.448 86.2001C303.634 86.2249 303.131 86.2481 301.77 86.5064C301.456 86.5659 300.57 86.9283 299.997 87.0311C299.253 87.1642 299.522 87.0406 298.743 87.1821C298.676 87.1941 298.697 87.2413 298.214 87.3149C295.97 87.6572 293.52 88.0151 291.192 88.3912C290.874 88.4424 291.294 88.4558 290.835 88.5312C288.681 88.8847 286.318 89.2623 284.21 89.5657C283.691 89.6402 284.006 89.5319 283.891 89.5335C283.186 89.5444 282.231 89.8501 282.07 89.8793C278.228 90.5787 275.28 90.9275 271.367 91.6461C271.152 91.6858 269.538 92.1205 268.782 92.1059C268.73 92.1051 267.98 92.0857 267.355 92.2905C267.316 92.3033 267.778 92.3005 266.991 92.4255C266.205 92.5505 264.949 92.813 263.854 92.916C263.508 92.9488 262.675 92.944 261.672 93.232C261.607 93.251 260.072 93.7787 259.478 93.6976C259.382 93.6838 259.445 93.4789 258.241 93.7852C258.01 93.8441 258.441 93.813 257.83 93.9451C256.897 94.1476 255.631 94.3145 254.495 94.5986C254.297 94.6483 253.464 94.9258 252.761 94.9473C252.651 94.9506 252.844 94.8515 252.481 94.9075C250.751 95.1735 248.949 95.5331 247.185 95.7981C246.56 95.892 246.86 95.7317 246.206 95.8182C245.552 95.9047 244.238 96.1093 243.566 96.2775C242.894 96.4458 243.666 96.48 242.65 96.6744C238.272 97.5127 233.87 98.2044 229.452 98.9953C228.802 99.1117 229.351 99.0739 228.394 99.2502C224.875 99.8965 218.709 101.099 215.631 101.542C213.158 101.897 216.231 101.239 214.347 101.548C213.438 101.697 212.493 102.082 212.275 102.129C210.147 102.596 208.637 102.791 206.704 103.186C206.305 103.268 206.712 103.275 206.372 103.344C205.208 103.58 203.983 103.776 202.889 103.992C202.397 104.09 202.499 104.135 202.044 104.217C200.955 104.415 199.987 104.573 198.913 104.719C198.815 104.733 199.453 104.529 198.646 104.681C197.338 104.928 195.7 105.185 194.199 105.538C193.754 105.643 193.764 105.791 192.778 105.879C192.572 105.898 192.797 105.676 191.7 106.044C191.51 106.106 189.694 106.669 188.75 106.719C188.502 106.732 187.857 106.712 187.327 106.839C187.255 106.856 187.561 106.877 187.119 106.972C185.562 107.303 183.918 107.618 182.307 107.962C181.877 108.054 182.535 108.007 181.893 108.141C180.13 108.511 177.898 108.934 176.198 109.246C175.566 109.363 175.988 109.209 175.94 109.211C175.179 109.24 174.774 109.487 174.531 109.545C173.015 109.906 171.834 110.064 170.423 110.368C170.034 110.452 170.325 110.473 170.249 110.496C169.456 110.724 170.029 110.466 169.516 110.554C168.075 110.799 166.475 111.128 165.019 111.433C164.485 111.545 165.103 111.513 164.625 111.612C161.843 112.192 158.927 112.776 156.163 113.291C155.642 113.388 155.954 113.253 155.843 113.26C155.076 113.303 154.012 113.676 153.762 113.742C152.629 114.043 152.169 114.074 151.155 114.294C146.31 115.35 140.202 116.578 135.549 117.528C135.091 117.621 134.64 117.714 134.196 117.804C128.857 118.889 124.305 119.792 119.068 120.918C118.705 120.995 119.09 121.008 118.777 121.077C114.744 121.953 110.685 122.778 106.593 123.676C106.263 123.748 106.757 123.729 106.227 123.848C105.141 124.092 103.755 124.382 102.641 124.592C102.098 124.695 102.808 124.471 102.261 124.575C100.988 124.82 99.6221 125.105 98.3133 125.398C97.7562 125.523 98.6161 125.425 97.8909 125.581C92.8991 126.656 88.1398 127.685 83.126 128.659C82.7823 128.725 82.4487 128.637 81.7264 128.824C81.6808 128.878 81.6946 128.927 81.6806 128.977C74.3647 130.575 67.5016 132.001 60.1555 133.586C59.8566 133.65 60.3877 133.605 59.8088 133.73C56.4573 134.452 53.177 135.174 49.6737 135.871C49.3265 135.94 49.481 135.8 48.4628 136.038C48.2818 136.081 46.7445 136.431 46.3492 136.539C46.2957 136.554 46.5874 136.538 46.0894 136.647C43.147 137.293 40.2533 137.907 37.3814 138.508C36.9206 138.604 37.4006 138.457 37.0723 138.525C34.7443 139.013 32.2064 139.597 29.9501 140.059C28.4392 140.369 28.9828 140.188 28.1691 140.31C28.0541 140.328 27.1186 140.536 27.0629 140.516C26.921 140.466 27.3539 140.275 27.149 140.234C27.1137 140.227 26.3641 140.411 26.3603 140.396C26.3614 140.391 26.4264 140.369 26.5901 140.32C26.6438 140.305 27.5439 140.078 27.7636 140.011C27.9164 139.964 27.6298 139.997 27.9432 139.908C28.2566 139.82 28.611 139.765 29.1311 139.625C29.6501 139.485 29.4124 139.501 30.4543 139.247C32.8744 138.66 36.0289 137.922 38.4109 137.381C39.157 137.211 38.7859 137.326 39.3012 137.21C40.3086 136.985 41.2396 136.752 42.2307 136.533C42.5591 136.461 42.1622 136.601 42.5057 136.525C44.3906 136.107 46.255 135.662 48.1935 135.224C57.7064 133.077 67.1639 130.952 76.7169 128.84C79.9455 128.126 83.8452 127.324 87.1085 126.571C87.4891 126.483 87.2478 126.47 87.3192 126.449C88.4398 126.116 88.09 126.328 88.8359 126.181C91.7552 125.606 95.1447 124.869 97.9948 124.218C99.2112 123.94 97.9608 124.074 99.203 123.88C99.2891 123.866 98.9961 124.005 99.3313 123.94C100.092 123.792 101.522 123.467 102.107 123.345C103.233 123.112 103.419 123.071 104.479 122.841C105.925 122.529 107.657 122.192 109.248 121.83C109.584 121.754 109.121 121.774 109.657 121.645C110.194 121.515 111.618 121.214 112.1 121.129C112.582 121.044 112.392 121.148 112.479 121.144C113.201 121.11 114.804 120.597 115.013 120.548C118.838 119.654 122.077 119.06 125.739 118.283C128.47 117.704 131.36 117.063 133.928 116.528C133.949 116.524 133.97 116.519 133.991 116.514C137.032 115.882 139.764 115.357 142.767 114.725C143.086 114.658 142.694 114.643 143.083 114.561C147.215 113.692 151.264 112.869 155.438 112.08C155.853 112.002 155.336 112.191 155.752 112.118C158.301 111.666 162.306 111.018 163.718 110.367C165.421 110.037 167.537 109.625 169.082 109.389C170.081 109.236 169.138 109.516 170.345 109.235C170.617 109.172 170.246 109.167 170.655 109.078C172.378 108.703 174.264 108.353 175.952 107.976C176.295 107.899 176.188 107.85 176.283 107.818C177.083 107.555 178.486 107.449 178.797 107.4C181.121 107.033 182.791 106.667 184.923 106.251C185.417 106.155 184.816 106.178 185.291 106.082C187.764 105.584 190.269 105.104 192.724 104.671C193.267 104.575 192.785 104.75 193.045 104.709C194.192 104.524 194.416 104.328 195.513 104.149C195.744 104.111 195.628 104.203 195.671 104.202C196.35 104.19 196.888 103.918 197.056 103.882C199.177 103.424 200.567 103.334 202.608 102.921C202.852 102.871 202.285 102.892 202.971 102.758C207.575 101.858 212.494 100.957 217.032 100.184C217.742 100.063 217.25 100.218 217.294 100.218C218.05 100.202 218.494 99.9539 218.725 99.9049C220.554 99.5219 222.288 99.341 223.495 98.9237C231.211 97.5778 238.93 96.0891 246.649 94.9113C246.747 94.8964 246.586 95.0034 246.781 94.9729C249.138 94.6053 248.666 94.565 250.194 94.1514ZM458.735 65.9694C455.888 66.2758 454.158 66.3251 457.25 66.0055C457.809 65.9475 456.047 66.1798 456.761 66.1146C458.068 65.9942 458.928 65.8167 460.271 65.7163C460.512 65.6981 458.898 65.9519 458.73 65.9702C458.732 65.97 458.733 65.9696 458.735 65.9694ZM31.1755 139.62C30.8295 139.738 32.1643 139.444 31.8702 139.465C31.8474 139.468 31.191 139.614 31.1755 139.62ZM439.611 68.0935C439.208 68.1127 438.067 68.2717 438.564 68.2483C438.965 68.229 440.111 68.0694 439.611 68.0935ZM428.392 69.422C427.105 69.5186 426.927 69.7505 428.294 69.5489C428.373 69.5372 428.467 69.4167 428.392 69.422ZM417.095 70.7897C415.987 70.8499 415.249 71.0411 416.03 71.0032C416.81 70.9647 417.432 70.7711 417.095 70.7897ZM316.292 84.1573C315.45 84.2164 315.363 84.4731 316.255 84.2816C316.298 84.2714 316.335 84.1541 316.292 84.1573ZM315.069 84.0441C314.719 84.1736 316.065 83.9795 315.77 83.943C315.751 83.9427 315.085 84.0386 315.069 84.0441ZM272.941 90.6888C272.927 90.6871 272.446 90.7634 272.459 90.7839C272.505 90.8488 273.168 90.7184 272.941 90.6888ZM243.244 95.5779C242.462 95.8621 245.592 95.3258 244.88 95.2978C244.834 95.2979 243.3 95.5607 243.244 95.5779Z" fill="#2B9191"/>
</g>
</svg>
