<svg xmlns="http://www.w3.org/2000/svg" width="16.625" height="16.625" viewBox="0 0 16.625 16.625"><title>Instagram</title><path class="path" d="M8.312-11.393a4.153,4.153,0,0,1,2.134.575A4.28,4.28,0,0,1,12-9.259a4.153,4.153,0,0,1,.575,2.134A4.153,4.153,0,0,1,12-4.991a4.28,4.28,0,0,1-1.559,1.559,4.153,4.153,0,0,1-2.134.575,4.153,4.153,0,0,1-2.134-.575A4.28,4.28,0,0,1,4.62-4.991a4.153,4.153,0,0,1-.575-2.134A4.153,4.153,0,0,1,4.62-9.259a4.28,4.28,0,0,1,1.559-1.559A4.153,4.153,0,0,1,8.312-11.393Zm0,7.051a2.681,2.681,0,0,0,1.967-.816A2.681,2.681,0,0,0,11.1-7.125a2.681,2.681,0,0,0-.816-1.967,2.681,2.681,0,0,0-1.967-.816,2.681,2.681,0,0,0-1.967.816,2.681,2.681,0,0,0-.816,1.967,2.681,2.681,0,0,0,.816,1.967A2.681,2.681,0,0,0,8.312-4.342Zm5.455-7.236a1.156,1.156,0,0,1-.315.705.9.9,0,0,1-.687.3.963.963,0,0,1-.705-.3.963.963,0,0,1-.3-.705.963.963,0,0,1,.3-.705.963.963,0,0,1,.705-.3.963.963,0,0,1,.705.3A.963.963,0,0,1,13.768-11.578Zm2.82,1q.037,1.039.037,3.451t-.056,3.47a7,7,0,0,1-.315,1.837A4.325,4.325,0,0,1,15.233-.2,4.325,4.325,0,0,1,13.619.816a7,7,0,0,1-1.837.315q-1.058.056-3.47.056t-3.47-.056A6.06,6.06,0,0,1,3.006.779,3.956,3.956,0,0,1,1.392-.2,4.325,4.325,0,0,1,.371-1.818,7,7,0,0,1,.056-3.655Q0-4.713,0-7.125t.056-3.47a7,7,0,0,1,.315-1.837,4.325,4.325,0,0,1,1.021-1.614,4.325,4.325,0,0,1,1.614-1.021,7,7,0,0,1,1.837-.315q1.058-.056,3.47-.056t3.47.056a7,7,0,0,1,1.837.315,4.325,4.325,0,0,1,1.614,1.021,4.325,4.325,0,0,1,1.021,1.614A7.55,7.55,0,0,1,16.588-10.576Zm-1.781,8.35a7.813,7.813,0,0,0,.3-2q.037-.816.037-2.3V-7.719q0-1.521-.037-2.3a7.446,7.446,0,0,0-.3-2,2.678,2.678,0,0,0-1.6-1.6,7.446,7.446,0,0,0-2-.3q-.816-.037-2.3-.037H7.719q-1.484,0-2.3.037a7.813,7.813,0,0,0-2,.3,2.678,2.678,0,0,0-1.6,1.6,7.446,7.446,0,0,0-.3,2q-.037.816-.037,2.3v1.187q0,1.484.037,2.3a7.813,7.813,0,0,0,.3,2,2.813,2.813,0,0,0,1.6,1.6,7.813,7.813,0,0,0,2,.3q.816.037,2.3.037H8.906q1.521,0,2.3-.037a7.446,7.446,0,0,0,2-.3A2.813,2.813,0,0,0,14.807-2.227Z" transform="translate(0 15.437)" /></svg>