<svg id="4" data-name="4" xmlns="http://www.w3.org/2000/svg" xmlns:xlink="http://www.w3.org/1999/xlink" width="81.129" height="81.129" viewBox="0 0 81.129 81.129"><defs><clipPath id="sagasdgsadgsdgs"><rect id="2" data-name="2" width="81.129" height="81.129" fill="none"/></clipPath></defs><g id="3" data-name="3" clip-path="url(#sagasdgsadgsdgs)"><path id="17" data-name="17" d="M81.129,40.564A40.564,40.564,0,1,1,40.565,0,40.565,40.565,0,0,1,81.129,40.564" fill="#00BE00"/><path id="18" data-name="18" d="M67.617,38.2c0-12.117-12.148-21.976-27.08-21.976S13.456,26.085,13.456,38.2c0,10.863,9.635,19.961,22.648,21.681.882.191,2.083.582,2.386,1.336a5.563,5.563,0,0,1,.088,2.448s-.318,1.911-.387,2.319c-.118.684-.544,2.677,2.346,1.46s15.6-9.184,21.277-15.723h0c3.925-4.3,5.8-8.671,5.8-13.521" fill="#fff"/><path id="19" data-name="19" d="M58.608,45.2a.516.516,0,0,0,.517-.517V42.761a.519.519,0,0,0-.517-.517H53.437V40.25h5.171a.516.516,0,0,0,.517-.517v-1.92a.519.519,0,0,0-.517-.518H53.437V35.3h5.171a.516.516,0,0,0,.517-.517v-1.92a.519.519,0,0,0-.517-.518H51a.517.517,0,0,0-.517.518V44.673h0v.008A.516.516,0,0,0,51,45.2h7.608Z" fill="#00BE00"/><path id="20" data-name="20" d="M30.466,45.2a.516.516,0,0,0,.517-.517V42.761a.519.519,0,0,0-.517-.517H25.3v-9.38a.519.519,0,0,0-.517-.518h-1.92a.517.517,0,0,0-.517.518V44.673h0v.008a.516.516,0,0,0,.517.517h7.608Z" fill="#00BE00"/><path id="21" data-name="21" d="M35.046,32.346H33.125a.518.518,0,0,0-.517.517V44.682a.518.518,0,0,0,.517.517h1.921a.517.517,0,0,0,.517-.517V32.863a.517.517,0,0,0-.517-.517" fill="#00BE00"/><path id="22" data-name="22" d="M48.12,32.346H46.2a.518.518,0,0,0-.517.517v7.02l-5.407-7.3a.534.534,0,0,0-.041-.053l0,0c-.01-.011-.02-.022-.031-.032l-.01-.009-.028-.024-.014-.01-.027-.019-.016-.01-.028-.015-.017-.008-.03-.013-.017-.006-.031-.011-.019,0-.03-.007-.022,0-.028,0H37.927a.518.518,0,0,0-.518.517V44.682a.518.518,0,0,0,.518.517h1.92a.517.517,0,0,0,.517-.517V37.664l5.414,7.312a.513.513,0,0,0,.133.13l.007,0,.032.02.015.008.025.012.025.011.017.006.035.012.008,0a.543.543,0,0,0,.135.018h1.91a.517.517,0,0,0,.517-.517V32.863a.517.517,0,0,0-.517-.517" fill="#00BE00"/></g></svg>