<svg width="368" height="67" viewBox="0 0 368 67" fill="none" xmlns="http://www.w3.org/2000/svg">
<mask id="path-1-inside-1_8446_320" fill="white">
<path d="M306.568 0.0175781C312.643 0.0175781 317.568 4.94245 317.568 11.0176V37.8477C317.568 43.9227 312.643 48.8477 306.568 48.8477H201.771L183.824 66.793L165.878 48.8477H61.0859C55.0109 48.8476 50.0861 43.9227 50.0859 37.8477V11.0176C50.0859 4.94245 55.0108 0.0175782 61.0859 0.0175781H306.568Z"/>
</mask>
<path d="M306.568 0.0175781C312.643 0.0175781 317.568 4.94245 317.568 11.0176V37.8477C317.568 43.9227 312.643 48.8477 306.568 48.8477H201.771L183.824 66.793L165.878 48.8477H61.0859C55.0109 48.8476 50.0861 43.9227 50.0859 37.8477V11.0176C50.0859 4.94245 55.0108 0.0175782 61.0859 0.0175781H306.568Z" fill="white"/>
<path d="M317.568 37.8477L318.568 37.8477V37.8477H317.568ZM201.771 48.8477V47.8477H201.356L201.063 48.1405L201.771 48.8477ZM183.824 66.793L183.117 67.5001L183.824 68.2071L184.531 67.5001L183.824 66.793ZM165.878 48.8477L166.585 48.1405L166.292 47.8477H165.878V48.8477ZM61.0859 48.8477L61.0859 49.8477H61.0859V48.8477ZM50.0859 37.8477H49.0859V37.8477L50.0859 37.8477ZM61.0859 0.0175781V-0.982422V0.0175781ZM306.568 0.0175781V1.01758C312.091 1.01758 316.568 5.49473 316.568 11.0176H317.568H318.568C318.568 4.39016 313.196 -0.982422 306.568 -0.982422V0.0175781ZM317.568 11.0176H316.568V37.8477H317.568H318.568V11.0176H317.568ZM317.568 37.8477L316.568 37.8476C316.568 43.3704 312.091 47.8477 306.568 47.8477V48.8477V49.8477C313.196 49.8477 318.568 44.4749 318.568 37.8477L317.568 37.8477ZM306.568 48.8477V47.8477H201.771V48.8477V49.8477H306.568V48.8477ZM201.771 48.8477L201.063 48.1405L183.117 66.0858L183.824 66.793L184.531 67.5001L202.478 49.5548L201.771 48.8477ZM183.824 66.793L184.531 66.0858L166.585 48.1405L165.878 48.8477L165.171 49.5548L183.117 67.5001L183.824 66.793ZM165.878 48.8477V47.8477H61.0859V48.8477V49.8477H165.878V48.8477ZM61.0859 48.8477L61.0859 47.8477C55.5632 47.8476 51.0861 43.3704 51.0859 37.8476L50.0859 37.8477L49.0859 37.8477C49.0861 44.4749 54.4586 49.8476 61.0859 49.8477L61.0859 48.8477ZM50.0859 37.8477H51.0859V11.0176H50.0859H49.0859V37.8477H50.0859ZM50.0859 11.0176H51.0859C51.0859 5.49473 55.5631 1.01758 61.0859 1.01758V0.0175781V-0.982422C54.4585 -0.982422 49.0859 4.39016 49.0859 11.0176H50.0859ZM61.0859 0.0175781V1.01758H306.568V0.0175781V-0.982422H61.0859V0.0175781Z" fill="#146293" mask="url(#path-1-inside-1_8446_320)"/>
<rect x="85.5449" y="27.834" width="196.562" height="10" fill="#F5EE57"/>
<path d="M89.8501 31.9304V32.9656H88.0703C88.1066 32.2392 88.1248 31.1858 88.1248 29.7874V24.339C88.1248 23.2493 88.0884 22.0325 88.0703 21.4513C88.5425 21.4695 88.9784 21.4876 89.614 21.4876H92.6106V18.8361H90.6492C89.6503 18.8361 88.0158 18.8724 87.0351 18.9087V17.1652C87.9795 17.2016 89.614 17.2379 90.6492 17.2379H99.8389C100.983 17.2379 102.545 17.2016 103.453 17.1652V18.9087C102.49 18.8724 100.947 18.8361 99.8389 18.8361H97.6595V21.4876H101.092C101.728 21.4876 102.164 21.4695 102.636 21.4513C102.581 22.0506 102.581 22.7044 102.581 24.339V29.5331C102.581 30.9679 102.599 32.0394 102.636 32.7114H100.856V31.9304H89.8501ZM100.856 30.2777V23.1403H97.6595V26.1188C97.6595 26.5365 97.7866 26.6091 98.4404 26.6091C99.2214 26.6091 99.294 26.5183 99.294 25.356C99.294 25.2289 99.294 25.1199 99.2758 24.9201C99.8025 25.1562 100.148 25.2652 100.674 25.3923C100.656 27.0087 100.602 27.4264 100.22 27.826C99.9478 28.1347 99.4575 28.2437 98.4949 28.2437C97.2963 28.2437 96.588 28.0984 96.2429 27.7896C96.025 27.5899 95.9342 27.2811 95.9342 26.6273V23.1403H94.2815C94.1362 24.793 93.7911 26.0825 93.2281 27.0269C92.8104 27.7351 92.2474 28.2618 91.0851 29.1336C90.7945 28.4616 90.74 28.3708 90.0862 27.5899C91.0124 26.936 91.4846 26.4457 91.8479 25.7556C92.1929 25.0836 92.429 24.1937 92.538 23.1403H89.8501V30.2777H100.856ZM95.9342 21.4876V18.8361H94.336V21.4876H95.9342ZM113.278 30.986V31.8033H111.626C111.662 31.3674 111.68 30.7681 111.68 29.8782V28.7159C111.68 28.2255 111.662 27.5172 111.626 27.2085C112.025 27.2266 112.407 27.2448 112.933 27.2448H117.637C118.164 27.2448 118.545 27.2266 118.945 27.2085C118.926 27.5172 118.89 28.2255 118.89 28.7159V29.9508C118.89 30.532 118.908 31.204 118.945 31.5672H117.31V30.986H113.278ZM117.31 29.7147V28.5706H113.278V29.7147H117.31ZM112.461 24.0484V24.5206H110.718C110.754 24.0847 110.772 23.4854 110.772 22.5955V21.7237C110.772 21.1426 110.754 20.4524 110.718 20.1255C111.353 20.1437 111.916 20.1437 112.715 20.1437H117.873C118.69 20.1437 119.253 20.1437 119.889 20.1255C119.853 20.5069 119.835 20.8701 119.835 21.7237V22.5228C119.835 23.3583 119.853 23.9939 119.889 24.4116H118.127V24.0484H112.461ZM118.127 22.65V21.5966H112.461V22.65H118.127ZM114.404 17.7464V17.4195C114.404 16.911 114.404 16.5114 114.386 16.2572L116.239 16.3661C116.457 16.3843 116.584 16.4569 116.584 16.5659C116.584 16.6567 116.475 16.7657 116.239 16.911V17.7464H119.617C120.761 17.7464 122.323 17.7101 123.249 17.6737V19.4354C122.268 19.3991 120.724 19.3628 119.617 19.3628H110.935C109.937 19.3628 108.302 19.3991 107.321 19.4354V17.6737C108.266 17.7101 109.9 17.7464 110.935 17.7464H114.404ZM108.03 31.2221V26.482C108.03 25.9008 108.011 25.1926 107.993 24.8838C108.683 24.902 109.137 24.902 110.263 24.902H120.289C121.251 24.902 121.923 24.902 122.595 24.8838C122.559 25.1926 122.541 25.81 122.541 26.3549V28.8975C122.541 29.4242 122.541 29.8963 122.577 30.7681C122.595 31.095 122.595 31.3493 122.595 31.5127C122.595 32.3118 122.341 32.7477 121.705 32.9475C121.269 33.0927 120.779 33.1291 119.489 33.1291C119.344 32.1665 119.326 32.0031 119.144 31.3856C119.816 31.4219 119.925 31.4219 120.107 31.4219C120.706 31.4219 120.797 31.3311 120.797 30.6591V26.482H109.791V33.1654H107.993C108.03 32.7295 108.03 32.1302 108.03 31.2221ZM129.605 26.8816L128.77 25.0291C129.46 24.8112 129.623 24.7385 131.676 23.8668C134.418 22.7044 135.58 22.3775 137.16 22.3775C139.921 22.3775 141.519 23.8123 141.519 26.2822C141.519 28.2073 140.538 29.7329 138.722 30.6228C137.215 31.3493 136.434 31.6035 133.619 32.1484C133.456 31.4764 133.31 31.1132 132.893 30.3504C134.818 30.0961 135.635 29.9145 136.743 29.5331C138.777 28.843 139.721 27.826 139.721 26.3367C139.721 24.8112 138.831 23.9939 137.16 23.9939C135.689 23.9939 134.309 24.5024 131.549 25.9008L129.605 26.8816ZM160.952 18.6181L161.896 20.0347C161.969 20.1255 162.023 20.2345 162.023 20.3435C162.023 20.4888 161.951 20.5251 161.442 20.5614C159.572 20.6885 158.518 21.0336 157.283 21.9417C155.522 23.2493 154.559 24.8656 154.559 26.5365C154.559 28.0984 155.776 29.2789 157.81 29.6966C158.809 29.8963 159.699 29.9872 161.115 30.0053C160.807 30.5683 160.661 30.9679 160.389 31.9667C158.627 31.8578 157.646 31.7125 156.484 31.3856C154.032 30.6954 152.634 28.952 152.634 26.5547C152.634 24.5751 153.542 23.0132 155.576 21.4695C153.942 21.8509 150.001 22.7771 148.984 22.995C148.529 23.104 148.421 23.1222 148.075 23.213L147.621 21.1426C149.256 20.9973 151.526 20.6341 155.721 19.835C159.281 19.163 159.771 19.054 160.952 18.6181ZM180.058 18.1278L180.857 17.2016C181.71 17.7282 182.255 18.1641 183.145 19.0177L182.237 20.0166C181.402 19.1267 180.984 18.7634 180.058 18.1278ZM178.641 19.7805L179.44 18.8542C180.294 19.3809 180.857 19.8168 181.747 20.6704L180.839 21.6511C179.985 20.7612 179.585 20.4161 178.641 19.7805ZM174.7 17.8372V18.5818C174.7 20.7612 174.827 22.2141 175.1 23.2856C176.098 22.8497 176.716 22.5955 176.934 22.4865C178.078 21.978 178.332 21.8509 178.732 21.5966L179.912 23.0677C180.021 23.213 180.058 23.2493 180.058 23.3038C180.058 23.4491 179.93 23.4854 179.458 23.4854C178.786 23.7578 178.241 23.9757 177.896 24.1029C174.246 25.5013 173.919 25.6466 172.92 26.4094C172.23 26.9179 171.849 27.6443 171.849 28.3708C171.849 29.5513 172.739 30.0053 175.118 30.0053C177.115 30.0053 178.696 29.8237 180.294 29.4242C180.239 30.1688 180.221 30.2414 180.221 31.5672C178.568 31.7851 177.388 31.8578 175.626 31.8578C174.246 31.8578 173.193 31.7488 172.412 31.549C170.741 31.095 169.924 30.1143 169.924 28.4979C169.924 26.7544 171.122 25.2107 173.392 24.0484C172.975 22.7408 172.938 22.432 172.757 18.9269C172.739 18.4184 172.702 18.0551 172.63 17.1834L174.646 17.2742C174.809 17.2742 174.936 17.3832 174.936 17.4921C174.936 17.6011 174.863 17.7101 174.7 17.8372ZM193.86 17.1289L195.713 18.037C195.931 18.1459 196.04 18.2367 196.04 18.3276C196.04 18.4728 195.876 18.5637 195.586 18.6181C194.641 20.7067 194.042 21.9053 192.226 25.2289C192.771 25.0291 193.17 24.9383 193.624 24.9383C194.351 24.9383 195.041 25.3378 195.386 25.9372C195.64 26.4094 195.767 27.0087 195.894 28.2981C195.985 29.2244 196.112 29.7329 196.33 29.9872C196.53 30.2233 196.911 30.3685 197.293 30.3685C199.218 30.3685 200.798 28.2437 201.633 24.5751C202.378 25.1017 202.723 25.3015 203.377 25.5739C201.869 30.4775 200.217 32.2936 197.238 32.2936C196.439 32.2936 195.695 32.0939 195.168 31.7488C194.514 31.3129 194.242 30.6954 194.042 29.0972C193.806 27.2266 193.806 27.1358 193.624 26.8452C193.515 26.6818 193.261 26.5365 193.025 26.5365C192.226 26.5365 191.499 27.154 190.809 28.4071C190.555 28.8793 190.5 29.0246 189.865 30.3504C189.52 31.095 189.483 31.1676 188.993 32.0939C188.049 31.4037 187.885 31.3129 187.122 31.0587C187.831 29.9145 189.738 26.2096 191.372 22.8316C193.097 19.2719 193.515 18.3276 193.86 17.1289ZM217.724 23.1222L218.868 24.2845C218.305 24.6659 218.16 24.8838 218.16 25.4287C218.16 25.81 218.178 26.0461 218.287 26.8997C218.342 27.2811 218.36 27.3901 218.414 27.9531C218.433 28.171 218.451 28.2437 218.451 28.3163C219.595 28.7703 220.794 29.4968 222.483 30.7681C221.956 31.204 221.647 31.5309 221.193 32.2028C220.194 31.2766 220.103 31.204 218.487 30.2051C218.324 32.0031 217.27 32.8385 215.109 32.8385C213.129 32.8385 211.84 31.8396 211.84 30.2777C211.84 28.7159 213.166 27.608 215.109 27.608C215.69 27.608 216.072 27.6625 216.598 27.8078C216.544 27.3719 216.544 27.2448 216.489 26.7726C216.435 26.3549 216.398 25.5921 216.398 25.3742C216.398 24.3753 216.744 23.7941 217.724 23.1222ZM216.689 29.4786C216.035 29.2607 215.527 29.1881 214.982 29.1881C214.146 29.1881 213.565 29.6058 213.565 30.2233C213.565 30.8407 214.11 31.1858 215.164 31.1858C215.817 31.1858 216.29 31.0042 216.489 30.6773C216.635 30.4593 216.689 30.078 216.689 29.4786ZM212.984 16.5659L214.909 17.1471C215.055 17.1834 215.145 17.2742 215.145 17.3832C215.145 17.5103 215.055 17.5829 214.782 17.7101C214.346 18.8906 214.128 19.508 214.001 19.7805C214.891 19.5625 215.563 19.3083 216.199 18.9814L216.943 20.5977C215.672 21.1607 214.782 21.415 213.347 21.6511C213.02 22.541 212.457 23.9213 211.804 25.3378C211.168 26.7363 210.75 27.5172 210.006 28.734C209.642 29.3515 209.37 29.7874 209.207 30.0598C208.535 29.4786 208.244 29.297 207.554 29.0246C209.025 27.0269 210.351 24.5387 211.422 21.7782C211.041 21.8327 210.732 21.8509 210.151 21.8509C209.642 21.8509 209.243 21.8327 208.371 21.7782L208.335 19.9258C209.207 20.0529 209.77 20.0892 210.532 20.0892C211.041 20.0892 211.35 20.071 212.04 20.0166C212.566 18.4728 212.912 17.2197 212.984 16.5659ZM217.361 22.432L217.87 20.852C219.922 21.2334 220.921 21.5966 222.664 22.65L221.702 24.2845C220.14 23.213 219.086 22.7589 217.361 22.432ZM238.773 22.4502L239.046 22.1414L240.154 23.1403C240.299 23.2674 240.353 23.3583 240.353 23.4309C240.353 23.6307 240.244 23.7033 239.736 23.776C239.082 24.2663 238.41 24.7385 237.72 25.1744C237.157 25.5195 236.594 25.8282 236.013 26.1369V26.5728H239.917C241.062 26.5728 242.605 26.5547 243.532 26.5183V28.3345C242.569 28.2981 241.025 28.2618 239.917 28.2618H235.995V29.2607C235.995 29.5876 236.013 30.0416 236.031 30.641C236.049 31.0042 236.049 31.2766 236.049 31.4401C236.049 32.7658 235.432 33.0746 232.798 33.0746H232.399C232.362 32.2392 232.308 31.9667 232.054 31.1858C232.744 31.2221 233.107 31.2403 233.579 31.2403C234.16 31.2403 234.251 31.1495 234.251 30.4957V28.2618H230.365C229.366 28.2618 227.731 28.2981 226.75 28.3345V26.5183C227.695 26.5547 229.329 26.5728 230.365 26.5728H234.233C234.233 26.1914 234.215 25.81 234.197 25.4287C234.178 25.2289 234.16 25.0109 234.106 24.8112L235.032 24.8656C235.504 24.6114 235.976 24.339 236.449 24.0484H232.689C231.926 24.0484 230.855 24.0665 230.165 24.0847V22.3957C230.855 22.432 231.926 22.4502 232.689 22.4502H238.773ZM231.454 19.7078H234.632C234.215 18.4365 233.942 17.8372 233.307 16.7657L234.85 16.2027C235.541 17.2016 235.904 17.928 236.358 19.163L234.814 19.7078H237.266C238.156 18.491 238.81 17.365 239.336 16.0937L241.116 16.8565C241.261 16.911 241.334 16.9836 241.334 17.0563C241.334 17.1834 241.225 17.256 240.953 17.2924C240.19 18.5092 239.79 19.1085 239.354 19.7078H239.736C240.626 19.7078 242.024 19.6897 242.823 19.6352C242.805 20.289 242.805 20.6341 242.805 21.0154V21.7237C242.805 22.1778 242.823 22.7226 242.86 23.3219H240.953C240.989 22.7953 241.007 22.1414 241.007 21.7237V21.306H229.239V21.7237C229.239 22.1414 229.275 22.7953 229.293 23.3219H227.404C227.422 22.7226 227.441 22.1778 227.441 21.7237V21.0154C227.441 20.6341 227.441 20.3071 227.422 19.6352C228.222 19.6897 229.457 19.7078 230.655 19.7078C229.911 18.491 229.584 18.037 228.948 17.3287L230.328 16.4388C231.218 17.2742 231.709 17.9098 232.435 19.1448L231.454 19.7078ZM250.633 21.7419V24.0121C251.523 24.5932 252.249 25.1926 252.994 25.9553L251.958 27.5535C251.595 27.0632 251.105 26.5183 250.633 26.0643V27.8623C250.633 30.2414 250.651 32.0031 250.705 33.1654H248.835C248.889 31.9849 248.907 30.2051 248.907 27.8623V26.3004C248.417 27.7896 247.963 28.6977 247.146 30.0053C246.655 28.8975 246.492 28.6069 246.165 28.1347C247.309 26.3549 248.108 24.3208 248.653 21.7419H248.108C247.636 21.7419 247.055 21.7601 246.673 21.7782V20.0529C247.073 20.071 247.727 20.0892 248.108 20.0892H248.907C248.889 18.0733 248.853 16.8202 248.798 16.3661L250.705 16.5114C250.869 16.5296 250.978 16.5841 250.978 16.693C250.978 16.7838 250.887 16.8928 250.651 17.0381C250.633 17.5648 250.633 17.6556 250.633 20.0892H251.214C251.595 20.0892 252.249 20.071 252.649 20.0529V21.7782C252.267 21.7601 251.704 21.7419 251.214 21.7419H250.633ZM259.241 28.1165L258.969 28.4979C260.204 29.6421 261.657 30.4957 263.89 31.3493C263.436 31.9304 263.164 32.3481 262.873 32.9656C260.658 31.9667 259.06 30.9679 257.861 29.8237C256.989 30.6773 255.972 31.4037 254.574 32.1302C253.593 32.6387 253.03 32.8748 252.013 33.1836C251.741 32.4389 251.541 32.0394 251.196 31.5854C253.593 30.7863 255.046 30.0235 256.39 28.8611C256.517 28.7522 256.626 28.6432 256.735 28.5342C256.008 27.5354 255.427 26.3186 254.792 24.5206L256.172 23.8486C256.789 25.4468 257.243 26.4275 257.825 27.2266C258.497 26.2641 259.078 25.1199 259.568 23.776L261.112 24.5024C261.348 24.6114 261.384 24.6296 261.384 24.7204C261.384 24.8112 261.312 24.902 261.221 24.9383L260.966 25.0473C260.494 26.1551 260.113 26.8997 259.241 28.1165ZM257.007 18.7634V17.4558C257.007 16.9655 257.007 16.5659 256.989 16.2935L258.787 16.4206C259.005 16.4388 259.132 16.4933 259.132 16.6022C259.132 16.7112 259.023 16.8202 258.769 16.9655V18.7634H260.985C261.675 18.7634 262.619 18.7453 263.146 18.7271V20.4343C262.601 20.4161 261.584 20.398 260.985 20.398H255.155C254.556 20.398 253.538 20.4161 252.994 20.4343V18.7271C253.52 18.7453 254.465 18.7634 255.155 18.7634H257.007ZM255.609 20.5069L257.044 21.1607C257.225 21.2334 257.334 21.3423 257.334 21.4513C257.334 21.5966 257.207 21.6692 256.862 21.6874C255.682 23.3038 254.846 24.0847 252.939 25.356C252.649 24.7022 252.394 24.3026 251.94 23.8668C253.756 22.8316 254.61 22.0506 255.609 20.5069ZM258.551 21.6511L259.641 20.5432C261.384 21.7419 262.383 22.5592 263.582 23.776L262.383 25.0836C260.676 23.3219 259.986 22.7044 258.551 21.6511ZM275.822 27.2811H273.843C273.843 26.028 273.843 25.7737 273.879 25.3742C273.934 24.5387 274.242 24.0302 275.259 22.9587C276.295 21.8872 276.531 21.4876 276.531 20.8157C276.531 19.9802 275.95 19.4354 275.078 19.4354C274.115 19.4354 273.661 20.0166 273.552 21.3787H271.337C271.373 20.1255 271.591 19.3991 272.136 18.7816C272.826 17.9825 273.934 17.5648 275.278 17.5648C277.421 17.5648 278.746 18.7816 278.746 20.7067C278.746 21.8509 278.438 22.4139 277.003 23.9031C275.913 25.0473 275.804 25.2834 275.804 26.6091C275.804 26.8271 275.804 26.9905 275.822 27.2811ZM273.625 29.1699H276.059V31.6035H273.625V29.1699Z" fill="#146293"/>
</svg>
