<svg width="366" height="67" viewBox="0 0 366 67" fill="none" xmlns="http://www.w3.org/2000/svg">
<mask id="path-1-inside-1_8446_319" fill="white">
<path d="M311.871 0.0175781C317.946 0.0175781 322.871 4.94245 322.871 11.0176V37.8477C322.871 43.9227 317.946 48.8477 311.871 48.8477H201.086L183.139 66.7939L165.191 48.8477H54.4121C48.3371 48.8476 43.4123 43.9227 43.4121 37.8477V11.0176C43.4121 4.94245 48.337 0.0175783 54.4121 0.0175781H311.871Z"/>
</mask>
<path d="M311.871 0.0175781C317.946 0.0175781 322.871 4.94245 322.871 11.0176V37.8477C322.871 43.9227 317.946 48.8477 311.871 48.8477H201.086L183.139 66.7939L165.191 48.8477H54.4121C48.3371 48.8476 43.4123 43.9227 43.4121 37.8477V11.0176C43.4121 4.94245 48.337 0.0175783 54.4121 0.0175781H311.871Z" fill="white"/>
<path d="M322.871 37.8477L323.871 37.8477V37.8477H322.871ZM201.086 48.8477V47.8477H200.672L200.379 48.1405L201.086 48.8477ZM183.139 66.7939L182.432 67.5011L183.139 68.2081L183.846 67.5011L183.139 66.7939ZM165.191 48.8477L165.898 48.1405L165.606 47.8477H165.191V48.8477ZM54.4121 48.8477L54.4121 49.8477H54.4121V48.8477ZM43.4121 37.8477H42.4121V37.8477L43.4121 37.8477ZM54.4121 0.0175781V-0.982422V0.0175781ZM311.871 0.0175781V1.01758C317.394 1.01758 321.871 5.49473 321.871 11.0176H322.871H323.871C323.871 4.39016 318.499 -0.982422 311.871 -0.982422V0.0175781ZM322.871 11.0176H321.871V37.8477H322.871H323.871V11.0176H322.871ZM322.871 37.8477L321.871 37.8476C321.871 43.3704 317.394 47.8477 311.871 47.8477V48.8477V49.8477C318.498 49.8477 323.871 44.4749 323.871 37.8477L322.871 37.8477ZM311.871 48.8477V47.8477H201.086V48.8477V49.8477H311.871V48.8477ZM201.086 48.8477L200.379 48.1405L182.432 66.0868L183.139 66.7939L183.846 67.5011L201.793 49.5548L201.086 48.8477ZM183.139 66.7939L183.846 66.0868L165.898 48.1405L165.191 48.8477L164.484 49.5548L182.432 67.5011L183.139 66.7939ZM165.191 48.8477V47.8477H54.4121V48.8477V49.8477H165.191V48.8477ZM54.4121 48.8477L54.4121 47.8477C48.8894 47.8476 44.4122 43.3704 44.4121 37.8476L43.4121 37.8477L42.4121 37.8477C42.4123 44.4749 47.7848 49.8476 54.4121 49.8477L54.4121 48.8477ZM43.4121 37.8477H44.4121V11.0176H43.4121H42.4121V37.8477H43.4121ZM43.4121 11.0176H44.4121C44.4121 5.49473 48.8893 1.01758 54.4121 1.01758V0.0175781V-0.982422C47.7847 -0.982422 42.4121 4.39016 42.4121 11.0176H43.4121ZM54.4121 0.0175781V1.01758H311.871V0.0175781V-0.982422H54.4121V0.0175781Z" fill="#146293" mask="url(#path-1-inside-1_8446_319)"/>
<rect x="76.998" y="27.835" width="212.281" height="10" fill="#F5EE57"/>
<path d="M89.4733 18.1288L90.2724 17.2025C91.126 17.7292 91.6708 18.1651 92.5607 19.0187L91.6527 20.0175C90.8172 19.1276 90.3995 18.7644 89.4733 18.1288ZM88.0567 19.7814L88.8558 18.8552C89.7094 19.3819 90.2724 19.8178 91.1623 20.6713L90.2542 21.6521C89.4006 20.7622 89.0011 20.4171 88.0567 19.7814ZM84.1157 17.8382V18.5828C84.1157 20.7622 84.2428 22.2151 84.5152 23.2866C85.5141 22.8507 86.1316 22.5965 86.3495 22.4875C87.4937 21.979 87.748 21.8518 88.1475 21.5976L89.328 23.0686C89.437 23.2139 89.4733 23.2503 89.4733 23.3047C89.4733 23.45 89.3462 23.4864 88.874 23.4864C88.202 23.7588 87.6572 23.9767 87.3121 24.1038C83.6617 25.5023 83.3348 25.6476 82.3359 26.4103C81.6457 26.9189 81.2644 27.6453 81.2644 28.3718C81.2644 29.5523 82.1543 30.0063 84.5334 30.0063C86.5312 30.0063 88.1112 29.8247 89.7094 29.4251C89.6549 30.1697 89.6367 30.2424 89.6367 31.5682C87.9841 31.7861 86.8036 31.8588 85.0419 31.8588C83.6617 31.8588 82.6083 31.7498 81.8274 31.55C80.1565 31.096 79.3393 30.1153 79.3393 28.4989C79.3393 26.7554 80.5379 25.2117 82.8081 24.0494C82.3904 22.7417 82.354 22.433 82.1724 18.9279C82.1543 18.4193 82.1179 18.0561 82.0453 17.1844L84.0612 17.2752C84.2247 17.2752 84.3518 17.3841 84.3518 17.4931C84.3518 17.6021 84.2791 17.711 84.1157 17.8382ZM103.276 17.1299L105.128 18.038C105.346 18.1469 105.455 18.2377 105.455 18.3285C105.455 18.4738 105.292 18.5646 105.001 18.6191C104.057 20.7077 103.458 21.9063 101.641 25.2299C102.186 25.0301 102.586 24.9393 103.04 24.9393C103.766 24.9393 104.456 25.3388 104.801 25.9381C105.056 26.4103 105.183 27.0097 105.31 28.2991C105.401 29.2254 105.528 29.7339 105.746 29.9881C105.946 30.2242 106.327 30.3695 106.708 30.3695C108.634 30.3695 110.214 28.2446 111.049 24.576C111.794 25.1027 112.139 25.3025 112.792 25.5749C111.285 30.4785 109.632 32.2946 106.654 32.2946C105.855 32.2946 105.11 32.0948 104.584 31.7498C103.93 31.3139 103.657 30.6964 103.458 29.0982C103.221 27.2276 103.221 27.1368 103.04 26.8462C102.931 26.6828 102.677 26.5375 102.441 26.5375C101.641 26.5375 100.915 27.155 100.225 28.4081C99.9706 28.8803 99.9161 29.0256 99.2804 30.3514C98.9354 31.096 98.899 31.1686 98.4087 32.0948C97.4643 31.4047 97.3008 31.3139 96.5381 31.0597C97.2464 29.9155 99.1533 26.2106 100.788 22.8326C102.513 19.2729 102.931 18.3285 103.276 17.1299ZM127.14 23.1231L128.284 24.2855C127.721 24.6669 127.576 24.8848 127.576 25.4296C127.576 25.811 127.594 26.0471 127.703 26.9007C127.757 27.2821 127.776 27.3911 127.83 27.9541C127.848 28.172 127.866 28.2446 127.866 28.3173C129.011 28.7713 130.209 29.4978 131.898 30.7691C131.372 31.2049 131.063 31.5318 130.609 32.2038C129.61 31.2776 129.519 31.2049 127.903 30.2061C127.739 32.004 126.686 32.8395 124.525 32.8395C122.545 32.8395 121.256 31.8406 121.256 30.2787C121.256 28.7168 122.581 27.609 124.525 27.609C125.106 27.609 125.487 27.6635 126.014 27.8088C125.959 27.3729 125.959 27.2458 125.905 26.7736C125.851 26.3559 125.814 25.5931 125.814 25.3751C125.814 24.3763 126.159 23.7951 127.14 23.1231ZM126.105 29.4796C125.451 29.2617 124.942 29.189 124.398 29.189C123.562 29.189 122.981 29.6067 122.981 30.2242C122.981 30.8417 123.526 31.1868 124.579 31.1868C125.233 31.1868 125.705 31.0052 125.905 30.6783C126.05 30.4603 126.105 30.0789 126.105 29.4796ZM122.4 16.5669L124.325 17.148C124.47 17.1844 124.561 17.2752 124.561 17.3841C124.561 17.5113 124.47 17.5839 124.198 17.711C123.762 18.8915 123.544 19.509 123.417 19.7814C124.307 19.5635 124.979 19.3092 125.614 18.9823L126.359 20.5987C125.088 21.1617 124.198 21.416 122.763 21.6521C122.436 22.542 121.873 23.9222 121.219 25.3388C120.584 26.7372 120.166 27.5182 119.421 28.735C119.058 29.3525 118.786 29.7884 118.622 30.0608C117.95 29.4796 117.66 29.298 116.97 29.0256C118.441 27.0278 119.766 24.5397 120.838 21.7792C120.457 21.8337 120.148 21.8518 119.567 21.8518C119.058 21.8518 118.659 21.8337 117.787 21.7792L117.751 19.9267C118.622 20.0539 119.185 20.0902 119.948 20.0902C120.457 20.0902 120.765 20.072 121.455 20.0175C121.982 18.4738 122.327 17.2207 122.4 16.5669ZM126.777 22.433L127.285 20.853C129.337 21.2344 130.336 21.5976 132.08 22.6509L131.117 24.2855C129.555 23.2139 128.502 22.7599 126.777 22.433ZM149.769 21.9063L144.72 22.0153C144.484 24.5942 144.066 26.2469 143.34 27.6635C142.45 29.4251 141.179 30.7146 139.217 31.8769C138.636 32.222 138.255 32.4399 137.274 32.9303L137.092 32.6034C136.729 31.9496 136.657 31.8043 136.148 31.2413C140.543 29.2435 142.268 27.1186 142.777 22.0516L140.216 22.1061C138.436 22.1424 138.146 22.1424 136.947 22.1969L136.911 20.3263C137.183 20.3444 138.273 20.3808 140.162 20.3626L142.904 20.3263L142.959 17.7837C142.977 17.3478 142.959 16.803 142.922 16.4216L144.993 16.585C145.301 16.6032 145.483 16.7122 145.483 16.8938C145.483 17.0572 145.356 17.1662 144.938 17.4023C144.92 18.4738 144.884 19.4182 144.829 20.29L150.187 20.1992L150.477 19.8541L151.821 20.9256C152.003 21.0709 152.039 21.1435 152.039 21.2525C152.039 21.3978 152.003 21.4523 151.64 21.6157C151.621 22.6146 151.603 23.0686 151.603 23.7588C151.567 28.7532 151.24 30.7872 150.296 31.7316C149.515 32.5126 148.806 32.6579 145.592 32.676C145.465 31.7498 145.338 31.3139 145.029 30.6238L145.356 30.6419C145.828 30.6601 146.318 30.6601 146.845 30.6601C148.371 30.6601 148.788 30.4966 149.133 29.752C149.551 28.844 149.715 26.6646 149.769 21.9063ZM162.428 17.3841L164.334 17.7474C164.498 17.7837 164.607 17.8927 164.607 18.0016C164.607 18.1469 164.498 18.2377 164.189 18.3285C163.79 19.618 163.572 20.3989 163.281 21.307C163.699 21.2344 164.389 21.1617 164.716 21.1617C165.333 21.1617 165.951 21.416 166.441 21.87C166.913 22.324 167.131 22.8507 167.131 23.6861C167.131 25.6294 166.605 28.2265 165.878 29.8973C165.297 31.2413 164.425 31.8224 163.009 31.8224C162.373 31.8224 161.864 31.7498 160.956 31.55C161.029 31.0597 161.102 30.0789 161.12 29.5704C161.992 29.8428 162.482 29.9336 162.991 29.9336C163.79 29.9336 164.171 29.5159 164.552 28.172C164.952 26.8281 165.224 25.0664 165.224 23.9586C165.224 23.1958 164.952 22.8326 164.371 22.8326C164.08 22.8326 163.771 22.8689 162.718 23.0505C162.246 24.4852 161.683 25.9381 160.847 27.6635C160.175 29.0619 159.721 29.8247 158.25 32.0404C157.706 31.4955 157.288 31.2231 156.634 30.9688C157.996 29.1709 158.614 28.1902 159.413 26.5738C159.776 25.811 160.466 24.1947 160.738 23.3956C159.667 23.5953 158.486 23.8133 157.252 24.0494L156.997 22.0879C158.178 22.0153 159.685 21.8518 161.356 21.5976C161.864 19.9812 162.3 18.2377 162.428 17.3841ZM169.456 17.3478L170.255 16.4216C171.109 16.9483 171.672 17.3841 172.562 18.2377L171.653 19.2366C170.8 18.3467 170.4 17.9835 169.456 17.3478ZM167.622 22.2696L168.711 20.853C170.818 22.1061 171.781 22.9597 173.361 25.0664L171.817 26.4648C170.764 24.7213 169.438 23.4137 167.622 22.2696ZM168.039 19.0005L168.838 18.0743C169.692 18.601 170.255 19.0368 171.145 19.8904L170.237 20.8711C169.401 19.9812 168.984 19.6362 168.039 19.0005ZM186.927 30.4966V28.0267C186.509 28.3173 186.037 28.6079 185.529 28.8984C182.768 30.4966 180.462 31.4047 176.902 32.3673C176.702 31.6408 176.612 31.441 176.212 30.7872C178.882 30.0789 180.153 29.6794 181.806 28.9711C183.513 28.2446 184.621 27.6453 186.346 26.483C185.438 26.6828 184.53 26.8462 183.622 27.0097C181.57 27.3547 179.499 27.6998 177.429 28.0267L177.302 28.2083C177.211 28.3354 177.156 28.3899 177.066 28.3899C176.938 28.3899 176.866 28.3173 176.811 28.1538L176.212 26.374C177.52 26.2651 178.809 26.1198 180.117 25.9745V21.6521C180.117 18.9279 180.099 18.6736 180.08 18.1106C180.789 18.1651 181.824 18.1832 182.786 18.1832H183.386C183.585 17.5294 183.713 16.8393 183.84 16.1673L185.747 16.6032C185.874 16.6395 185.965 16.694 185.965 16.7848C185.965 16.9119 185.91 16.9483 185.565 17.1117C185.402 17.4568 185.274 17.82 185.129 18.1832H185.983C186.945 18.1832 187.981 18.1651 188.671 18.1106C188.653 18.6736 188.634 19.5635 188.634 21.6521V24.2673C189.506 23.2321 190.214 22.0879 190.923 20.9256L192.357 21.9426C192.539 22.0698 192.612 22.1787 192.612 22.2877C192.612 22.433 192.485 22.5056 192.212 22.5056H191.994C190.959 23.9404 189.906 25.3933 188.634 26.6283V28.8076C188.634 29.0801 188.653 29.752 188.671 30.2242C188.689 30.4785 188.689 30.8236 188.689 31.0052C188.689 32.0585 188.416 32.5489 187.672 32.8213C187.2 33.0029 186.618 33.0574 185.22 33.0574C185.184 32.4581 185.093 32.0404 184.875 31.1868C185.402 31.2413 185.692 31.2594 186.128 31.2594C186.855 31.2594 186.927 31.1868 186.927 30.4966ZM186.927 24.9211V24.3944H181.824V25.7565C183.531 25.5204 185.238 25.2662 186.927 24.9211ZM186.927 22.996V22.0698H181.824V22.996H186.927ZM186.927 20.6532V19.7088H181.824V20.6532H186.927ZM202.855 22.2696L202.455 20.4534C204.598 19.8904 206.015 19.7088 208.031 19.7088C209.157 19.7088 209.974 19.7633 211.173 19.9086L210.882 21.6884C210.555 21.6702 210.301 21.6521 210.137 21.6339C209.011 21.5431 208.485 21.5249 207.486 21.5249C205.706 21.5249 204.762 21.6702 202.855 22.2696ZM203.109 25.3025L204.507 26.1561C203.999 26.8281 203.854 27.1731 203.854 27.5727C203.854 28.5171 204.925 28.9166 207.468 28.9166C209.157 28.9166 210.337 28.7713 211.772 28.4081C211.627 29.2798 211.554 29.8792 211.536 30.5511C210.355 30.7327 208.957 30.8236 207.595 30.8236C206.033 30.8236 204.798 30.6964 203.999 30.424C202.691 29.9881 202.037 29.1345 202.037 27.8633C202.037 27.0097 202.292 26.4103 203.109 25.3025ZM198.369 18.1106L200.348 18.492C200.548 18.5283 200.675 18.6554 200.675 18.8007C200.675 19.0005 200.548 19.1095 200.185 19.2366C199.495 23.0686 199.404 23.9586 199.404 26.1016C199.404 28.2446 199.64 29.7157 200.312 31.5318C199.531 31.7679 199.077 31.9314 198.46 32.222C197.824 30.4785 197.533 28.5534 197.533 26.1016C197.533 24.1402 197.661 22.8326 198.242 19.1458C198.314 18.7099 198.351 18.5101 198.369 18.1106ZM217.438 25.139L216.494 23.0686C217.456 22.7417 217.565 22.7054 220.017 21.6521C223.395 20.2173 224.848 19.7996 226.828 19.7996C230.206 19.7996 232.131 21.5431 232.131 24.576C232.131 26.592 231.259 28.2628 229.588 29.3706C228.626 30.0245 226.955 30.7146 225.175 31.1868C224.558 31.3502 223.849 31.4955 222.487 31.7498C222.269 30.9507 222.124 30.5875 221.67 29.7339C227.59 28.9711 230.133 27.4274 230.133 24.6124C230.133 22.6509 228.971 21.5794 226.81 21.5794C224.957 21.5794 223.232 22.1606 219.745 23.9586C218.764 24.4671 218.328 24.6669 217.438 25.139ZM245.661 17.0209L247.477 18.1832C247.604 18.2559 247.677 18.383 247.677 18.4738C247.677 18.6191 247.55 18.6918 247.205 18.7462C246.388 19.7088 243.772 22.4512 242.428 23.7225C241.847 24.2673 241.738 24.3944 241.738 24.5216C241.738 24.6305 241.829 24.7758 242.065 25.0119C244.335 27.3729 245.915 29.2617 247.75 31.7498L245.897 33.0574C245.443 32.2946 244.771 31.2776 244.19 30.4603C243.445 29.4251 241.266 26.8099 240.267 25.7747C239.686 25.1754 239.523 24.9029 239.523 24.576C239.523 24.1765 239.868 23.7043 240.812 22.7962C242.065 21.5976 243.954 19.4909 244.771 18.4012C245.153 17.8927 245.352 17.5839 245.661 17.0209ZM264.73 20.744L265.348 21.0891C265.493 21.1617 265.566 21.2344 265.566 21.307C265.566 21.416 265.475 21.5249 265.312 21.6157C264.658 24.3218 264.367 25.248 263.641 26.8825C262.569 29.298 261.389 30.4058 259.863 30.4058C258.864 30.4058 258.12 29.97 257.611 29.1164C257.139 28.3173 256.903 27.3547 256.903 26.3377C256.903 24.0675 258.192 21.8337 260.317 20.4534C261.643 19.5817 263.132 19.1458 264.839 19.1458C266.765 19.1458 268.454 19.6725 269.834 20.6713C271.359 21.7974 272.122 23.3592 272.122 25.3751C272.122 27.7724 270.996 29.5886 268.69 30.8599C267.963 31.2594 266.583 31.7861 265.312 32.1493C264.967 31.2049 264.839 30.9507 264.349 30.3332C266.256 29.8792 266.982 29.6249 267.981 29.0256C269.434 28.172 270.215 26.8825 270.215 25.357C270.215 23.4864 269.089 21.9426 267.164 21.1799C266.474 20.9074 265.675 20.744 265.094 20.744H264.73ZM263.441 20.8348C262.152 21.1072 261.425 21.4886 260.608 22.324C259.446 23.4864 258.792 24.9756 258.792 26.4285C258.792 27.718 259.209 28.5171 259.881 28.5171C260.463 28.5171 260.971 27.9541 261.625 26.592C262.678 24.3944 263.314 22.3967 263.441 20.8348ZM285.126 27.2821H283.146C283.146 26.029 283.146 25.7747 283.182 25.3751C283.237 24.5397 283.546 24.0312 284.563 22.9597C285.598 21.8882 285.834 21.4886 285.834 20.8166C285.834 19.9812 285.253 19.4364 284.381 19.4364C283.419 19.4364 282.964 20.0175 282.856 21.3796H280.64C280.676 20.1265 280.894 19.4001 281.439 18.7826C282.129 17.9835 283.237 17.5658 284.581 17.5658C286.724 17.5658 288.05 18.7826 288.05 20.7077C288.05 21.8518 287.741 22.4148 286.306 23.9041C285.216 25.0482 285.108 25.2843 285.108 26.6101C285.108 26.8281 285.108 26.9915 285.126 27.2821ZM282.928 29.1709H285.362V31.6045H282.928V29.1709Z" fill="#146293"/>
</svg>
