<svg width="27" height="37" viewBox="0 0 27 37" fill="none" xmlns="http://www.w3.org/2000/svg">
<path d="M25.1912 30.9188L21.9412 25.2988C21.4712 24.4888 20.4312 24.2088 19.6212 24.6688L17.0812 26.1488C16.3412 26.5788 15.4012 26.3888 14.8712 25.7088C13.4012 23.9088 12.0912 21.9789 10.9712 19.9389C9.76118 17.9489 8.73118 15.8588 7.89118 13.6888C7.56118 12.8988 7.87118 11.9788 8.61118 11.5488L11.1512 10.0788C11.9712 9.61885 12.2512 8.57885 11.7912 7.76885C11.7912 7.76885 11.7912 7.74885 11.7812 7.74885L8.53118 2.11885C8.07118 1.30885 7.03118 1.01885 6.22118 1.48885C6.22118 1.48885 6.21118 1.48885 6.20118 1.49885L2.81118 3.45885C-0.788821 5.52885 0.641179 15.2288 5.27118 23.2288C9.90118 31.2288 17.5912 37.2988 21.1812 35.2288L24.5712 33.2688C25.3912 32.7988 25.6612 31.7489 25.1912 30.9289V30.9188Z" stroke="#FF005B" stroke-width="1.5" stroke-miterlimit="10"/>
</svg>
