<svg width="30" height="25" viewBox="0 0 30 25" fill="none" xmlns="http://www.w3.org/2000/svg">
<path d="M19.0126 21.529V21.4828C19.0126 20.9057 18.8376 20.3632 18.5314 19.9245C19.45 19.5205 20.0842 18.5625 20.0842 17.4544V17.4082C20.0842 16.8195 19.8983 16.277 19.5921 15.8268C20.4888 15.4113 21.112 14.4648 21.112 13.3682V13.3221C21.112 12.8257 20.9808 12.364 20.7621 11.96H20.8824H23.0256L26.6888 11.9485C28.0884 11.9485 29.2256 10.748 29.2256 9.27055V9.22438C29.2256 7.74691 28.0884 6.54646 26.6888 6.54646L14.912 6.58109C14.912 6.58109 14.8683 6.54646 14.8902 6.52338L17.0224 4.82659C17.6239 4.35333 17.9191 3.55688 17.7441 2.78352C17.7441 2.76043 17.7332 2.7258 17.7223 2.70272C17.602 2.20638 17.3396 1.76776 16.9678 1.46764C16.3664 0.971304 15.6119 0.832791 14.912 1.06365L11.9925 2.36798H11.9706C11.8175 2.44878 8.24184 4.19174 6.60163 5.24213C5.02703 6.09629 3.90075 7.06589 2.73073 8.56644C2.54484 8.82039 0.664062 10.9327 0.664062 15.1689C0.664062 15.2843 0.664062 15.3998 0.664062 15.5152C0.696867 16.8195 0.926497 18.0546 1.36389 19.1973C1.45136 19.4859 1.54978 19.7398 1.65912 19.9592C1.9981 20.6402 2.40269 21.2519 2.84008 21.7829C3.13532 22.1407 3.38682 22.3831 3.5071 22.4986C4.73179 23.6413 6.18611 24.2184 7.82632 24.2184H16.4538C17.8535 24.2184 18.9907 23.018 18.9907 21.5405L19.0126 21.529Z" fill="#146293"/>
<path d="M9.70603 22.8794H7.84712C6.51308 22.8794 5.34306 22.4177 4.348 21.4943L4.31519 21.4596C4.26052 21.4019 4.06369 21.2172 3.80126 20.9056C3.41854 20.4439 3.07957 19.9129 2.77339 19.3242C2.69685 19.1742 2.62031 18.9779 2.5547 18.7586L2.53283 18.7125C2.15011 17.7082 1.94235 16.6232 1.90955 15.4689C1.84394 12.5717 2.77339 10.7595 3.28733 9.97459L3.68098 9.47825C4.93847 7.86226 5.99914 7.10044 7.2129 6.4425L7.25664 6.41941C8.78751 5.43828 12.3085 3.70686 12.5053 3.61452L15.3265 2.34482C15.6217 2.25248 15.9388 2.32173 16.1903 2.5295C16.3544 2.66802 16.4637 2.8527 16.5184 3.07201V3.0951C16.5512 3.18744 16.5621 3.27978 16.5621 3.36058C16.5621 3.70686 16.3872 4.04161 16.1029 4.22629L14.2002 5.44982H14.2221L13.1833 6.13085C12.385 6.65027 12.735 7.9546 13.6753 7.94306L26.6877 7.89689C27.3985 7.89689 27.9671 8.50866 27.9671 9.24739V9.29356C27.9671 10.0438 27.3875 10.6441 26.6877 10.6441H23.0246H16.0919C15.742 10.6441 15.4686 10.9442 15.4686 11.302C15.4686 11.6829 15.7529 11.9715 16.0919 11.9715H18.5741C19.2849 11.9715 19.8535 12.5833 19.8535 13.3335V13.3797C19.8535 14.13 19.2849 14.7302 18.5741 14.7302H17.5353H15.1843C14.8344 14.7302 14.5611 15.0303 14.5611 15.3881C14.5611 15.7691 14.8454 16.0576 15.1843 16.0576H17.6993C18.3335 16.1384 18.8147 16.7156 18.8147 17.3966V17.4428C18.8147 18.17 18.2789 18.7586 17.6009 18.7933H14.1674C13.8175 18.7933 13.5441 19.0934 13.5441 19.4512C13.5441 19.8321 13.8284 20.1207 14.1674 20.1207H16.4965C17.1745 20.1438 17.7321 20.744 17.7321 21.4712V21.5174C17.7321 22.2676 17.1635 22.8679 16.4528 22.8679H9.68416L9.70603 22.8794Z" fill="#F5EE57"/>
</svg>
