<svg width="368" height="68" viewBox="0 0 368 68" fill="none" xmlns="http://www.w3.org/2000/svg">
<mask id="path-1-inside-1_8446_323" fill="white">
<path d="M322.613 0.335938C328.688 0.336113 333.613 5.26091 333.613 11.3359V38.166C333.613 44.2409 328.688 49.1658 322.613 49.166H201.771L183.824 67.1123L165.877 49.166H45.041C38.966 49.166 34.0412 44.241 34.041 38.166V11.3359C34.041 5.26081 38.9659 0.335938 45.041 0.335938H322.613Z"/>
</mask>
<path d="M322.613 0.335938C328.688 0.336113 333.613 5.26091 333.613 11.3359V38.166C333.613 44.2409 328.688 49.1658 322.613 49.166H201.771L183.824 67.1123L165.877 49.166H45.041C38.966 49.166 34.0412 44.241 34.041 38.166V11.3359C34.041 5.26081 38.9659 0.335938 45.041 0.335938H322.613Z" fill="white"/>
<path d="M322.613 0.335938L322.613 -0.664062H322.613V0.335938ZM333.613 38.166L334.613 38.166V38.166H333.613ZM322.613 49.166V50.166H322.613L322.613 49.166ZM201.771 49.166V48.166H201.357L201.064 48.4589L201.771 49.166ZM183.824 67.1123L183.117 67.8194L183.824 68.5265L184.531 67.8194L183.824 67.1123ZM165.877 49.166L166.584 48.4589L166.291 48.166H165.877V49.166ZM34.041 38.166H33.041V38.166L34.041 38.166ZM45.041 0.335938V-0.664062V0.335938ZM322.613 0.335938L322.613 1.33594C328.136 1.3361 332.613 5.81323 332.613 11.3359H333.613H334.613C334.613 4.7086 329.241 -0.663871 322.613 -0.664062L322.613 0.335938ZM333.613 11.3359H332.613V38.166H333.613H334.613V11.3359H333.613ZM333.613 38.166L332.613 38.166C332.613 43.6886 328.136 48.1659 322.613 48.166L322.613 49.166L322.613 50.166C329.24 50.1658 334.613 44.7932 334.613 38.166L333.613 38.166ZM322.613 49.166V48.166H201.771V49.166V50.166H322.613V49.166ZM201.771 49.166L201.064 48.4589L183.117 66.4052L183.824 67.1123L184.531 67.8194L202.479 49.8731L201.771 49.166ZM183.824 67.1123L184.531 66.4052L166.584 48.4589L165.877 49.166L165.17 49.8731L183.117 67.8194L183.824 67.1123ZM165.877 49.166V48.166H45.041V49.166V50.166H165.877V49.166ZM45.041 49.166V48.166C39.5183 48.166 35.0412 43.6888 35.041 38.166L34.041 38.166L33.041 38.166C33.0412 44.7933 38.4137 50.166 45.041 50.166V49.166ZM34.041 38.166H35.041V11.3359H34.041H33.041V38.166H34.041ZM34.041 11.3359H35.041C35.041 5.81309 39.5182 1.33594 45.041 1.33594V0.335938V-0.664062C38.4136 -0.664062 33.041 4.70852 33.041 11.3359H34.041ZM45.041 0.335938V1.33594H322.613V0.335938V-0.664062H45.041V0.335938Z" fill="#146293" mask="url(#path-1-inside-1_8446_323)"/>
<rect x="66.6211" y="28.1523" width="234.41" height="10" fill="#F5EE57"/>
<path d="M81.169 18.4461L81.9681 17.5199C82.8216 18.0466 83.3665 18.4825 84.2564 19.336L83.3483 20.3349C82.5129 19.445 82.0952 19.0818 81.169 18.4461ZM79.7524 20.0988L80.5515 19.1726C81.4051 19.6993 81.9681 20.1351 82.858 20.9887L81.9499 21.9694C81.0963 21.0795 80.6968 20.7345 79.7524 20.0988ZM75.8114 18.1556V18.9002C75.8114 21.0795 75.9385 22.5324 76.2109 23.604C77.2098 23.1681 77.8273 22.9138 78.0452 22.8049C79.1894 22.2964 79.4436 22.1692 79.8432 21.915L81.0237 23.386C81.1326 23.5313 81.169 23.5676 81.169 23.6221C81.169 23.7674 81.0418 23.8037 80.5696 23.8037C79.8977 24.0762 79.3528 24.2941 79.0078 24.4212C75.3573 25.8197 75.0304 25.9649 74.0315 26.7277C73.3414 27.2362 72.96 27.9627 72.96 28.6892C72.96 29.8696 73.8499 30.3237 76.2291 30.3237C78.2268 30.3237 79.8069 30.1421 81.4051 29.7425C81.3506 30.4871 81.3324 30.5598 81.3324 31.8856C79.6797 32.1035 78.4992 32.1761 76.7376 32.1761C75.3573 32.1761 74.304 32.0672 73.523 31.8674C71.8522 31.4134 71.0349 30.4326 71.0349 28.8163C71.0349 27.0728 72.2336 25.5291 74.5037 24.3667C74.086 23.0591 74.0497 22.7504 73.8681 19.2452C73.8499 18.7367 73.8136 18.3735 73.741 17.5018L75.7569 17.5926C75.9203 17.5926 76.0475 17.7015 76.0475 17.8105C76.0475 17.9195 75.9748 18.0284 75.8114 18.1556ZM94.9716 17.4473L96.8241 18.3553C97.042 18.4643 97.151 18.5551 97.151 18.6459C97.151 18.7912 96.9875 18.882 96.6969 18.9365C95.7525 21.0251 95.1532 22.2237 93.3371 25.5472C93.8819 25.3475 94.2815 25.2567 94.7355 25.2567C95.462 25.2567 96.1521 25.6562 96.4972 26.2555C96.7514 26.7277 96.8785 27.327 97.0057 28.6165C97.0965 29.5427 97.2236 30.0513 97.4415 30.3055C97.6413 30.5416 98.0227 30.6869 98.4041 30.6869C100.329 30.6869 101.909 28.562 102.745 24.8934C103.489 25.4201 103.834 25.6199 104.488 25.8923C102.981 30.7959 101.328 32.612 98.3496 32.612C97.5505 32.612 96.8059 32.4122 96.2792 32.0672C95.6254 31.6313 95.353 31.0138 95.1532 29.4156C94.9171 27.545 94.9171 27.4542 94.7355 27.1636C94.6265 27.0001 94.3723 26.8549 94.1362 26.8549C93.3371 26.8549 92.6106 27.4723 91.9205 28.7255C91.6662 29.1977 91.6118 29.343 90.9761 30.6687C90.631 31.4134 90.5947 31.486 90.1044 32.4122C89.16 31.7221 88.9965 31.6313 88.2337 31.377C88.942 30.2329 90.849 26.5279 92.4835 23.1499C94.2088 19.5903 94.6265 18.6459 94.9716 17.4473ZM118.836 23.4405L119.98 24.6028C119.417 24.9842 119.272 25.2022 119.272 25.747C119.272 26.1284 119.29 26.3645 119.399 27.2181C119.453 27.5995 119.471 27.7084 119.526 28.2714C119.544 28.4894 119.562 28.562 119.562 28.6347C120.706 29.0887 121.905 29.8152 123.594 31.0865C123.067 31.5223 122.758 31.8492 122.304 32.5212C121.306 31.595 121.215 31.5223 119.598 30.5234C119.435 32.3214 118.382 33.1568 116.22 33.1568C114.241 33.1568 112.951 32.158 112.951 30.5961C112.951 29.0342 114.277 27.9264 116.22 27.9264C116.802 27.9264 117.183 27.9809 117.71 28.1261C117.655 27.6903 117.655 27.5631 117.601 27.091C117.546 26.6732 117.51 25.9105 117.51 25.6925C117.51 24.6937 117.855 24.1125 118.836 23.4405ZM117.8 29.797C117.147 29.5791 116.638 29.5064 116.093 29.5064C115.258 29.5064 114.677 29.9241 114.677 30.5416C114.677 31.1591 115.222 31.5042 116.275 31.5042C116.929 31.5042 117.401 31.3225 117.601 30.9956C117.746 30.7777 117.8 30.3963 117.8 29.797ZM114.096 16.8843L116.021 17.4654C116.166 17.5018 116.257 17.5926 116.257 17.7015C116.257 17.8287 116.166 17.9013 115.893 18.0284C115.458 19.2089 115.24 19.8264 115.113 20.0988C116.002 19.8809 116.674 19.6266 117.31 19.2997L118.055 20.9161C116.783 21.4791 115.893 21.7333 114.459 21.9694C114.132 22.8594 113.569 24.2396 112.915 25.6562C112.279 27.0546 111.862 27.8356 111.117 29.0524C110.754 29.6699 110.481 30.1057 110.318 30.3782C109.646 29.797 109.355 29.6154 108.665 29.343C110.136 27.3452 111.462 24.8571 112.534 22.0966C112.152 22.1511 111.844 22.1692 111.262 22.1692C110.754 22.1692 110.354 22.1511 109.483 22.0966L109.446 20.2441C110.318 20.3712 110.881 20.4076 111.644 20.4076C112.152 20.4076 112.461 20.3894 113.151 20.3349C113.678 18.7912 114.023 17.5381 114.096 16.8843ZM118.472 22.7504L118.981 21.1703C121.033 21.5517 122.032 21.915 123.776 22.9683L122.813 24.6028C121.251 23.5313 120.198 23.0773 118.472 22.7504ZM140.902 25.1295H137.723C138.559 26.2737 139.303 27.0728 140.339 27.9082C141.537 28.9071 142.518 29.5064 144.806 30.5779C144.371 31.0865 144.098 31.5223 143.771 32.158C141.556 31.0138 140.375 30.2147 139.104 29.0342C138.323 28.3078 137.723 27.6176 137.124 26.764V28.1806C137.124 30.5598 137.16 32.3214 137.215 33.4838H135.308C135.362 32.3033 135.381 30.5234 135.381 28.1806V26.8185C134.582 27.8537 133.837 28.5983 132.656 29.5791C131.312 30.6869 130.513 31.2136 128.425 32.3577C128.098 31.7403 127.844 31.3407 127.444 30.7959C130.695 29.2522 132.802 27.6176 134.745 25.1295H131.585C130.586 25.1295 128.952 25.1658 127.971 25.2022V23.386C128.915 23.4224 130.55 23.4587 131.585 23.4587H135.381V21.0977H131.712C130.949 21.0977 129.932 21.1159 129.169 21.1522V19.3905C129.878 19.4087 130.913 19.4269 131.712 19.4269H135.362C135.344 18.0284 135.326 17.1204 135.272 16.7571L137.215 16.8843C137.378 16.9024 137.487 16.9751 137.487 17.0659C137.487 17.1748 137.397 17.2657 137.16 17.4109C137.142 17.865 137.142 17.9921 137.142 19.4269H140.702C141.428 19.4269 142.609 19.4087 143.226 19.3905V21.1522C142.554 21.1159 141.392 21.0977 140.702 21.0977H137.124V23.4587H140.902C142.046 23.4587 143.608 23.4224 144.534 23.386V25.2022C143.571 25.1658 142.01 25.1295 140.902 25.1295ZM160.897 26.3463H157.901C158.664 27.2726 159.39 27.9264 160.371 28.6528C161.715 29.6517 162.859 30.251 164.984 31.0865C164.53 31.6131 164.294 31.9764 163.948 32.6483C161.66 31.595 160.461 30.8685 159.118 29.7425C158.318 29.0705 157.701 28.4712 157.102 27.7084V28.1806C157.102 30.5598 157.138 32.3214 157.192 33.4838H155.286C155.34 32.3033 155.376 30.5234 155.376 28.1806V27.7811C154.559 28.7618 153.76 29.5064 152.543 30.4326C151.199 31.4678 150.255 32.0308 148.348 32.9752C148.021 32.2851 147.93 32.1398 147.44 31.4315C150.509 30.0331 152.67 28.5075 154.505 26.3463H151.581C150.564 26.3463 148.929 26.3645 147.948 26.419V24.6028C148.893 24.6392 150.527 24.6755 151.581 24.6755H155.376V20.5892H151.272C150.509 20.5892 149.492 20.6073 148.747 20.6437V18.882C149.438 18.9183 150.473 18.9365 151.272 18.9365H155.358C155.34 17.8105 155.304 17.084 155.267 16.7571L157.192 16.8843C157.356 16.9024 157.465 16.9751 157.465 17.0659C157.465 17.1748 157.374 17.2657 157.138 17.4109C157.12 17.7923 157.12 17.9558 157.12 18.9365H161.17C161.896 18.9365 163.077 18.9183 163.694 18.882V20.6437C163.04 20.6255 161.86 20.5892 161.17 20.5892H157.102V24.6755H158.355C159.081 23.604 159.753 22.2419 160.28 20.8434L162.096 21.4973C162.187 21.5336 162.259 21.6244 162.259 21.7152C162.259 21.8423 162.096 21.915 161.769 21.9331C161.152 23.1681 160.716 23.949 160.244 24.6755H160.897C162.042 24.6755 163.585 24.6392 164.511 24.6028V26.419C163.549 26.3645 162.005 26.3463 160.897 26.3463ZM150.418 21.7878L151.744 20.8798C152.761 21.9876 153.07 22.4416 153.705 23.6221L152.18 24.5665C151.417 23.1499 151.054 22.5688 150.418 21.7878ZM174.101 17.7015L176.008 18.0648C176.171 18.1011 176.28 18.21 176.28 18.319C176.28 18.4643 176.171 18.5551 175.862 18.6459C175.463 19.9354 175.245 20.7163 174.954 21.6244C175.372 21.5517 176.062 21.4791 176.389 21.4791C177.006 21.4791 177.624 21.7333 178.114 22.1874C178.587 22.6414 178.804 23.1681 178.804 24.0035C178.804 25.9468 178.278 28.5439 177.551 30.2147C176.97 31.5586 176.098 32.1398 174.682 32.1398C174.046 32.1398 173.538 32.0672 172.63 31.8674C172.702 31.377 172.775 30.3963 172.793 29.8878C173.665 30.1602 174.155 30.251 174.664 30.251C175.463 30.251 175.844 29.8333 176.226 28.4894C176.625 27.1454 176.898 25.3838 176.898 24.2759C176.898 23.5132 176.625 23.1499 176.044 23.1499C175.753 23.1499 175.445 23.1863 174.391 23.3679C173.919 24.8026 173.356 26.2555 172.521 27.9809C171.849 29.3793 171.395 30.1421 169.924 32.3577C169.379 31.8129 168.961 31.5405 168.307 31.2862C169.669 29.4883 170.287 28.5075 171.086 26.8912C171.449 26.1284 172.139 24.512 172.412 23.7129C171.34 23.9127 170.16 24.1306 168.925 24.3667L168.67 22.4053C169.851 22.3327 171.358 22.1692 173.029 21.915C173.538 20.2986 173.974 18.5551 174.101 17.7015ZM181.129 17.6652L181.928 16.739C182.782 17.2657 183.345 17.7015 184.235 18.5551L183.327 19.554C182.473 18.6641 182.074 18.3008 181.129 17.6652ZM179.295 22.5869L180.385 21.1703C182.491 22.4235 183.454 23.2771 185.034 25.3838L183.49 26.7822C182.437 25.0387 181.111 23.7311 179.295 22.5869ZM179.713 19.3179L180.512 18.3917C181.365 18.9183 181.928 19.3542 182.818 20.2078L181.91 21.1885C181.075 20.2986 180.657 19.9535 179.713 19.3179ZM189.992 29.7607V26.3645C189.447 27.0728 189.066 27.4723 188.412 28.0898C188.067 27.3815 187.885 27.1273 187.413 26.5824C189.302 24.6937 190.21 23.3497 191.481 20.4621L193.025 21.1703C193.279 21.2793 193.334 21.352 193.334 21.4791C193.334 21.6244 193.297 21.6425 192.843 21.7697C192.444 22.5324 191.99 23.4224 191.499 24.2215L191.79 24.2396C191.971 24.2578 192.08 24.3304 192.08 24.4394C192.08 24.5302 191.99 24.6392 191.735 24.7845V29.7607C191.735 31.3952 191.754 32.6847 191.79 33.4838H189.937C189.974 32.6665 189.992 31.4315 189.992 29.7607ZM197.529 22.1511V20.3349H195.368C194.841 20.3349 194.078 20.3531 193.57 20.3712V18.6278C194.078 18.6459 194.841 18.6641 195.368 18.6641H197.529C197.529 17.6289 197.511 17.0114 197.474 16.5755L199.309 16.7026C199.508 16.7208 199.617 16.7753 199.617 16.8843C199.617 16.9932 199.527 17.084 199.272 17.2475V18.6641H201.779C202.323 18.6641 203.086 18.6459 203.595 18.6278V20.3712C203.086 20.3531 202.323 20.3349 201.779 20.3349H199.272V22.1511H202.087C202.832 22.1511 203.994 22.1329 204.63 22.1147V23.8764C203.958 23.8401 202.777 23.8219 202.087 23.8219H195.313C194.55 23.8219 193.533 23.8401 192.789 23.8764V22.1147C193.479 22.1329 194.514 22.1511 195.313 22.1511H197.529ZM201.779 27.436V29.5791C201.779 29.8696 201.797 30.2329 201.815 30.7777C201.815 31.032 201.833 31.3225 201.833 31.4678C201.833 33.0479 201.216 33.3929 198.473 33.3929H198.328C198.292 32.6483 198.255 32.4667 197.983 31.4678C198.546 31.5223 198.8 31.5405 199.163 31.5405C199.962 31.5405 200.035 31.486 200.035 30.7777V27.436H195.095C194.332 27.436 193.315 27.4542 192.571 27.4905V25.7288C193.261 25.7652 194.296 25.7833 195.095 25.7833H200.017C199.999 24.9479 199.962 24.2578 199.89 24.058L201.888 24.1851C202.051 24.2033 202.142 24.2759 202.142 24.3667C202.142 24.4757 202.051 24.5847 201.815 24.7118C201.797 24.9842 201.797 25.0569 201.797 25.7833H202.087C202.832 25.7833 203.994 25.7652 204.63 25.7288V27.4905C203.958 27.4723 202.777 27.436 202.087 27.436H201.779ZM191.735 16.63L193.079 17.3928C193.334 17.5381 193.37 17.5744 193.37 17.7015C193.37 17.8468 193.315 17.8831 192.861 17.9739C191.481 19.663 190.41 20.5892 188.63 21.6607C188.357 21.0069 188.158 20.68 187.704 20.1533C189.683 18.9365 190.555 18.1737 191.735 16.63ZM194.659 28.9071L195.731 27.7266C196.839 28.5257 197.529 29.1613 198.346 30.1784L197.038 31.4134C196.203 30.3237 195.604 29.688 194.659 28.9071ZM210.514 27.1999L209.679 25.3475C210.369 25.1295 210.532 25.0569 212.585 24.1851C215.327 23.0228 216.489 22.6959 218.069 22.6959C220.83 22.6959 222.428 24.1306 222.428 26.6006C222.428 28.5257 221.447 30.0513 219.631 30.9412C218.124 31.6676 217.343 31.9219 214.528 32.4667C214.364 31.7947 214.219 31.4315 213.801 30.6687C215.727 30.4145 216.544 30.2329 217.652 29.8515C219.686 29.1613 220.63 28.1443 220.63 26.6551C220.63 25.1295 219.74 24.3123 218.069 24.3123C216.598 24.3123 215.218 24.8208 212.457 26.2192L210.514 27.1999ZM241.861 18.9365L242.805 20.3531C242.878 20.4439 242.932 20.5529 242.932 20.6618C242.932 20.8071 242.86 20.8434 242.351 20.8798C240.48 21.0069 239.427 21.352 238.192 22.26C236.43 23.5676 235.468 25.184 235.468 26.8549C235.468 28.4167 236.685 29.5972 238.719 30.0149C239.718 30.2147 240.608 30.3055 242.024 30.3237C241.715 30.8867 241.57 31.2862 241.298 32.2851C239.536 32.1761 238.555 32.0308 237.393 31.7039C234.941 31.0138 233.543 29.2703 233.543 26.873C233.543 24.8934 234.451 23.3315 236.485 21.7878C234.85 22.1692 230.909 23.0955 229.892 23.3134C229.438 23.4224 229.329 23.4405 228.984 23.5313L228.53 21.4609C230.165 21.3156 232.435 20.9524 236.63 20.1533C240.19 19.4813 240.68 19.3724 241.861 18.9365ZM251.94 20.6255L251.395 18.6641C252.957 18.5733 256.027 18.1011 257.77 17.7015L258.024 17.5381L259.35 18.7004C259.495 18.8275 259.532 18.882 259.532 18.9547C259.532 19.0636 259.441 19.1181 259.277 19.1726L259.114 19.2271C257.57 21.1522 256.789 22.0421 255.01 23.9309C256.081 23.495 256.717 23.3497 257.625 23.3497C260.349 23.3497 262.238 25.0024 262.238 27.436C262.238 28.8708 261.657 30.1057 260.585 31.032C259.459 31.9945 257.988 32.4486 256.027 32.4486C253.448 32.4486 252.013 31.5768 252.013 29.9968C252.013 28.7436 253.066 27.7992 254.465 27.7992C255.518 27.7992 256.571 28.3259 257.207 29.1795C257.461 29.5427 257.588 29.797 257.915 30.6143C258.624 30.3963 258.969 30.1965 259.368 29.7607C259.895 29.1795 260.204 28.3622 260.204 27.5268C260.204 25.9105 259.096 25.0024 257.098 25.0024C255.645 25.0024 254.319 25.5291 252.612 26.8004C252.14 27.1636 251.795 27.436 251.014 28.1443L249.743 26.5098C251.777 25.0206 253.593 23.1863 256.771 19.445C255.318 19.7901 255.1 19.8264 254.247 20.0443L253.23 20.2986C252.921 20.3712 252.176 20.5529 251.94 20.6255ZM256.081 30.8867C255.736 29.7243 255.264 29.2703 254.465 29.2703C253.938 29.2703 253.593 29.5427 253.593 29.9423C253.593 30.5416 254.338 30.9412 255.464 30.9412C255.682 30.9412 255.7 30.9412 256.081 30.8867ZM276.404 21.0614L277.021 21.4064C277.166 21.4791 277.239 21.5517 277.239 21.6244C277.239 21.7333 277.148 21.8423 276.985 21.9331C276.331 24.6392 276.04 25.5654 275.314 27.1999C274.242 29.6154 273.062 30.7232 271.536 30.7232C270.538 30.7232 269.793 30.2874 269.284 29.4338C268.812 28.6347 268.576 27.6721 268.576 26.6551C268.576 24.3849 269.866 22.1511 271.99 20.7708C273.316 19.899 274.805 19.4632 276.513 19.4632C278.438 19.4632 280.127 19.9899 281.507 20.9887C283.033 22.1147 283.795 23.6766 283.795 25.6925C283.795 28.0898 282.669 29.906 280.363 31.1773C279.636 31.5768 278.256 32.1035 276.985 32.4667C276.64 31.5223 276.513 31.2681 276.022 30.6506C277.929 30.1965 278.656 29.9423 279.655 29.343C281.107 28.4894 281.888 27.1999 281.888 25.6744C281.888 23.8037 280.762 22.26 278.837 21.4973C278.147 21.2248 277.348 21.0614 276.767 21.0614H276.404ZM275.114 21.1522C273.825 21.4246 273.098 21.806 272.281 22.6414C271.119 23.8037 270.465 25.293 270.465 26.7459C270.465 28.0353 270.883 28.8344 271.555 28.8344C272.136 28.8344 272.644 28.2714 273.298 26.9093C274.351 24.7118 274.987 22.7141 275.114 21.1522ZM294.801 27.5995H292.822C292.822 26.3463 292.822 26.0921 292.858 25.6925C292.912 24.8571 293.221 24.3486 294.238 23.2771C295.273 22.2055 295.509 21.806 295.509 21.134C295.509 20.2986 294.928 19.7538 294.056 19.7538C293.094 19.7538 292.64 20.3349 292.531 21.697H290.315C290.352 20.4439 290.57 19.7174 291.114 19.1C291.804 18.3008 292.912 17.8831 294.256 17.8831C296.399 17.8831 297.725 19.1 297.725 21.0251C297.725 22.1692 297.416 22.7322 295.982 24.2215C294.892 25.3656 294.783 25.6017 294.783 26.9275C294.783 27.1454 294.783 27.3089 294.801 27.5995ZM292.604 29.4883H295.037V31.9219H292.604V29.4883Z" fill="#146293"/>
</svg>
