<svg width="366" height="68" viewBox="0 0 366 68" fill="none" xmlns="http://www.w3.org/2000/svg">
<mask id="path-1-inside-1_8446_321" fill="white">
<path d="M335.623 0.335938C341.698 0.335938 346.623 5.26081 346.623 11.3359V38.166C346.623 44.241 341.698 49.166 335.623 49.166H201.085L183.139 67.1113L165.192 49.166H30.6602C24.5851 49.166 19.6603 44.241 19.6602 38.166V11.3359C19.6602 5.26081 24.585 0.335938 30.6602 0.335938H335.623Z"/>
</mask>
<path d="M335.623 0.335938C341.698 0.335938 346.623 5.26081 346.623 11.3359V38.166C346.623 44.241 341.698 49.166 335.623 49.166H201.085L183.139 67.1113L165.192 49.166H30.6602C24.5851 49.166 19.6603 44.241 19.6602 38.166V11.3359C19.6602 5.26081 24.585 0.335938 30.6602 0.335938H335.623Z" fill="white"/>
<path d="M346.623 38.166L347.623 38.166V38.166H346.623ZM201.085 49.166V48.166H200.671L200.378 48.4589L201.085 49.166ZM183.139 67.1113L182.432 67.8185L183.139 68.5255L183.846 67.8185L183.139 67.1113ZM165.192 49.166L165.899 48.4589L165.607 48.166H165.192V49.166ZM30.6602 49.166L30.6602 50.166H30.6602V49.166ZM19.6602 38.166H18.6602V38.166L19.6602 38.166ZM335.623 0.335938V1.33594C341.146 1.33594 345.623 5.81309 345.623 11.3359H346.623H347.623C347.623 4.70852 342.25 -0.664062 335.623 -0.664062V0.335938ZM346.623 11.3359H345.623V38.166H346.623H347.623V11.3359H346.623ZM346.623 38.166L345.623 38.166C345.623 43.6888 341.146 48.166 335.623 48.166V49.166V50.166C342.25 50.166 347.623 44.7933 347.623 38.166L346.623 38.166ZM335.623 49.166V48.166H201.085V49.166V50.166H335.623V49.166ZM201.085 49.166L200.378 48.4589L182.432 66.4042L183.139 67.1113L183.846 67.8185L201.792 49.8731L201.085 49.166ZM183.139 67.1113L183.846 66.4042L165.899 48.4589L165.192 49.166L164.485 49.8731L182.432 67.8185L183.139 67.1113ZM165.192 49.166V48.166H30.6602V49.166V50.166H165.192V49.166ZM30.6602 49.166L30.6602 48.166C25.1374 48.166 20.6603 43.6888 20.6602 38.166L19.6602 38.166L18.6602 38.166C18.6603 44.7933 24.0328 50.166 30.6602 50.166L30.6602 49.166ZM19.6602 38.166H20.6602V11.3359H19.6602H18.6602V38.166H19.6602ZM19.6602 11.3359H20.6602C20.6602 5.81309 25.1373 1.33594 30.6602 1.33594V0.335938V-0.664062C24.0327 -0.664062 18.6602 4.70852 18.6602 11.3359H19.6602ZM30.6602 0.335938V1.33594H335.623V0.335938V-0.664062H30.6602V0.335938Z" fill="#146293" mask="url(#path-1-inside-1_8446_321)"/>
<rect x="44.2832" y="28.1523" width="277.711" height="10" fill="#F5EE57"/>
<path d="M58.2902 22.7685L58.5626 22.4598L59.6705 23.4587C59.8158 23.5858 59.8703 23.6766 59.8703 23.7493C59.8703 23.949 59.7613 24.0217 59.2528 24.0943C58.599 24.5847 57.927 25.0569 57.2369 25.4928C56.6739 25.8378 56.1109 26.1466 55.5297 26.4553V26.8912H59.4344C60.5786 26.8912 62.1223 26.873 63.0485 26.8367V28.6528C62.086 28.6165 60.5422 28.5802 59.4344 28.5802H55.5115V29.5791C55.5115 29.906 55.5297 30.36 55.5479 30.9593C55.566 31.3225 55.566 31.595 55.566 31.7584C55.566 33.0842 54.9485 33.3929 52.3151 33.3929H51.9156C51.8793 32.5575 51.8248 32.2851 51.5705 31.5042C52.2607 31.5405 52.6239 31.5586 53.0961 31.5586C53.6772 31.5586 53.768 31.4678 53.768 30.814V28.5802H49.8815C48.8826 28.5802 47.2481 28.6165 46.2674 28.6528V26.8367C47.2118 26.873 48.8463 26.8912 49.8815 26.8912H53.7499C53.7499 26.5098 53.7317 26.1284 53.7136 25.747C53.6954 25.5472 53.6772 25.3293 53.6228 25.1295L54.549 25.184C55.0212 24.9297 55.4934 24.6573 55.9656 24.3667H52.2062C51.4434 24.3667 50.3719 24.3849 49.6817 24.4031V22.7141C50.3719 22.7504 51.4434 22.7685 52.2062 22.7685H58.2902ZM50.9712 20.0262H54.1494C53.7317 18.7549 53.4593 18.1556 52.8237 17.084L54.3674 16.521C55.0575 17.5199 55.4207 18.2464 55.8748 19.4813L54.331 20.0262H56.7828C57.6727 18.8094 58.3265 17.6834 58.8532 16.4121L60.633 17.1748C60.7783 17.2293 60.851 17.302 60.851 17.3746C60.851 17.5018 60.742 17.5744 60.4696 17.6107C59.7068 18.8275 59.3073 19.4269 58.8714 20.0262H59.2528C60.1427 20.0262 61.5411 20.008 62.3402 19.9535C62.3221 20.6073 62.3221 20.9524 62.3221 21.3338V22.0421C62.3221 22.4961 62.3402 23.041 62.3765 23.6403H60.4696C60.5059 23.1136 60.5241 22.4598 60.5241 22.0421V21.6244H48.7555V22.0421C48.7555 22.4598 48.7918 23.1136 48.81 23.6403H46.9212C46.9394 23.041 46.9575 22.4961 46.9575 22.0421V21.3338C46.9575 20.9524 46.9575 20.6255 46.9394 19.9535C47.7385 20.008 48.9734 20.0262 50.1721 20.0262C49.4275 18.8094 49.1006 18.3553 48.4649 17.647L49.8452 16.7571C50.7351 17.5926 51.2255 18.2282 51.9519 19.4632L50.9712 20.0262ZM70.1496 22.0603V24.3304C71.0395 24.9116 71.766 25.5109 72.5106 26.2737L71.4754 27.8719C71.1122 27.3815 70.6218 26.8367 70.1496 26.3827V28.1806C70.1496 30.5598 70.1678 32.3214 70.2222 33.4838H68.3516C68.4061 32.3033 68.4243 30.5234 68.4243 28.1806V26.6188C67.9339 28.108 67.4799 29.0161 66.6626 30.3237C66.1723 29.2158 66.0088 28.9252 65.6819 28.4531C66.8261 26.6732 67.6252 24.6392 68.17 22.0603H67.6252C67.153 22.0603 66.5718 22.0784 66.1904 22.0966V20.3712C66.59 20.3894 67.2438 20.4076 67.6252 20.4076H68.4243C68.4061 18.3917 68.3698 17.1385 68.3153 16.6845L70.2222 16.8298C70.3857 16.8479 70.4947 16.9024 70.4947 17.0114C70.4947 17.1022 70.4039 17.2112 70.1678 17.3565C70.1496 17.8831 70.1496 17.9739 70.1496 20.4076H70.7308C71.1122 20.4076 71.766 20.3894 72.1655 20.3712V22.0966C71.7841 22.0784 71.2211 22.0603 70.7308 22.0603H70.1496ZM78.7581 28.4349L78.4857 28.8163C79.7206 29.9604 81.1735 30.814 83.4074 31.6676C82.9534 32.2488 82.6809 32.6665 82.3904 33.284C80.1747 32.2851 78.5765 31.2862 77.3778 30.1421C76.5061 30.9956 75.489 31.7221 74.0906 32.4486C73.1099 32.9571 72.5469 33.1932 71.5299 33.5019C71.2574 32.7573 71.0577 32.3577 70.7126 31.9037C73.1099 31.1046 74.5628 30.3418 75.9068 29.1795C76.0339 29.0705 76.1428 28.9616 76.2518 28.8526C75.5254 27.8537 74.9442 26.6369 74.3086 24.8389L75.6888 24.167C76.3063 25.7652 76.7603 26.7459 77.3415 27.545C78.0135 26.5824 78.5946 25.4383 79.085 24.0943L80.6287 24.8208C80.8648 24.9297 80.9011 24.9479 80.9011 25.0387C80.9011 25.1295 80.8285 25.2203 80.7377 25.2567L80.4834 25.3656C80.0112 26.4735 79.6298 27.2181 78.7581 28.4349ZM76.5242 19.0818V17.7742C76.5242 17.2838 76.5242 16.8843 76.5061 16.6118L78.3041 16.739C78.522 16.7571 78.6491 16.8116 78.6491 16.9206C78.6491 17.0296 78.5402 17.1385 78.2859 17.2838V19.0818H80.5016C81.1917 19.0818 82.1361 19.0636 82.6628 19.0455V20.7526C82.1179 20.7345 81.1009 20.7163 80.5016 20.7163H74.6718C74.0725 20.7163 73.0554 20.7345 72.5106 20.7526V19.0455C73.0373 19.0636 73.9816 19.0818 74.6718 19.0818H76.5242ZM75.1258 20.8253L76.5606 21.4791C76.7422 21.5517 76.8511 21.6607 76.8511 21.7697C76.8511 21.915 76.724 21.9876 76.3789 22.0058C75.1985 23.6221 74.363 24.4031 72.4561 25.6744C72.1655 25.0206 71.9113 24.621 71.4572 24.1851C73.2734 23.1499 74.1269 22.369 75.1258 20.8253ZM78.068 21.9694L79.1576 20.8616C80.9011 22.0603 81.9 22.8775 83.0987 24.0943L81.9 25.4019C80.1928 23.6403 79.5027 23.0228 78.068 21.9694ZM99.7163 24.1851V27.9809C99.7163 28.6347 99.7163 29.1069 99.7345 30.2874C99.7345 30.5779 99.7526 31.1773 99.7526 31.377C99.7526 32.2851 99.6073 32.6847 99.1351 32.9752C98.6448 33.3021 98.0818 33.3929 96.4473 33.3929H95.9751C95.9569 32.7573 95.8479 32.2125 95.63 31.4678C96.5381 31.5223 96.865 31.5405 97.2464 31.5405C97.8457 31.5405 97.9183 31.4497 97.9183 30.814V24.1851H94.05C93.2872 24.1851 92.2701 24.2033 91.5255 24.2215V22.478C92.2157 22.4961 93.2509 22.5143 94.05 22.5143H100.534C101.26 22.5143 102.441 22.4961 103.076 22.478V24.2215C102.404 24.2033 101.224 24.1851 100.534 24.1851H99.7163ZM88.5652 29.7607V26.3282C88.1294 26.873 87.748 27.2907 87.0033 27.999C86.6946 27.327 86.3314 26.7822 85.9318 26.3282C87.9296 24.4394 88.8921 23.0591 90.1997 20.1715L91.7435 20.8979C91.9796 21.0069 92.034 21.0795 92.034 21.2067C92.034 21.352 91.9069 21.4064 91.5437 21.4973C91.0533 22.4235 90.6175 23.3134 90.2179 23.9854C90.563 24.0035 90.6538 24.0762 90.6538 24.1851C90.6538 24.2941 90.563 24.3849 90.3087 24.5302C90.3087 24.8753 90.2906 25.4019 90.2906 27.654V29.7607C90.2906 31.4497 90.3087 32.6302 90.3632 33.4838H88.4926C88.5471 32.6665 88.5652 31.4315 88.5652 29.7607ZM101.914 17.7378V19.4813C101.405 19.445 100.643 19.445 100.098 19.445H94.8309C94.2861 19.445 93.5233 19.445 93.0148 19.4813V17.7378C93.5233 17.756 94.2861 17.7742 94.8309 17.7742H100.098C100.643 17.7742 101.405 17.756 101.914 17.7378ZM90.5267 16.4847L91.8343 17.2475C92.1067 17.4109 92.1612 17.4473 92.1612 17.5744C92.1612 17.7015 92.1067 17.7378 91.6708 17.865C90.1453 19.6811 89.1464 20.5529 87.1486 21.7697C86.7128 20.8798 86.5856 20.6618 86.1861 20.2441C88.202 19.0636 89.328 18.0829 90.5267 16.4847ZM115.444 24.0943V24.9661H118.677C119.875 24.9661 120.293 24.9479 120.82 24.9297C120.802 25.2567 120.783 25.4383 120.783 26.5279V27.091L122.999 27.0365V28.5802C122.255 28.562 121.528 28.5257 120.783 28.5257V29.5427C120.783 30.2147 120.783 30.4508 120.82 31.3407H119.058V30.7051H115.499V31.032C115.499 31.0865 115.517 31.1409 115.517 31.3044C115.517 32.2488 115.353 32.7028 114.917 33.0116C114.391 33.3929 113.9 33.4656 112.03 33.4656C111.993 32.7755 111.903 32.2851 111.685 31.595C112.229 31.6495 112.556 31.6676 112.974 31.6676C113.664 31.6676 113.737 31.595 113.737 30.9048V30.7051H109.523C108.924 30.7051 107.907 30.7232 107.344 30.7595V29.2522C107.889 29.2703 108.815 29.2885 109.523 29.2885H113.737V28.5075H109.778C108.779 28.5075 107.144 28.5439 106.164 28.5802V27.0365C107.108 27.0728 108.743 27.1091 109.778 27.1091H113.737V26.3645H109.523C108.924 26.3645 107.907 26.4008 107.344 26.419V24.9116C107.889 24.9479 108.815 24.9661 109.523 24.9661H113.737V24.0943H110.559V24.5302H108.851C108.87 24.1125 108.888 23.495 108.888 22.6959V22.1329C108.888 21.5699 108.87 20.8616 108.851 20.5347C109.251 20.5529 109.614 20.571 110.159 20.571H113.737C113.737 20.3349 113.737 19.9172 113.719 19.7174H110.032C109.033 19.7174 107.399 19.7538 106.418 19.7901V18.1556C107.344 18.1919 108.997 18.21 110.032 18.21H113.701C113.701 17.6834 113.682 17.1385 113.628 16.6118L115.535 16.739C115.698 16.7571 115.807 16.8298 115.807 16.9387C115.807 17.0296 115.716 17.1204 115.48 17.2838C115.462 17.5926 115.462 17.9013 115.462 18.21H119.131C120.275 18.21 121.819 18.1919 122.745 18.1556V19.7901C121.782 19.7538 120.239 19.7174 119.131 19.7174H115.462C115.444 20.008 115.444 20.2804 115.444 20.571H119.004C119.549 20.571 119.912 20.5529 120.329 20.5347C120.293 20.8616 120.275 21.5699 120.275 22.1329V22.6051C120.275 23.4587 120.293 24.0762 120.329 24.4939H118.604V24.0943H115.444ZM115.444 22.7504H118.604V21.915H115.444V22.7504ZM119.058 29.2885V28.5075H115.462V29.2885H119.058ZM119.058 27.1091V26.3645H115.444V27.1091H119.058ZM113.737 22.7504V21.915H110.559V22.7504H113.737ZM130.1 23.4224L130.046 23.3134C130.028 23.2771 129.882 22.9865 129.61 22.4235C129.356 21.8786 129.265 21.6062 129.265 21.1703C129.265 19.8627 130.336 19.0273 131.953 19.0273C132.661 19.0273 133.17 19.1 133.842 19.2997C133.624 18.8639 133.533 18.4825 133.533 17.9558C133.533 17.7378 133.587 17.3746 133.66 16.8843L135.149 17.1204C135.131 17.3746 135.113 17.6107 135.113 17.7923C135.113 18.428 135.349 18.882 136.057 19.6085L134.804 20.9161C133.914 20.5165 133.224 20.3531 132.498 20.3531C131.735 20.3531 131.244 20.6982 131.244 21.243C131.244 21.5699 131.372 21.915 131.789 22.7141L134.568 21.5699C136.802 20.6437 138.037 20.3349 139.217 20.3349C140.089 20.3349 140.924 20.6073 141.524 21.0614C142.196 21.5699 142.541 22.369 142.541 23.4587C142.541 25.0569 141.651 26.1829 139.944 26.6732C139.163 26.9093 138.109 27.0183 136.947 27.0183C136.366 27.0183 136.094 27.0001 135.494 26.9457C135.476 25.9468 135.476 25.8015 135.385 25.0206C136.13 25.1114 136.457 25.1477 137.056 25.1477C139.399 25.1477 140.616 24.512 140.616 23.3134C140.616 22.4961 140.071 22.0421 139.072 22.0421C137.964 22.0421 137.074 22.3145 133.86 23.6766C133.369 23.8764 133.188 23.9672 132.57 24.2396C134.332 27.8537 134.641 28.5075 136.366 32.5575L134.296 33.3385C133.097 29.9786 132.171 27.6176 130.881 25.0206C130.645 25.1477 130.463 25.2203 130.209 25.3475C129.138 25.9105 128.92 26.0013 128.157 26.3645C127.648 26.6006 127.376 26.7277 127.14 26.8549L126.177 24.9116C126.722 24.7118 127.158 24.5484 127.431 24.4576C128.847 23.949 128.992 23.8764 130.1 23.4224ZM161.483 17.5381L162.627 18.6096C162.736 18.7186 162.791 18.8275 162.791 18.9365C162.791 19.0818 162.736 19.1363 162.355 19.2271C161.992 20.3712 161.592 21.4246 160.738 23.4224C162.373 25.1658 162.9 26.31 162.9 28.1261C162.9 29.2522 162.664 29.9968 162.155 30.469C161.737 30.8504 161.193 31.0501 160.412 31.0865C160.194 31.1046 159.921 31.1046 159.358 31.1046H159.086C159.068 30.1965 159.031 29.8878 158.85 29.1613C159.267 29.2158 159.485 29.234 159.74 29.234C160.684 29.234 161.029 28.9434 161.029 28.1443C161.029 27.2544 160.684 26.1284 160.139 25.2385C159.849 24.7663 159.649 24.5302 158.85 23.6585C159.049 23.1318 159.213 22.7504 159.304 22.4961C159.794 21.2612 160.121 20.3531 160.412 19.445H158.577V28.1806C158.577 30.5053 158.614 32.3396 158.668 33.4838H156.761C156.816 32.2851 156.834 30.4508 156.834 28.1806V19.3905C156.834 18.8275 156.816 18.1192 156.797 17.7923C157.197 17.8105 157.56 17.8105 158.105 17.8105H161.265L161.483 17.5381ZM148.316 23.5858H148.698C148.389 22.4598 148.153 21.7878 147.753 20.9342L148.934 20.4621H148.734C148.135 20.4621 147.117 20.4802 146.554 20.4984V18.7367C147.099 18.773 148.044 18.7912 148.734 18.7912H150.259V17.8105C150.259 17.5926 150.259 17.1567 150.241 16.6482L152.039 16.7571C152.275 16.7753 152.421 16.8479 152.421 16.9387C152.421 17.0296 152.33 17.1204 152.003 17.3201V18.7912H153.565C154.273 18.7912 155.199 18.773 155.744 18.7367V20.4984C155.181 20.4802 154.164 20.4621 153.565 20.4621H153.256L154.6 20.9706C154.691 21.0069 154.763 21.0977 154.763 21.1885C154.763 21.3156 154.618 21.3883 154.273 21.4064C153.91 22.2782 153.619 22.8957 153.274 23.5858H154.037C154.727 23.5858 155.653 23.5676 156.198 23.5495V25.3111C155.653 25.2748 154.636 25.2567 154.037 25.2567H148.316C147.717 25.2567 146.682 25.2748 146.137 25.3111V23.5495C146.682 23.5676 147.608 23.5858 148.316 23.5858ZM149.17 23.5858H151.567C152.039 22.5688 152.439 21.5336 152.766 20.4621H149.315C149.769 21.3156 150.096 22.2055 150.368 23.1318L149.17 23.5858ZM153.129 31.9945H149.224V33.1568H147.463C147.499 32.721 147.499 32.1217 147.499 31.2317V27.8537C147.499 27.2726 147.481 26.5643 147.463 26.2374C147.862 26.2555 148.225 26.2737 148.77 26.2737H153.583C154.11 26.2737 154.491 26.2555 154.891 26.2374C154.872 26.5643 154.836 27.2726 154.836 27.8537V30.9412C154.836 31.7947 154.854 32.4122 154.891 32.8299H153.129V31.9945ZM153.129 30.4326V27.8356H149.224V30.4326H153.129ZM177.719 26.2555H180.099C180.734 26.2555 181.17 26.2555 181.66 26.2374C181.624 26.8185 181.606 27.4723 181.606 29.125V29.8878C181.606 31.3407 181.624 32.3941 181.66 33.0842H179.881V32.3759H173.905V33.2295H172.144C172.18 32.503 172.198 31.4497 172.198 30.0331V29.125C172.198 28.0353 172.18 26.8004 172.144 26.2374C172.634 26.2555 173.07 26.2555 173.688 26.2555H175.976V23.6585H172.907C172.307 23.6585 171.29 23.6948 170.745 23.7129V21.9513C171.29 21.9876 172.216 22.0058 172.907 22.0058H175.976V19.6993C174.814 19.8627 173.488 20.008 171.817 20.1351C171.69 19.445 171.599 19.1363 171.29 18.5188C175.685 18.3008 178.228 17.8287 180.389 16.8479L181.697 17.9376C181.824 18.0466 181.842 18.0829 181.842 18.1556C181.842 18.319 181.751 18.3553 181.315 18.3553C180.026 18.8094 178.936 19.1363 177.719 19.3905V22.0058H180.807C181.497 22.0058 182.423 21.9876 182.968 21.9513V23.7129C182.423 23.6948 181.406 23.6585 180.807 23.6585H177.719V26.2555ZM179.881 30.7777V27.8719H173.905V30.7777H179.881ZM167.367 18.0466L168.639 17.0114C169.529 17.7742 170.001 18.2827 170.8 19.2997L169.347 20.4076C168.675 19.4269 168.312 19.0091 167.367 18.0466ZM165.933 22.4053L167.149 21.3156C168.112 22.1511 168.675 22.7322 169.383 23.604L168.021 24.8026C167.186 23.6766 166.823 23.2589 165.933 22.4053ZM169.819 25.0024L171.272 26.0013C171.072 26.4008 170.927 26.7277 170.455 27.8356C170.055 28.7436 169.819 29.2158 168.457 31.8311C168.185 32.3759 168.094 32.5757 167.876 33.0297V33.1568C167.876 33.3203 167.803 33.4111 167.712 33.4111C167.64 33.4111 167.567 33.3566 167.458 33.2658L166.169 32.1761C167.222 30.7777 168.802 27.6903 169.819 25.0024ZM196.843 17.865L198.877 17.9739C199.041 17.9739 199.168 18.0829 199.168 18.21C199.168 18.3372 199.132 18.4098 198.877 18.5914C198.877 18.9365 198.896 19.8809 198.968 21.4064C200.603 21.2975 200.966 21.2612 202.219 21.0432L202.274 22.8957C200.639 23.1136 200.13 23.1681 198.986 23.2044C199.077 25.9831 199.132 27.4723 199.15 27.7084C199.15 27.9445 199.15 27.999 199.168 28.217C200.73 28.9434 201.474 29.3974 202.746 30.4326C202.092 31.1409 201.856 31.4497 201.565 32.0308C200.73 31.2499 199.931 30.6324 199.077 30.1057C198.914 31.7766 197.86 32.5212 195.663 32.5212C194.337 32.5212 193.447 32.2851 192.793 31.7766C192.267 31.3407 191.922 30.6143 191.922 29.906C191.922 28.4167 193.247 27.436 195.245 27.436C195.863 27.436 196.444 27.5087 197.261 27.6721C197.243 26.5461 197.207 25.9831 197.134 23.2589C196.153 23.2771 195.899 23.2771 195.608 23.2771C194.664 23.2771 193.265 23.2771 192.684 23.2589L192.666 21.3701C193.774 21.4609 194.573 21.4973 195.953 21.4973C196.407 21.4973 196.516 21.4973 197.098 21.4791L197.079 20.7345C197.043 19.336 196.989 18.6278 196.843 17.865ZM197.207 29.3974C196.498 29.1432 195.881 29.0342 195.209 29.0342C194.283 29.0342 193.756 29.343 193.756 29.906C193.756 30.5598 194.391 30.9048 195.554 30.9048C196.48 30.9048 196.97 30.6506 197.134 30.1057C197.17 29.9786 197.225 29.5972 197.225 29.4519L197.207 29.3974ZM188.38 17.8831L190.36 18.21C190.541 18.2464 190.668 18.3372 190.668 18.4643C190.668 18.6459 190.523 18.7549 190.178 18.8639C189.561 21.6062 189.306 23.8037 189.306 26.5643C189.306 28.7255 189.488 29.7425 190.214 32.0308C189.343 32.3396 189.161 32.4304 188.416 32.8481C187.781 30.9775 187.49 28.9979 187.49 26.6369C187.49 24.4576 187.726 22.1147 188.253 18.9002C188.344 18.319 188.362 18.2464 188.38 17.8831ZM219.327 18.4461L220.126 17.5199C220.98 18.0466 221.525 18.4825 222.414 19.336L221.506 20.3349C220.671 19.445 220.253 19.0818 219.327 18.4461ZM217.91 20.0988L218.71 19.1726C219.563 19.6993 220.126 20.1351 221.016 20.9887L220.108 21.9694C219.254 21.0795 218.855 20.7345 217.91 20.0988ZM213.969 18.1556V18.9002C213.969 21.0795 214.097 22.5324 214.369 23.604C215.368 23.1681 215.985 22.9138 216.203 22.8049C217.347 22.2964 217.602 22.1692 218.001 21.915L219.182 23.386C219.291 23.5313 219.327 23.5676 219.327 23.6221C219.327 23.7674 219.2 23.8037 218.728 23.8037C218.056 24.0762 217.511 24.2941 217.166 24.4212C213.515 25.8197 213.189 25.9649 212.19 26.7277C211.5 27.2362 211.118 27.9627 211.118 28.6892C211.118 29.8696 212.008 30.3237 214.387 30.3237C216.385 30.3237 217.965 30.1421 219.563 29.7425C219.509 30.4871 219.491 30.5598 219.491 31.8856C217.838 32.1035 216.657 32.1761 214.896 32.1761C213.515 32.1761 212.462 32.0672 211.681 31.8674C210.01 31.4134 209.193 30.4326 209.193 28.8163C209.193 27.0728 210.392 25.5291 212.662 24.3667C212.244 23.0591 212.208 22.7504 212.026 19.2452C212.008 18.7367 211.972 18.3735 211.899 17.5018L213.915 17.5926C214.078 17.5926 214.206 17.7015 214.206 17.8105C214.206 17.9195 214.133 18.0284 213.969 18.1556ZM233.13 17.4473L234.982 18.3553C235.2 18.4643 235.309 18.5551 235.309 18.6459C235.309 18.7912 235.146 18.882 234.855 18.9365C233.911 21.0251 233.311 22.2237 231.495 25.5472C232.04 25.3475 232.44 25.2567 232.894 25.2567C233.62 25.2567 234.31 25.6562 234.655 26.2555C234.91 26.7277 235.037 27.327 235.164 28.6165C235.255 29.5427 235.382 30.0513 235.6 30.3055C235.799 30.5416 236.181 30.6869 236.562 30.6869C238.487 30.6869 240.067 28.562 240.903 24.8934C241.647 25.4201 241.992 25.6199 242.646 25.8923C241.139 30.7959 239.486 32.612 236.508 32.612C235.709 32.612 234.964 32.4122 234.437 32.0672C233.783 31.6313 233.511 31.0138 233.311 29.4156C233.075 27.545 233.075 27.4542 232.894 27.1636C232.785 27.0001 232.53 26.8549 232.294 26.8549C231.495 26.8549 230.769 27.4723 230.079 28.7255C229.824 29.1977 229.77 29.343 229.134 30.6687C228.789 31.4134 228.753 31.486 228.262 32.4122C227.318 31.7221 227.155 31.6313 226.392 31.377C227.1 30.2329 229.007 26.5279 230.642 23.1499C232.367 19.5903 232.785 18.6459 233.13 17.4473ZM256.994 23.4405L258.138 24.6028C257.575 24.9842 257.43 25.2022 257.43 25.747C257.43 26.1284 257.448 26.3645 257.557 27.2181C257.611 27.5995 257.629 27.7084 257.684 28.2714C257.702 28.4894 257.72 28.562 257.72 28.6347C258.864 29.0887 260.063 29.8152 261.752 31.0865C261.225 31.5223 260.917 31.8492 260.463 32.5212C259.464 31.595 259.373 31.5223 257.757 30.5234C257.593 32.3214 256.54 33.1568 254.378 33.1568C252.399 33.1568 251.109 32.158 251.109 30.5961C251.109 29.0342 252.435 27.9264 254.378 27.9264C254.96 27.9264 255.341 27.9809 255.868 28.1261C255.813 27.6903 255.813 27.5631 255.759 27.091C255.704 26.6732 255.668 25.9105 255.668 25.6925C255.668 24.6937 256.013 24.1125 256.994 23.4405ZM255.959 29.797C255.305 29.5791 254.796 29.5064 254.251 29.5064C253.416 29.5064 252.835 29.9241 252.835 30.5416C252.835 31.1591 253.38 31.5042 254.433 31.5042C255.087 31.5042 255.559 31.3225 255.759 30.9956C255.904 30.7777 255.959 30.3963 255.959 29.797ZM252.254 16.8843L254.179 17.4654C254.324 17.5018 254.415 17.5926 254.415 17.7015C254.415 17.8287 254.324 17.9013 254.052 18.0284C253.616 19.2089 253.398 19.8264 253.271 20.0988C254.161 19.8809 254.833 19.6266 255.468 19.2997L256.213 20.9161C254.941 21.4791 254.052 21.7333 252.617 21.9694C252.29 22.8594 251.727 24.2396 251.073 25.6562C250.437 27.0546 250.02 27.8356 249.275 29.0524C248.912 29.6699 248.64 30.1057 248.476 30.3782C247.804 29.797 247.513 29.6154 246.823 29.343C248.294 27.3452 249.62 24.8571 250.692 22.0966C250.31 22.1511 250.002 22.1692 249.42 22.1692C248.912 22.1692 248.512 22.1511 247.641 22.0966L247.604 20.2441C248.476 20.3712 249.039 20.4076 249.802 20.4076C250.31 20.4076 250.619 20.3894 251.309 20.3349C251.836 18.7912 252.181 17.5381 252.254 16.8843ZM256.631 22.7504L257.139 21.1703C259.191 21.5517 260.19 21.915 261.934 22.9683L260.971 24.6028C259.409 23.5313 258.356 23.0773 256.631 22.7504ZM275.282 19.9717H268.944V21.7152C268.944 25.638 268.563 27.1454 267.019 29.2885C266.419 28.3986 266.383 28.3441 265.784 27.8174C266.91 26.0376 267.146 24.9661 267.146 21.5881V19.9717C267.146 19.4087 267.128 18.7004 267.11 18.3735C267.709 18.3917 268.326 18.3917 269.107 18.3917H275.137C275.119 18.1737 275.119 17.9376 275.101 17.647C275.064 17.084 275.046 16.8843 275.01 16.63L276.935 16.8298C277.135 16.8479 277.244 16.9206 277.244 17.0296C277.244 17.1567 277.135 17.2657 276.88 17.3928C276.88 17.7197 276.88 18.0648 276.899 18.3917H278.533C278.206 18.0284 278.006 17.865 277.498 17.4473L278.442 16.521C279.387 17.2293 279.514 17.3201 280.222 18.1011L279.913 18.3917C280.912 18.3735 282.038 18.3553 282.765 18.319V20.0262C281.838 19.9899 280.149 19.9717 279.151 19.9717H277.044C277.135 20.5165 277.225 21.0432 277.353 21.5154C277.534 22.2237 277.807 22.8412 278.152 23.4224C278.569 22.6414 278.951 21.6789 279.35 20.3894L280.876 21.0795C281.058 21.1703 281.166 21.2793 281.166 21.3883C281.166 21.5336 281.094 21.5699 280.712 21.6062C280.24 22.9138 279.768 23.9127 279.223 24.7845L279.441 25.0024C280.022 25.5836 280.567 25.8741 280.93 25.8741C281.221 25.8741 281.33 25.4746 281.512 23.7311C282.147 24.1306 282.347 24.2215 283.073 24.512C282.964 25.6744 282.819 26.5098 282.656 26.9638C282.42 27.6358 282.02 27.999 281.439 27.999C280.513 27.999 279.26 27.2907 278.152 26.201C277.516 26.9093 276.735 27.545 275.518 28.3986C274.992 27.5268 274.883 27.436 274.465 27.091C275.518 26.4735 276.39 25.7833 277.098 24.9661C276.208 23.7493 275.645 22.3508 275.355 20.5165C275.319 20.3168 275.3 20.1351 275.282 19.9717ZM271.105 26.4553V27.1818H269.561C269.58 26.8367 269.598 26.1284 269.598 25.4928V24.3304C269.598 23.3679 269.58 23.1499 269.561 22.8957C269.961 22.9138 270.324 22.932 270.851 22.932H273.23C273.757 22.932 274.12 22.9138 274.519 22.8957C274.501 23.1863 274.501 23.4768 274.501 24.512V25.3293C274.501 25.7652 274.501 26.5098 274.519 26.8004H272.994V26.4553H271.105ZM272.994 25.1477V24.2396H271.105V25.1477H272.994ZM268.145 28.562L269.652 29.1432C269.761 29.1795 269.816 29.2522 269.816 29.343C269.816 29.4519 269.761 29.5064 269.507 29.5791C268.98 31.1773 268.581 31.8856 267.564 33.0116C267.273 32.5757 266.91 32.2306 266.329 31.7766C267.455 30.5053 267.818 29.8878 268.145 28.562ZM270.161 28.217L272.086 28.3804C272.249 28.3986 272.376 28.4894 272.376 28.5983C272.376 28.7255 272.267 28.8344 272.013 28.9252C271.977 29.1613 271.977 29.4156 271.977 29.7062V30.7051C271.977 31.1591 272.049 31.2862 272.376 31.377C272.685 31.4497 273.448 31.486 274.283 31.486C276.79 31.486 277.117 31.4315 277.298 30.9775C277.407 30.7414 277.462 30.1784 277.48 29.4701C278.261 29.8152 278.624 29.8878 279.278 30.0331C279.205 31.5768 279.042 32.1398 278.551 32.5757C278.097 32.9934 277.425 33.0842 274.774 33.0842C272.558 33.0842 271.723 33.0479 271.16 32.9208C270.524 32.7936 270.27 32.4122 270.27 31.6495V30.0149C270.27 28.8889 270.233 28.5075 270.161 28.217ZM274.846 22.2419L273.757 22.2237H270.36L269.271 22.2419V20.7163C269.543 20.7345 269.997 20.7345 270.36 20.7345H273.757C274.102 20.7345 274.574 20.7345 274.846 20.7163V22.2419ZM279.06 29.1977L280.295 28.1443C280.93 28.7073 281.275 29.0887 281.875 29.8333C282.111 30.1239 282.492 30.6869 283.037 31.5223L281.493 32.6847C280.894 31.4134 279.968 30.0876 279.06 29.1977ZM272.667 28.3986L273.666 27.3452C274.846 28.1443 275.246 28.4712 276.045 29.3793L274.865 30.5416C274.247 29.7243 273.502 28.9797 272.667 28.3986ZM296.204 19.336L297.021 18.3735C297.893 18.9183 298.474 19.3724 299.364 20.2441L298.438 21.243C297.584 20.3531 297.149 19.9717 296.204 19.336ZM294.733 21.0069L295.55 20.0625C296.44 20.6073 296.985 21.0432 297.893 21.915L296.967 22.932C296.131 22.0239 295.714 21.6607 294.733 21.0069ZM289.793 18.0829L291.864 18.2282C292.063 18.2464 292.209 18.3372 292.209 18.4825C292.209 18.6096 292.136 18.6822 291.9 18.8457C291.827 20.3349 291.627 27.6176 291.627 28.562C291.627 30.0694 292.172 30.6143 293.698 30.6143C294.769 30.6143 295.805 30.3055 296.894 29.6699C298.22 28.9071 298.965 28.217 300.254 26.5098C300.545 27.1818 300.726 27.436 301.435 28.2533C300.036 29.906 299.219 30.6324 297.911 31.377C296.495 32.1943 294.987 32.5938 293.48 32.5938C292.045 32.5938 290.919 32.158 290.32 31.3589C289.866 30.7595 289.648 29.8878 289.648 28.6347C289.648 28.1443 289.666 27.7266 289.757 25.4019C289.811 23.8037 289.848 22.0058 289.848 20.1896C289.848 19.3724 289.829 18.7186 289.793 18.0829ZM315.092 27.5995H313.112C313.112 26.3463 313.112 26.0921 313.149 25.6925C313.203 24.8571 313.512 24.3486 314.529 23.2771C315.564 22.2055 315.8 21.806 315.8 21.134C315.8 20.2986 315.219 19.7538 314.347 19.7538C313.385 19.7538 312.931 20.3349 312.822 21.697H310.606C310.642 20.4439 310.86 19.7174 311.405 19.1C312.095 18.3008 313.203 17.8831 314.547 17.8831C316.69 17.8831 318.016 19.1 318.016 21.0251C318.016 22.1692 317.707 22.7322 316.272 24.2215C315.183 25.3656 315.074 25.6017 315.074 26.9275C315.074 27.1454 315.074 27.3089 315.092 27.5995ZM312.894 29.4883H315.328V31.9219H312.894V29.4883Z" fill="#146293"/>
</svg>
