<svg xmlns="http://www.w3.org/2000/svg" width="19.195" height="13.5" viewBox="0 0 19.195 13.5"><title>YouTube</title><path class="path" d="M19.336-11.391a15.887,15.887,0,0,1,.352,2.883l.035,1.758-.035,1.758a16.073,16.073,0,0,1-.352,2.918A2.452,2.452,0,0,1,18.7-1.02a2.437,2.437,0,0,1-1.09.633,25.006,25.006,0,0,1-4.289.352L10.125,0l-3.2-.035A25.006,25.006,0,0,1,2.637-.387a2.437,2.437,0,0,1-1.09-.633A2.452,2.452,0,0,1,.914-2.074,16.073,16.073,0,0,1,.562-4.992L.527-6.75q0-.773.035-1.758a15.887,15.887,0,0,1,.352-2.883,2.437,2.437,0,0,1,.633-1.09,2.437,2.437,0,0,1,1.09-.633,25.006,25.006,0,0,1,4.289-.352l3.2-.035,3.2.035a25.006,25.006,0,0,1,4.289.352,2.437,2.437,0,0,1,1.09.633A2.437,2.437,0,0,1,19.336-11.391ZM8.156-3.867,13.184-6.75,8.156-9.6Z" transform="translate(-0.527 13.5)" /></svg>