<svg width="128" height="115" viewBox="0 0 128 115" fill="none" xmlns="http://www.w3.org/2000/svg">
<mask id="path-1-outside-1_12_6" maskUnits="userSpaceOnUse" x="25.4971" y="74.0508" width="91" height="15" fill="black">
<rect fill="white" x="25.4971" y="74.0508" width="91" height="15"/>
<path d="M29.8776 87.2653C29.277 87.3415 28.724 87.332 28.2188 87.2367C27.7135 87.1509 27.3083 86.9745 27.0033 86.7076C26.6982 86.4311 26.5457 86.0641 26.5457 85.6065C26.5457 84.9391 26.8174 84.3147 27.3608 83.7332C27.9137 83.1421 28.6478 82.6654 29.563 82.3032V79.4718C29.0386 79.529 28.5238 79.5719 28.0186 79.6005C27.5133 79.6195 27.0366 79.6195 26.5886 79.6005L26.5171 78.6853C26.9175 78.7234 27.3846 78.7329 27.9185 78.7139C28.4523 78.6948 29.0005 78.6567 29.563 78.5995V75.8825H30.4353V78.4851C30.9501 78.4088 31.441 78.323 31.9082 78.2277C32.3753 78.1228 32.7709 78.0084 33.0951 77.8845L33.2095 78.7568C32.8377 78.8807 32.4134 78.9951 31.9368 79.1C31.4601 79.2048 30.9596 79.2954 30.4353 79.3717V82.0172C30.8357 81.9028 31.2599 81.817 31.708 81.7598C32.156 81.693 32.6184 81.6597 33.0951 81.6597C33.9054 81.6597 34.6109 81.7788 35.2115 82.0172C35.8216 82.246 36.2935 82.5653 36.6272 82.9753C36.9704 83.3852 37.142 83.8571 37.142 84.391C37.142 84.9439 37.018 85.4158 36.7702 85.8067C36.5223 86.188 36.1839 86.474 35.7549 86.6647C35.3354 86.8553 34.8492 86.9459 34.2963 86.9364C32.9139 86.9173 32.0035 86.1975 31.565 84.7771C31.6222 84.758 31.708 84.7294 31.8224 84.6913C31.9463 84.6436 32.0655 84.5959 32.1799 84.5483C32.3038 84.4911 32.3848 84.4482 32.423 84.4196C32.566 84.9439 32.7805 85.3443 33.0665 85.6208C33.362 85.8877 33.7719 86.0259 34.2963 86.0355C34.8587 86.045 35.3163 85.9068 35.6691 85.6208C36.0218 85.3252 36.1982 84.9153 36.1982 84.391C36.1982 83.9906 36.0647 83.6474 35.7978 83.3614C35.5308 83.0754 35.1638 82.8561 34.6967 82.7036C34.2295 82.5415 33.6957 82.4652 33.0951 82.4748C32.6089 82.4748 32.1417 82.5081 31.6937 82.5749C31.2456 82.6416 30.8261 82.7369 30.4353 82.8609V86.6504C30.4353 86.8601 30.3876 87.0079 30.2923 87.0937C30.2065 87.189 30.0682 87.2462 29.8776 87.2653ZM29.2198 86.4645C29.3532 86.4549 29.4438 86.4311 29.4915 86.393C29.5391 86.3548 29.563 86.2881 29.563 86.1928V83.1898C28.9147 83.4853 28.3999 83.8476 28.0186 84.2766C27.6372 84.696 27.4466 85.1298 27.4466 85.5779C27.4466 85.9211 27.6182 86.1642 27.9614 86.3072C28.3046 86.4406 28.724 86.4931 29.2198 86.4645ZM37.2564 80.7731C37.0371 80.5443 36.7416 80.3012 36.3698 80.0438C35.998 79.7864 35.6071 79.5433 35.1972 79.3145C34.7872 79.0761 34.4107 78.8902 34.0675 78.7568L34.5823 78.0418C34.8111 78.1371 35.0685 78.2658 35.3545 78.4279C35.65 78.5804 35.9503 78.752 36.2554 78.9427C36.57 79.1333 36.8607 79.324 37.1277 79.5147C37.4041 79.6958 37.6329 79.8626 37.8141 80.0152C37.7855 80.0438 37.7283 80.1153 37.6425 80.2297C37.5567 80.3441 37.4756 80.4585 37.3994 80.5729C37.3231 80.6777 37.2754 80.7445 37.2564 80.7731ZM50.8414 88.0375C50.8318 87.904 50.8032 87.7467 50.7556 87.5656C50.7174 87.394 50.6745 87.2605 50.6269 87.1652H51.7423C52.1141 87.1652 52.3 86.9983 52.3 86.6647V80.1439H48.1673V75.6108H53.2009V86.8649C53.2009 87.2462 53.096 87.537 52.8863 87.7372C52.6861 87.9374 52.3619 88.0375 51.9139 88.0375H50.8414ZM41.6036 88.0661V75.6108H46.6229V80.1439H42.4902V88.0661H41.6036ZM44.9355 85.6351V81.6454H49.8261V85.6351H44.9355ZM45.8221 84.8629H48.9252V82.4176H45.8221V84.8629ZM42.4902 79.4146H45.7506V78.2134H42.4902V79.4146ZM49.0396 79.4146H52.3V78.2134H49.0396V79.4146ZM42.4902 77.5127H45.7506V76.3401H42.4902V77.5127ZM49.0396 77.5127H52.3V76.3401H49.0396V77.5127ZM61.5807 85.3634C61.3614 85.4968 61.1278 85.5826 60.88 85.6208C60.6416 85.6589 60.4033 85.616 60.165 85.4921C59.9362 85.3681 59.7169 85.1298 59.5072 84.7771C59.2402 84.329 58.9971 83.8142 58.7779 83.2327C58.5681 82.6511 58.387 82.0458 58.2345 81.4166C58.0819 80.7778 57.9675 80.1439 57.8913 79.5147C57.815 78.8759 57.7816 78.2753 57.7912 77.7129L58.7064 77.7272C58.6873 78.3945 58.735 79.119 58.8494 79.9008C58.9638 80.6825 59.1354 81.4404 59.3642 82.1745C59.593 82.9085 59.8647 83.5473 60.1793 84.0907C60.3604 84.3862 60.5415 84.553 60.7227 84.5912C60.9133 84.6198 61.0945 84.5721 61.2661 84.4482C61.5139 84.2766 61.7761 84.043 62.0526 83.7475C62.329 83.4424 62.5292 83.1659 62.6532 82.9181C62.7199 83.042 62.8057 83.1802 62.9106 83.3328C63.025 83.4853 63.1298 83.6045 63.2252 83.6903C63.1108 83.8714 62.9582 84.0716 62.7676 84.2909C62.5769 84.5101 62.3767 84.7151 62.167 84.9058C61.9668 85.0964 61.7713 85.249 61.5807 85.3634ZM67.4437 82.8609C67.3579 82.613 67.2196 82.2984 67.029 81.9171C66.8478 81.5357 66.6381 81.1353 66.3998 80.7159C66.171 80.2964 65.9326 79.9008 65.6848 79.529C65.4464 79.1476 65.2319 78.8426 65.0413 78.6138L65.7992 78.1419C65.9994 78.3897 66.2234 78.7091 66.4713 79.1C66.7287 79.4813 66.9813 79.8912 67.2292 80.3298C67.4866 80.7588 67.7106 81.1687 67.9013 81.5596C68.1015 81.9409 68.2492 82.2555 68.3446 82.5034C68.192 82.532 68.03 82.5796 67.8584 82.6464C67.6868 82.7131 67.5485 82.7846 67.4437 82.8609ZM74.6652 87.823V82.7465H82.473V87.823H74.6652ZM75.5947 86.9793H81.5435V83.6045H75.5947V86.9793ZM72.2199 81.388C72.2008 81.3308 72.1531 81.2497 72.0769 81.1449C72.0006 81.0305 71.9243 80.9256 71.8481 80.8303C71.7718 80.7254 71.7146 80.6539 71.6765 80.6158C72.3057 80.3584 72.9396 80.0295 73.5784 79.6291C74.2171 79.2191 74.832 78.7615 75.4231 78.2563C76.0141 77.751 76.548 77.2219 77.0247 76.669C77.5013 76.1065 77.8874 75.5488 78.183 74.9959L78.9838 75.1103C79.4032 75.8062 79.9419 76.4926 80.5997 77.1695C81.2575 77.8463 81.9963 78.466 82.8162 79.0285C83.6456 79.5814 84.5179 80.039 85.4331 80.4013C85.4045 80.4394 85.352 80.5204 85.2758 80.6444C85.1995 80.7588 85.1232 80.8779 85.047 81.0019C84.9802 81.1163 84.9326 81.2021 84.904 81.2593C84.0555 80.8684 83.2356 80.406 82.4444 79.8722C81.6531 79.3383 80.9238 78.7425 80.2565 78.0847C79.5987 77.4269 79.0362 76.7262 78.5691 75.9826C78.2354 76.5164 77.8255 77.0503 77.3393 77.5842C76.8626 78.1085 76.3383 78.609 75.7663 79.0857C75.2038 79.5623 74.6175 79.9961 74.0074 80.387C73.4068 80.7778 72.8109 81.1115 72.2199 81.388ZM74.9512 80.9876V80.1296H82.1727V80.9876H74.9512ZM91.6107 87.5227V82.8466C91.1531 83.247 90.7193 83.6569 90.3094 84.0764C89.909 84.4958 89.5419 84.8962 89.2083 85.2776L88.4933 84.6484C88.9699 84.2098 89.4704 83.7427 89.9948 83.247C90.5191 82.7512 91.0577 82.2746 91.6107 81.817V79.4861C91.1531 79.5814 90.6812 79.672 90.195 79.7578C89.7088 79.8436 89.3227 79.9055 89.0367 79.9437L88.8508 79.0714C89.0224 79.0618 89.2607 79.038 89.5658 78.9999C89.8804 78.9617 90.2188 78.9093 90.5811 78.8426C90.9433 78.7758 91.2865 78.7091 91.6107 78.6424V75.8539H92.483V78.4422C92.5306 78.4231 92.5688 78.4088 92.5974 78.3993C92.626 78.3897 92.6546 78.3802 92.6832 78.3707L93.2695 78.7711L92.483 80.8303V81.1449C93.1312 80.6777 93.7795 80.2964 94.4278 80.0009C95.0856 79.6958 95.7338 79.5433 96.3726 79.5433C97.0113 79.5433 97.5881 79.6624 98.1029 79.9008C98.6177 80.1296 99.0228 80.4823 99.3184 80.959C99.6234 81.4261 99.776 82.0172 99.776 82.7322C99.776 83.7141 99.4042 84.5626 98.6606 85.2776C97.9265 85.983 96.8588 86.4835 95.4574 86.7791C95.4192 86.6551 95.3525 86.5026 95.2572 86.3215C95.1618 86.1403 95.0713 86.0021 94.9855 85.9068C95.7481 85.7828 96.4202 85.5731 97.0018 85.2776C97.5833 84.982 98.0361 84.6198 98.3603 84.1908C98.6939 83.7618 98.8608 83.2756 98.8608 82.7322C98.8608 81.8837 98.6272 81.2783 98.1601 80.9161C97.6929 80.5538 97.0971 80.3727 96.3726 80.3727C95.772 80.3727 95.1332 80.5395 94.4564 80.8732C93.789 81.2068 93.1312 81.6263 92.483 82.1316V87.5227H91.6107ZM110.058 86.8935C109.295 86.8935 108.685 86.8267 108.227 86.6933C107.779 86.5598 107.46 86.331 107.269 86.0069C107.079 85.6827 106.983 85.2347 106.983 84.6627V80.7731C106.306 80.8398 105.682 80.9161 105.11 81.0019C104.538 81.0781 104.061 81.1592 103.68 81.245L103.537 80.3155C103.956 80.2487 104.462 80.182 105.053 80.1153C105.644 80.0485 106.287 79.9818 106.983 79.9151V76.669H107.87V79.8293C108.48 79.7816 109.1 79.7339 109.729 79.6863C110.358 79.6291 110.973 79.5814 111.573 79.5433V76.2257H112.474V79.4861C113.123 79.4479 113.718 79.4193 114.262 79.4003C114.815 79.3812 115.282 79.3764 115.663 79.386V80.3155C114.843 80.2869 113.78 80.3012 112.474 80.3584V81.4166C112.474 81.8456 112.393 82.2031 112.231 82.4891C112.079 82.7655 111.817 82.98 111.445 83.1326C111.073 83.2851 110.563 83.39 109.915 83.4472C109.886 83.3042 109.843 83.1516 109.786 82.9896C109.729 82.818 109.662 82.6845 109.586 82.5892C110.377 82.5701 110.906 82.47 111.173 82.2889C111.44 82.1077 111.573 81.817 111.573 81.4166V80.4013C110.973 80.4394 110.353 80.4823 109.714 80.53C109.085 80.5776 108.47 80.6301 107.87 80.6873V84.5912C107.87 84.982 107.937 85.2823 108.07 85.4921C108.203 85.6923 108.427 85.8305 108.742 85.9068C109.066 85.9735 109.51 86.0069 110.072 86.0069C110.387 86.0069 110.758 85.9926 111.187 85.964C111.626 85.9354 112.074 85.8925 112.532 85.8353C112.999 85.7685 113.423 85.6923 113.804 85.6065C113.757 85.7399 113.714 85.9115 113.676 86.1213C113.647 86.331 113.633 86.4883 113.633 86.5932C113.051 86.6885 112.431 86.7648 111.774 86.822C111.116 86.8696 110.544 86.8935 110.058 86.8935Z"/>
</mask>
<path d="M29.8776 87.2653C29.277 87.3415 28.724 87.332 28.2188 87.2367C27.7135 87.1509 27.3083 86.9745 27.0033 86.7076C26.6982 86.4311 26.5457 86.0641 26.5457 85.6065C26.5457 84.9391 26.8174 84.3147 27.3608 83.7332C27.9137 83.1421 28.6478 82.6654 29.563 82.3032V79.4718C29.0386 79.529 28.5238 79.5719 28.0186 79.6005C27.5133 79.6195 27.0366 79.6195 26.5886 79.6005L26.5171 78.6853C26.9175 78.7234 27.3846 78.7329 27.9185 78.7139C28.4523 78.6948 29.0005 78.6567 29.563 78.5995V75.8825H30.4353V78.4851C30.9501 78.4088 31.441 78.323 31.9082 78.2277C32.3753 78.1228 32.7709 78.0084 33.0951 77.8845L33.2095 78.7568C32.8377 78.8807 32.4134 78.9951 31.9368 79.1C31.4601 79.2048 30.9596 79.2954 30.4353 79.3717V82.0172C30.8357 81.9028 31.2599 81.817 31.708 81.7598C32.156 81.693 32.6184 81.6597 33.0951 81.6597C33.9054 81.6597 34.6109 81.7788 35.2115 82.0172C35.8216 82.246 36.2935 82.5653 36.6272 82.9753C36.9704 83.3852 37.142 83.8571 37.142 84.391C37.142 84.9439 37.018 85.4158 36.7702 85.8067C36.5223 86.188 36.1839 86.474 35.7549 86.6647C35.3354 86.8553 34.8492 86.9459 34.2963 86.9364C32.9139 86.9173 32.0035 86.1975 31.565 84.7771C31.6222 84.758 31.708 84.7294 31.8224 84.6913C31.9463 84.6436 32.0655 84.5959 32.1799 84.5483C32.3038 84.4911 32.3848 84.4482 32.423 84.4196C32.566 84.9439 32.7805 85.3443 33.0665 85.6208C33.362 85.8877 33.7719 86.0259 34.2963 86.0355C34.8587 86.045 35.3163 85.9068 35.6691 85.6208C36.0218 85.3252 36.1982 84.9153 36.1982 84.391C36.1982 83.9906 36.0647 83.6474 35.7978 83.3614C35.5308 83.0754 35.1638 82.8561 34.6967 82.7036C34.2295 82.5415 33.6957 82.4652 33.0951 82.4748C32.6089 82.4748 32.1417 82.5081 31.6937 82.5749C31.2456 82.6416 30.8261 82.7369 30.4353 82.8609V86.6504C30.4353 86.8601 30.3876 87.0079 30.2923 87.0937C30.2065 87.189 30.0682 87.2462 29.8776 87.2653ZM29.2198 86.4645C29.3532 86.4549 29.4438 86.4311 29.4915 86.393C29.5391 86.3548 29.563 86.2881 29.563 86.1928V83.1898C28.9147 83.4853 28.3999 83.8476 28.0186 84.2766C27.6372 84.696 27.4466 85.1298 27.4466 85.5779C27.4466 85.9211 27.6182 86.1642 27.9614 86.3072C28.3046 86.4406 28.724 86.4931 29.2198 86.4645ZM37.2564 80.7731C37.0371 80.5443 36.7416 80.3012 36.3698 80.0438C35.998 79.7864 35.6071 79.5433 35.1972 79.3145C34.7872 79.0761 34.4107 78.8902 34.0675 78.7568L34.5823 78.0418C34.8111 78.1371 35.0685 78.2658 35.3545 78.4279C35.65 78.5804 35.9503 78.752 36.2554 78.9427C36.57 79.1333 36.8607 79.324 37.1277 79.5147C37.4041 79.6958 37.6329 79.8626 37.8141 80.0152C37.7855 80.0438 37.7283 80.1153 37.6425 80.2297C37.5567 80.3441 37.4756 80.4585 37.3994 80.5729C37.3231 80.6777 37.2754 80.7445 37.2564 80.7731ZM50.8414 88.0375C50.8318 87.904 50.8032 87.7467 50.7556 87.5656C50.7174 87.394 50.6745 87.2605 50.6269 87.1652H51.7423C52.1141 87.1652 52.3 86.9983 52.3 86.6647V80.1439H48.1673V75.6108H53.2009V86.8649C53.2009 87.2462 53.096 87.537 52.8863 87.7372C52.6861 87.9374 52.3619 88.0375 51.9139 88.0375H50.8414ZM41.6036 88.0661V75.6108H46.6229V80.1439H42.4902V88.0661H41.6036ZM44.9355 85.6351V81.6454H49.8261V85.6351H44.9355ZM45.8221 84.8629H48.9252V82.4176H45.8221V84.8629ZM42.4902 79.4146H45.7506V78.2134H42.4902V79.4146ZM49.0396 79.4146H52.3V78.2134H49.0396V79.4146ZM42.4902 77.5127H45.7506V76.3401H42.4902V77.5127ZM49.0396 77.5127H52.3V76.3401H49.0396V77.5127ZM61.5807 85.3634C61.3614 85.4968 61.1278 85.5826 60.88 85.6208C60.6416 85.6589 60.4033 85.616 60.165 85.4921C59.9362 85.3681 59.7169 85.1298 59.5072 84.7771C59.2402 84.329 58.9971 83.8142 58.7779 83.2327C58.5681 82.6511 58.387 82.0458 58.2345 81.4166C58.0819 80.7778 57.9675 80.1439 57.8913 79.5147C57.815 78.8759 57.7816 78.2753 57.7912 77.7129L58.7064 77.7272C58.6873 78.3945 58.735 79.119 58.8494 79.9008C58.9638 80.6825 59.1354 81.4404 59.3642 82.1745C59.593 82.9085 59.8647 83.5473 60.1793 84.0907C60.3604 84.3862 60.5415 84.553 60.7227 84.5912C60.9133 84.6198 61.0945 84.5721 61.2661 84.4482C61.5139 84.2766 61.7761 84.043 62.0526 83.7475C62.329 83.4424 62.5292 83.1659 62.6532 82.9181C62.7199 83.042 62.8057 83.1802 62.9106 83.3328C63.025 83.4853 63.1298 83.6045 63.2252 83.6903C63.1108 83.8714 62.9582 84.0716 62.7676 84.2909C62.5769 84.5101 62.3767 84.7151 62.167 84.9058C61.9668 85.0964 61.7713 85.249 61.5807 85.3634ZM67.4437 82.8609C67.3579 82.613 67.2196 82.2984 67.029 81.9171C66.8478 81.5357 66.6381 81.1353 66.3998 80.7159C66.171 80.2964 65.9326 79.9008 65.6848 79.529C65.4464 79.1476 65.2319 78.8426 65.0413 78.6138L65.7992 78.1419C65.9994 78.3897 66.2234 78.7091 66.4713 79.1C66.7287 79.4813 66.9813 79.8912 67.2292 80.3298C67.4866 80.7588 67.7106 81.1687 67.9013 81.5596C68.1015 81.9409 68.2492 82.2555 68.3446 82.5034C68.192 82.532 68.03 82.5796 67.8584 82.6464C67.6868 82.7131 67.5485 82.7846 67.4437 82.8609ZM74.6652 87.823V82.7465H82.473V87.823H74.6652ZM75.5947 86.9793H81.5435V83.6045H75.5947V86.9793ZM72.2199 81.388C72.2008 81.3308 72.1531 81.2497 72.0769 81.1449C72.0006 81.0305 71.9243 80.9256 71.8481 80.8303C71.7718 80.7254 71.7146 80.6539 71.6765 80.6158C72.3057 80.3584 72.9396 80.0295 73.5784 79.6291C74.2171 79.2191 74.832 78.7615 75.4231 78.2563C76.0141 77.751 76.548 77.2219 77.0247 76.669C77.5013 76.1065 77.8874 75.5488 78.183 74.9959L78.9838 75.1103C79.4032 75.8062 79.9419 76.4926 80.5997 77.1695C81.2575 77.8463 81.9963 78.466 82.8162 79.0285C83.6456 79.5814 84.5179 80.039 85.4331 80.4013C85.4045 80.4394 85.352 80.5204 85.2758 80.6444C85.1995 80.7588 85.1232 80.8779 85.047 81.0019C84.9802 81.1163 84.9326 81.2021 84.904 81.2593C84.0555 80.8684 83.2356 80.406 82.4444 79.8722C81.6531 79.3383 80.9238 78.7425 80.2565 78.0847C79.5987 77.4269 79.0362 76.7262 78.5691 75.9826C78.2354 76.5164 77.8255 77.0503 77.3393 77.5842C76.8626 78.1085 76.3383 78.609 75.7663 79.0857C75.2038 79.5623 74.6175 79.9961 74.0074 80.387C73.4068 80.7778 72.8109 81.1115 72.2199 81.388ZM74.9512 80.9876V80.1296H82.1727V80.9876H74.9512ZM91.6107 87.5227V82.8466C91.1531 83.247 90.7193 83.6569 90.3094 84.0764C89.909 84.4958 89.5419 84.8962 89.2083 85.2776L88.4933 84.6484C88.9699 84.2098 89.4704 83.7427 89.9948 83.247C90.5191 82.7512 91.0577 82.2746 91.6107 81.817V79.4861C91.1531 79.5814 90.6812 79.672 90.195 79.7578C89.7088 79.8436 89.3227 79.9055 89.0367 79.9437L88.8508 79.0714C89.0224 79.0618 89.2607 79.038 89.5658 78.9999C89.8804 78.9617 90.2188 78.9093 90.5811 78.8426C90.9433 78.7758 91.2865 78.7091 91.6107 78.6424V75.8539H92.483V78.4422C92.5306 78.4231 92.5688 78.4088 92.5974 78.3993C92.626 78.3897 92.6546 78.3802 92.6832 78.3707L93.2695 78.7711L92.483 80.8303V81.1449C93.1312 80.6777 93.7795 80.2964 94.4278 80.0009C95.0856 79.6958 95.7338 79.5433 96.3726 79.5433C97.0113 79.5433 97.5881 79.6624 98.1029 79.9008C98.6177 80.1296 99.0228 80.4823 99.3184 80.959C99.6234 81.4261 99.776 82.0172 99.776 82.7322C99.776 83.7141 99.4042 84.5626 98.6606 85.2776C97.9265 85.983 96.8588 86.4835 95.4574 86.7791C95.4192 86.6551 95.3525 86.5026 95.2572 86.3215C95.1618 86.1403 95.0713 86.0021 94.9855 85.9068C95.7481 85.7828 96.4202 85.5731 97.0018 85.2776C97.5833 84.982 98.0361 84.6198 98.3603 84.1908C98.6939 83.7618 98.8608 83.2756 98.8608 82.7322C98.8608 81.8837 98.6272 81.2783 98.1601 80.9161C97.6929 80.5538 97.0971 80.3727 96.3726 80.3727C95.772 80.3727 95.1332 80.5395 94.4564 80.8732C93.789 81.2068 93.1312 81.6263 92.483 82.1316V87.5227H91.6107ZM110.058 86.8935C109.295 86.8935 108.685 86.8267 108.227 86.6933C107.779 86.5598 107.46 86.331 107.269 86.0069C107.079 85.6827 106.983 85.2347 106.983 84.6627V80.7731C106.306 80.8398 105.682 80.9161 105.11 81.0019C104.538 81.0781 104.061 81.1592 103.68 81.245L103.537 80.3155C103.956 80.2487 104.462 80.182 105.053 80.1153C105.644 80.0485 106.287 79.9818 106.983 79.9151V76.669H107.87V79.8293C108.48 79.7816 109.1 79.7339 109.729 79.6863C110.358 79.6291 110.973 79.5814 111.573 79.5433V76.2257H112.474V79.4861C113.123 79.4479 113.718 79.4193 114.262 79.4003C114.815 79.3812 115.282 79.3764 115.663 79.386V80.3155C114.843 80.2869 113.78 80.3012 112.474 80.3584V81.4166C112.474 81.8456 112.393 82.2031 112.231 82.4891C112.079 82.7655 111.817 82.98 111.445 83.1326C111.073 83.2851 110.563 83.39 109.915 83.4472C109.886 83.3042 109.843 83.1516 109.786 82.9896C109.729 82.818 109.662 82.6845 109.586 82.5892C110.377 82.5701 110.906 82.47 111.173 82.2889C111.44 82.1077 111.573 81.817 111.573 81.4166V80.4013C110.973 80.4394 110.353 80.4823 109.714 80.53C109.085 80.5776 108.47 80.6301 107.87 80.6873V84.5912C107.87 84.982 107.937 85.2823 108.07 85.4921C108.203 85.6923 108.427 85.8305 108.742 85.9068C109.066 85.9735 109.51 86.0069 110.072 86.0069C110.387 86.0069 110.758 85.9926 111.187 85.964C111.626 85.9354 112.074 85.8925 112.532 85.8353C112.999 85.7685 113.423 85.6923 113.804 85.6065C113.757 85.7399 113.714 85.9115 113.676 86.1213C113.647 86.331 113.633 86.4883 113.633 86.5932C113.051 86.6885 112.431 86.7648 111.774 86.822C111.116 86.8696 110.544 86.8935 110.058 86.8935Z" fill="white"/>
<path d="M29.8776 87.2653L29.8711 87.2006L29.8694 87.2008L29.8776 87.2653ZM28.2188 87.2367L28.2308 87.1728L28.2296 87.1726L28.2188 87.2367ZM27.0033 86.7076L26.9596 86.7558L26.9605 86.7565L27.0033 86.7076ZM27.3608 83.7332L27.3133 83.6888L27.3133 83.6888L27.3608 83.7332ZM29.563 82.3032L29.5869 82.3636L29.628 82.3474V82.3032H29.563ZM29.563 79.4718H29.628V79.3993L29.5559 79.4072L29.563 79.4718ZM28.0186 79.6005L28.021 79.6654L28.0222 79.6654L28.0186 79.6005ZM26.5886 79.6005L26.5238 79.6055L26.5282 79.663L26.5858 79.6654L26.5886 79.6005ZM26.5171 78.6853L26.5232 78.6206L26.4462 78.6132L26.4523 78.6903L26.5171 78.6853ZM27.9185 78.7139L27.9208 78.7788L27.9185 78.7139ZM29.563 78.5995L29.5695 78.6641L29.628 78.6582V78.5995H29.563ZM29.563 75.8825V75.8175H29.498V75.8825H29.563ZM30.4353 75.8825H30.5003V75.8175H30.4353V75.8825ZM30.4353 78.4851H30.3703V78.5604L30.4448 78.5494L30.4353 78.4851ZM31.9082 78.2277L31.9212 78.2914L31.9224 78.2911L31.9082 78.2277ZM33.0951 77.8845L33.1595 77.876L33.1488 77.7943L33.0719 77.8238L33.0951 77.8845ZM33.2095 78.7568L33.23 78.8184L33.2809 78.8015L33.2739 78.7483L33.2095 78.7568ZM31.9368 79.1L31.9228 79.0365L31.9368 79.1ZM30.4353 79.3717L30.4259 79.3074L30.3703 79.3155V79.3717H30.4353ZM30.4353 82.0172H30.3703V82.1034L30.4531 82.0797L30.4353 82.0172ZM31.708 81.7598L31.7162 81.8243L31.7175 81.8241L31.708 81.7598ZM35.2115 82.0172L35.1875 82.0776L35.1886 82.078L35.2115 82.0172ZM36.6272 82.9753L36.5767 83.0163L36.5773 83.017L36.6272 82.9753ZM36.7702 85.8067L36.8247 85.8421L36.8251 85.8415L36.7702 85.8067ZM35.7549 86.6647L35.7285 86.6053L35.728 86.6055L35.7549 86.6647ZM34.2963 86.9364L34.2974 86.8714L34.2972 86.8714L34.2963 86.9364ZM31.565 84.7771L31.5444 84.7154L31.4841 84.7355L31.5029 84.7963L31.565 84.7771ZM31.8224 84.6913L31.8429 84.753L31.8457 84.7519L31.8224 84.6913ZM32.1799 84.5483L32.2049 84.6083L32.2071 84.6073L32.1799 84.5483ZM32.423 84.4196L32.4857 84.4025L32.4605 84.3102L32.384 84.3676L32.423 84.4196ZM33.0665 85.6208L33.0213 85.6675L33.0229 85.669L33.0665 85.6208ZM34.2963 86.0355L34.2951 86.1005L34.2952 86.1005L34.2963 86.0355ZM35.6691 85.6208L35.71 85.6713L35.7108 85.6706L35.6691 85.6208ZM35.7978 83.3614L35.8453 83.317L35.7978 83.3614ZM34.6967 82.7036L34.6754 82.765L34.6765 82.7654L34.6967 82.7036ZM33.0951 82.4748V82.5398L33.0961 82.5398L33.0951 82.4748ZM31.6937 82.5749L31.6841 82.5106H31.6841L31.6937 82.5749ZM30.4353 82.8609L30.4156 82.7989L30.3703 82.8133V82.8609H30.4353ZM30.2923 87.0937L30.2485 87.0451L30.2439 87.0502L30.2923 87.0937ZM29.2198 86.4645L29.2235 86.5294L29.2244 86.5293L29.2198 86.4645ZM29.4915 86.393L29.4509 86.3422L29.4915 86.393ZM29.563 83.1898H29.628V83.0887L29.536 83.1306L29.563 83.1898ZM28.0186 84.2766L28.0667 84.3203L28.0671 84.3198L28.0186 84.2766ZM27.9614 86.3072L27.9364 86.3672L27.9378 86.3678L27.9614 86.3072ZM37.2564 80.7731L37.2094 80.8181L37.2655 80.8766L37.3104 80.8091L37.2564 80.7731ZM36.3698 80.0438L36.3328 80.0972L36.3698 80.0438ZM35.1972 79.3145L35.1645 79.3707L35.1655 79.3712L35.1972 79.3145ZM34.0675 78.7568L34.0147 78.7188L33.9657 78.7869L34.0439 78.8174L34.0675 78.7568ZM34.5823 78.0418L34.6073 77.9818L34.5597 77.9619L34.5295 78.0038L34.5823 78.0418ZM35.3545 78.4279L35.3224 78.4845L35.3247 78.4856L35.3545 78.4279ZM36.2554 78.9427L36.2209 78.9978L36.2217 78.9983L36.2554 78.9427ZM37.1277 79.5147L37.0899 79.5676L37.092 79.5691L37.1277 79.5147ZM37.8141 80.0152L37.86 80.0611L37.9101 80.0111L37.8559 79.9655L37.8141 80.0152ZM37.3994 80.5729L37.452 80.6111L37.4534 80.6089L37.3994 80.5729ZM29.8776 87.2653L29.8694 87.2008C29.2743 87.2764 28.7283 87.2667 28.2308 87.1728L28.2188 87.2367L28.2067 87.3006C28.7197 87.3973 29.2796 87.4067 29.8858 87.3298L29.8776 87.2653ZM28.2188 87.2367L28.2296 87.1726C27.7331 87.0883 27.34 86.9159 27.0461 86.6587L27.0033 86.7076L26.9605 86.7565C27.2767 87.0332 27.6939 87.2135 28.2079 87.3008L28.2188 87.2367ZM27.0033 86.7076L27.0469 86.6594C26.757 86.3967 26.6107 86.048 26.6107 85.6065H26.5457H26.4807C26.4807 86.0802 26.6394 86.4655 26.9596 86.7557L27.0033 86.7076ZM26.5457 85.6065H26.6107C26.6107 84.9587 26.8738 84.3495 27.4083 83.7776L27.3608 83.7332L27.3133 83.6888C26.7609 84.2799 26.4807 84.9196 26.4807 85.6065H26.5457ZM27.3608 83.7332L27.4082 83.7776C27.9533 83.1949 28.6787 82.7231 29.5869 82.3636L29.563 82.3032L29.539 82.2427C28.6168 82.6078 27.8741 83.0893 27.3133 83.6888L27.3608 83.7332ZM29.563 82.3032H29.628V79.4718H29.563H29.498V82.3032H29.563ZM29.563 79.4718L29.5559 79.4072C29.0327 79.4642 28.519 79.5071 28.0149 79.5356L28.0186 79.6005L28.0222 79.6654C28.5287 79.6367 29.0446 79.5937 29.57 79.5364L29.563 79.4718ZM28.0186 79.6005L28.0161 79.5355C27.5124 79.5545 27.0375 79.5545 26.5913 79.5355L26.5886 79.6005L26.5858 79.6654C27.0358 79.6846 27.5142 79.6846 28.021 79.6654L28.0186 79.6005ZM26.5886 79.6005L26.6534 79.5954L26.5819 78.6802L26.5171 78.6853L26.4523 78.6903L26.5238 79.6055L26.5886 79.6005ZM26.5171 78.6853L26.5109 78.75C26.9149 78.7885 27.3849 78.798 27.9208 78.7788L27.9185 78.7139L27.9161 78.6489C27.3843 78.6679 26.9201 78.6584 26.5232 78.6206L26.5171 78.6853ZM27.9185 78.7139L27.9208 78.7788C28.4562 78.7597 29.0057 78.7215 29.5695 78.6641L29.563 78.5995L29.5564 78.5348C28.9953 78.5919 28.4485 78.6299 27.9161 78.6489L27.9185 78.7139ZM29.563 78.5995H29.628V75.8825H29.563H29.498V78.5995H29.563ZM29.563 75.8825V75.9475H30.4353V75.8825V75.8175H29.563V75.8825ZM30.4353 75.8825H30.3703V78.4851H30.4353H30.5003V75.8825H30.4353ZM30.4353 78.4851L30.4448 78.5494C30.9606 78.473 31.4528 78.387 31.9212 78.2914L31.9082 78.2277L31.8952 78.164C31.4293 78.2591 30.9395 78.3447 30.4257 78.4208L30.4353 78.4851ZM31.9082 78.2277L31.9224 78.2911C32.3915 78.1858 32.7904 78.0706 33.1183 77.9452L33.0951 77.8845L33.0719 77.8238C32.7515 77.9463 32.3591 78.0598 31.8939 78.1643L31.9082 78.2277ZM33.0951 77.8845L33.0306 77.8929L33.145 78.7652L33.2095 78.7568L33.2739 78.7483L33.1595 77.876L33.0951 77.8845ZM33.2095 78.7568L33.1889 78.6951C32.8197 78.8182 32.3978 78.932 31.9228 79.0365L31.9368 79.1L31.9507 79.1635C32.4291 79.0582 32.8556 78.9432 33.23 78.8184L33.2095 78.7568ZM31.9368 79.1L31.9228 79.0365C31.4478 79.141 30.9488 79.2313 30.4259 79.3074L30.4353 79.3717L30.4446 79.436C30.9704 79.3595 31.4724 79.2687 31.9507 79.1635L31.9368 79.1ZM30.4353 79.3717H30.3703V82.0172H30.4353H30.5003V79.3717H30.4353ZM30.4353 82.0172L30.4531 82.0797C30.8501 81.9663 31.2711 81.8811 31.7162 81.8243L31.708 81.7598L31.6997 81.6953C31.2487 81.7529 30.8212 81.8393 30.4174 81.9547L30.4353 82.0172ZM31.708 81.7598L31.7175 81.8241C32.1623 81.7578 32.6214 81.7247 33.0951 81.7247V81.6597V81.5947C32.6154 81.5947 32.1498 81.6283 31.6984 81.6955L31.708 81.7598ZM33.0951 81.6597V81.7247C33.8992 81.7247 34.5962 81.843 35.1875 82.0776L35.2115 82.0172L35.2354 81.9568C34.6255 81.7147 33.9116 81.5947 33.0951 81.5947V81.6597ZM35.2115 82.0172L35.1886 82.078C35.7905 82.3037 36.2519 82.6172 36.5768 83.0163L36.6272 82.9753L36.6776 82.9342C36.3351 82.5135 35.8527 82.1882 35.2343 81.9563L35.2115 82.0172ZM36.6272 82.9753L36.5773 83.017C36.9107 83.4153 37.077 83.8724 37.077 84.391H37.142H37.207C37.207 83.8418 37.03 83.3552 36.677 82.9336L36.6272 82.9753ZM37.142 84.391H37.077C37.077 84.934 36.9553 85.3933 36.7153 85.7719L36.7702 85.8067L36.8251 85.8415C37.0807 85.4383 37.207 84.9538 37.207 84.391H37.142ZM36.7702 85.8067L36.7157 85.7713C36.4749 86.1417 36.1464 86.4195 35.7285 86.6053L35.7549 86.6647L35.7813 86.7241C36.2214 86.5285 36.5697 86.2343 36.8247 85.8421L36.7702 85.8067ZM35.7549 86.6647L35.728 86.6055C35.3189 86.7915 34.8426 86.8808 34.2974 86.8714L34.2963 86.9364L34.2951 87.0014C34.8558 87.011 35.3519 86.9192 35.7818 86.7239L35.7549 86.6647ZM34.2963 86.9364L34.2972 86.8714C33.6175 86.862 33.0589 86.6807 32.617 86.3313C32.1747 85.9816 31.8435 85.4591 31.6271 84.7579L31.565 84.7771L31.5029 84.7963C31.7249 85.5155 32.0683 86.0632 32.5364 86.4332C33.0049 86.8036 33.5927 86.9917 34.2954 87.0014L34.2963 86.9364ZM31.565 84.7771L31.5855 84.8387C31.6427 84.8197 31.7285 84.7911 31.8429 84.7529L31.8224 84.6913L31.8018 84.6296C31.6874 84.6677 31.6016 84.6964 31.5444 84.7154L31.565 84.7771ZM31.8224 84.6913L31.8457 84.7519C31.9702 84.7041 32.0899 84.6562 32.2049 84.6083L32.1799 84.5483L32.1549 84.4883C32.0411 84.5357 31.9224 84.5831 31.799 84.6306L31.8224 84.6913ZM32.1799 84.5483L32.2071 84.6073C32.3302 84.5505 32.4175 84.505 32.462 84.4716L32.423 84.4196L32.384 84.3676C32.3522 84.3914 32.2774 84.4317 32.1526 84.4893L32.1799 84.5483ZM32.423 84.4196L32.3603 84.4367C32.5052 84.9683 32.7244 85.3805 33.0213 85.6675L33.0665 85.6208L33.1116 85.574C32.8366 85.3081 32.6267 84.9195 32.4857 84.4025L32.423 84.4196ZM33.0665 85.6208L33.0229 85.669C33.3333 85.9494 33.7601 86.0907 34.2951 86.1005L34.2963 86.0355L34.2974 85.9705C33.7837 85.9612 33.3907 85.826 33.11 85.5725L33.0665 85.6208ZM34.2963 86.0355L34.2952 86.1005C34.8691 86.1102 35.3428 85.969 35.71 85.6713L35.6691 85.6208L35.6281 85.5703C35.2899 85.8445 34.8483 85.9798 34.2974 85.9705L34.2963 86.0355ZM35.6691 85.6208L35.7108 85.6706C36.0804 85.3609 36.2632 84.9315 36.2632 84.391H36.1982H36.1332C36.1332 84.8991 35.9632 85.2896 35.6273 85.571L35.6691 85.6208ZM36.1982 84.391H36.2632C36.2632 83.9745 36.1237 83.6154 35.8453 83.317L35.7978 83.3614L35.7502 83.4057C36.0057 83.6794 36.1332 84.0066 36.1332 84.391H36.1982ZM35.7978 83.3614L35.8453 83.317C35.5692 83.0212 35.1918 82.7969 34.7168 82.6418L34.6967 82.7036L34.6765 82.7654C35.1358 82.9154 35.4925 83.1296 35.7502 83.4057L35.7978 83.3614ZM34.6967 82.7036L34.718 82.6422C34.2423 82.4771 33.7006 82.4002 33.094 82.4098L33.0951 82.4748L33.0961 82.5398C33.6907 82.5303 34.2168 82.6059 34.6754 82.765L34.6967 82.7036ZM33.0951 82.4748V82.4098C32.6059 82.4098 32.1355 82.4434 31.6841 82.5106L31.6937 82.5749L31.7032 82.6392C32.1479 82.5729 32.6118 82.5398 33.0951 82.5398V82.4748ZM31.6937 82.5749L31.6841 82.5106C31.233 82.5778 30.8101 82.6738 30.4156 82.7989L30.4353 82.8609L30.4549 82.9228C30.8422 82.8001 31.2582 82.7054 31.7032 82.6392L31.6937 82.5749ZM30.4353 82.8609H30.3703V86.6504H30.4353H30.5003V82.8609H30.4353ZM30.4353 86.6504H30.3703C30.3703 86.853 30.3238 86.9779 30.2488 87.0454L30.2923 87.0937L30.3357 87.142C30.4514 87.0379 30.5003 86.8672 30.5003 86.6504H30.4353ZM30.2923 87.0937L30.2439 87.0502C30.1733 87.1287 30.0534 87.1824 29.8711 87.2006L29.8776 87.2653L29.884 87.33C30.083 87.3101 30.2397 87.2493 30.3406 87.1372L30.2923 87.0937ZM29.2198 86.4645L29.2244 86.5293C29.2936 86.5244 29.3539 86.5156 29.4043 86.5023C29.4542 86.4892 29.4984 86.4707 29.5321 86.4437L29.4915 86.393L29.4509 86.3422C29.4369 86.3534 29.412 86.3659 29.3712 86.3766C29.3311 86.3872 29.2794 86.3951 29.2151 86.3996L29.2198 86.4645ZM29.4915 86.393L29.5321 86.4437C29.6022 86.3877 29.628 86.2967 29.628 86.1928H29.563H29.498C29.498 86.2795 29.4761 86.322 29.4509 86.3422L29.4915 86.393ZM29.563 86.1928H29.628V83.1898H29.563H29.498V86.1928H29.563ZM29.563 83.1898L29.536 83.1306C28.8814 83.429 28.3586 83.7962 27.97 84.2334L28.0186 84.2766L28.0671 84.3198C28.4412 83.899 28.948 83.5416 29.5899 83.2489L29.563 83.1898ZM28.0186 84.2766L27.9705 84.2329C27.5812 84.661 27.3816 85.1097 27.3816 85.5779H27.4466H27.5116C27.5116 85.1499 27.6932 84.7311 28.0667 84.3203L28.0186 84.2766ZM27.4466 85.5779H27.3816C27.3816 85.7608 27.4275 85.921 27.5222 86.0551C27.6166 86.1889 27.7563 86.2921 27.9364 86.3672L27.9614 86.3072L27.9864 86.2472C27.8233 86.1792 27.7055 86.0894 27.6284 85.9801C27.5515 85.8712 27.5116 85.7382 27.5116 85.5779H27.4466ZM27.9614 86.3072L27.9378 86.3678C28.2922 86.5056 28.7215 86.5583 29.2235 86.5294L29.2198 86.4645L29.216 86.3996C28.7265 86.4278 28.317 86.3757 27.9849 86.2466L27.9614 86.3072ZM37.2564 80.7731L37.3033 80.7281C37.08 80.4951 36.7808 80.2493 36.4068 79.9903L36.3698 80.0438L36.3328 80.0972C36.7024 80.3531 36.9942 80.5934 37.2094 80.8181L37.2564 80.7731ZM36.3698 80.0438L36.4068 79.9903C36.0332 79.7317 35.6405 79.4875 35.2288 79.2577L35.1972 79.3145L35.1655 79.3712C35.5737 79.5991 35.9627 79.8411 36.3328 80.0972L36.3698 80.0438ZM35.1972 79.3145L35.2298 79.2583C34.8178 79.0187 34.4381 78.8312 34.091 78.6962L34.0675 78.7568L34.0439 78.8174C34.3832 78.9493 34.7567 79.1336 35.1645 79.3707L35.1972 79.3145ZM34.0675 78.7568L34.1202 78.7948L34.635 78.0798L34.5823 78.0418L34.5295 78.0038L34.0147 78.7188L34.0675 78.7568ZM34.5823 78.0418L34.5573 78.1018C34.783 78.1958 35.038 78.3233 35.3224 78.4844L35.3545 78.4279L35.3865 78.3713C35.0989 78.2084 34.8391 78.0784 34.6073 77.9818L34.5823 78.0418ZM35.3545 78.4279L35.3247 78.4856C35.6185 78.6373 35.9172 78.808 36.2209 78.9978L36.2554 78.9427L36.2898 78.8876C35.9834 78.696 35.6815 78.5235 35.3843 78.3701L35.3545 78.4279ZM36.2554 78.9427L36.2217 78.9983C36.535 79.1882 36.8244 79.378 37.0899 79.5676L37.1277 79.5147L37.1654 79.4618C36.897 79.2701 36.6049 79.0785 36.2891 78.8871L36.2554 78.9427ZM37.1277 79.5147L37.092 79.5691C37.3671 79.7493 37.5937 79.9145 37.7722 80.0649L37.8141 80.0152L37.8559 79.9655C37.6722 79.8107 37.4411 79.6424 37.1633 79.4603L37.1277 79.5147ZM37.8141 80.0152L37.7681 79.9692C37.7356 80.0018 37.6755 80.0773 37.5905 80.1907L37.6425 80.2297L37.6945 80.2687C37.7811 80.1532 37.8354 80.0858 37.86 80.0611L37.8141 80.0152ZM37.6425 80.2297L37.5905 80.1907C37.504 80.306 37.4222 80.4214 37.3453 80.5368L37.3994 80.5729L37.4534 80.6089C37.529 80.4956 37.6094 80.3822 37.6945 80.2687L37.6425 80.2297ZM37.3994 80.5729L37.3468 80.5346C37.2708 80.6392 37.2222 80.7071 37.2023 80.737L37.2564 80.7731L37.3104 80.8091C37.3286 80.7819 37.3754 80.7163 37.4519 80.6111L37.3994 80.5729ZM50.8414 88.0375L50.7765 88.0421L50.7808 88.1025H50.8414V88.0375ZM50.7556 87.5656L50.6921 87.5797L50.6927 87.5821L50.7556 87.5656ZM50.6269 87.1652V87.1002H50.5217L50.5687 87.1943L50.6269 87.1652ZM52.3 80.1439H52.365V80.0789H52.3V80.1439ZM48.1673 80.1439H48.1023V80.2089H48.1673V80.1439ZM48.1673 75.6108V75.5458H48.1023V75.6108H48.1673ZM53.2009 75.6108H53.2659V75.5458H53.2009V75.6108ZM52.8863 87.7372L52.8414 87.6902L52.8403 87.6912L52.8863 87.7372ZM41.6036 88.0661H41.5386V88.1311H41.6036V88.0661ZM41.6036 75.6108V75.5458H41.5386V75.6108H41.6036ZM46.6229 75.6108H46.6879V75.5458H46.6229V75.6108ZM46.6229 80.1439V80.2089H46.6879V80.1439H46.6229ZM42.4902 80.1439V80.0789H42.4252V80.1439H42.4902ZM42.4902 88.0661V88.1311H42.5552V88.0661H42.4902ZM44.9355 85.6351H44.8705V85.7001H44.9355V85.6351ZM44.9355 81.6454V81.5804H44.8705V81.6454H44.9355ZM49.8261 81.6454H49.8911V81.5804H49.8261V81.6454ZM49.8261 85.6351V85.7001H49.8911V85.6351H49.8261ZM45.8221 84.8629H45.7571V84.9279H45.8221V84.8629ZM48.9252 84.8629V84.9279H48.9902V84.8629H48.9252ZM48.9252 82.4176H48.9902V82.3526H48.9252V82.4176ZM45.8221 82.4176V82.3526H45.7571V82.4176H45.8221ZM42.4902 79.4146H42.4252V79.4796H42.4902V79.4146ZM45.7506 79.4146V79.4796H45.8156V79.4146H45.7506ZM45.7506 78.2134H45.8156V78.1484H45.7506V78.2134ZM42.4902 78.2134V78.1484H42.4252V78.2134H42.4902ZM49.0396 79.4146H48.9746V79.4796H49.0396V79.4146ZM52.3 79.4146V79.4796H52.365V79.4146H52.3ZM52.3 78.2134H52.365V78.1484H52.3V78.2134ZM49.0396 78.2134V78.1484H48.9746V78.2134H49.0396ZM42.4902 77.5127H42.4252V77.5777H42.4902V77.5127ZM45.7506 77.5127V77.5777H45.8156V77.5127H45.7506ZM45.7506 76.3401H45.8156V76.2751H45.7506V76.3401ZM42.4902 76.3401V76.2751H42.4252V76.3401H42.4902ZM49.0396 77.5127H48.9746V77.5777H49.0396V77.5127ZM52.3 77.5127V77.5777H52.365V77.5127H52.3ZM52.3 76.3401H52.365V76.2751H52.3V76.3401ZM49.0396 76.3401V76.2751H48.9746V76.3401H49.0396ZM50.8414 88.0375L50.9062 88.0329C50.8963 87.8941 50.8667 87.7327 50.8184 87.549L50.7556 87.5656L50.6927 87.5821C50.7397 87.7608 50.7674 87.9139 50.7765 88.0421L50.8414 88.0375ZM50.7556 87.5656L50.819 87.5515C50.7804 87.3776 50.7361 87.2383 50.685 87.1361L50.6269 87.1652L50.5687 87.1943C50.613 87.2828 50.6545 87.4104 50.6921 87.5797L50.7556 87.5656ZM50.6269 87.1652V87.2302H51.7423V87.1652V87.1002H50.6269V87.1652ZM51.7423 87.1652V87.2302C51.9366 87.2302 52.0944 87.1867 52.204 87.0884C52.3148 86.9889 52.365 86.8435 52.365 86.6647H52.3H52.235C52.235 86.8196 52.1921 86.9244 52.1171 86.9917C52.0408 87.0602 51.9198 87.1002 51.7423 87.1002V87.1652ZM52.3 86.6647H52.365V80.1439H52.3H52.235V86.6647H52.3ZM52.3 80.1439V80.0789H48.1673V80.1439V80.2089H52.3V80.1439ZM48.1673 80.1439H48.2323V75.6108H48.1673H48.1023V80.1439H48.1673ZM48.1673 75.6108V75.6758H53.2009V75.6108V75.5458H48.1673V75.6108ZM53.2009 75.6108H53.1359V86.8649H53.2009H53.2659V75.6108H53.2009ZM53.2009 86.8649H53.1359C53.1359 87.2343 53.0346 87.5058 52.8414 87.6902L52.8863 87.7372L52.9311 87.7842C53.1574 87.5682 53.2659 87.2581 53.2659 86.8649H53.2009ZM52.8863 87.7372L52.8403 87.6912C52.6578 87.8738 52.3544 87.9725 51.9139 87.9725V88.0375V88.1025C52.3695 88.1025 52.7144 88.001 52.9322 87.7831L52.8863 87.7372ZM51.9139 88.0375V87.9725H50.8414V88.0375V88.1025H51.9139V88.0375ZM41.6036 88.0661H41.6686V75.6108H41.6036H41.5386V88.0661H41.6036ZM41.6036 75.6108V75.6758H46.6229V75.6108V75.5458H41.6036V75.6108ZM46.6229 75.6108H46.5579V80.1439H46.6229H46.6879V75.6108H46.6229ZM46.6229 80.1439V80.0789H42.4902V80.1439V80.2089H46.6229V80.1439ZM42.4902 80.1439H42.4252V88.0661H42.4902H42.5552V80.1439H42.4902ZM42.4902 88.0661V88.0011H41.6036V88.0661V88.1311H42.4902V88.0661ZM44.9355 85.6351H45.0005V81.6454H44.9355H44.8705V85.6351H44.9355ZM44.9355 81.6454V81.7104H49.8261V81.6454V81.5804H44.9355V81.6454ZM49.8261 81.6454H49.7611V85.6351H49.8261H49.8911V81.6454H49.8261ZM49.8261 85.6351V85.5701H44.9355V85.6351V85.7001H49.8261V85.6351ZM45.8221 84.8629V84.9279H48.9252V84.8629V84.7979H45.8221V84.8629ZM48.9252 84.8629H48.9902V82.4176H48.9252H48.8602V84.8629H48.9252ZM48.9252 82.4176V82.3526H45.8221V82.4176V82.4826H48.9252V82.4176ZM45.8221 82.4176H45.7571V84.8629H45.8221H45.8871V82.4176H45.8221ZM42.4902 79.4146V79.4796H45.7506V79.4146V79.3496H42.4902V79.4146ZM45.7506 79.4146H45.8156V78.2134H45.7506H45.6856V79.4146H45.7506ZM45.7506 78.2134V78.1484H42.4902V78.2134V78.2784H45.7506V78.2134ZM42.4902 78.2134H42.4252V79.4146H42.4902H42.5552V78.2134H42.4902ZM49.0396 79.4146V79.4796H52.3V79.4146V79.3496H49.0396V79.4146ZM52.3 79.4146H52.365V78.2134H52.3H52.235V79.4146H52.3ZM52.3 78.2134V78.1484H49.0396V78.2134V78.2784H52.3V78.2134ZM49.0396 78.2134H48.9746V79.4146H49.0396H49.1046V78.2134H49.0396ZM42.4902 77.5127V77.5777H45.7506V77.5127V77.4477H42.4902V77.5127ZM45.7506 77.5127H45.8156V76.3401H45.7506H45.6856V77.5127H45.7506ZM45.7506 76.3401V76.2751H42.4902V76.3401V76.4051H45.7506V76.3401ZM42.4902 76.3401H42.4252V77.5127H42.4902H42.5552V76.3401H42.4902ZM49.0396 77.5127V77.5777H52.3V77.5127V77.4477H49.0396V77.5127ZM52.3 77.5127H52.365V76.3401H52.3H52.235V77.5127H52.3ZM52.3 76.3401V76.2751H49.0396V76.3401V76.4051H52.3V76.3401ZM49.0396 76.3401H48.9746V77.5127H49.0396H49.1046V76.3401H49.0396ZM61.5807 85.3634L61.5472 85.3076L61.5469 85.3079L61.5807 85.3634ZM60.88 85.6208L60.8701 85.5565L60.8697 85.5566L60.88 85.6208ZM60.165 85.4921L60.134 85.5492L60.135 85.5497L60.165 85.4921ZM59.5072 84.7771L59.563 84.7439L59.563 84.7438L59.5072 84.7771ZM58.7779 83.2327L58.7167 83.2547L58.717 83.2556L58.7779 83.2327ZM58.2345 81.4166L58.1712 81.4317L58.1713 81.4319L58.2345 81.4166ZM57.8913 79.5147L57.8267 79.5224L57.8267 79.5225L57.8913 79.5147ZM57.7912 77.7129L57.7922 77.6479L57.7273 77.6469L57.7262 77.7118L57.7912 77.7129ZM58.7064 77.7272L58.7713 77.729L58.7732 77.6632L58.7074 77.6622L58.7064 77.7272ZM58.8494 79.9008L58.785 79.9102L58.8494 79.9008ZM59.3642 82.1745L59.3021 82.1938L59.3642 82.1745ZM60.1793 84.0907L60.123 84.1233L60.1238 84.1246L60.1793 84.0907ZM60.7227 84.5912L60.7093 84.6549L60.713 84.6555L60.7227 84.5912ZM61.2661 84.4482L61.2291 84.3947L61.228 84.3955L61.2661 84.4482ZM62.0526 83.7475L62.1 83.7919L62.1007 83.7911L62.0526 83.7475ZM62.6532 82.9181L62.7104 82.8873L62.651 82.777L62.595 82.889L62.6532 82.9181ZM62.9106 83.3328L62.857 83.3696L62.8586 83.3718L62.9106 83.3328ZM63.2252 83.6903L63.2801 83.725L63.3094 83.6786L63.2687 83.642L63.2252 83.6903ZM62.167 84.9058L62.1232 84.8577L62.1221 84.8587L62.167 84.9058ZM67.4437 82.8609L67.3822 82.8821L67.4109 82.9651L67.4819 82.9134L67.4437 82.8609ZM67.029 81.9171L66.9702 81.945L66.9708 81.9461L67.029 81.9171ZM66.3998 80.7159L66.3427 80.747L66.3433 80.748L66.3998 80.7159ZM65.6848 79.529L65.6296 79.5634L65.6307 79.565L65.6848 79.529ZM65.0413 78.6138L65.0069 78.5586L64.9436 78.5981L64.9913 78.6554L65.0413 78.6138ZM65.7992 78.1419L65.8497 78.101L65.8136 78.0563L65.7648 78.0867L65.7992 78.1419ZM66.4713 79.1L66.4164 79.1348L66.4174 79.1363L66.4713 79.1ZM67.2292 80.3298L67.1726 80.3618L67.1734 80.3632L67.2292 80.3298ZM67.9013 81.5596L67.8428 81.5881L67.8437 81.5898L67.9013 81.5596ZM68.3446 82.5034L68.3565 82.5673L68.4333 82.5529L68.4052 82.48L68.3446 82.5034ZM61.5807 85.3634L61.5469 85.3079C61.3347 85.437 61.1093 85.5197 60.8701 85.5565L60.88 85.6208L60.8899 85.685C61.1464 85.6456 61.3881 85.5567 61.6145 85.4189L61.5807 85.3634ZM60.88 85.6208L60.8697 85.5566C60.6467 85.5923 60.4224 85.5527 60.195 85.4344L60.165 85.4921L60.135 85.5497C60.3842 85.6794 60.6366 85.7255 60.8902 85.685L60.88 85.6208ZM60.165 85.4921L60.1959 85.4349C59.9818 85.3189 59.7699 85.0918 59.563 84.7439L59.5072 84.7771L59.4513 84.8103C59.6639 85.1678 59.8906 85.4174 60.134 85.5492L60.165 85.4921ZM59.5072 84.7771L59.563 84.7438C59.2984 84.2996 59.0569 83.7884 58.8387 83.2097L58.7779 83.2327L58.717 83.2556C58.9374 83.8401 59.1821 84.3584 59.4513 84.8103L59.5072 84.7771ZM58.7779 83.2327L58.839 83.2106C58.6301 82.6314 58.4496 82.0283 58.2976 81.4013L58.2345 81.4166L58.1713 81.4319C58.3244 82.0633 58.5062 82.6709 58.7167 83.2547L58.7779 83.2327ZM58.2345 81.4166L58.2977 81.4015C58.1457 80.7651 58.0318 80.1335 57.9558 79.5069L57.8913 79.5147L57.8267 79.5225C57.9033 80.1542 58.0182 80.7906 58.1712 81.4317L58.2345 81.4166ZM57.8913 79.5147L57.9558 79.507C57.8798 78.8708 57.8467 78.2731 57.8562 77.714L57.7912 77.7129L57.7262 77.7118C57.7166 78.2776 57.7502 78.8811 57.8267 79.5224L57.8913 79.5147ZM57.7912 77.7129L57.7901 77.7779L58.7053 77.7922L58.7064 77.7272L58.7074 77.6622L57.7922 77.6479L57.7912 77.7129ZM58.7064 77.7272L58.6414 77.7253C58.6222 78.397 58.6702 79.1254 58.785 79.9102L58.8494 79.9008L58.9137 79.8914C58.7997 79.1127 58.7524 78.392 58.7713 77.729L58.7064 77.7272ZM58.8494 79.9008L58.785 79.9102C58.8999 80.6952 59.0723 81.4564 59.3021 82.1938L59.3642 82.1745L59.4262 82.1551C59.1985 81.4244 59.0276 80.6698 58.9137 79.8914L58.8494 79.9008ZM59.3642 82.1745L59.3021 82.1938C59.532 82.9315 59.8055 83.5749 60.123 84.1232L60.1793 84.0907L60.2355 84.0581C59.9238 83.5197 59.6539 82.8856 59.4262 82.1551L59.3642 82.1745ZM60.1793 84.0907L60.1238 84.1246C60.307 84.4234 60.5005 84.6108 60.7093 84.6548L60.7227 84.5912L60.7361 84.5276C60.5826 84.4953 60.4138 84.349 60.2347 84.0567L60.1793 84.0907ZM60.7227 84.5912L60.713 84.6555C60.9222 84.6868 61.1202 84.6337 61.3041 84.5009L61.2661 84.4482L61.228 84.3955C61.0687 84.5105 60.9045 84.5527 60.7323 84.5269L60.7227 84.5912ZM61.2661 84.4482L61.3031 84.5016C61.5558 84.3267 61.8214 84.0897 62.1 83.7919L62.0526 83.7475L62.0051 83.7031C61.7308 83.9963 61.4721 84.2265 61.2291 84.3947L61.2661 84.4482ZM62.0526 83.7475L62.1007 83.7911C62.3794 83.4836 62.5838 83.2022 62.7113 82.9472L62.6532 82.9181L62.595 82.889C62.4747 83.1297 62.2786 83.4012 62.0044 83.7038L62.0526 83.7475ZM62.6532 82.9181L62.5959 82.9489C62.6641 83.0754 62.7512 83.2157 62.857 83.3696L62.9106 83.3328L62.9641 83.296C62.8602 83.1448 62.7757 83.0086 62.7104 82.8873L62.6532 82.9181ZM62.9106 83.3328L62.8586 83.3718C62.9744 83.5262 63.0821 83.649 63.1817 83.7386L63.2252 83.6903L63.2687 83.642C63.1776 83.56 63.0755 83.4444 62.9626 83.2938L62.9106 83.3328ZM63.2252 83.6903L63.1702 83.6556C63.0581 83.8331 62.9077 84.0306 62.7185 84.2482L62.7676 84.2909L62.8166 84.3335C63.0087 84.1126 63.1635 83.9097 63.2801 83.725L63.2252 83.6903ZM62.7676 84.2909L62.7185 84.2482C62.5295 84.4656 62.3311 84.6688 62.1232 84.8577L62.167 84.9058L62.2107 84.9539C62.4224 84.7615 62.6243 84.5547 62.8166 84.3335L62.7676 84.2909ZM62.167 84.9058L62.1221 84.8587C61.9246 85.0468 61.7329 85.1962 61.5472 85.3076L61.5807 85.3634L61.6141 85.4191C61.8097 85.3017 62.0089 85.1461 62.2118 84.9529L62.167 84.9058ZM67.4437 82.8609L67.5051 82.8396C67.418 82.588 67.2784 82.2705 67.0871 81.888L67.029 81.9171L66.9708 81.9461C67.1609 82.3263 67.2978 82.6381 67.3822 82.8821L67.4437 82.8609ZM67.029 81.9171L67.0877 81.8892C66.9058 81.5062 66.6953 81.1044 66.4563 80.6838L66.3998 80.7159L66.3433 80.748C66.5809 81.1663 66.7899 81.5653 66.9703 81.945L67.029 81.9171ZM66.3998 80.7159L66.4568 80.6848C66.2272 80.2637 65.9879 79.8664 65.7388 79.4929L65.6848 79.529L65.6307 79.565C65.8774 79.9351 66.1148 80.3291 66.3427 80.747L66.3998 80.7159ZM65.6848 79.529L65.7399 79.4945C65.5007 79.1118 65.2845 78.8041 65.0912 78.5722L65.0413 78.6138L64.9913 78.6554C65.1794 78.8811 65.3922 79.1835 65.6296 79.5634L65.6848 79.529ZM65.0413 78.6138L65.0756 78.669L65.8335 78.1971L65.7992 78.1419L65.7648 78.0867L65.0069 78.5586L65.0413 78.6138ZM65.7992 78.1419L65.7486 78.1827C65.9467 78.428 66.1693 78.7452 66.4164 79.1348L66.4713 79.1L66.5262 79.0652C66.2775 78.6731 66.052 78.3515 65.8497 78.101L65.7992 78.1419ZM66.4713 79.1L66.4174 79.1363C66.6737 79.5161 66.9255 79.9246 67.1726 80.3618L67.2292 80.3298L67.2858 80.2978C67.0371 79.8579 66.7836 79.4465 66.5251 79.0636L66.4713 79.1ZM67.2292 80.3298L67.1734 80.3632C67.43 80.7908 67.6531 81.1991 67.8428 81.5881L67.9013 81.5596L67.9597 81.5311C67.7681 81.1383 67.5431 80.7267 67.2849 80.2963L67.2292 80.3298ZM67.9013 81.5596L67.8437 81.5898C68.0434 81.9701 68.1898 82.2822 68.2839 82.5267L68.3446 82.5034L68.4052 82.48C68.3086 82.2288 68.1596 81.9117 67.9588 81.5294L67.9013 81.5596ZM68.3446 82.5034L68.3326 82.4395C68.1755 82.469 68.0095 82.5179 67.8348 82.5858L67.8584 82.6464L67.8819 82.707C68.0504 82.6414 68.2086 82.595 68.3565 82.5673L68.3446 82.5034ZM67.8584 82.6464L67.8348 82.5858C67.66 82.6538 67.5163 82.7277 67.4054 82.8083L67.4437 82.8609L67.4819 82.9134C67.5808 82.8415 67.7136 82.7724 67.8819 82.707L67.8584 82.6464ZM74.6652 87.823H74.6002V87.888H74.6652V87.823ZM74.6652 82.7465V82.6815H74.6002V82.7465H74.6652ZM82.473 82.7465H82.538V82.6815H82.473V82.7465ZM82.473 87.823V87.888H82.538V87.823H82.473ZM75.5947 86.9793H75.5297V87.0443H75.5947V86.9793ZM81.5435 86.9793V87.0443H81.6085V86.9793H81.5435ZM81.5435 83.6045H81.6085V83.5395H81.5435V83.6045ZM75.5947 83.6045V83.5395H75.5297V83.6045H75.5947ZM72.2199 81.388L72.1582 81.4085L72.1813 81.4778L72.2474 81.4469L72.2199 81.388ZM72.0769 81.1449L72.0227 81.181L72.0243 81.1831L72.0769 81.1449ZM71.8481 80.8303L71.7954 80.8686L71.7973 80.8709L71.8481 80.8303ZM71.6765 80.6158L71.6519 80.5556L71.5614 80.5926L71.6305 80.6617L71.6765 80.6158ZM73.5784 79.6291L73.6129 79.6842L73.6135 79.6838L73.5784 79.6291ZM75.4231 78.2563L75.4653 78.3057L75.4231 78.2563ZM77.0247 76.669L77.0739 76.7114L77.0743 76.711L77.0247 76.669ZM78.183 74.9959L78.1922 74.9315L78.1471 74.9251L78.1256 74.9652L78.183 74.9959ZM78.9838 75.1103L79.0394 75.0767L79.0235 75.0503L78.993 75.0459L78.9838 75.1103ZM80.5997 77.1695L80.6463 77.1242L80.5997 77.1695ZM82.8162 79.0285L82.7794 79.0821L82.7801 79.0826L82.8162 79.0285ZM85.4331 80.4013L85.4851 80.4403L85.5361 80.3722L85.457 80.3408L85.4331 80.4013ZM85.2758 80.6444L85.3299 80.6805L85.3311 80.6784L85.2758 80.6444ZM85.047 81.0019L84.9916 80.9678L84.9908 80.9691L85.047 81.0019ZM84.904 81.2593L84.8768 81.3183L84.934 81.3447L84.9621 81.2883L84.904 81.2593ZM82.4444 79.8722L82.4807 79.8183L82.4444 79.8722ZM80.2565 78.0847L80.2105 78.1306L80.2108 78.131L80.2565 78.0847ZM78.5691 75.9826L78.6241 75.948L78.5689 75.8602L78.5139 75.9481L78.5691 75.9826ZM77.3393 77.5842L77.2912 77.5404L77.2912 77.5405L77.3393 77.5842ZM75.7663 79.0857L75.7247 79.0357L75.7242 79.0361L75.7663 79.0857ZM74.0074 80.387L73.9723 80.3322L73.9719 80.3325L74.0074 80.387ZM74.9512 80.9876H74.8862V81.0526H74.9512V80.9876ZM74.9512 80.1296V80.0646H74.8862V80.1296H74.9512ZM82.1727 80.1296H82.2377V80.0646H82.1727V80.1296ZM82.1727 80.9876V81.0526H82.2377V80.9876H82.1727ZM74.6652 87.823H74.7302V82.7465H74.6652H74.6002V87.823H74.6652ZM74.6652 82.7465V82.8115H82.473V82.7465V82.6815H74.6652V82.7465ZM82.473 82.7465H82.408V87.823H82.473H82.538V82.7465H82.473ZM82.473 87.823V87.758H74.6652V87.823V87.888H82.473V87.823ZM75.5947 86.9793V87.0443H81.5435V86.9793V86.9143H75.5947V86.9793ZM81.5435 86.9793H81.6085V83.6045H81.5435H81.4785V86.9793H81.5435ZM81.5435 83.6045V83.5395H75.5947V83.6045V83.6695H81.5435V83.6045ZM75.5947 83.6045H75.5297V86.9793H75.5947H75.6597V83.6045H75.5947ZM72.2199 81.388L72.2815 81.3674C72.2591 81.3001 72.2062 81.2122 72.1294 81.1066L72.0769 81.1449L72.0243 81.1831C72.1001 81.2873 72.1425 81.3615 72.1582 81.4085L72.2199 81.388ZM72.0769 81.1449L72.131 81.1088C72.0538 80.9931 71.9764 80.8866 71.8988 80.7897L71.8481 80.8303L71.7973 80.8709C71.8723 80.9646 71.9474 81.0679 72.0228 81.1809L72.0769 81.1449ZM71.8481 80.8303L71.9006 80.792C71.8244 80.6872 71.7645 80.6119 71.7224 80.5698L71.6765 80.6158L71.6305 80.6617C71.6647 80.6959 71.7192 80.7636 71.7955 80.8685L71.8481 80.8303ZM71.6765 80.6158L71.7011 80.6759C72.3341 80.417 72.9713 80.0863 73.6129 79.6842L73.5784 79.6291L73.5438 79.574C72.9079 79.9726 72.2773 80.2998 71.6519 80.5556L71.6765 80.6158ZM73.5784 79.6291L73.6135 79.6838C74.2548 79.2722 74.872 78.8128 75.4653 78.3057L75.4231 78.2563L75.3808 78.2069C74.792 78.7103 74.1794 79.1661 73.5433 79.5744L73.5784 79.6291ZM75.4231 78.2563L75.4653 78.3057C76.0587 77.7984 76.5949 77.267 77.0739 76.7114L77.0247 76.669L76.9754 76.6265C76.5011 77.1768 75.9696 77.7036 75.3808 78.2069L75.4231 78.2563ZM77.0247 76.669L77.0743 76.711C77.5534 76.1456 77.9423 75.5841 78.2403 75.0265L78.183 74.9959L78.1256 74.9652C77.8326 75.5135 77.4493 76.0674 76.9751 76.627L77.0247 76.669ZM78.183 74.9959L78.1738 75.0602L78.9746 75.1746L78.9838 75.1103L78.993 75.0459L78.1922 74.9315L78.183 74.9959ZM78.9838 75.1103L78.9281 75.1438C79.3505 75.8446 79.8923 76.5349 80.5531 77.2148L80.5997 77.1695L80.6463 77.1242C79.9914 76.4503 79.456 75.7678 79.0394 75.0767L78.9838 75.1103ZM80.5997 77.1695L80.5531 77.2148C81.214 77.8949 81.9562 78.5173 82.7794 79.0821L82.8162 79.0285L82.8529 78.9749C82.0364 78.4147 81.3009 77.7978 80.6463 77.1242L80.5997 77.1695ZM82.8162 79.0285L82.7801 79.0826C83.6133 79.638 84.4896 80.0977 85.4091 80.4617L85.4331 80.4013L85.457 80.3408C84.5461 79.9803 83.6779 79.5248 82.8522 78.9744L82.8162 79.0285ZM85.4331 80.4013L85.3811 80.3623C85.3504 80.4032 85.2964 80.4868 85.2204 80.6103L85.2758 80.6444L85.3311 80.6784C85.4077 80.5541 85.4586 80.4756 85.4851 80.4403L85.4331 80.4013ZM85.2758 80.6444L85.2217 80.6083C85.145 80.7234 85.0683 80.8432 84.9916 80.9678L85.047 81.0019L85.1023 81.0359C85.1782 80.9126 85.254 80.7941 85.3298 80.6804L85.2758 80.6444ZM85.047 81.0019L84.9908 80.9691C84.924 81.0837 84.8754 81.171 84.8458 81.2302L84.904 81.2593L84.9621 81.2883C84.9897 81.2331 85.0365 81.1488 85.1031 81.0346L85.047 81.0019ZM84.904 81.2593L84.9312 81.2002C84.086 80.8109 83.2691 80.3502 82.4807 79.8183L82.4444 79.8722L82.408 79.9261C83.2021 80.4618 84.025 80.926 84.8768 81.3183L84.904 81.2593ZM82.4444 79.8722L82.4807 79.8183C81.6927 79.2866 80.9665 78.6933 80.3021 78.0384L80.2565 78.0847L80.2108 78.131C80.8811 78.7916 81.6135 79.39 82.408 79.9261L82.4444 79.8722ZM80.2565 78.0847L80.3024 78.0387C79.6479 77.3842 79.0885 76.6872 78.6241 75.948L78.5691 75.9826L78.514 76.0172C78.9839 76.7651 79.5495 77.4696 80.2105 78.1306L80.2565 78.0847ZM78.5691 75.9826L78.5139 75.9481C78.1826 76.4782 77.7752 77.009 77.2912 77.5404L77.3393 77.5842L77.3873 77.6279C77.8758 77.0916 78.2882 76.5546 78.6242 76.017L78.5691 75.9826ZM77.3393 77.5842L77.2912 77.5405C76.8166 78.0625 76.2945 78.5609 75.7247 79.0357L75.7663 79.0857L75.8079 79.1356C76.3821 78.6571 76.9086 78.1546 77.3874 77.6279L77.3393 77.5842ZM75.7663 79.0857L75.7242 79.0361C75.1639 79.5109 74.58 79.943 73.9723 80.3322L74.0074 80.387L74.0424 80.4417C74.655 80.0493 75.2437 79.6138 75.8083 79.1353L75.7663 79.0857ZM74.0074 80.387L73.9719 80.3325C73.3736 80.7219 72.7804 81.054 72.1923 81.3291L72.2199 81.388L72.2474 81.4469C72.8415 81.169 73.4399 80.8338 74.0428 80.4415L74.0074 80.387ZM74.9512 80.9876H75.0162V80.1296H74.9512H74.8862V80.9876H74.9512ZM74.9512 80.1296V80.1946H82.1727V80.1296V80.0646H74.9512V80.1296ZM82.1727 80.1296H82.1077V80.9876H82.1727H82.2377V80.1296H82.1727ZM82.1727 80.9876V80.9226H74.9512V80.9876V81.0526H82.1727V80.9876ZM91.6107 87.5227H91.5457V87.5877H91.6107V87.5227ZM91.6107 82.8466H91.6757V82.7033L91.5679 82.7977L91.6107 82.8466ZM90.3094 84.0764L90.2629 84.0309L90.2624 84.0315L90.3094 84.0764ZM89.2083 85.2776L89.1653 85.3264L89.2143 85.3694L89.2572 85.3204L89.2083 85.2776ZM88.4933 84.6484L88.4493 84.6005L88.3961 84.6495L88.4503 84.6972L88.4933 84.6484ZM89.9948 83.247L90.0394 83.2942L89.9948 83.247ZM91.6107 81.817L91.6521 81.8671L91.6757 81.8476V81.817H91.6107ZM91.6107 79.4861H91.6757V79.4061L91.5974 79.4224L91.6107 79.4861ZM90.195 79.7578L90.1837 79.6938L90.195 79.7578ZM89.0367 79.9437L88.9731 79.9572L88.9856 80.0161L89.0453 80.0081L89.0367 79.9437ZM88.8508 79.0714L88.8472 79.0065L88.7714 79.0107L88.7872 79.0849L88.8508 79.0714ZM89.5658 78.9999L89.558 78.9354L89.5577 78.9354L89.5658 78.9999ZM90.5811 78.8426L90.5928 78.9065L90.5811 78.8426ZM91.6107 78.6424L91.6238 78.706L91.6757 78.6954V78.6424H91.6107ZM91.6107 75.8539V75.7889H91.5457V75.8539H91.6107ZM92.483 75.8539H92.548V75.7889H92.483V75.8539ZM92.483 78.4422H92.418V78.5382L92.5071 78.5025L92.483 78.4422ZM92.5974 78.3993L92.6179 78.4609L92.5974 78.3993ZM92.6832 78.3707L92.7198 78.317L92.6932 78.2988L92.6626 78.309L92.6832 78.3707ZM93.2695 78.7711L93.3302 78.7943L93.3485 78.7463L93.3061 78.7174L93.2695 78.7711ZM92.483 80.8303L92.4222 80.8071L92.418 80.8183V80.8303H92.483ZM92.483 81.1449H92.418V81.2718L92.521 81.1976L92.483 81.1449ZM94.4278 80.0009L94.4547 80.06L94.4551 80.0598L94.4278 80.0009ZM98.1029 79.9008L98.0756 79.9598L98.0765 79.9602L98.1029 79.9008ZM99.3184 80.959L99.2631 80.9932L99.264 80.9945L99.3184 80.959ZM98.6606 85.2776L98.7056 85.3244L98.7056 85.3244L98.6606 85.2776ZM95.4574 86.7791L95.3952 86.7982L95.4127 86.8549L95.4708 86.8427L95.4574 86.7791ZM95.2572 86.3215L95.3147 86.2912L95.2572 86.3215ZM94.9855 85.9068L94.9751 85.8426L94.8575 85.8617L94.9372 85.9503L94.9855 85.9068ZM97.0018 85.2776L97.0312 85.3355L97.0018 85.2776ZM98.3603 84.1908L98.309 84.1509L98.3084 84.1516L98.3603 84.1908ZM94.4564 80.8732L94.4276 80.8149L94.4273 80.815L94.4564 80.8732ZM92.483 82.1316L92.443 82.0803L92.418 82.0998V82.1316H92.483ZM92.483 87.5227V87.5877H92.548V87.5227H92.483ZM91.6107 87.5227H91.6757V82.8466H91.6107H91.5457V87.5227H91.6107ZM91.6107 82.8466L91.5679 82.7977C91.109 83.1991 90.674 83.6102 90.2629 84.031L90.3094 84.0764L90.3559 84.1218C90.7646 83.7036 91.1971 83.2948 91.6535 82.8955L91.6107 82.8466ZM90.3094 84.0764L90.2624 84.0315C89.8614 84.4516 89.4937 84.8526 89.1594 85.2348L89.2083 85.2776L89.2572 85.3204C89.5902 84.9398 89.9566 84.5401 90.3564 84.1213L90.3094 84.0764ZM89.2083 85.2776L89.2512 85.2288L88.5362 84.5996L88.4933 84.6484L88.4503 84.6972L89.1653 85.3264L89.2083 85.2776ZM88.4933 84.6484L88.5373 84.6962C89.0142 84.2575 89.5149 83.7901 90.0394 83.2942L89.9948 83.247L89.9501 83.1997C89.426 83.6953 88.9257 84.1622 88.4493 84.6005L88.4933 84.6484ZM89.9948 83.247L90.0394 83.2942C90.5627 82.7995 91.1003 82.3237 91.6521 81.8671L91.6107 81.817L91.5692 81.7669C91.0152 82.2254 90.4755 82.703 89.9501 83.1997L89.9948 83.247ZM91.6107 81.817H91.6757V79.4861H91.6107H91.5457V81.817H91.6107ZM91.6107 79.4861L91.5974 79.4224C91.1405 79.5176 90.6693 79.6081 90.1837 79.6938L90.195 79.7578L90.2063 79.8218C90.6931 79.7359 91.1656 79.6452 91.6239 79.5497L91.6107 79.4861ZM90.195 79.7578L90.1837 79.6938C89.6978 79.7795 89.3128 79.8413 89.0281 79.8793L89.0367 79.9437L89.0453 80.0081C89.3326 79.9698 89.7197 79.9077 90.2063 79.8218L90.195 79.7578ZM89.0367 79.9437L89.1002 79.9301L88.9143 79.0578L88.8508 79.0714L88.7872 79.0849L88.9731 79.9572L89.0367 79.9437ZM88.8508 79.0714L88.8544 79.1363C89.0282 79.1266 89.2682 79.1026 89.5738 79.0644L89.5658 78.9999L89.5577 78.9354C89.2532 78.9734 89.0166 78.9971 88.8472 79.0065L88.8508 79.0714ZM89.5658 78.9999L89.5736 79.0644C89.8897 79.0261 90.2295 78.9734 90.5928 78.9065L90.5811 78.8426L90.5693 78.7787C90.2081 78.8452 89.871 78.8974 89.558 78.9354L89.5658 78.9999ZM90.5811 78.8426L90.5928 78.9065C90.9555 78.8397 91.2992 78.7729 91.6238 78.706L91.6107 78.6424L91.5976 78.5787C91.2739 78.6453 90.9312 78.712 90.5693 78.7787L90.5811 78.8426ZM91.6107 78.6424H91.6757V75.8539H91.6107H91.5457V78.6424H91.6107ZM91.6107 75.8539V75.9189H92.483V75.8539V75.7889H91.6107V75.8539ZM92.483 75.8539H92.418V78.4422H92.483H92.548V75.8539H92.483ZM92.483 78.4422L92.5071 78.5025C92.5543 78.4837 92.5911 78.4699 92.6179 78.4609L92.5974 78.3993L92.5768 78.3376C92.5465 78.3477 92.507 78.3626 92.4588 78.3818L92.483 78.4422ZM92.5974 78.3993L92.6179 78.4609C92.6465 78.4514 92.6751 78.4419 92.7037 78.4323L92.6832 78.3707L92.6626 78.309C92.634 78.3185 92.6054 78.3281 92.5768 78.3376L92.5974 78.3993ZM92.6832 78.3707L92.6465 78.4244L93.2328 78.8248L93.2695 78.7711L93.3061 78.7174L92.7198 78.317L92.6832 78.3707ZM93.2695 78.7711L93.2088 78.7479L92.4222 80.8071L92.483 80.8303L92.5437 80.8535L93.3302 78.7943L93.2695 78.7711ZM92.483 80.8303H92.418V81.1449H92.483H92.548V80.8303H92.483ZM92.483 81.1449L92.521 81.1976C93.1662 80.7327 93.8108 80.3536 94.4547 80.06L94.4278 80.0009L94.4008 79.9417C93.7482 80.2392 93.0963 80.6228 92.445 81.0921L92.483 81.1449ZM94.4278 80.0009L94.4551 80.0598C95.1055 79.7582 95.7445 79.6083 96.3726 79.6083V79.5433V79.4783C95.7232 79.4783 95.0656 79.6334 94.4004 79.9419L94.4278 80.0009ZM96.3726 79.5433V79.6083C97.0031 79.6083 97.5703 79.7259 98.0756 79.9598L98.1029 79.9008L98.1302 79.8418C97.6058 79.599 97.0195 79.4783 96.3726 79.4783V79.5433ZM98.1029 79.9008L98.0765 79.9602C98.5794 80.1837 98.9745 80.5277 99.2631 80.9932L99.3184 80.959L99.3736 80.9247C99.0712 80.4369 98.6559 80.0755 98.1293 79.8414L98.1029 79.9008ZM99.3184 80.959L99.264 80.9945C99.5604 81.4485 99.711 82.0263 99.711 82.7322H99.776H99.841C99.841 82.0081 99.6865 81.4037 99.3728 80.9234L99.3184 80.959ZM99.776 82.7322H99.711C99.711 83.6955 99.3471 84.5273 98.6155 85.2307L98.6606 85.2776L98.7056 85.3244C99.4613 84.5979 99.841 83.7328 99.841 82.7322H99.776ZM98.6606 85.2776L98.6155 85.2307C97.8931 85.925 96.8381 86.4215 95.444 86.7155L95.4574 86.7791L95.4708 86.8427C96.8795 86.5456 97.9599 86.0411 98.7056 85.3244L98.6606 85.2776ZM95.4574 86.7791L95.5195 86.76C95.4797 86.6306 95.411 86.4741 95.3147 86.2912L95.2572 86.3215L95.1997 86.3518C95.2941 86.5311 95.3588 86.6797 95.3952 86.7982L95.4574 86.7791ZM95.2572 86.3215L95.3147 86.2912C95.2181 86.1078 95.1247 85.9643 95.0338 85.8633L94.9855 85.9068L94.9372 85.9503C95.0179 86.0399 95.1055 86.1729 95.1997 86.3518L95.2572 86.3215ZM94.9855 85.9068L94.9959 85.9709C95.764 85.8461 96.4427 85.6346 97.0312 85.3355L97.0018 85.2776L96.9723 85.2196C96.3978 85.5116 95.7323 85.7196 94.9751 85.8426L94.9855 85.9068ZM97.0018 85.2776L97.0312 85.3355C97.6197 85.0365 98.0809 84.6683 98.4121 84.23L98.3603 84.1908L98.3084 84.1516C97.9914 84.5712 97.5469 84.9276 96.9723 85.2196L97.0018 85.2776ZM98.3603 84.1908L98.4116 84.2307C98.7541 83.7903 98.9258 83.29 98.9258 82.7322H98.8608H98.7958C98.7958 83.2611 98.6338 83.7333 98.309 84.1509L98.3603 84.1908ZM98.8608 82.7322H98.9258C98.9258 81.8728 98.689 81.244 98.1999 80.8647L98.1601 80.9161L98.1202 80.9674C98.5654 81.3127 98.7958 81.8946 98.7958 82.7322H98.8608ZM98.1601 80.9161L98.1999 80.8647C97.719 80.4918 97.1082 80.3077 96.3726 80.3077V80.3727V80.4377C97.086 80.4377 97.6669 80.6159 98.1202 80.9674L98.1601 80.9161ZM96.3726 80.3727V80.3077C95.7598 80.3077 95.1112 80.4779 94.4276 80.8149L94.4564 80.8732L94.4851 80.9315C95.1553 80.6011 95.7842 80.4377 96.3726 80.4377V80.3727ZM94.4564 80.8732L94.4273 80.815C93.7558 81.1508 93.0943 81.5727 92.443 82.0803L92.483 82.1316L92.5229 82.1828C93.1681 81.68 93.8223 81.2629 94.4854 80.9313L94.4564 80.8732ZM92.483 82.1316H92.418V87.5227H92.483H92.548V82.1316H92.483ZM92.483 87.5227V87.4577H91.6107V87.5227V87.5877H92.483V87.5227ZM108.227 86.6933L108.209 86.7556L108.209 86.7557L108.227 86.6933ZM107.269 86.0069L107.325 85.9739L107.269 86.0069ZM106.983 80.7731H107.048V80.7014L106.977 80.7084L106.983 80.7731ZM105.11 81.0019L105.118 81.0663L105.12 81.0662L105.11 81.0019ZM103.68 81.245L103.616 81.2549L103.626 81.3237L103.694 81.3084L103.68 81.245ZM103.537 80.3155L103.527 80.2513L103.463 80.2614L103.473 80.3254L103.537 80.3155ZM105.053 80.1153L105.045 80.0507L105.053 80.1153ZM106.983 79.9151L106.989 79.9798L107.048 79.9741V79.9151H106.983ZM106.983 76.669V76.604H106.918V76.669H106.983ZM107.87 76.669H107.935V76.604H107.87V76.669ZM107.87 79.8293H107.805V79.8996L107.875 79.8941L107.87 79.8293ZM109.729 79.6863L109.734 79.7511L109.735 79.751L109.729 79.6863ZM111.573 79.5433L111.578 79.6081L111.638 79.6043V79.5433H111.573ZM111.573 76.2257V76.1607H111.508V76.2257H111.573ZM112.474 76.2257H112.539V76.1607H112.474V76.2257ZM112.474 79.4861H112.409V79.555L112.478 79.551L112.474 79.4861ZM114.262 79.4003L114.26 79.3353L114.26 79.3353L114.262 79.4003ZM115.663 79.386H115.728V79.3226L115.665 79.321L115.663 79.386ZM115.663 80.3155L115.661 80.3804L115.728 80.3828V80.3155H115.663ZM112.474 80.3584L112.472 80.2934L112.409 80.2962V80.3584H112.474ZM112.231 82.4891L112.175 82.457L112.174 82.4577L112.231 82.4891ZM111.445 83.1326L111.42 83.0724L111.445 83.1326ZM109.915 83.4472L109.851 83.4599L109.862 83.517L109.92 83.5119L109.915 83.4472ZM109.786 82.9896L109.724 83.0101L109.725 83.0112L109.786 82.9896ZM109.586 82.5892L109.584 82.5242L109.453 82.5274L109.535 82.6298L109.586 82.5892ZM111.173 82.2889L111.21 82.3427L111.173 82.2889ZM111.573 80.4013H111.638V80.332L111.569 80.3364L111.573 80.4013ZM109.714 80.53L109.71 80.4652L109.71 80.4652L109.714 80.53ZM107.87 80.6873L107.864 80.6226L107.805 80.6282V80.6873H107.87ZM108.07 85.4921L108.015 85.527L108.016 85.5281L108.07 85.4921ZM108.742 85.9068L108.727 85.97L108.729 85.9704L108.742 85.9068ZM111.187 85.964L111.183 85.8991L111.183 85.8991L111.187 85.964ZM112.532 85.8353L112.54 85.8998L112.541 85.8996L112.532 85.8353ZM113.804 85.6065L113.865 85.6283L113.905 85.5171L113.79 85.5431L113.804 85.6065ZM113.676 86.1213L113.612 86.1096L113.611 86.1125L113.676 86.1213ZM113.633 86.5932L113.643 86.6573L113.698 86.6484V86.5932H113.633ZM111.774 86.822L111.778 86.8868L111.779 86.8867L111.774 86.822ZM110.058 86.8935V86.8285C109.298 86.8285 108.695 86.7619 108.245 86.6309L108.227 86.6933L108.209 86.7557C108.675 86.8916 109.292 86.9585 110.058 86.9585V86.8935ZM108.227 86.6933L108.246 86.631C107.81 86.501 107.506 86.2807 107.325 85.9739L107.269 86.0069L107.213 86.0398C107.414 86.3814 107.749 86.6186 108.209 86.7556L108.227 86.6933ZM107.269 86.0069L107.325 85.9739C107.143 85.6637 107.048 85.2287 107.048 84.6627H106.983H106.918C106.918 85.2407 107.014 85.7018 107.213 86.0398L107.269 86.0069ZM106.983 84.6627H107.048V80.7731H106.983H106.918V84.6627H106.983ZM106.983 80.7731L106.977 80.7084C106.299 80.7752 105.673 80.8516 105.1 80.9376L105.11 81.0019L105.12 81.0662C105.69 80.9805 106.314 80.9044 106.99 80.8378L106.983 80.7731ZM105.11 81.0019L105.101 80.9375C104.528 81.0139 104.049 81.0952 103.666 81.1816L103.68 81.245L103.694 81.3084C104.073 81.2232 104.548 81.1424 105.118 81.0663L105.11 81.0019ZM103.68 81.245L103.744 81.2351L103.601 80.3056L103.537 80.3155L103.473 80.3254L103.616 81.2549L103.68 81.245ZM103.537 80.3155L103.547 80.3797C103.965 80.3131 104.47 80.2465 105.06 80.1799L105.053 80.1153L105.045 80.0507C104.454 80.1175 103.947 80.1844 103.527 80.2513L103.537 80.3155ZM105.053 80.1153L105.06 80.1799C105.651 80.1132 106.294 80.0465 106.989 79.9798L106.983 79.9151L106.977 79.8504C106.281 79.9171 105.637 79.9839 105.045 80.0507L105.053 80.1153ZM106.983 79.9151H107.048V76.669H106.983H106.918V79.9151H106.983ZM106.983 76.669V76.734H107.87V76.669V76.604H106.983V76.669ZM107.87 76.669H107.805V79.8293H107.87H107.935V76.669H107.87ZM107.87 79.8293L107.875 79.8941C108.485 79.8464 109.105 79.7988 109.734 79.7511L109.729 79.6863L109.724 79.6215C109.095 79.6691 108.475 79.7168 107.865 79.7645L107.87 79.8293ZM109.729 79.6863L109.735 79.751C110.363 79.6939 110.978 79.6462 111.578 79.6081L111.573 79.5433L111.569 79.4784C110.968 79.5166 110.353 79.5643 109.723 79.6215L109.729 79.6863ZM111.573 79.5433H111.638V76.2257H111.573H111.508V79.5433H111.573ZM111.573 76.2257V76.2907H112.474V76.2257V76.1607H111.573V76.2257ZM112.474 76.2257H112.409V79.4861H112.474H112.539V76.2257H112.474ZM112.474 79.4861L112.478 79.551C113.126 79.5129 113.721 79.4843 114.264 79.4652L114.262 79.4003L114.26 79.3353C113.716 79.3544 113.119 79.383 112.471 79.4212L112.474 79.4861ZM114.262 79.4003L114.264 79.4652C114.816 79.4462 115.282 79.4415 115.662 79.451L115.663 79.386L115.665 79.321C115.282 79.3114 114.813 79.3162 114.26 79.3353L114.262 79.4003ZM115.663 79.386H115.598V80.3155H115.663H115.728V79.386H115.663ZM115.663 80.3155L115.666 80.2505C114.843 80.2218 113.778 80.2362 112.472 80.2934L112.474 80.3584L112.477 80.4233C113.782 80.3662 114.844 80.3519 115.661 80.3804L115.663 80.3155ZM112.474 80.3584H112.409V81.4166H112.474H112.539V80.3584H112.474ZM112.474 81.4166H112.409C112.409 81.8377 112.33 82.1833 112.175 82.457L112.231 82.4891L112.288 82.5211C112.457 82.2228 112.539 81.8535 112.539 81.4166H112.474ZM112.231 82.4891L112.174 82.4577C112.031 82.718 111.782 82.924 111.42 83.0724L111.445 83.1326L111.469 83.1927C111.851 83.0361 112.127 82.8131 112.288 82.5205L112.231 82.4891ZM111.445 83.1326L111.42 83.0724C111.057 83.2214 110.554 83.3255 109.909 83.3824L109.915 83.4472L109.92 83.5119C110.572 83.4545 111.089 83.3488 111.469 83.1927L111.445 83.1326ZM109.915 83.4472L109.978 83.4344C109.949 83.2879 109.905 83.1324 109.847 82.9679L109.786 82.9896L109.725 83.0112C109.781 83.1709 109.823 83.3204 109.851 83.4599L109.915 83.4472ZM109.786 82.9896L109.848 82.969C109.789 82.7933 109.719 82.652 109.637 82.5486L109.586 82.5892L109.535 82.6298C109.605 82.717 109.668 82.8426 109.724 83.0101L109.786 82.9896ZM109.586 82.5892L109.587 82.6542C109.985 82.6446 110.319 82.6146 110.588 82.5637C110.856 82.5129 111.065 82.4405 111.21 82.3427L111.173 82.2889L111.137 82.2351C111.014 82.3184 110.825 82.3866 110.564 82.4359C110.304 82.4851 109.978 82.5147 109.584 82.5242L109.586 82.5892ZM111.173 82.2889L111.21 82.3427C111.499 82.1465 111.638 81.8326 111.638 81.4166H111.573H111.508C111.508 81.8013 111.381 82.069 111.137 82.2351L111.173 82.2889ZM111.573 81.4166H111.638V80.4013H111.573H111.508V81.4166H111.573ZM111.573 80.4013L111.569 80.3364C110.968 80.3746 110.349 80.4175 109.71 80.4652L109.714 80.53L109.719 80.5948C110.358 80.5472 110.977 80.5043 111.578 80.4661L111.573 80.4013ZM109.714 80.53L109.71 80.4652C109.08 80.5129 108.465 80.5653 107.864 80.6226L107.87 80.6873L107.876 80.752C108.476 80.6948 109.091 80.6424 109.719 80.5948L109.714 80.53ZM107.87 80.6873H107.805V84.5912H107.87H107.935V80.6873H107.87ZM107.87 84.5912H107.805C107.805 84.9879 107.872 85.3024 108.015 85.527L108.07 85.4921L108.125 85.4572C108.001 85.2623 107.935 84.9762 107.935 84.5912H107.87ZM108.07 85.4921L108.016 85.5281C108.161 85.746 108.402 85.8912 108.727 85.97L108.742 85.9068L108.757 85.8436C108.453 85.7698 108.246 85.6385 108.124 85.456L108.07 85.4921ZM108.742 85.9068L108.729 85.9704C109.059 86.0385 109.508 86.0719 110.072 86.0719V86.0069V85.9419C109.511 85.9419 109.073 85.9086 108.755 85.8431L108.742 85.9068ZM110.072 86.0069V86.0719C110.388 86.0719 110.762 86.0575 111.192 86.0288L111.187 85.964L111.183 85.8991C110.755 85.9277 110.385 85.9419 110.072 85.9419V86.0069ZM111.187 85.964L111.192 86.0288C111.631 86.0002 112.081 85.9571 112.54 85.8998L112.532 85.8353L112.524 85.7708C112.067 85.8278 111.62 85.8706 111.183 85.8991L111.187 85.964ZM112.532 85.8353L112.541 85.8996C113.009 85.8327 113.435 85.7561 113.819 85.6699L113.804 85.6065L113.79 85.5431C113.411 85.6284 112.988 85.7044 112.522 85.7709L112.532 85.8353ZM113.804 85.6065L113.743 85.5846C113.694 85.7226 113.65 85.898 113.612 86.1097L113.676 86.1213L113.74 86.1329C113.777 85.9251 113.819 85.7573 113.865 85.6283L113.804 85.6065ZM113.676 86.1213L113.611 86.1125C113.582 86.3228 113.568 86.4837 113.568 86.5932H113.633H113.698C113.698 86.4929 113.711 86.3392 113.74 86.1301L113.676 86.1213ZM113.633 86.5932L113.622 86.529C113.042 86.6241 112.424 86.7002 111.768 86.7572L111.774 86.822L111.779 86.8867C112.439 86.8294 113.06 86.753 113.643 86.6573L113.633 86.5932ZM111.774 86.822L111.769 86.7572C111.112 86.8047 110.542 86.8285 110.058 86.8285V86.8935V86.9585C110.546 86.9585 111.12 86.9346 111.778 86.8868L111.774 86.822Z" fill="white" mask="url(#path-1-outside-1_12_6)"/>
<path d="M53.4351 23.3154C53.4616 23.3573 53.4922 23.3977 53.5308 23.4326L69.5601 37.9443C70.2762 38.593 71.4308 38.593 72.147 37.9443L88.1646 23.4326C88.2026 23.3981 88.2319 23.3577 88.2583 23.3164C88.7771 23.8756 89.0972 24.6241 89.0972 25.4443V44.4316C89.097 46.1351 87.7248 47.5601 86.0132 47.5605H55.6812C53.9692 47.5604 52.5963 46.1354 52.5962 44.4316V25.4443C52.5962 24.6239 52.9159 23.8747 53.4351 23.3154ZM86.0132 22.3271C86.4962 22.3273 86.9514 22.443 87.3579 22.6436L71.3911 37.1104C71.1041 37.37 70.603 37.37 70.3159 37.1104L54.3364 22.6436C54.743 22.4431 55.1981 22.3272 55.6812 22.3271H86.0132Z" fill="white"/>
</svg>
