<svg width="38" height="48" viewBox="0 0 38 48" fill="none" xmlns="http://www.w3.org/2000/svg">
<line x1="7.2067" y1="0.839386" x2="31.4712" y2="25.1039" stroke="#FEFFFF" stroke-width="0.686303"/>
<line x1="6.71799" y1="25.107" x2="30.9825" y2="0.842486" stroke="#FEFFFF" stroke-width="0.686303"/>
<path d="M5.21766 40.5696C2.93365 40.5696 1.25358 39.0872 1.25358 36.6604C1.25358 33.9701 3.27405 32.5316 5.49219 32.5316C6.28281 32.5316 6.9746 32.6524 7.4358 32.8501C7.85307 33.0258 7.9519 33.1575 8.02876 33.6187C8.07269 33.9482 8.12759 34.4094 8.16053 34.7168C8.18249 34.9804 7.94092 35.0463 7.86405 34.8157C7.69934 34.2996 7.5456 33.8823 7.31501 33.5968C6.9197 33.1026 6.06319 32.8611 5.15178 32.8611C3.6474 32.872 2.24185 34.1897 2.24185 36.331C2.24185 39.0543 3.86702 40.1963 5.48121 40.1963C6.73302 40.1963 7.45776 39.6692 8.18249 38.3185C8.27034 38.1429 8.44603 38.1648 8.44603 38.3185C8.44603 38.3515 8.44603 38.3954 8.42407 38.4393C8.13857 39.2409 7.83111 39.8339 7.60051 39.9986C7.18324 40.2731 6.41458 40.5696 5.21766 40.5696ZM14.772 40.4598C14.6512 40.4598 14.3657 40.4269 14.0583 40.4269H12.4661C11.939 40.4269 11.4119 40.4159 10.8848 40.4159C10.5993 40.4159 9.75379 40.4598 9.47926 40.4598C9.38044 40.4598 9.33651 40.4049 9.33651 40.35C9.33651 40.2951 9.38044 40.2402 9.46828 40.2402C9.7428 40.2182 9.92948 40.2073 10.1491 40.1414C10.4785 40.0425 10.5664 39.7131 10.5773 38.626C10.5883 37.9781 10.5993 37.2534 10.5993 34.9035C10.5993 33.3332 10.5334 33.0587 10.204 32.9599C9.95144 32.894 9.84163 32.872 9.54515 32.8171C9.35847 32.7842 9.36946 32.6085 9.55613 32.6085C9.84163 32.6085 10.3248 32.6414 10.9836 32.6414C11.5876 32.6414 12.3892 32.6085 12.5429 32.6085C12.6857 32.6085 12.6747 32.8281 12.521 32.8501C12.3672 32.872 12.0707 32.9269 11.8182 33.0038C11.4997 33.0917 11.4668 33.3772 11.4668 35.0243V38.637C11.4668 39.801 11.7962 40.1304 12.6417 40.1414C12.8284 40.1523 12.9822 40.1523 13.1688 40.1523C13.9375 40.1523 14.2889 40.0096 14.5963 39.6912C14.8379 39.4386 15.0795 39.1092 15.2881 38.5711C15.343 38.4503 15.4968 38.4833 15.4968 38.5931V38.615C15.4528 38.9445 15.0905 40.1633 14.9477 40.361C14.9148 40.4159 14.8269 40.4598 14.772 40.4598ZM20.2531 40.5696C19.2319 40.5696 18.3205 40.2292 17.6616 39.6362C16.9369 38.9664 16.4428 37.9781 16.4428 36.8032C16.4428 34.025 18.3644 32.5207 20.5935 32.5207C21.6257 32.5207 22.5481 32.8501 23.196 33.454C23.9207 34.1239 24.4258 35.1121 24.4258 36.2761C24.4258 39.0652 22.5042 40.5696 20.2531 40.5696ZM20.6484 40.2512C21.9881 40.2402 23.4485 39.0103 23.4485 36.6385C23.4376 35.2988 22.9434 34.2666 22.2736 33.6187C21.7245 33.0807 21.0547 32.8391 20.1982 32.8391C18.8805 32.8391 17.4091 34.058 17.431 36.4518C17.431 37.7695 17.9032 38.8346 18.5621 39.4715C19.1331 39.9986 19.8029 40.2512 20.6484 40.2512ZM27.711 40.5806C27.0851 40.5806 26.6458 40.4708 26.1956 40.2292C25.9321 40.0865 25.8662 39.9767 25.8223 39.768C25.7674 39.5374 25.7015 39.1201 25.6356 38.615V38.5711C25.6356 38.3515 25.8552 38.3185 25.9321 38.5491C26.3164 39.6033 26.9533 40.2731 27.9306 40.2731C28.853 40.2731 29.2593 39.5264 29.2593 38.8017C29.2593 38.077 28.9079 37.6707 28.2051 37.1216L27.3157 36.4189C26.547 35.8149 26.1078 35.2988 26.1078 34.4313C26.1078 33.3772 27.0302 32.4987 28.3479 32.4987C28.8201 32.4987 29.3362 32.5865 29.7095 32.7403C30.0609 32.883 30.1268 32.9709 30.1378 33.476C30.1487 34.058 30.1487 34.2337 30.1487 34.4862C30.1487 34.64 29.9291 34.6509 29.8962 34.4972C29.6875 33.498 29.2922 32.7732 28.1612 32.7842C27.3047 32.7952 26.9314 33.443 26.9314 34.047C26.9314 34.7937 27.2059 35.1561 27.7879 35.6282L28.6444 36.331C29.6326 37.1436 30.1048 37.4511 30.1048 38.4833C30.1048 39.3947 29.402 40.5806 27.711 40.5806ZM31.4435 40.4488C31.2678 40.4488 31.2787 40.2512 31.4105 40.2402C31.696 40.2073 31.9486 40.1743 32.0474 40.1414C32.4207 40.0206 32.5086 39.757 32.5086 38.9664V36.5616C32.5086 35.738 32.5306 35.0792 32.5306 34.4862C32.5306 33.6187 32.4976 33.0697 32.1462 32.9709C31.9156 32.905 31.5972 32.8391 31.4105 32.8062C31.3227 32.7952 31.2787 32.7513 31.2787 32.7073C31.2787 32.6634 31.3336 32.6085 31.4215 32.6085C31.6301 32.6085 32.1572 32.6305 33.1016 32.6414C34.1667 32.6524 34.7487 32.6305 35.1769 32.6305C35.6711 32.6305 35.9676 32.6085 36.308 32.6085C36.5166 32.6085 36.5715 32.6195 36.6374 32.916C36.7143 33.2344 36.7911 33.6627 36.846 34.0799C36.879 34.3215 36.6813 34.3874 36.5935 34.1678C36.4288 33.7835 36.297 33.5638 36.2091 33.4211C35.9895 33.0368 35.7809 32.9928 35.1001 32.9819C34.6169 32.9709 34.0459 32.9709 33.8153 32.9709C33.6726 32.9709 33.431 33.0587 33.42 33.3552C33.409 33.6297 33.398 34.036 33.398 34.5192C33.398 34.9694 33.3871 35.3867 33.3871 35.9028C33.3871 36.1224 33.5079 36.2322 33.7165 36.2322C34.2546 36.2432 34.6608 36.2432 34.9903 36.2322C35.2758 36.2322 35.3636 36.1553 35.4295 35.9906C35.5173 35.8149 35.5613 35.6502 35.5723 35.6063C35.6491 35.3976 35.8687 35.3976 35.8687 35.6502C35.8578 36.1004 35.8358 36.7044 35.8578 37.2754C35.8687 37.5169 35.6491 37.5499 35.5832 37.3412C35.5613 37.2534 35.4954 37.0008 35.4075 36.7483C35.3526 36.5836 35.2648 36.5506 34.9903 36.5506C34.6499 36.5506 34.2546 36.5396 33.7494 36.5506C33.4859 36.5506 33.3871 36.7044 33.3871 36.935C33.3871 37.6048 33.398 38.2087 33.398 38.9225C33.398 39.8449 33.7714 40.1414 34.7377 40.1414H34.9793C35.7479 40.1414 36.1652 40.0425 36.5386 39.6472C36.7472 39.4166 36.9119 39.186 37.1974 38.604C37.2853 38.4284 37.461 38.4503 37.461 38.615C37.461 38.637 37.461 38.659 37.45 38.6809C37.2962 39.2519 36.857 40.1633 36.8021 40.2512C36.7362 40.35 36.5935 40.4488 36.3519 40.4488C35.7699 40.4378 34.9683 40.4269 34.2546 40.4269H32.7502C32.0803 40.4269 31.6521 40.4488 31.4435 40.4488Z" fill="white"/>
</svg>
