<svg version="1.1" xmlns="http://www.w3.org/2000/svg" xmlns:xlink="http://www.w3.org/1999/xlink" width="119.768px" height="119.767px" viewBox="0 0 119.768 119.767"><path class="st0" d="M55.398,79.15c-0.343-0.009-0.667-0.156-0.9-0.408L30.446,52.621c-0.473-0.516-0.44-1.317,0.074-1.792c0.516-0.474,1.319-0.44,1.794,0.075l23.151,25.149l59.91-59.752c0.497-0.495,1.301-0.493,1.796,0.005s0.493,1.301-0.005,1.796l0,0L56.321,78.787c-0.237,0.235-0.557,0.367-0.891,0.369L55.398,79.15z"/><path class="st0" d="M59.887,119.767C26.814,119.769,0.002,92.96,0,59.887C-0.002,26.815,26.807,0.003,59.879,0.001c0.002,0,0.005,0,0.007,0c0.701-0.02,1.284,0.532,1.304,1.233c0.02,0.701-0.532,1.284-1.233,1.304c-0.024,0.001-0.047,0.001-0.071,0C28.216,2.537,2.541,28.211,2.541,59.882s25.673,57.345,57.344,57.346c31.671,0.001,57.345-25.673,57.346-57.344v0c0.02-0.701,0.604-1.253,1.304-1.233c0.673,0.019,1.214,0.56,1.233,1.233C119.73,92.94,92.943,119.728,59.887,119.767z"/></svg>