<svg width="29" height="29" viewBox="0 0 29 29" fill="none" xmlns="http://www.w3.org/2000/svg">
<path d="M28.6823 14.4281C28.6823 6.60083 22.3282 0.246765 14.4881 0.246765C6.64802 0.246765 0.306763 6.60083 0.306763 14.4281C0.306763 21.5124 5.49506 27.3796 12.2719 28.4429V18.5275H8.67209V14.4281H12.2719V11.3023C12.2719 7.74097 14.3856 5.78095 17.6267 5.78095C19.1768 5.78095 20.8037 6.06278 20.8037 6.06278V9.54727H19.0103C17.2424 9.54727 16.7043 10.6362 16.7043 11.7635V14.4281H20.6372L20.0095 18.5275H16.7043V28.4429C23.4812 27.3796 28.6695 21.5124 28.6695 14.4281H28.6823Z" fill="#474B52"/>
</svg>
