<svg width="28" height="28" viewBox="0 0 28 28" fill="none" xmlns="http://www.w3.org/2000/svg">
<path d="M27.2227 14.0995C27.2227 6.69684 21.2133 0.6875 13.7986 0.6875C6.38382 0.6875 0.386597 6.69684 0.386597 14.0995C0.386597 20.7994 5.29342 26.3484 11.7026 27.354V17.9765H8.29809V14.0995H11.7026V11.1433C11.7026 7.77513 13.7017 5.92144 16.7669 5.92144C18.2329 5.92144 19.7716 6.18799 19.7716 6.18799V9.48343H18.0754C16.4034 9.48343 15.8946 10.5133 15.8946 11.5794V14.0995H19.6141L19.0204 17.9765H15.8946V27.354C22.3037 26.3484 27.2106 20.7994 27.2106 14.0995H27.2227Z" fill="white"/>
</svg>
