<svg width="27" height="26" viewBox="0 0 27 26" fill="none" xmlns="http://www.w3.org/2000/svg">
<path d="M8.28676 0.106565C6.94882 0.16969 6.0349 0.383961 5.23641 0.696818C4.40976 1.01898 3.7091 1.45104 3.01196 2.15095C2.31407 2.85135 1.88553 3.55327 1.56563 4.38068C1.25604 5.18117 1.04605 6.0956 0.987198 7.43429C0.928349 8.77575 0.91502 9.20354 0.921559 12.6183C0.928098 16.0326 0.943187 16.4611 1.00707 17.8028C1.07095 19.1405 1.28446 20.0539 1.59732 20.8529C1.91998 21.6796 2.35154 22.38 3.0517 23.0774C3.7516 23.7747 4.45402 24.203 5.28193 24.5232C6.08168 24.8325 6.99635 25.043 8.33479 25.1016C9.676 25.1607 10.1043 25.1738 13.518 25.1673C16.9333 25.1607 17.3616 25.1456 18.7028 25.082C20.0408 25.0181 20.9537 24.8039 21.7532 24.4918C22.5798 24.1683 23.2805 23.7375 23.9776 23.0374C24.6747 22.3375 25.1033 21.6351 25.4232 20.8071C25.7328 20.0074 25.9435 19.0927 26.0016 17.755C26.0602 16.4131 26.074 15.9843 26.0675 12.5703C26.061 9.15576 26.0456 8.72797 25.982 7.38701C25.9184 6.04832 25.7041 5.13515 25.3917 4.33591C25.0686 3.50925 24.6375 2.80935 23.9376 2.11146C23.2377 1.41432 22.5353 0.985028 21.7074 0.665884C20.9071 0.356297 19.993 0.145295 18.6545 0.0874519C17.3136 0.0275968 16.8855 0.0145192 13.4705 0.021058C10.0563 0.0275968 9.62822 0.0421833 8.28701 0.106565M8.43363 22.8384C7.20761 22.7851 6.54191 22.5814 6.09827 22.4107C5.51079 22.1833 5.09155 21.9107 4.65018 21.4728C4.20982 21.0332 3.93645 20.6153 3.70709 20.029C3.53481 19.5854 3.32733 18.9204 3.26999 17.6944C3.20762 16.3691 3.19329 15.9714 3.18725 12.6138C3.18071 9.25711 3.19304 8.85925 3.25088 7.53288C3.30344 6.30786 3.50841 5.64115 3.67867 5.19802C3.90602 4.60978 4.17763 4.1913 4.61648 3.74993C5.05609 3.30882 5.47407 3.0362 6.0608 2.80684C6.50418 2.63356 7.16888 2.42784 8.3944 2.36974C9.72052 2.30687 10.1179 2.29354 13.4745 2.287C16.832 2.28046 17.2298 2.29228 18.5562 2.35063C19.7812 2.40395 20.4479 2.6069 20.8908 2.77842C21.4788 3.00577 21.898 3.27662 22.3389 3.71623C22.7798 4.15584 23.0531 4.57307 23.2825 5.16106C23.4555 5.60318 23.6615 6.26888 23.7193 7.4939C23.7825 8.82002 23.7968 9.21762 23.8028 12.5745C23.8094 15.9322 23.797 16.3298 23.7389 17.6554C23.6856 18.8815 23.4822 19.5474 23.3112 19.9916C23.0838 20.5785 22.8119 20.9978 22.3728 21.4391C21.9337 21.8787 21.5158 22.1529 20.9285 22.3822C20.4861 22.555 19.8204 22.7612 18.5957 22.8193C17.2696 22.8817 16.8722 22.896 13.5143 22.9021C10.1576 22.9086 9.76025 22.896 8.43388 22.8384M18.6845 5.87253C18.686 6.70522 19.3632 7.37947 20.1959 7.37796C21.0291 7.37645 21.7034 6.69968 21.7021 5.86674C21.7003 5.03405 21.0233 4.3593 20.1901 4.36081C19.3569 4.36232 18.6827 5.03958 18.6842 5.87228M7.0381 12.6065C7.04489 16.1726 9.94133 19.0573 13.5067 19.0502C17.0724 19.0432 19.9585 16.1477 19.9517 12.5816C19.9447 9.01668 17.048 6.13056 13.4818 6.13735C9.91643 6.14439 7.03106 9.04108 7.0381 12.6065ZM9.30304 12.602C9.29901 10.2875 11.1724 8.40706 13.4864 8.40304C15.8008 8.39851 17.6815 10.2711 17.686 12.5861C17.6906 14.9011 15.8172 16.781 13.5022 16.7855C11.188 16.7901 9.30731 14.9172 9.30304 12.6022" fill="#474B52"/>
</svg>
