<svg width="26" height="26" viewBox="0 0 26 26" fill="none" xmlns="http://www.w3.org/2000/svg">
<g clip-path="url(#clip0_0_144)">
<path d="M7.74165 0.274625C6.37604 0.339055 5.44322 0.557757 4.62822 0.877083C3.78447 1.20591 3.06933 1.64691 2.35777 2.36128C1.64545 3.07617 1.20805 3.7926 0.881532 4.63712C0.565543 5.45417 0.351204 6.38751 0.291138 7.75389C0.231072 9.12309 0.217467 9.55972 0.224141 13.0451C0.230815 16.53 0.246217 16.9674 0.311417 18.3368C0.376617 19.7022 0.594549 20.6345 0.913875 21.45C1.24321 22.2937 1.6837 23.0086 2.39833 23.7204C3.11271 24.4323 3.82965 24.8694 4.67468 25.1962C5.49097 25.5119 6.42456 25.7268 7.79068 25.7866C9.15962 25.8469 9.59677 25.8602 13.0811 25.8536C16.567 25.8469 17.0042 25.8315 18.3731 25.7665C19.7387 25.7013 20.6705 25.4826 21.4865 25.1641C22.3303 24.834 23.0454 24.3943 23.757 23.6796C24.4685 22.9653 24.9059 22.2483 25.2324 21.4033C25.5484 20.587 25.7635 19.6534 25.8228 18.2881C25.8826 16.9183 25.8968 16.4807 25.8901 12.9961C25.8834 9.51095 25.8678 9.07431 25.8028 7.70563C25.7379 6.33925 25.5192 5.4072 25.2004 4.59143C24.8705 3.74768 24.4305 3.0333 23.7162 2.32098C23.0018 1.60943 22.2848 1.17125 21.4398 0.84551C20.623 0.529521 19.6899 0.314156 18.3238 0.255116C16.9551 0.194023 16.5182 0.180675 13.0326 0.187349C9.54774 0.194023 9.11085 0.208912 7.74191 0.274625M7.89156 23.4766C6.64018 23.4222 5.96071 23.2142 5.50791 23.0399C4.90827 22.8079 4.48037 22.5296 4.02987 22.0827C3.5804 21.634 3.30138 21.2074 3.06727 20.6091C2.89144 20.1563 2.67967 19.4776 2.62114 18.2262C2.55748 16.8734 2.54285 16.4676 2.53669 13.0405C2.53001 9.6144 2.54259 9.20831 2.60163 7.85451C2.65528 6.60416 2.86448 5.92367 3.03827 5.47137C3.27032 4.87097 3.54754 4.44383 3.99547 3.99333C4.44417 3.5431 4.8708 3.26484 5.46966 3.03074C5.92221 2.85388 6.60065 2.6439 7.85151 2.5846C9.20506 2.52043 9.61063 2.50683 13.0367 2.50015C16.4636 2.49348 16.8696 2.50554 18.2234 2.5651C19.4738 2.61951 20.1543 2.82667 20.6063 3.00173C21.2065 3.23378 21.6344 3.51024 22.0844 3.95894C22.5343 4.40764 22.8134 4.83349 23.0475 5.43364C23.2241 5.8849 23.4343 6.56437 23.4934 7.81472C23.5578 9.16826 23.5724 9.5741 23.5786 13.0004C23.5852 16.4275 23.5727 16.8334 23.5134 18.1864C23.459 19.4378 23.2513 20.1175 23.0767 20.5708C22.8447 21.1699 22.5672 21.5978 22.119 22.0483C21.6708 22.497 21.2442 22.7768 20.6448 23.0109C20.1933 23.1873 19.5138 23.3978 18.2637 23.4571C16.9102 23.5207 16.5046 23.5354 13.0773 23.5415C9.65119 23.5482 9.24561 23.5354 7.89181 23.4766M18.3544 6.15982C18.3559 7.00973 19.0472 7.69793 19.8971 7.69639C20.7475 7.69485 21.4357 7.00409 21.4344 6.15392C21.4326 5.30401 20.7416 4.6153 19.8912 4.61684C19.0408 4.61838 18.3526 5.30966 18.3541 6.15957M6.46717 13.033C6.4741 16.6729 9.43043 19.6172 13.0696 19.61C16.709 19.6028 19.6548 16.6475 19.6478 13.0076C19.6406 9.369 16.6841 6.42319 13.0442 6.43012C9.40502 6.43731 6.45998 9.3939 6.46717 13.033ZM8.77894 13.0284C8.77484 10.6661 10.6869 8.74677 13.0488 8.74267C15.4111 8.73805 17.3307 10.6494 17.3353 13.0122C17.3399 15.3751 15.4278 17.2939 13.0649 17.2985C10.7029 17.3031 8.78331 15.3915 8.77894 13.0287" fill="white"/>
</g>
<defs>
<clipPath id="clip0_0_144">
<rect width="25.6693" height="25.6693" fill="white" transform="translate(0.222656 0.186035)"/>
</clipPath>
</defs>
</svg>
