<svg width="28" height="28" viewBox="0 0 28 28" fill="none" xmlns="http://www.w3.org/2000/svg">
<path d="M14.3173 27.6829C21.7279 27.6829 27.7354 21.6755 27.7354 14.2649C27.7354 6.85432 21.7279 0.846863 14.3173 0.846863C6.90675 0.846863 0.899292 6.85432 0.899292 14.2649C0.899292 21.6755 6.90675 27.6829 14.3173 27.6829Z" fill="white"/>
<path d="M23.2404 13.4593C23.2404 9.46542 19.2347 6.21747 14.3135 6.21747C9.39221 6.21747 5.38654 9.46542 5.38654 13.4593C5.38654 17.0387 8.56345 20.038 12.8493 20.6063C13.1414 20.6695 13.536 20.7997 13.6347 21.0483C13.7254 21.2733 13.6939 21.6285 13.6623 21.8534C13.6623 21.8534 13.5557 22.4849 13.536 22.619C13.4966 22.844 13.3584 23.5031 14.3095 23.1005C15.2606 22.698 19.4479 20.0736 21.3224 17.9188C22.6169 16.502 23.2365 15.0615 23.2365 13.4632" fill="#3D7ABC"/>
<path d="M12.502 11.5295H11.8745C11.7798 11.5295 11.7009 11.6084 11.7009 11.7031V15.5904C11.7009 15.6851 11.7798 15.7641 11.8745 15.7641H12.502C12.5967 15.7641 12.6756 15.6851 12.6756 15.5904V11.7031C12.6756 11.6084 12.5967 11.5295 12.502 11.5295Z" fill="white"/>
<path d="M16.8116 11.5295H16.1841C16.0894 11.5295 16.0105 11.6084 16.0105 11.7031V14.0118L14.2267 11.6045C14.2267 11.6045 14.2188 11.5926 14.2148 11.5887C14.2148 11.5887 14.2069 11.5808 14.203 11.5768C14.203 11.5768 14.1951 11.5729 14.1951 11.5689C14.1951 11.5689 14.1951 11.5689 14.1912 11.5689C14.1912 11.5689 14.1872 11.565 14.1833 11.5611C14.1833 11.5611 14.1833 11.5611 14.1793 11.5611C14.1793 11.5611 14.1714 11.5611 14.1714 11.5571C14.1714 11.5571 14.1714 11.5571 14.1675 11.5571C14.1675 11.5571 14.1596 11.5571 14.1556 11.5532C14.1556 11.5532 14.1556 11.5532 14.1517 11.5532C14.1517 11.5532 14.1438 11.5532 14.1399 11.5532C14.1399 11.5532 14.1399 11.5532 14.132 11.5532C14.132 11.5532 14.1241 11.5532 14.1201 11.5532C14.1201 11.5532 14.1162 11.5532 14.1122 11.5532H14.1043C14.1043 11.5532 14.1004 11.5532 14.0965 11.5532C14.0965 11.5532 14.0925 11.5532 14.0885 11.5532H13.4611C13.3663 11.5532 13.2874 11.6321 13.2874 11.7268V15.6141C13.2874 15.7088 13.3663 15.7877 13.4611 15.7877H14.0885C14.1833 15.7877 14.2622 15.7088 14.2622 15.6141V13.3054L16.046 15.7167C16.046 15.7167 16.0736 15.7483 16.0894 15.7601C16.0894 15.7601 16.0973 15.7641 16.1013 15.768C16.1013 15.768 16.1013 15.768 16.1052 15.768C16.1052 15.768 16.1092 15.768 16.1131 15.7719C16.1131 15.7719 16.1171 15.7719 16.121 15.7719C16.121 15.7719 16.121 15.7719 16.1249 15.7719C16.1289 15.7719 16.1328 15.7719 16.1368 15.7719C16.1526 15.7719 16.1644 15.7759 16.1802 15.7759H16.8077C16.9024 15.7759 16.9813 15.697 16.9813 15.6022V11.715C16.9813 11.6202 16.9024 11.5413 16.8077 11.5413" fill="white"/>
<path d="M10.9942 14.7896H9.29326V11.6995C9.29326 11.6047 9.21433 11.5258 9.11962 11.5258H8.49213C8.39741 11.5258 8.31848 11.6047 8.31848 11.6995V15.5867C8.31848 15.6341 8.33821 15.6775 8.36584 15.7051C8.39741 15.7367 8.44083 15.7525 8.48424 15.7525H10.9863C11.081 15.7525 11.16 15.6736 11.16 15.5789V14.9514C11.16 14.8566 11.081 14.7777 10.9863 14.7777" fill="white"/>
<path d="M20.2687 12.5043C20.3634 12.5043 20.4423 12.4253 20.4423 12.3306V11.7031C20.4423 11.6084 20.3634 11.5295 20.2687 11.5295H17.7666C17.7193 11.5295 17.6759 11.5492 17.6443 11.5768C17.6127 11.6084 17.5969 11.6518 17.5969 11.6952V15.5825C17.5969 15.6299 17.6167 15.6733 17.6443 15.7009C17.6759 15.7325 17.7193 15.7483 17.7627 15.7483H20.2647C20.3595 15.7483 20.4384 15.6693 20.4384 15.5746V14.9471C20.4384 14.8524 20.3595 14.7735 20.2647 14.7735H18.5638V14.1144H20.2647C20.3595 14.1144 20.4384 14.0355 20.4384 13.9408V13.3133C20.4384 13.2186 20.3595 13.1396 20.2647 13.1396H18.5638V12.4806H20.2647L20.2687 12.5043Z" fill="white"/>
</svg>
