<svg width="29" height="29" viewBox="0 0 29 29" fill="none" xmlns="http://www.w3.org/2000/svg">
<path d="M14.4946 28.7171C22.2807 28.7171 28.5926 22.4052 28.5926 14.619C28.5926 6.83286 22.2807 0.520935 14.4946 0.520935C6.70841 0.520935 0.396484 6.83286 0.396484 14.619C0.396484 22.4052 6.70841 28.7171 14.4946 28.7171Z" fill="#474B52"/>
<path d="M23.8701 13.7735C23.8701 9.57723 19.6614 6.16467 14.4907 6.16467C9.32001 6.16467 5.11133 9.57723 5.11133 13.7735C5.11133 17.5344 8.44926 20.6857 12.9523 21.2828C13.2592 21.3491 13.6738 21.486 13.7775 21.7472C13.8729 21.9835 13.8397 22.3567 13.8065 22.5931C13.8065 22.5931 13.6946 23.2565 13.6738 23.3975C13.6324 23.6338 13.4872 24.3263 14.4866 23.9034C15.4859 23.4804 19.8853 20.723 21.8549 18.459C23.2149 16.9704 23.8659 15.457 23.8659 13.7776" fill="white"/>
<path d="M12.5872 11.7451H11.9279C11.8284 11.7451 11.7455 11.828 11.7455 11.9275V16.0118C11.7455 16.1113 11.8284 16.1942 11.9279 16.1942H12.5872C12.6867 16.1942 12.7697 16.1113 12.7697 16.0118V11.9275C12.7697 11.828 12.6867 11.7451 12.5872 11.7451Z" fill="#474B52"/>
<path d="M17.1152 11.7451H16.4559C16.3564 11.7451 16.2734 11.828 16.2734 11.9275V14.3532L14.3992 11.8238C14.3992 11.8238 14.3909 11.8114 14.3868 11.8073C14.3868 11.8073 14.3785 11.799 14.3743 11.7948C14.3743 11.7948 14.3661 11.7907 14.3661 11.7865C14.3661 11.7865 14.3661 11.7865 14.3619 11.7865C14.3619 11.7865 14.3578 11.7824 14.3536 11.7782C14.3536 11.7782 14.3536 11.7782 14.3495 11.7782C14.3495 11.7782 14.3412 11.7782 14.3412 11.7741C14.3412 11.7741 14.3412 11.7741 14.337 11.7741C14.337 11.7741 14.3287 11.7741 14.3246 11.7699C14.3246 11.7699 14.3246 11.7699 14.3204 11.7699C14.3204 11.7699 14.3121 11.7699 14.308 11.7699C14.308 11.7699 14.308 11.7699 14.2997 11.7699C14.2997 11.7699 14.2914 11.7699 14.2873 11.7699C14.2873 11.7699 14.2831 11.7699 14.279 11.7699H14.2707C14.2707 11.7699 14.2665 11.7699 14.2624 11.7699C14.2624 11.7699 14.2582 11.7699 14.2541 11.7699H13.5948C13.4953 11.7699 13.4124 11.8529 13.4124 11.9524V16.0367C13.4124 16.1362 13.4953 16.2191 13.5948 16.2191H14.2541C14.3536 16.2191 14.4365 16.1362 14.4365 16.0367V13.611L16.3108 16.1445C16.3108 16.1445 16.3398 16.1777 16.3564 16.1901C16.3564 16.1901 16.3647 16.1942 16.3688 16.1984C16.3688 16.1984 16.3688 16.1984 16.373 16.1984C16.373 16.1984 16.3771 16.1984 16.3812 16.2025C16.3812 16.2025 16.3854 16.2025 16.3895 16.2025C16.3895 16.2025 16.3895 16.2025 16.3937 16.2025C16.3978 16.2025 16.402 16.2025 16.4061 16.2025C16.4227 16.2025 16.4352 16.2067 16.4517 16.2067H17.111C17.2105 16.2067 17.2935 16.1238 17.2935 16.0242V11.9399C17.2935 11.8404 17.2105 11.7575 17.111 11.7575" fill="#474B52"/>
<path d="M11.0031 15.1708H9.21596V11.9241C9.21596 11.8246 9.13303 11.7416 9.03351 11.7416H8.37422C8.2747 11.7416 8.19177 11.8246 8.19177 11.9241V16.0084C8.19177 16.0581 8.2125 16.1037 8.24153 16.1328C8.2747 16.1659 8.32032 16.1825 8.36593 16.1825H10.9948C11.0943 16.1825 11.1773 16.0996 11.1773 16.0001V15.3408C11.1773 15.2413 11.0943 15.1583 10.9948 15.1583" fill="#474B52"/>
<path d="M20.7477 12.7692C20.8472 12.7692 20.9302 12.6863 20.9302 12.5868V11.9275C20.9302 11.828 20.8472 11.7451 20.7477 11.7451H18.1188C18.0691 11.7451 18.0235 11.7658 17.9903 11.7948C17.9571 11.828 17.9406 11.8736 17.9406 11.9192V16.0035C17.9406 16.0533 17.9613 16.0989 17.9903 16.1279C18.0235 16.1611 18.0691 16.1777 18.1147 16.1777H20.7436C20.8431 16.1777 20.926 16.0947 20.926 15.9952V15.3359C20.926 15.2364 20.8431 15.1535 20.7436 15.1535H18.9564V14.461H20.7436C20.8431 14.461 20.926 14.3781 20.926 14.2786V13.6193C20.926 13.5198 20.8431 13.4368 20.7436 13.4368H18.9564V12.7444H20.7436L20.7477 12.7692Z" fill="#474B52"/>
</svg>
