<svg width="28" height="28" viewBox="0 0 28 28" fill="none" xmlns="http://www.w3.org/2000/svg">
<path d="M14.31 27.4389C21.7206 27.4389 27.728 21.4314 27.728 14.0208C27.728 6.61024 21.7206 0.602783 14.31 0.602783C6.89943 0.602783 0.891968 6.61024 0.891968 14.0208C0.891968 21.4314 6.89943 27.4389 14.31 27.4389Z" fill="white"/>
<path d="M23.2331 13.2152C23.2331 9.22134 19.2274 5.97339 14.3062 5.97339C9.38489 5.97339 5.37921 9.22134 5.37921 13.2152C5.37921 16.7946 8.55613 19.794 12.842 20.3623C13.134 20.4254 13.5287 20.5556 13.6274 20.8043C13.7181 21.0292 13.6866 21.3844 13.655 21.6093C13.655 21.6093 13.5484 22.2408 13.5287 22.375C13.4892 22.5999 13.3511 23.259 14.3022 22.8564C15.2533 22.4539 19.4405 19.8295 21.3151 17.6747C22.6096 16.2579 23.2292 14.8175 23.2292 13.2191" fill="#08284C"/>
<path d="M12.4947 11.2854H11.8672C11.7725 11.2854 11.6935 11.3643 11.6935 11.459V15.3463C11.6935 15.441 11.7725 15.52 11.8672 15.52H12.4947C12.5894 15.52 12.6683 15.441 12.6683 15.3463V11.459C12.6683 11.3643 12.5894 11.2854 12.4947 11.2854Z" fill="white"/>
<path d="M16.8043 11.2854H16.1768C16.0821 11.2854 16.0032 11.3643 16.0032 11.459V13.7677L14.2194 11.3604C14.2194 11.3604 14.2115 11.3485 14.2075 11.3446C14.2075 11.3446 14.1996 11.3367 14.1957 11.3328C14.1957 11.3328 14.1878 11.3288 14.1878 11.3249C14.1878 11.3249 14.1878 11.3249 14.1838 11.3249C14.1838 11.3249 14.1799 11.3209 14.1759 11.317C14.1759 11.317 14.1759 11.317 14.172 11.317C14.172 11.317 14.1641 11.317 14.1641 11.313C14.1641 11.313 14.1641 11.313 14.1602 11.313C14.1602 11.313 14.1523 11.313 14.1483 11.3091C14.1483 11.3091 14.1483 11.3091 14.1444 11.3091C14.1444 11.3091 14.1365 11.3091 14.1325 11.3091C14.1325 11.3091 14.1325 11.3091 14.1246 11.3091C14.1246 11.3091 14.1168 11.3091 14.1128 11.3091C14.1128 11.3091 14.1089 11.3091 14.1049 11.3091H14.097C14.097 11.3091 14.0931 11.3091 14.0891 11.3091C14.0891 11.3091 14.0852 11.3091 14.0812 11.3091H13.4537C13.359 11.3091 13.2801 11.388 13.2801 11.4827V15.37C13.2801 15.4647 13.359 15.5437 13.4537 15.5437H14.0812C14.1759 15.5437 14.2549 15.4647 14.2549 15.37V13.0613L16.0387 15.4726C16.0387 15.4726 16.0663 15.5042 16.0821 15.516C16.0821 15.516 16.09 15.52 16.0939 15.5239C16.0939 15.5239 16.0939 15.5239 16.0979 15.5239C16.0979 15.5239 16.1018 15.5239 16.1058 15.5279C16.1058 15.5279 16.1097 15.5279 16.1137 15.5279C16.1137 15.5279 16.1137 15.5279 16.1176 15.5279C16.1216 15.5279 16.1255 15.5279 16.1295 15.5279C16.1452 15.5279 16.1571 15.5318 16.1729 15.5318H16.8004C16.8951 15.5318 16.974 15.4529 16.974 15.3582V11.4709C16.974 11.3762 16.8951 11.2972 16.8004 11.2972" fill="white"/>
<path d="M10.9869 14.5455H9.28594V11.4554C9.28594 11.3607 9.20701 11.2817 9.11229 11.2817H8.4848C8.39009 11.2817 8.31116 11.3607 8.31116 11.4554V15.3427C8.31116 15.39 8.33089 15.4334 8.35851 15.4611C8.39008 15.4926 8.4335 15.5084 8.47691 15.5084H10.979C11.0737 15.5084 11.1526 15.4295 11.1526 15.3348V14.7073C11.1526 14.6126 11.0737 14.5336 10.979 14.5336" fill="white"/>
<path d="M20.2614 12.2602C20.3561 12.2602 20.435 12.1813 20.435 12.0865V11.459C20.435 11.3643 20.3561 11.2854 20.2614 11.2854H17.7593C17.7119 11.2854 17.6685 11.3051 17.637 11.3328C17.6054 11.3643 17.5896 11.4077 17.5896 11.4512V15.3384C17.5896 15.3858 17.6093 15.4292 17.637 15.4568C17.6685 15.4884 17.7119 15.5042 17.7554 15.5042H20.2574C20.3521 15.5042 20.4311 15.4253 20.4311 15.3305V14.7031C20.4311 14.6083 20.3521 14.5294 20.2574 14.5294H18.5565V13.8703H20.2574C20.3521 13.8703 20.4311 13.7914 20.4311 13.6967V13.0692C20.4311 12.9745 20.3521 12.8956 20.2574 12.8956H18.5565V12.2365H20.2574L20.2614 12.2602Z" fill="white"/>
</svg>
