<svg width="70" height="30" viewBox="0 0 70 30" fill="none" xmlns="http://www.w3.org/2000/svg">
<path d="M46.0918 0.666016C46.4373 1.0383 46.6503 1.53677 46.6504 2.08301V14.7295C46.6502 15.864 45.7367 16.8124 44.5967 16.8125H24.3955C23.2555 16.8124 22.342 15.864 22.3418 14.7295V2.08301C22.3419 1.53701 22.5542 1.03825 22.8994 0.666016C22.917 0.693665 22.9374 0.720109 22.9629 0.743164L33.6387 10.4072C34.1156 10.8392 34.8844 10.8392 35.3613 10.4072L46.0293 0.743164C46.0546 0.720226 46.0742 0.693498 46.0918 0.666016ZM44.5967 0.0078125C44.9175 0.0078429 45.2201 0.0840158 45.4902 0.216797L34.8584 9.85156C34.6672 10.0247 34.3328 10.0247 34.1416 9.85156L23.501 0.216797C23.7713 0.0837739 24.0744 0.00784282 24.3955 0.0078125H44.5967Z" fill="white"/>
</svg>
