<svg width="70" height="36" viewBox="0 0 70 36" fill="none" xmlns="http://www.w3.org/2000/svg">
<path d="M40.2529 0.234375C41.0598 0.234485 41.7139 0.888369 41.7139 1.69531V4.90723C41.7139 5.20474 41.9554 5.44629 42.2529 5.44629H46.5342C47.3412 5.44629 47.9961 6.10021 47.9961 6.90723V23.1348C47.996 23.9417 47.3412 24.5957 46.5342 24.5957H39.0967V19.373C39.0967 18.8209 38.6487 18.3733 38.0967 18.373H30.8848C30.3325 18.373 29.8848 18.8208 29.8848 19.373V24.5957H22.457C21.6501 24.5957 20.9961 23.9417 20.9961 23.1348V6.90723C20.9961 6.10022 21.65 5.44629 22.457 5.44629H26.7393C27.0366 5.44609 27.2773 5.20462 27.2773 4.90723V1.69531C27.2773 0.888301 27.9322 0.234375 28.7393 0.234375H40.2529ZM34.502 4.49805C31.9022 4.49805 29.7949 6.60529 29.7949 9.20508C29.795 11.8048 31.9022 13.9121 34.502 13.9121C37.1017 13.9121 39.2089 11.8048 39.209 9.20508C39.209 6.60532 37.1017 4.4981 34.502 4.49805Z" fill="white"/>
<path d="M39.8735 22.1504H29.1074C28.5551 22.1504 28.1074 22.5981 28.1074 23.1504V24.9023C28.1074 25.4546 28.5551 25.9023 29.1074 25.9023H39.8735C40.4258 25.9023 40.8735 25.4546 40.8735 24.9023V23.1504C40.8735 22.5981 40.4258 22.1504 39.8735 22.1504Z" fill="#3F7BBD"/>
<path d="M33.1797 11.1909L35.0008 9.38126V6.70117" stroke="white" stroke-width="0.75" stroke-miterlimit="10" stroke-linecap="round"/>
<rect x="21.0078" y="18.2598" width="8.88477" height="6.33594" rx="1" fill="white"/>
<rect x="39.0938" y="18.2598" width="8.90234" height="6.33594" rx="1" fill="white"/>
</svg>
