<svg width="67" height="67" viewBox="0 0 67 67" fill="none" xmlns="http://www.w3.org/2000/svg">
<rect x="0.689758" y="0.695312" width="66.3103" height="66.3047" fill="#3D7ABC" fill-opacity="0.9"/>
<line x1="16.6931" y1="17.2622" x2="51.0082" y2="17.2622" stroke="#FEFFFF" stroke-width="0.686303"/>
<line x1="16.6931" y1="24.1252" x2="51.0082" y2="24.1252" stroke="#FEFFFF" stroke-width="0.686303"/>
<line x1="16.6931" y1="30.9882" x2="51.0082" y2="30.9882" stroke="#FEFFFF" stroke-width="0.686303"/>
<path d="M20.5471 48.7137C20.4922 48.7137 20.4702 48.6149 20.3604 48.3404C20.2506 48.0658 20.1518 47.7913 20.009 47.5168C19.427 46.1991 18.3948 43.948 17.8238 42.7511C17.6152 42.3338 17.4285 42.3668 17.4175 42.839C17.3956 43.5088 17.3626 44.1237 17.3517 44.7277C17.3297 45.3865 17.2968 46.0564 17.2858 46.7152C17.2528 48.0658 17.3407 48.2745 17.6262 48.3513C17.9007 48.4172 18.2631 48.4502 18.4497 48.4612C18.6035 48.4831 18.5925 48.6918 18.4388 48.6918C18.1533 48.6918 17.6811 48.6698 17.0552 48.6698C16.4073 48.6698 16.1218 48.6918 15.7814 48.7027C15.7045 48.7027 15.6716 48.6588 15.6716 48.6039C15.6716 48.56 15.7045 48.5051 15.7814 48.4941C16.0779 48.4612 16.1877 48.4282 16.4183 48.3623C16.7148 48.2745 16.8246 48.0658 16.8905 46.7481C16.9234 46.1003 16.9673 45.4634 17.0003 44.8155C17.0442 43.937 17.0771 43.1464 17.1211 41.8726C17.132 41.5542 16.8905 41.3346 16.6159 41.2467C16.4073 41.1809 16.3085 41.1479 16.0449 41.093C15.8692 41.0601 15.8802 40.8624 16.0449 40.8624C16.2097 40.8624 16.605 40.8954 17.2858 40.9063C17.4066 40.9063 17.4944 40.9173 17.5823 40.9173C17.9446 40.9283 18.0325 40.9832 18.1203 41.2248C18.1972 41.4224 18.318 41.7189 18.5266 42.1691C19.2513 43.7833 20.042 45.4634 20.624 46.7591C20.7777 47.0995 20.8985 47.1105 21.0632 46.7701C21.8538 45.1779 22.7103 43.388 23.49 41.7848C23.6107 41.5322 23.6986 41.3126 23.7645 41.1589C23.8413 40.9722 23.9731 40.8844 24.2257 40.8844H24.588C25.0492 40.8844 25.4006 40.8734 25.7959 40.8624C25.9716 40.8624 25.9716 41.0381 25.7959 41.071C25.4885 41.1369 25.3457 41.1699 25.0273 41.2907C24.7857 41.3785 24.6649 41.6311 24.6759 42.4546C24.6869 43.2892 24.6869 43.9151 24.7088 44.7277C24.7198 45.4195 24.7198 46.0673 24.7418 46.7591C24.7747 48.0109 24.9175 48.2306 25.159 48.3184C25.4336 48.4063 25.5873 48.4392 25.8948 48.4831C25.9936 48.4941 26.0375 48.549 26.0375 48.6039C26.0375 48.6588 25.9936 48.7027 25.9167 48.7027C25.6312 48.7027 25.1371 48.6698 24.3355 48.6698C23.6547 48.6698 23.2264 48.7027 22.6993 48.7027C22.5456 48.7027 22.5346 48.4941 22.6884 48.4721C22.8641 48.4392 23.1166 48.4063 23.3252 48.3404C23.6876 48.2415 23.8633 48.0658 23.8633 46.8799C23.8633 46.1771 23.8633 45.5952 23.8523 44.7826C23.8523 44.1896 23.8413 43.7504 23.8194 42.5315C23.8084 42.1911 23.6437 42.1472 23.5009 42.4546C22.6664 44.1567 22.0075 45.6281 21.173 47.2862C21.0083 47.6376 20.8765 47.978 20.7338 48.3294C20.6349 48.571 20.6349 48.7137 20.5471 48.7137ZM26.8499 48.7027C26.6742 48.7027 26.6852 48.5051 26.817 48.4941C27.1025 48.4612 27.355 48.4282 27.4539 48.3953C27.8272 48.2745 27.9151 48.0109 27.9151 47.2203V44.8155C27.9151 43.992 27.937 43.3331 27.937 42.7401C27.937 41.8726 27.9041 41.3236 27.5527 41.2248C27.3221 41.1589 27.0037 41.093 26.817 41.0601C26.7291 41.0491 26.6852 41.0052 26.6852 40.9612C26.6852 40.9173 26.7401 40.8624 26.828 40.8624C27.0366 40.8624 27.5637 40.8844 28.508 40.8954C29.5732 40.9063 30.1552 40.8844 30.5834 40.8844C31.0776 40.8844 31.374 40.8624 31.7144 40.8624C31.9231 40.8624 31.978 40.8734 32.0439 41.1699C32.1207 41.4883 32.1976 41.9166 32.2525 42.3338C32.2854 42.5754 32.0878 42.6413 31.9999 42.4217C31.8352 42.0374 31.7035 41.8177 31.6156 41.675C31.396 41.2907 31.1874 41.2467 30.5066 41.2358C30.0234 41.2248 29.4524 41.2248 29.2218 41.2248C29.079 41.2248 28.8375 41.3126 28.8265 41.6091C28.8155 41.8836 28.8045 42.2899 28.8045 42.7731C28.8045 43.2233 28.7935 43.6406 28.7935 44.1567C28.7935 44.3763 28.9143 44.4861 29.123 44.4861C29.661 44.4971 30.0673 44.4971 30.3967 44.4861C30.6822 44.4861 30.7701 44.4092 30.836 44.2445C30.9238 44.0688 30.9677 43.9041 30.9787 43.8602C31.0556 43.6515 31.2752 43.6515 31.2752 43.9041C31.2642 44.3543 31.2423 44.9583 31.2642 45.5293C31.2752 45.7708 31.0556 45.8038 30.9897 45.5952C30.9677 45.5073 30.9019 45.2547 30.814 45.0022C30.7591 44.8375 30.6713 44.8045 30.3967 44.8045C30.0563 44.8045 29.661 44.7936 29.1559 44.8045C28.8924 44.8045 28.7935 44.9583 28.7935 45.1889C28.7935 45.8587 28.8045 46.4626 28.8045 47.1764C28.8045 48.0988 29.1779 48.3953 30.1442 48.3953H30.3858C31.1544 48.3953 31.5717 48.2964 31.945 47.9011C32.1537 47.6705 32.3184 47.4399 32.6039 46.858C32.6917 46.6823 32.8674 46.7042 32.8674 46.8689C32.8674 46.8909 32.8674 46.9129 32.8565 46.9348C32.7027 47.5058 32.2635 48.4172 32.2086 48.5051C32.1427 48.6039 31.9999 48.7027 31.7584 48.7027C31.1764 48.6918 30.3748 48.6808 29.661 48.6808H28.1566C27.4868 48.6808 27.0586 48.7027 26.8499 48.7027ZM36.6316 48.7137C36.2912 48.7137 35.7092 48.6808 34.9625 48.6808C34.2927 48.6808 33.9962 48.7027 33.7107 48.7027C33.557 48.7027 33.557 48.5161 33.7327 48.4831C34.0292 48.4282 34.0731 48.4172 34.2927 48.3513C34.6441 48.2415 34.699 47.8902 34.7319 46.6054L34.7759 44.7606C34.7978 43.9151 34.7978 43.2343 34.7978 41.9715C34.7978 41.5542 34.6112 41.3456 34.2708 41.2358C33.9962 41.1479 33.8535 41.115 33.579 41.0601C33.5021 41.0491 33.4582 41.0052 33.4582 40.9612C33.4582 40.9063 33.5131 40.8624 33.6009 40.8624C33.9413 40.8624 34.7869 40.8954 35.3579 40.8624C35.5226 40.8624 35.5665 40.9393 35.7202 41.1259C37.6638 43.5747 38.696 44.8375 39.6184 45.9795L40.0796 46.5505C40.3212 46.858 40.4749 46.825 40.4749 46.4077C40.4749 45.5183 40.464 44.7826 40.464 44.0469V42.6962C40.464 41.653 40.409 41.3565 40.0357 41.2577C39.7941 41.1918 39.5086 41.1369 39.1353 41.082C38.9815 41.0491 38.9815 40.8514 39.1353 40.8514C39.3659 40.8514 39.8161 40.8844 40.6287 40.8844C41.3095 40.8844 41.7377 40.8624 41.8585 40.8624C41.9464 40.8624 41.9903 40.8954 41.9903 40.9393C41.9903 41.0052 41.9464 41.0491 41.8585 41.071C41.573 41.1259 41.4632 41.1479 41.3314 41.2028C40.991 41.3126 40.8922 41.5981 40.8812 42.6303L40.8593 44.0469C40.8373 45.1449 40.8483 45.7928 40.8483 46.6603C40.8483 48.0219 40.8593 48.3513 40.8702 48.538C40.8812 48.6918 40.7824 48.7906 40.6726 48.7906C40.6177 48.7906 40.5628 48.7686 40.5189 48.7027C40.409 48.527 40.2773 48.2086 39.6514 47.429C38.4764 45.9685 37.2905 44.4751 36.401 43.377C36.0936 42.9927 35.83 42.6852 35.5775 42.3778C35.3359 42.0813 35.1602 42.1142 35.1602 42.5315C35.1602 43.3441 35.1492 44.1347 35.1492 44.7386L35.1602 46.6054C35.1712 47.8902 35.281 48.2415 35.6763 48.3404C35.9069 48.4063 36.0936 48.4282 36.6316 48.4831C36.7854 48.4941 36.7854 48.7137 36.6316 48.7137ZM46.8496 48.8565C44.7852 48.8565 43.8628 47.5497 43.8628 45.4963C43.8628 43.9041 43.8738 43.2453 43.8738 42.8499C43.8738 41.8068 43.8518 41.3126 43.5004 41.2248C43.3357 41.1809 42.9953 41.115 42.8196 41.082C42.7427 41.071 42.7098 41.0161 42.7098 40.9722C42.7098 40.9173 42.7647 40.8624 42.8416 40.8624C43.0941 40.8624 43.731 40.9063 44.324 40.9063C45.3342 40.9063 45.6966 40.8624 45.8393 40.8624C45.9821 40.8624 45.9601 41.071 45.8064 41.093C45.5429 41.1259 45.3123 41.1918 45.1915 41.2248C44.7742 41.3456 44.7303 41.8177 44.7303 42.8829C44.7193 43.3111 44.7083 43.992 44.7193 45.3097C44.7632 47.4729 45.6636 48.3733 47.157 48.3733C48.6504 48.3733 49.5179 47.4839 49.5289 45.3975C49.5399 43.981 49.5399 43.3551 49.5399 42.9488C49.5289 41.6201 49.496 41.3016 49.1336 41.2138C48.914 41.1699 48.6724 41.1259 48.4198 41.093C48.2661 41.0601 48.2771 40.8624 48.4308 40.8624C48.5516 40.8624 49.1775 40.8844 49.7046 40.8844C50.5391 40.8844 50.7807 40.8624 50.9344 40.8624C51.0113 40.8624 51.0443 40.9063 51.0443 40.9612C51.0443 41.0161 51.0003 41.071 50.9235 41.082C50.6929 41.115 50.4952 41.1479 50.3415 41.2028C50.0011 41.3016 49.9791 41.6091 49.9352 42.9048C49.9242 43.3441 49.9242 43.992 49.9242 45.3206C49.9132 47.6925 48.8371 48.8565 46.8496 48.8565Z" fill="white"/>
</svg>
