<svg width="70" height="34" viewBox="0 0 70 34" fill="none" xmlns="http://www.w3.org/2000/svg">
<path d="M42.332 0.272461C42.4622 0.272513 42.5892 0.286313 42.7129 0.308594L36.9619 6.06055L36.9541 6.06738C36.5792 6.45296 36.1569 7.09758 35.9531 7.59082L35.9502 7.59668L34.8662 10.2842H34.8682C34.7678 10.5232 34.7198 10.7628 34.7383 10.999C34.7575 11.244 34.8437 11.4379 34.9385 11.5801C34.9429 11.5868 34.9475 11.594 34.9521 11.6006C35.1455 11.8711 35.4291 12.0409 35.752 12.0908C35.8129 12.1067 35.8764 12.1172 35.9414 12.1172C36.1617 12.1171 36.3745 12.0633 36.5674 11.9775L36.5684 11.9785L39.2119 10.8594L39.2109 10.8584C39.7084 10.6517 40.3518 10.2195 40.7275 9.84375H40.7285L44.4727 6.09277V20.9727C44.4726 22.1852 43.4821 23.1756 42.2695 23.1758H28.1689C26.9562 23.1758 25.9659 22.1853 25.9658 20.9727V2.46582C25.9658 1.25306 26.9562 0.262695 28.1689 0.262695C32.6555 0.262695 37.7913 0.270639 42.332 0.272461ZM31.417 17.6611C31.1737 17.6611 30.9766 17.8582 30.9766 18.1016C30.9766 18.3449 31.1737 18.542 31.417 18.542H39.707C39.9504 18.542 40.1475 18.3449 40.1475 18.1016C40.1475 17.8582 39.9504 17.6611 39.707 17.6611H31.417ZM31.416 14.4893C31.1728 14.4894 30.9756 14.6864 30.9756 14.9297C30.9756 15.1729 31.1728 15.37 31.416 15.3701H36.5977C36.841 15.3701 37.0381 15.173 37.0381 14.9297C37.0381 14.6864 36.841 14.4893 36.5977 14.4893H31.416ZM31.415 11.3174C31.1718 11.3175 30.9746 11.5145 30.9746 11.7578C30.9746 12.0011 31.1718 12.1982 31.415 12.1982H33.3008C33.5441 12.1982 33.7412 12.0011 33.7412 11.7578C33.7412 11.5145 33.5441 11.3174 33.3008 11.3174H31.415ZM31.417 8.14551C31.1737 8.14552 30.9766 8.34262 30.9766 8.58594C30.9766 8.82926 31.1737 9.02636 31.417 9.02637H34.0078C34.2511 9.02637 34.4482 8.82927 34.4482 8.58594C34.4482 8.34261 34.2511 8.14551 34.0078 8.14551H31.417ZM31.416 4.97363C31.1728 4.97377 30.9756 5.17082 30.9756 5.41406C30.9756 5.65731 31.1728 5.85435 31.416 5.85449H36.5977C36.841 5.85449 37.0381 5.65739 37.0381 5.41406C37.0381 5.17073 36.841 4.97363 36.5977 4.97363H31.416Z" fill="white"/>
</svg>
