<svg width="70" height="37" viewBox="0 0 70 37" fill="none" xmlns="http://www.w3.org/2000/svg">
<path d="M40.332 1.27148C40.4622 1.27154 40.5892 1.28534 40.7129 1.30762L34.9619 7.05957L34.9541 7.06641C34.5792 7.45199 34.1569 8.09661 33.9531 8.58984L33.9502 8.5957L32.8662 11.2832H32.8682C32.7678 11.5222 32.7198 11.7619 32.7383 11.998C32.7575 12.243 32.8437 12.437 32.9385 12.5791C32.9429 12.5858 32.9475 12.5931 32.9521 12.5996C33.1455 12.8701 33.4291 13.04 33.752 13.0898C33.8129 13.1058 33.8764 13.1162 33.9414 13.1162C34.1617 13.1161 34.3745 13.0623 34.5674 12.9766L34.5684 12.9775L37.2119 11.8584L37.2109 11.8574C37.7084 11.6508 38.3518 11.2185 38.7275 10.8428H38.7285L42.4727 7.0918V21.9717C42.4726 23.1843 41.4821 24.1746 40.2695 24.1748H26.1689C24.9562 24.1748 23.9659 23.1844 23.9658 21.9717V3.46484C23.9658 2.25208 24.9562 1.26172 26.1689 1.26172C30.6555 1.26172 35.7913 1.26966 40.332 1.27148ZM29.417 18.6602C29.1737 18.6602 28.9766 18.8573 28.9766 19.1006C28.9766 19.3439 29.1737 19.541 29.417 19.541H37.707C37.9504 19.541 38.1475 19.3439 38.1475 19.1006C38.1475 18.8573 37.9504 18.6602 37.707 18.6602H29.417ZM29.416 15.4883C29.1728 15.4884 28.9756 15.6855 28.9756 15.9287C28.9756 16.172 29.1728 16.369 29.416 16.3691H34.5977C34.841 16.3691 35.0381 16.172 35.0381 15.9287C35.0381 15.6854 34.841 15.4883 34.5977 15.4883H29.416ZM29.415 12.3164C29.1718 12.3165 28.9746 12.5136 28.9746 12.7568C28.9746 13.0001 29.1718 13.1972 29.415 13.1973H31.3008C31.5441 13.1973 31.7412 13.0002 31.7412 12.7568C31.7412 12.5135 31.5441 12.3164 31.3008 12.3164H29.415ZM29.417 9.14453C29.1737 9.14454 28.9766 9.34164 28.9766 9.58496C28.9766 9.82828 29.1737 10.0254 29.417 10.0254H32.0078C32.2511 10.0254 32.4482 9.82829 32.4482 9.58496C32.4482 9.34163 32.2511 9.14453 32.0078 9.14453H29.417ZM29.416 5.97266C29.1728 5.97279 28.9756 6.16984 28.9756 6.41309C28.9756 6.65633 29.1728 6.85338 29.416 6.85352H34.5977C34.841 6.85352 35.0381 6.65641 35.0381 6.41309C35.0381 6.16976 34.841 5.97266 34.5977 5.97266H29.416Z" fill="white"/>
<path d="M34.2378 12.0443C34.0792 12.0443 33.954 11.9775 33.8705 11.8606C33.8037 11.7604 33.7452 11.5851 33.8705 11.2929L34.8974 8.74651C35.056 8.36247 35.4067 7.82814 35.6989 7.52759L42.1859 1.0406C42.3612 0.865274 42.5949 0.773438 42.8371 0.773438C43.0792 0.773438 43.3213 0.865274 43.4966 1.0406L44.7489 2.29291C44.9242 2.46824 45.0244 2.702 45.0244 2.95247C45.0244 3.20293 44.9242 3.43669 44.7489 3.61202L38.2619 10.1074C37.9697 10.3996 37.4354 10.7586 37.0514 10.9172L34.5467 11.9775C34.4382 12.0276 34.3297 12.0526 34.2295 12.0526L34.2378 12.0443Z" fill="white"/>
</svg>
