<svg width="70" height="33" viewBox="0 0 70 33" fill="none" xmlns="http://www.w3.org/2000/svg">
<path d="M46.9194 16.5234C46.9194 16.7854 46.7382 17.0119 46.4822 17.0686C45.3844 17.3124 42.5244 17.6054 41.4734 18.0071C40.4496 18.3982 38.1112 20.0343 36.8579 20.7327C36.4856 20.9404 36.0273 20.6708 36.0273 20.2442V5.34144C36.0273 5.13984 36.1353 4.95411 36.3112 4.8552C37.2512 4.32592 40.2699 2.28357 41.4734 1.82375C42.4542 1.4485 45.0092 1.21595 46.2384 0.939612C46.588 0.861089 46.9194 1.12686 46.9194 1.48474V16.5242V16.5234Z" fill="white" stroke="white" stroke-width="0.679527" stroke-linecap="round" stroke-linejoin="round"/>
<path d="M48.4903 2.60758C48.8399 2.52906 49.1714 2.79483 49.1714 3.15271V18.1922C49.1714 18.4542 48.9902 18.6807 48.7342 18.7373C47.6364 18.9812 44.7763 19.2741 43.7253 19.6758C42.7015 20.0669 40.3632 21.703 39.1098 22.4014C38.7376 22.6091 38.2793 22.3395 38.2793 21.9129" stroke="white" stroke-width="0.679527" stroke-linecap="round" stroke-linejoin="round"/>
<path d="M21.4857 2.57438C21.1361 2.49585 20.8047 2.76163 20.8047 3.11951V18.159C20.8047 18.4209 20.9859 18.6475 21.2418 18.7041C22.3397 18.948 25.1997 19.2409 26.2507 19.6426C27.3017 20.0443 29.6129 21.6698 30.8662 22.3682C31.2384 22.5759 31.6968 22.3063 31.6968 21.8797" stroke="white" stroke-width="0.679527" stroke-linecap="round" stroke-linejoin="round"/>
<path d="M23.0605 16.5235C23.0605 16.7855 23.2418 17.012 23.4977 17.0686C24.5955 17.3125 27.4556 17.6054 28.5066 18.0071C29.5304 18.3982 31.8687 20.0344 33.1221 20.7328C33.4943 20.9404 33.9526 20.6708 33.9526 20.2443V5.34147C33.9526 5.13988 33.8446 4.95414 33.6687 4.85523C32.7287 4.32595 29.7101 2.2836 28.5066 1.82378C27.5258 1.44853 24.9708 1.21598 23.7416 0.939643C23.392 0.86112 23.0605 1.12689 23.0605 1.48477V16.5242V16.5235Z" fill="white" stroke="white" stroke-width="0.679527" stroke-linecap="round" stroke-linejoin="round"/>
</svg>
