<svg width="513" height="180" viewBox="0 0 513 180" fill="none" xmlns="http://www.w3.org/2000/svg">
<g>
<path d="M27.7855 130.812L27.8181 130.454C27.7406 130.392 27.6556 130.259 27.6406 130.119L27.4081 129.932L27.3231 129.799L27.1906 129.884L27.1756 129.744L27.2456 129.737L27.1532 129.534L27.1307 129.324L27.1858 129.176C26.7235 128.163 26.6283 128.598 26.4311 127.415L26.3536 127.353L25.9892 125.267L25.9192 125.274L25.9817 125.197L25.9219 124.637L25.9919 124.629L25.9695 124.419L25.8471 123.936L25.9199 123.291L25.875 122.871L25.945 122.864C25.9226 122.653 25.9002 122.443 25.9478 122.226C25.9253 122.016 25.9104 121.876 25.9654 121.728L25.943 121.518L26.0735 120.088L25.9886 119.955L25.8335 119.83L25.8111 119.62L25.7261 119.487L25.6486 119.425L25.6037 119.005L25.5337 119.012L25.5262 118.942L25.6663 118.927L25.7139 118.709L25.6915 118.499L25.754 118.422L25.7465 118.352L25.8342 117.847L26.0695 117.397L26.1796 117.101L26.3122 117.017L26.3197 117.087L26.3673 116.869L26.4876 116.006L26.4903 115.368L26.4604 115.088L26.7582 114.561C26.7507 114.491 26.7433 114.421 26.8058 114.343L26.7759 114.063L26.8786 113.698L27.4721 111.297L27.4123 110.737L27.4524 110.449L27.4701 109.952L27.5102 109.664L27.6931 108.724L27.9909 108.196L28.4763 107.436C28.5164 107.149 28.6266 106.854 28.7367 106.559L28.7918 106.411L29.0998 105.316L29.1399 105.028L30.0285 102.738L30.0612 102.38L30.3039 102L30.429 101.845L31.4502 99.4693L32.3687 97.4589L32.4938 97.3039L33.6 95.061L33.8753 94.3233L34.4308 93.5557C34.4233 93.4857 34.4934 93.4782 34.4934 93.4782L34.8014 92.3829L34.9666 91.9403L35.3969 91.3277L35.8973 90.7077L36.2652 90.1726L36.4304 89.73L37.1334 89.0175L38.2144 87.2022L38.262 86.9846L38.3722 86.6895L38.5822 86.6671L40.2262 84.1542L40.3289 83.7891L40.369 83.5015L40.8918 83.0916L41.072 82.789L41.7526 81.8664L41.7927 81.5788L43.1688 79.8737L44.1471 78.4235L44.7101 77.7259L44.7026 77.6559C45.9536 76.1058 47.1971 74.4856 48.4631 73.0755L48.6909 72.5554L49.2538 71.8578L49.7318 71.0277L51.1779 69.3151L51.8986 68.1049L52.2365 67.2897L53.2998 65.9721L53.565 65.8021L53.7601 65.6396L54.5882 64.7721L55.8113 64.2873L56.0466 63.8372L56.2492 63.7448L56.4695 63.1546L56.9774 62.6046L57.2602 61.937L57.7606 61.3169L58.0183 61.0769L58.8912 60.6296L59.274 60.2345L59.3366 60.157L59.2666 60.1645C59.3366 60.157 59.3291 60.087 59.3291 60.087L54.797 61.4209L54.5393 61.6609L54.1341 61.8459L53.8465 61.8057L53.6514 61.9682L53.0211 62.0355L51.9231 62.3653L51.8531 62.3728L49.6094 63.2498L48.2612 63.8896L46.9055 64.4593L46.7029 64.5518L45.1521 65.284L44.6843 65.5464L43.929 65.7688L43.8589 65.7762L43.1886 66.1311L42.3856 66.571L41.9879 66.826L39.5491 67.8655L39.5566 67.9355L39.4866 67.943L38.7387 68.2354L38.6136 68.3904L35.8322 69.5373L35.7621 69.5448L35.2869 69.7372L35.0143 69.8372L34.2113 70.277L31.9099 71.9394L30.6793 72.3541C29.0183 73.3814 27.3648 74.4787 25.7814 75.5686L25.8514 75.5611L25.3286 75.9711L24.6806 76.536L24.493 76.7686L24.2829 76.791L23.9552 77.0385L23.9001 77.186L23.7601 77.201L23.3073 77.6035L22.6369 77.9584L21.6463 78.6308C21.6538 78.7008 21.5837 78.7083 21.5212 78.7858L21.1459 79.2508L21.1534 79.3208L21.0208 79.4058L21.0133 79.3358L20.8658 79.2807L20.7407 79.4357L20.6081 79.5207C19.8276 80.1707 18.977 80.8281 18.204 81.5481L17.3759 82.4157L17.1107 82.5856L14.6591 84.8306L13.7609 85.7056L13.3707 86.0306L12.7928 86.5881L12.3474 87.0606L12.0823 87.2306L9.39536 89.9257L9.27774 90.1507L8.94256 90.3282L6.36577 92.7282L5.983 93.1232L5.84294 93.1381L5.58526 93.3781L5.40509 93.6807L5.20248 93.7731L4.92985 93.8731L4.84486 93.7405L4.82243 93.5304L4.86254 93.2428L5.26776 93.0579L6.67377 91.6329L7.12657 91.2304L7.43932 90.8428L7.63445 90.6803L8.09474 90.3479C8.15729 90.2704 8.21984 90.1929 8.28986 90.1854L8.28239 90.1154L8.61009 89.8679L8.68012 89.8604L8.93032 89.5504L8.97791 89.3328L9.17304 89.1703L9.36069 88.9378L10.2588 88.0628L10.4614 87.9703L10.5716 87.6753L11.2195 87.1103L11.4221 87.0178L11.8124 86.6928L12.1401 86.4453L14.5068 84.0678L14.7019 83.9053L15.7952 82.8678L16.1154 82.5503L16.8259 81.9078L17.021 81.7453L17.9191 80.8703L17.9742 80.7228L18.0368 80.6453L18.2394 80.5528L18.3019 80.4753L18.4821 80.1727L18.6147 80.0877L18.4121 80.1802L18.3971 80.0402L18.6548 79.8002L18.8574 79.7077L18.8798 79.9178L19.1375 79.6778L19.6053 79.4153L19.988 79.0203L20.1057 78.7953L20.481 78.3302L21.564 77.8604L22.282 77.288L22.6172 77.1105L22.8273 77.0881C22.8973 77.0806 22.9598 77.0031 23.0299 76.9956L22.9449 76.8631L23.0924 76.9181L23.5527 76.5857L23.7879 76.1356L24.1857 75.8806L24.4284 75.5006L24.8037 75.0355L25.0689 74.8656L25.7542 74.6507L26.0119 74.4107L26.347 74.2333L26.8923 74.0334L27.0949 73.9409L27.7503 73.446L28.3507 73.0985L28.7885 72.556L29.0537 72.386L29.6391 71.8986L29.8043 71.4559L29.9369 71.371L30.5046 71.3812L30.9873 71.2588L31.3374 71.2214L32.6632 70.3715L32.6483 70.2315L32.8434 70.069L33.3261 69.9466C34.9245 68.9968 36.663 68.0321 38.5415 67.0524L39.0093 66.7899L39.7347 66.2875L39.9299 66.125L40.21 66.0951L40.4751 65.9251L40.5452 65.9176L40.6077 65.8401L41.3556 65.5478L41.4956 65.5328L43.997 64.4158L44.4498 64.0133L45.2826 63.8535L46.9735 63.1063L47.2387 62.9364L48.1191 62.559L48.4468 62.3115L50.8455 61.5596L51.063 61.6072L53.7969 60.6778L54.2021 60.4929L54.2095 60.5629C54.4196 60.5405 54.6848 60.3705 54.9649 60.3406L55.4327 60.0781L55.7053 59.9782L56.0629 60.0108C56.273 59.9884 56.4756 59.8959 56.6857 59.8735L56.7482 59.796L56.8183 59.7885L60.3374 58.9169L61.0152 58.6321L61.2654 58.322L61.468 58.2296L61.7706 58.4097L62.1534 58.0147L62.8414 57.1621L63.0991 56.9221L63.5295 56.3096L63.7871 56.0696L63.9449 55.5569L64.1951 55.2469L64.9429 54.9546L65.5107 54.9648L67.224 54.4277L68.3295 54.1679L68.8047 53.9755L68.9298 53.8205L69.1399 53.7981L69.3126 53.4255L69.9932 52.5029L70.741 52.2106L71.1136 52.3833L71.2761 52.5784L71.3387 52.5009L73.3872 51.7863L75.3806 51.2193L75.5832 51.1268L75.6383 50.9793L75.7083 50.9718L75.5981 51.2669L76.0958 51.2846L76.3909 51.3947L76.6057 52.08L76.6404 53.0679L75.6872 54.0905L74.324 54.5902L73.9188 54.7751L72.9935 54.7323L71.8581 54.7119L71.803 54.8594L71.5929 54.8818L71.578 54.7418L71.4155 54.5467L70.9477 54.8091L70.6676 54.839L69.9972 55.1939L69.7246 55.2938L69.6695 55.4414L69.2793 55.7664L68.9991 55.7963L68.6089 56.1213L67.776 56.281L67.4959 56.3109L65.117 57.9107L66.5026 57.6211L66.5651 57.5436L66.8378 57.4436L66.7603 57.3811L66.8228 57.3036L66.9003 57.3661L67.0479 57.4212L67.2505 57.3287L67.5931 57.2213L68.4484 57.2716L69.5539 57.0119L69.8415 57.052L76.6819 56.1091L77.0245 56.0016L77.8499 55.7718L78.2701 55.727L79.3429 55.8249L79.8257 55.7025L80.4634 55.7052L80.5409 55.7678C81.8714 55.6257 83.1394 55.5611 84.4849 55.5591L84.8976 55.4442L85.3178 55.3993L88.6941 55.1804L90.5822 55.6162L90.6597 55.6787C91.4449 55.7365 92.2302 55.7943 93.023 55.9222L93.093 55.9147L93.5757 55.7923L94.6962 55.6726L95.5514 55.723L96.5142 56.1159L97.6571 56.2064L98.1622 56.2941L98.7598 56.5844L99.6376 56.8448L99.8626 56.9624C101.175 57.318 102.573 57.8062 103.761 58.3168L103.894 58.2318L104.056 58.4269C104.576 58.6547 105.034 58.9599 105.491 59.2652L105.701 59.2428L105.997 59.3529L106.089 59.5555L107.252 60.4938C108.669 61.8298 109.674 63.2806 110.406 64.8315L110.739 65.2918L110.839 65.5644L110.854 65.7044L111.109 66.1022L111.161 66.5924L111.416 66.9901L111.616 67.5354L111.646 67.8155L111.51 68.5382L111.618 68.8809L111.593 69.3085L111.545 69.5261C111.597 70.0163 111.587 70.584 111.64 71.0742L111.692 71.5644L111.907 72.2497L111.937 72.5298L112.059 73.0126L112.124 74.2805L112.036 74.7857L111.673 76.0285L111.232 77.2088L111.31 77.2714L111.37 77.8316L111.237 77.9166L111.197 78.2042L111.132 78.9194L110.396 79.9895L110 81.59L109.312 82.4426L109.11 82.535C108.496 84.0879 107.813 85.6482 107.037 87.006L107.005 87.3636L106.659 88.1087L105.971 88.9613L105.593 90.0641L105.358 90.5142L104.99 91.0492L104.114 92.1343L103.809 92.5919L103.176 93.2969L101.94 94.9871L101.83 95.2822L101.923 95.4848L101.712 95.5072L101.44 95.6072C100.446 96.9173 99.4457 98.1574 98.3748 99.405L98.2096 99.8476L97.7942 100.6L96.9511 101.328L96.4181 102.305L96.1054 102.693L95.59 103.173L94.9346 103.668L94.169 104.458L92.8582 105.448C92.538 105.765 92.2178 106.083 91.905 106.47L91.7248 106.773L91.7398 106.913L91.3896 106.95L89.4608 108.785L89.4132 109.003L89.0005 109.118C86.7514 111.27 84.4174 113.29 82.0133 115.318L81.6931 115.635L81.4279 115.805L80.5774 116.463L76.3321 119.82C75.8018 120.16 75.279 120.57 74.7562 120.98L74.6936 121.057L74.3659 121.305L73.788 121.862L73.4603 122.11L72.0794 123.107L71.3465 123.54L70.3335 124.002C68.8126 125.014 67.2917 126.027 65.7633 126.969L65.3805 127.364L64.3573 128.394L62.1211 129.341L60.9429 130.246L60.4125 130.586L59.5246 130.893L58.4266 131.223L57.7413 131.438L57.6012 131.453L57.5387 131.53C55.5751 132.377 52.8637 133.517 49.9824 134.391L48.9768 134.923L48.1514 135.153L47.4437 135.158L47.3811 135.236L47.3961 135.376L46.9909 135.561L47.0058 135.701L46.9208 135.568L46.5156 135.753L46.4381 135.69L46.2981 135.705L45.8929 135.89L45.3177 135.81L45.045 135.91L44.89 135.785L44.9601 135.777L44.5324 135.752C43.1393 135.972 41.8088 136.114 40.6108 136.171L40.2056 136.356L40.0581 136.301L39.6454 136.416L39.2102 136.321L39.1552 136.468L38.9376 136.421L38.2924 136.348L38.1523 136.363L38.3074 136.488L38.1748 136.573L37.7397 136.478L36.8918 136.497L36.1467 136.152L35.9991 136.097L35.8666 136.182L35.494 136.009L35.1989 135.899L35.2214 136.109L35.0663 135.984L35.0439 135.774L34.3062 135.499L34.1288 135.163L34.0438 135.031L33.5536 135.083L33.3286 134.966L32.8309 134.948L32.5358 134.838L32.1306 135.023L31.913 134.975L31.588 134.585L31.1305 134.28L30.1304 133.536L29.1153 132.653L28.808 131.765C28.5755 131.578 28.483 131.375 28.3205 131.18L28.243 131.117L27.863 130.875L27.7855 130.812ZM91.1952 105.13L92.8562 104.102L93.5442 103.25L93.8345 102.652L94.475 102.017L95.0529 101.46L96.6092 99.4519L96.907 98.9243L98.0478 97.6693L98.1906 97.0166L99.4341 95.3964L100.045 94.4813L101.914 92.0861L103.565 89.6432L103.996 89.0307L104.874 87.3078L105.66 85.3824L106.583 84.0797L106.826 83.6997C107.289 82.7295 107.955 81.6668 108.27 80.6415L108.288 80.1439L108.541 79.1961L108.621 78.6209L109.209 77.4957C109.201 77.4257 109.201 77.4257 109.264 77.3482L109.047 75.3174L109.127 74.7422L109.318 73.8719L109.401 72.659L109.521 71.7962L109.469 71.306L109.582 70.3732L109.647 69.658L109.492 69.5329L109.159 69.0726L109.102 67.8746L109.042 67.3144L108.898 66.6216L108.62 66.0138L108.358 65.546L108.313 65.1258C107.88 64.3929 107.448 63.66 106.953 63.0046L105.606 61.6611L104.823 60.9656L104.343 60.4502L104.196 60.3952C104.04 60.2701 103.885 60.145 103.738 60.0899L103.428 59.8397L103.28 59.7846L103.288 59.8547L103.225 59.9322L103.21 59.7921L102.495 59.7268L101.912 59.5766L101.617 59.4664L100.997 58.966L100.742 58.5683C99.197 58.0251 97.1063 57.6817 95.3733 57.371L94.2229 57.2105L94.1529 57.218L93.5077 57.1453L93.2276 57.1752L92.4423 57.1174L92.2322 57.1398L90.3816 57.0542L87.9707 57.0283L86.4852 57.0453L85.995 57.0977L85.0771 57.1248L84.6495 57.0997L83.4515 57.1568L82.6737 57.169L81.5383 57.1486C79.7876 57.3356 78.1769 57.5076 76.7689 57.5871L75.2283 57.7517L73.8651 58.2514L72.7147 58.0909L72.3571 58.0583L68.7306 58.5872L68.4579 58.6872L67.2675 58.8143L65.3917 59.1563L64.8539 59.4262L64.2012 59.2834L63.0182 59.4806L61.7223 60.6105L61.7298 60.6806L60.729 61.9207L58.9001 64.0283L58.2596 64.6633L57.6967 65.3609L55.5727 67.3584L53.6486 69.9011L52.673 70.7136L51.4995 72.3263L50.9066 72.7437L49.8283 73.9213L49.2354 74.3387L47.6792 76.3464L47.3338 77.0916L46.7232 78.0067L45.9352 78.5867L45.545 78.9117L45.4824 78.9892L45.3172 79.4318L44.8569 79.7642L44.5041 80.4394L44.364 80.4543L43.2055 82.2071L43.0478 82.7197L42.8451 82.8122C42.5249 83.1297 42.3447 83.4322 42.1646 83.7348L41.8416 84.69L41.4364 84.8749L40.7633 85.8676L40.0025 87.3653L39.8699 87.4503L38.3735 90.0183L38.2484 90.1733L38.0132 90.6234L37.6304 91.0184L36.6745 92.6786L36.2264 93.7889L35.6159 94.704L35.5608 94.8516L34.9027 95.9842L34.73 96.3568L34.5097 96.947L34.3696 96.9619L34.1419 97.482L33.9216 98.0722L33.7965 98.2272L33.7489 98.4448L32.6529 100.12L32.7454 100.323L32.6053 100.338L32.3701 100.788L32.3225 101.005L31.907 101.758L31.4039 103.016L31.3638 103.303L31.0708 104.539L30.6078 105.509L30.1849 106.191L29.987 106.992C29.5764 108.452 29.2439 107.992 28.7755 110.237L28.7904 110.377L28.7353 110.525C28.6252 110.82 28.5851 111.108 28.545 111.395L28.5524 111.465L28.6673 111.878L27.5734 114.899L27.6584 115.031L27.4231 115.481C27.3279 115.916 27.2328 116.352 27.2151 116.849L27.0043 118.855L26.9418 118.932C26.7738 120.013 27.3062 121.018 27.3558 122.146L27.4979 123.477L27.4503 123.694L27.4802 123.974L27.4326 124.192L27.5326 124.465L27.57 124.815L27.5074 124.892L27.6223 125.305L27.6672 125.725L27.7671 125.998L27.8269 126.558C27.9942 127.461 28.294 128.279 28.7339 129.082L29.2764 129.52L29.6313 130.19L29.7313 130.463L31.3066 131.286L31.9491 131.996L32.0415 132.199L32.4916 132.434L33.5393 132.96L34.1145 133.04L34.7672 133.183L35.3499 133.333L35.685 133.156L36.0977 133.041L36.3303 133.228L36.6253 133.339L37.1679 133.776L38.5882 134.475L39.4659 134.735L39.6059 134.72L40.1737 134.73L41.0439 134.921L41.3315 134.961L43.0122 134.781L44.0402 134.459L44.7955 134.237L45.0532 133.997L45.2633 133.974L45.3959 133.889L45.6134 133.937L45.986 134.11L47.3166 133.968L47.4491 133.883L47.5967 133.938L47.9318 133.76L48.8749 133.305L49.3501 133.113L50.8758 132.808L51.8262 132.424L52.6367 132.054L53.2594 131.916L54.5125 131.712L55.9457 131.205L56.0157 131.197C57.7766 130.442 59.2649 129.788 60.403 129.17C61.6737 128.468 62.937 127.696 64.2002 126.923L64.2628 126.846L64.668 126.661L66.1263 125.726L66.6267 125.106L67.8349 124.481L69.3633 123.539L70.1588 123.029C73.1931 120.934 76.2125 118.699 79.1394 116.262L79.3747 115.812L80.0851 115.169L80.5155 114.557L80.8833 114.022L81.4211 113.752L82.4117 113.08L83.0821 112.725L83.3874 112.267L84.1128 111.765L84.7682 111.27L86.4469 109.745L89.7892 106.555L91.1952 105.13ZM135.425 101.752L135.543 101.527C135.583 101.239 135.553 100.959 135.733 100.657L135.718 100.517L135.766 100.299L136.049 99.6314L136.089 99.3438L136.269 99.0413C136.261 98.9712 136.386 98.8162 136.379 98.7462L136.434 98.5987C136.764 97.7134 137.172 96.8908 137.503 96.0056L137.606 95.6405L137.786 95.3379L138.069 94.6703L138.116 94.4527L138.399 93.7851L138.424 93.3574L138.659 92.9073L138.6 92.3471L138.437 92.152L138.26 91.8168L138.002 92.0568L137.862 92.0717L136.989 92.5191L135.571 93.1664L135.375 93.3288L134.9 93.5213L134.237 93.9462L132.584 95.0435L131.406 95.9484L131.008 96.2034L127.13 99.0256L126.818 99.4131L126.678 99.4281L126.498 99.7306L124.586 101.068L123.846 101.43L123.721 101.585L121.154 103.418L121.029 103.573L120.897 103.658L120.654 104.038L120.451 104.13L120.459 104.2L119.858 104.548L119.671 104.78L119.461 104.803L119.14 105.12L119.008 105.205L118.945 105.283L118.813 105.368L118.61 105.46L118.345 105.63L117.97 106.095L117.697 106.195L117.222 106.387L116.832 106.712L116.644 106.945L116.114 107.285L115.078 107.537L114.61 107.799L114.618 107.869L114.423 108.032L114.345 107.969L114.275 107.977L113.87 108.162L113.66 108.184L113.605 108.332L113.542 108.409L113.465 108.347L113.527 108.269L113.247 108.299L111.264 108.298L111.256 108.228L110.836 108.273L110.394 108.108L109.649 107.763C109.508 107.778 109.431 107.715 109.291 107.73L109.283 107.66L109.221 107.738L108.973 107.41C108.936 107.06 108.906 106.78 108.946 106.492L108.901 106.072L108.977 104.789L109.057 104.214L109.3 103.834L109.45 103.251L109.498 103.033L109.803 102.576L109.913 102.281L110.343 101.668L111.027 100.108L111.177 99.5252L111.537 98.9201L111.835 98.3925L112.04 97.6623L112.393 96.9872L112.636 96.6072L113.019 96.2122L113.074 96.0646L113.199 95.9096L113.497 95.382L113.482 95.242L113.552 95.2345L113.842 94.6369L114.71 93.4817L114.938 92.9616L115.056 92.7366L115.111 92.589L115.176 91.8738L115.094 91.1035L115.182 90.5983L114.997 90.1931L114.967 89.913L115.132 89.4704L115.515 89.0754L116.18 88.0127L116.766 87.5253L117.256 87.4729L117.636 87.7156L117.643 87.7857C117.643 87.7857 117.651 87.8557 117.721 87.8482C117.961 88.1059 117.998 88.456 118.036 88.8062L118.113 88.8687L118.38 90.0442L118.26 90.907L117.97 91.5046L117.352 92.3497L116.926 93.6701L116.481 94.1426L116.293 94.3751L115.918 94.8402L115.55 95.3752L115.292 95.6152L115.237 95.7628L114.995 96.1428L114.612 96.5378L114.564 96.7554L114.494 96.7629L114.362 96.8479L113.093 98.8957L112.983 99.1907L112.81 99.5633L112.56 99.8733C112.262 100.401 111.964 100.929 111.736 101.449L111.141 102.504C111.031 102.799 110.913 103.024 110.795 103.249L110.568 103.769L110.55 104.267L110.485 104.982L110.194 105.58L110.169 106.007L110.107 106.085C110.129 106.295 110.152 106.505 110.237 106.638C110.647 107.16 112.422 106.546 114.106 105.729L114.489 105.334L115.181 105.189L116.187 104.656L116.732 104.456L117.263 104.117C118.198 103.592 119.064 103.074 119.992 102.479L120.374 102.084L120.842 101.822L121.443 101.475L121.84 101.22L122.341 100.6L124.017 99.7123C124.079 99.6347 124.142 99.5572 124.212 99.5498L124.329 99.3247L124.805 99.1323L126.248 98.0574L126.311 97.9799L126.553 97.5999L126.826 97.4999L126.944 97.2749L127.271 97.0274L127.459 96.7949L128.409 96.4101L130.376 94.9252L130.954 94.3677L131.812 93.7803L132.562 92.8502L133.022 92.5177L133.615 92.1003L134.418 91.6604L134.746 91.4129L135.269 91.003L136.882 90.1932L137.147 90.0232L137.74 89.6058L138.115 89.1408L138.171 88.9932L138.303 88.9082L138.598 89.0184C138.926 88.7709 139.324 88.5159 139.729 88.331L139.791 88.2535L140.392 87.9061L140.609 87.9537C140.827 88.0013 140.989 88.1964 141.074 88.329L141.207 88.244L141.642 88.3392L142.015 88.5119L142.045 88.792L141.927 89.017L142.067 89.0021L142.082 89.1421L141.934 89.0871L141.949 89.2271L141.824 89.3821L141.659 89.8247L141.166 90.5148L140.876 91.1124L140.921 91.5326L140.38 92.4403L140.277 92.8054L140.105 93.1779L139.807 93.7055L139.689 93.9306L139.484 94.6608L139.271 95.3209L138.903 95.856L138.863 96.1436L138.393 97.0438L138.353 97.3314L138.14 97.9915L138.115 98.4192L137.832 99.0868L137.644 99.3193C137.391 100.267 137.326 100.982 137.706 101.225C138.094 101.538 138.536 101.703 139.174 101.706L139.882 101.701L140.442 101.641L140.87 101.666L141.36 101.614C142.13 101.532 142.885 101.309 143.781 101.072L143.843 100.995L144.264 100.95L145.214 100.565L145.572 100.598L147.09 100.223L147.152 100.145L147.222 100.138L147.628 99.953L148.531 99.7858L149.223 99.641L149.293 99.6335C149.356 99.556 149.426 99.5485 149.496 99.541L149.566 99.5336L149.979 99.4187L150.344 99.5213L150.506 99.7164L150.249 99.9564L149.976 100.056L149.773 100.149L148.52 100.353L148.263 100.593L148.068 100.756L147.913 100.631L147.025 100.938L144.726 101.963L144.103 102.1L143.69 102.215L142.81 102.592L142.187 102.73L141.705 102.852L141.564 102.867C141.502 102.945 141.432 102.952 141.362 102.959L141.222 102.974L140.396 103.204L139.368 103.526L138.808 103.586C137.975 103.746 137.29 103.961 136.792 103.943L136.66 104.028L136.512 103.973C136.372 103.988 136.295 103.926 136.225 103.933L136.015 103.955L135.775 103.698L135.682 103.495L135.667 103.355L135.59 103.293L135.582 103.223C135.42 103.027 135.375 102.607 135.407 102.25L135.425 101.752ZM153.256 95.5273L153.131 95.6823L153.021 95.9774L153.529 95.4274L154.434 94.6224L154.692 94.3824L154.825 94.2974L154.965 94.2824L154.957 94.2124L155.495 93.9425L155.185 93.6923L155.605 93.6474L156.739 92.3223L156.949 92.2999L157.949 91.0598L159.128 90.1549L160.221 89.1174L160.346 88.9623L160.416 88.9549L161.634 87.7623L161.697 87.6848L163.508 86.0749L163.516 86.1449L164.686 85.17L164.999 84.7824L165.272 84.6825L165.857 84.195L165.982 84.04L166.052 84.0325L167.363 83.0426L167.864 82.4225L168.254 82.0976L169.259 81.5652L169.955 80.7827L170.68 80.2802L172.099 79.633L172.699 79.2856C173.159 78.9531 173.955 78.4432 174.89 77.9183L175.273 77.5233L176.481 76.8985L177.697 76.3437L177.892 76.1812L178.485 75.7638L179.225 75.4014L179.693 75.139L180.596 74.9717C181.749 74.4944 182.847 74.1647 183.765 74.1375L184.17 73.9526L184.48 74.2028C184.845 74.3054 185.148 74.4856 185.38 74.6733C185.458 74.7358 185.535 74.7984 185.55 74.9384L186.1 75.4463L186.155 77.282L185.494 79.0524L184.683 79.4223L183.913 79.5045L183.44 79.0592L183.366 78.3589L183.045 78.6764L183.008 78.3263L183.141 78.2413L183.173 77.8837L183.051 77.401L182.814 76.5055L182.496 76.1853L181.461 76.4376L180.525 76.9624L180.182 77.0698L179.615 77.0596L178.882 77.492L178.469 77.6069L175.728 78.4663C174.457 79.1686 173.397 79.8485 172.999 80.1035L172.601 80.3584L172.288 80.746L169.644 82.5157L168.661 83.2581L168.286 83.7232L167.03 84.5655L166.702 84.813L166.124 85.3705L165.149 86.183L164.781 86.7181L162.892 88.2655L160.15 91.1081L159.797 91.7832L159.345 92.1857L158.539 93.2633L157.781 94.1234L157.516 94.2933L156.993 94.7033L156.555 95.2458L156.5 95.3934L155.992 95.9434L155.437 96.711L155.124 97.0985L154.866 97.3385L154.241 98.1136L154.013 98.6337L153.755 98.8737L153.512 99.2538L152.879 99.9588L151.816 101.276L151.526 101.874L151.283 102.254L151 102.922L150.905 103.357L150.85 103.504L150.747 103.87L150.372 104.335L149.341 105.295L148.693 105.86L148.048 105.787L147.646 105.334L147.638 105.264C147.476 105.069 147.383 104.866 147.423 104.579L147.393 104.298L147.519 104.143L147.639 103.281L147.514 103.436L147.414 103.163L147.572 102.65L147.762 101.78L148.177 101.028L148.232 100.88L148.218 100.74L148.475 100.5L148.648 100.127L148.633 99.9873L149.211 99.4298L149.351 99.4149L149.546 99.2524L150.259 97.9722L150.675 97.2195L150.877 97.1271L151.153 96.3894L151.461 95.2941L151.906 94.8216L152.001 94.3864L152.667 93.3238L152.862 93.1613L153.623 91.6635L153.593 91.3834L154.626 89.7857L155.199 88.5204L155.435 88.0703L155.717 87.4027L155.765 87.1851L155.89 87.0301L156.305 86.2775L156.283 86.0674L156.628 85.3222L157.041 85.2073L157.266 85.3249L157.634 84.7899L157.792 84.2772L157.824 83.9196L157.802 83.7095L157.507 83.5994L157.695 83.3669L157.639 83.5144L157.82 83.2118L157.742 83.1493L157.499 83.5294C157.187 83.9169 156.869 83.5967 156.832 83.2465L156.957 83.0915L156.942 82.9514L156.989 82.7339L157.162 82.3613L157.217 82.2138L157.055 82.0186L156.992 82.0962L156.627 81.9935L156.605 81.7834L156.73 81.6284L157.002 81.5284L156.862 81.5434L156.995 81.4584L156.855 81.4734L156.755 81.2007L156.99 80.7507L157.363 80.9233L157.535 80.5508L157.506 80.2707L157.553 80.0531L157.406 79.998L157.748 79.8906L157.711 79.5405L157.843 79.4555L157.983 79.4405L158.234 79.1305L158.584 79.0931L159.082 79.1108L159.439 79.1434L159.704 78.9734L159.689 78.8334L159.947 78.5934L160.235 78.6335L160.445 78.6111L160.6 78.7362L160.537 78.8137L160.202 78.9911C160.785 79.1414 161.102 79.4616 161.21 79.8043L161.287 79.8668L161.239 80.0844C161.329 80.9247 160.734 81.9799 160.061 82.9725L160.146 83.1051L159.48 84.1678L159.067 84.2827L158.512 85.0503L158.269 85.4303L158.111 85.943L158.041 85.9504C157.743 86.478 157.453 87.0756 157.078 87.5407C157.085 87.6107 157.008 87.5482 157.008 87.5482L156.655 88.2233L156.56 88.6584L156.332 89.1785L155.814 90.2963L155.446 90.8313L155.336 91.1264L154.991 91.8716L154.292 93.2918L153.914 94.3946L153.569 95.1398L153.256 95.5273ZM221.17 105.769L220.19 105.874C219.98 105.896 219.777 105.989 219.567 106.011L219.442 106.166L219.232 106.188L219.154 106.126C218.336 106.426 217.519 106.725 216.708 107.095C216.568 107.11 216.218 107.148 215.853 107.045L215.643 107.067L215.418 106.95L215.045 106.777L213.41 105.394L213.255 105.268L213.347 105.471L213.277 105.479L213.052 105.361L212.945 105.018L213.015 105.011L212.085 104.26L211.782 104.08L211.317 103.705L210.8 102.839C210.722 102.777 210.645 102.714 210.637 102.644L210.095 102.206L209.917 101.871L209.825 101.668L209.67 101.543L209.537 101.628L209.662 101.473L209.563 101.201L209.68 100.976L209.665 100.836L209.51 100.71L209.413 99.8001L209.231 98.7572L209.226 98.0494L209.361 97.3267L209.541 97.0242C209.582 96.7366 209.692 96.4415 209.724 96.0839L209.702 95.8738L209.602 95.6011L209.369 95.4135L209.41 95.1259L209.31 94.8533L209.295 94.7132L209.305 94.1455L209.235 94.153L209.227 94.083L209.437 94.0605L209.463 93.6329L209.573 93.3378L209.635 93.2603L209.683 93.0427L209.966 92.3751L210.179 91.7149L210.546 91.1798L210.679 91.0949L210.686 91.1649L210.804 90.9398L210.869 90.2246L211.365 88.8968L211.978 87.3439L212.198 86.7538L212.394 86.5913L212.717 85.6361L212.672 85.2159L212.602 85.2234L212.587 85.0833L212.734 85.1384L212.789 84.9908L212.837 84.7733L212.947 84.4782L213.362 83.7256L213.67 82.6303L213.976 82.1727L214.046 82.1652C214.203 81.6526 214.369 81.21 214.604 80.7599L214.589 80.6199C214.769 80.3173 214.879 80.0222 214.989 79.7272L215.022 79.3696L215.47 78.2593L215.83 77.6542L216.058 77.1341L216.121 77.0566L216.231 76.7615L216.223 76.6915L216.524 75.5262L216.972 74.4159L217.252 74.386L217.763 73.1982L218.794 70.255L219.114 69.9375L219.83 68.0195L220.121 67.4219L220.569 66.3117L220.679 66.0166L220.859 65.714L220.994 64.9913L221.004 64.4236L221.74 63.3535L222.453 62.0733L222.486 61.7156L222.681 61.5531L223.222 60.6455L223.262 60.3579L223.762 59.7379L224.233 58.8377L224.435 58.7452L224.836 57.8525L225.261 56.5322L225.992 54.7543L226.68 53.9017L226.985 53.4442L226.971 53.3041L227.504 52.3264L227.864 51.7213L227.999 50.9986L228.164 50.556L228.562 50.301L228.897 50.1236L229.07 49.751L229.195 49.596L229.173 49.3859L229.088 49.2533L229.205 49.0283L229.26 48.8808L229.253 48.8107L229.488 48.3607L229.411 48.2981L229.558 48.3532L229.753 48.1907L229.878 48.0357L229.948 48.0282L230.011 47.9507L230.331 47.6332L230.666 47.4557L230.581 47.3231L230.574 47.2531L230.629 47.1056L230.832 47.0131L230.684 46.958L230.824 46.9431L230.802 46.733L230.927 46.578L230.997 46.5705L230.989 46.5005L231.144 46.6256L231.255 46.3305L231.302 46.113L231.365 46.0354L231.28 45.9029L231.42 45.8879L231.552 45.8029L231.53 45.5928L231.6 45.5854L231.662 45.5079L231.935 45.4079L232.068 45.3229L232.138 45.3154L232.601 44.3453L233.006 44.1603L233.404 43.9054L233.576 43.5328L233.834 43.2928L234.009 42.2825L234.587 41.725L235.188 41.3776L235.335 41.4326L235.828 40.7425C236.156 40.4951 236.521 40.5977 236.566 41.0179L236.511 41.1654L236.728 41.213L236.736 41.2831L236.898 41.4782L236.796 41.8433L236.398 42.0982L236.855 42.4035L237.11 42.8012L237.148 43.1514L237.115 43.509L237.138 43.7191L236.942 43.8816L236.755 44.1141L236.862 44.4568L236.637 44.3392L236.582 44.4867L236.254 44.7342L235.997 44.9742L236.229 45.1618L236.089 45.1768L236.244 45.3019L235.924 45.6194L235.729 45.7819L235.644 45.6493L235.659 45.7893L235.589 45.7968L235.611 46.0069L235.494 46.232L235.424 46.2394L235.383 46.527C235.148 46.9771 234.721 46.9519 234.668 46.4617C234.661 46.3917 234.716 46.2442 234.701 46.1041L234.631 46.1116L234.403 46.6317L234.263 46.6467L234.13 46.7317L234.123 46.6616L233.953 46.3965L234.071 46.1714L233.65 46.2163L233.588 46.2938L233.383 47.024L232.79 47.4415L232.797 47.5115L232.742 47.659L232.624 47.8841L232.544 48.4592L232.044 49.0793L232.051 49.1493L231.849 49.2418L231.786 49.3193L231.646 49.3343L231.584 49.4118L231.341 49.7918L230.973 50.3269L230.903 50.3344L230.848 50.4819L230.583 50.6519L229.847 51.722L229.487 52.3271L229.432 52.4746L229.307 52.6297L229.259 52.8472L228.696 53.5448L228.343 54.2199L228.038 54.6775L227.795 55.0575L227.56 55.5076L227.497 55.5851L227.427 55.5926L227.435 55.6626L227.317 55.8877L227.067 56.1977L226.872 56.3602L226.386 57.1203L226.339 57.3379L225.839 57.9579L225.673 58.4005L225.471 58.493L225.11 59.0981L225.125 59.2381L224.93 59.4006L224.805 59.5556L224.107 60.9759L224.114 61.046L223.721 62.0087L223.471 62.3187L223.431 62.6063L222.74 64.0966L222.553 64.3291L222.435 64.5542L222.247 64.7867L222.215 65.1443L222.042 65.5169L221.979 65.5944L221.744 66.0445L221.586 66.5571L221.484 66.9222L221.256 67.4423L220.896 68.0474L219.93 70.2754L219.842 70.7806L219.717 70.9356L219.514 71.028L219.059 72.0683L218.893 72.5109L218.831 72.5884L218.21 74.0712L217.156 76.8043L217.171 76.9444L216.565 78.5673L216.548 79.065L216.475 79.7102L216.21 79.8802L215.982 80.4003L215.762 80.9904L215.704 81.7757L215.113 83.5386L214.765 84.9215L214.031 87.3371L213.774 87.5771L213.811 87.9273L213.473 88.7425L213.353 89.6052L212.967 90.638L212.832 91.3607L213.039 91.976L213.107 92.6063L212.784 93.5615L212.291 94.2516L212.093 95.0518C211.998 95.4869 211.973 95.9146 211.948 96.3422L212.147 96.8875L212.26 97.9379L212.047 98.5981L211.967 99.1733L212.037 99.1658L211.982 99.3133L211.912 99.3208L211.919 99.3908L211.864 99.5384L211.984 100.659L212.183 101.204L212.366 102.247L212.588 103.002C212.795 103.618 213.135 104.148 213.46 104.538L214.375 105.149L214.918 105.587C215.361 105.752 215.943 105.902 216.581 105.905C217.359 105.893 218.129 105.81 218.962 105.651L219.305 105.543L219.452 105.598L220.69 105.254L220.963 105.154L221.906 104.699L223.534 104.029L224.079 103.829L225.35 103.127L225.973 102.99L227.859 102.08L228.459 101.732L229.192 101.3L229.878 101.085C229.948 101.078 230.01 101 230.08 100.993L230.548 100.73L230.743 100.568L233.66 98.6981L234.175 98.2181L234.768 97.8007L235.633 97.2833L235.626 97.2133L235.791 96.7707L236.519 95.6305L237.44 94.9656L237.948 94.4155L238.788 94.3258L239.599 93.9559L239.731 93.871L239.856 93.7159L240.121 93.546L240.909 92.966L241.23 92.6485L242.22 91.9761L242.736 91.4961L244.257 90.4838L245.615 89.2763L246.013 89.0214L246.138 88.8663L246.963 88.6365L247.449 87.8764L248.697 86.964L249.305 86.6866C249.82 86.2066 250.343 85.7967 250.788 85.3242L251.506 84.7517L251.726 84.1615L252.032 83.704L252.71 83.4191L253.505 82.9092L255.176 81.3142L255.239 81.2367L255.559 80.9192L255.747 80.6867L256.332 80.1992L256.817 79.4391L258.066 78.5267L258.198 78.4417C258.526 78.1942 258.776 77.8842 259.034 77.6442L259.089 77.4966L259.549 77.1642C259.542 77.0942 259.612 77.0867 259.604 77.0167L259.917 76.6291L260.16 76.2491L260.432 76.1491L260.473 75.8615L260.848 75.3965L261.191 75.2891L261.401 75.2666C261.596 75.1041 261.791 74.9416 261.979 74.7091L262.409 74.0965L262.807 73.8416C262.877 73.8341 262.869 73.7641 262.932 73.6866L263.222 73.089L264.245 72.0589L264.433 71.8264L265.018 71.3389L265.316 70.8113L266.409 69.7738L269.144 66.8612L270.112 65.9787L270.66 65.1411L273.097 62.7561L273.222 62.6011L273.48 62.3611L274.153 61.3684L275.253 60.401L275.691 59.8584L275.894 59.7659L276.019 59.6109L277.267 58.6985L277.565 58.1709L277.87 57.7134L278.323 57.3109L278.581 57.0709L279.526 55.9783L279.707 55.6758L280.34 54.9707L280.52 54.6682L281.108 53.543L281.476 53.0079L282.624 51.8229L283.602 50.3727L283.923 50.0552L284.235 49.6676L285.244 48.4975L285.799 47.73L286.244 47.2574L286.55 46.7999L287.415 46.2825L287.423 46.3525L287.978 45.5849L288.128 45.0023L288.254 44.8472L288.536 44.1796L289.199 43.7547L289.277 43.8172L289.59 43.4297L289.73 43.4147L290.395 42.3521L291.684 41.1521L291.631 40.6619L292.191 40.602L293.63 38.8194L293.678 38.6018L293.573 37.6214L293.776 37.529L293.823 37.3114L294.276 36.9089L295.174 36.0339L295.767 35.6164L295.774 35.6865L295.83 35.5389L297.946 33.4714L298.291 32.7263L299.3 31.5562L300.153 30.261L302.575 27.7359L302.637 27.6584L303.711 25.7731L304.332 24.2902L305.402 23.0427L306.098 22.2601L306.426 22.0126L306.746 21.6951L308.167 20.4101L309.918 20.2232L310.08 20.4183L310.342 20.8861L309.759 22.7191L308.28 24.7893L305.005 28.6096L304.725 28.6395L303.472 30.8274L301.575 34.288L301.224 34.3254L301.044 34.6279L301.089 35.0481L300.899 35.9183L300.358 36.826L300.005 37.5011L299.475 37.8411L298.975 38.4611L298.669 38.9187L296.14 43.0843L295.474 44.147L295.394 44.7222L294.893 45.3422L294.751 45.9949L293.96 47.2126L293.382 47.7701L293.084 48.2977L292.779 48.7553L292.621 49.2679L292.331 49.8655L291.688 51.1382C290.824 53.0011 290.031 54.8565 289.307 56.7045L289.282 57.1321L289.054 57.6522L288.944 57.9473L288.679 58.1173C288.224 59.1575 287.838 60.1902 287.453 61.223L287.397 61.3705L287.505 61.7132L287.38 61.8682L287.215 62.3108L287.174 62.5984L287.142 62.956L286.892 63.2661L286.446 63.7386L286.274 64.1111L283.457 71.5654L283.352 72.5682L283.139 73.2284L282.694 73.7009L281.34 77.5994L281.259 78.1746L281.142 78.3996L280.826 79.4249L280.706 80.2877L280.611 80.7228L280.633 80.9329L280.438 81.0954L280.112 82.6884L279.907 83.4185L279.779 84.2113L279.747 84.5689L279.581 85.0115L279.454 85.8043L279.476 86.0144L279.303 86.3869L279.208 86.8221L279.01 87.6223L278.464 89.8054L278.266 90.6056L278.186 91.1808L277.57 93.3714L277.442 94.1642L276.834 96.4248L276.661 96.7974L275.775 100.433L275.779 101.141L275.692 101.646L275.464 102.166L275.206 102.406L275.126 102.982L275.001 103.137L275.023 103.347L275.178 103.472L275.068 103.767L275.106 104.117L274.94 104.56L275.01 104.552L275.018 104.622L274.94 104.56L274.775 105.002L274.643 105.087L274.65 105.157L274.345 105.615L273.955 105.94L273.774 106.242L273.634 106.257L273.627 106.187L273.237 106.512L273.244 106.582L272.971 106.682L272.621 106.72L272.644 106.93L272.574 106.937L272.566 106.867L272.309 107.107L271.966 107.215L271.516 106.979L271.128 106.667L270.656 106.221L270.584 104.883L271.094 103.695L271.322 103.175L272.103 102.525L272.813 101.883L272.798 101.743L273.008 101.72L273.063 101.573L273.299 101.123L273.541 100.743L273.794 99.795L273.962 98.7146L274.56 97.0217L275.571 95.2139L275.619 94.9963L276.423 92.5732L276.661 91.4854L276.616 91.0652L276.703 90.5601L277.114 89.0997L277.312 88.2994L277.415 87.9343C277.7 86.629 277.986 85.3236 278.341 84.0107L278.334 83.9407L278.484 83.358L278.627 82.7053L278.744 82.4803L279.383 80.4998L280.304 77.8516L280.565 76.9739L280.535 76.6938L280.85 75.6685L280.968 75.4435L280.883 75.3109L281.048 74.8683L281.081 74.5107L281.441 73.9056L282.217 72.5478L282.705 71.15L282.738 70.7924L282.918 70.4898L282.795 70.0071L282.843 69.7895L283.248 69.6046L283.358 69.3096L283.431 68.6643L283.541 68.3693L283.909 67.8342L284.68 65.7687L284.83 65.186L284.918 64.6809L285.193 63.9432L285.256 63.8657L285.303 63.6481L285.546 63.2681L285.711 62.8255L285.884 62.4529L286.152 61.6452L286.372 61.0551L286.828 60.0148C286.89 59.9373 286.883 59.8673 286.93 59.6497L286.993 59.5722L287.621 58.1594L287.614 58.0894L287.731 57.8644L287.686 57.4442L287.859 57.0716L288.117 56.8316L289.186 54.2385L289.008 53.9033L288.986 53.6933L289.126 53.6783L289.696 53.0508C289.689 52.9807 289.751 52.9032 289.744 52.8332L289.839 52.3981L289.902 52.3206L290.345 50.5025L290.58 50.0525L290.738 49.5398L291.006 48.7321L291.219 48.072L291.454 47.6219L292.134 46.6993L292.527 45.7366L293.02 45.0465L293.41 44.7215C294.564 42.261 295.796 39.863 297.104 37.5276L297.004 37.255L296.559 37.7275L296.449 38.0226L296.246 38.115L296.114 38.2L295.901 38.8602L295.768 38.9452L295.408 39.5503L294.993 40.3029L294.797 40.4654L294.525 40.5653L294.315 40.5878L294.19 40.7428L293.924 40.9128L293.362 41.6103L293.024 42.4255L292.663 43.0306L292.21 43.4331L291.555 43.928L290.705 44.5855L289.649 45.9731L289.509 45.9881L289.446 46.0656L289.005 47.2459L288.02 48.6261L285.981 50.7561L285.27 51.3986L283.309 53.5912L282.723 54.0787L281.59 55.4038L281.215 55.8689L281.019 56.0314L280.902 56.2564L280.011 57.2014L279.879 57.2864L279.816 57.3639L279.746 57.3714L279.058 58.224L278.362 59.0065L278.307 59.1541L278.065 59.5341L277.604 59.8666L277.479 60.0216L276.408 61.2692L276.143 61.4392L276.111 61.7968L275.908 61.8892L275.768 61.9042L274.885 62.9193L274.602 63.5869L274.414 63.8194L274.017 64.0744L273.244 64.7944L272.618 65.5694L272.486 65.6544L271.65 66.4519L270.572 67.6295L270.509 67.707L270.439 67.7145C269.236 69.0471 267.895 69.7569 266.684 71.0194L266.629 71.1669L266.364 71.3369L266.106 71.5769L265.09 72.677L263.807 74.5847L263.376 75.1973L262.798 75.7548L261.142 77.4899L260.627 77.9699L258.901 79.7124L257.785 80.5398L257.34 81.0123L257.222 81.2374L256.957 81.4073L255.738 82.5999L255.753 82.7399L255.566 82.9724L255.286 83.0024L253.997 84.2024L253.364 84.9074L252.864 85.5274L252.514 85.5648L251.873 86.1998L251.568 86.6574L250.928 87.2924L250.062 87.8098L249.304 88.6699L248.914 88.9949L248.313 89.3423C247.213 90.3097 246.104 91.2072 244.996 92.1046L243.418 93.9023L243.175 94.2823L242.792 94.6773L242.169 94.8147L241.779 95.1396L241.591 95.3722L241.474 95.5972L240.873 95.9446L240.918 96.3648L240.48 96.9073L239.63 97.5648L238.874 97.7871L238.642 97.5995L238.572 97.6069L238.509 97.6844L238.299 97.7069L238.034 97.8768L237.714 98.1944L236.638 98.7342L235.608 99.6942L234.86 99.9865L234.65 100.009L233.309 100.719L233.099 100.741L232.904 100.904L233.114 100.881L232.801 101.269L232.528 101.369L232.381 101.314L232.373 101.244L230.362 102.308L229.614 102.601L229.287 102.848L228.561 103.351L228.211 103.388L228.126 103.255C226.288 103.948 224.512 104.562 222.658 105.114L221.17 105.769ZM236.368 41.8181L236.493 41.6631L236.471 41.453L236.368 41.8181ZM236.39 42.0282L236.375 41.8882L236.313 41.9657L236.39 42.0282ZM295.844 79.4501L296.032 79.2176L296.205 78.845L296.267 78.7675L296.613 78.0224L297.013 77.1297L297.664 75.927L297.829 75.4843L299.083 73.2965L299.373 72.6989L299.553 72.3963L300.236 70.836L300.817 69.6407L301.335 68.523L301.526 67.6527L301.481 67.2326L301.341 67.2475L301.326 67.1075L301.451 66.9525L301.191 65.847L301.189 64.5015L301.284 64.0663L301.672 62.3959L302.843 61.4209L303.599 61.1986L304.344 61.544L304.529 61.9492L304.588 62.5094L304.854 62.3394L304.736 62.5645L304.596 62.5794L304.471 62.7345L304.376 63.1696C304.383 63.2396 304.461 63.3022 304.468 63.3722C304.418 64.2275 304.017 65.1202 303.679 65.9354L303.531 67.8635L303.053 68.6937L302.663 69.0186L302.067 70.0738L301.737 70.959L301.454 71.6267L301.249 72.3569L300.733 72.8369L300.623 73.1319L300.528 73.5671L300.543 73.7071L300.278 73.8771L299.024 76.065L298.944 76.6402L298.216 77.7803L297.9 78.8056L296.676 81.2736L296.456 81.8637L295.806 83.0664L295.813 83.1365L295.71 83.5016L295.578 83.5865L295.413 84.0292L295.2 84.6893C295.52 84.3718 295.63 84.0767 295.88 83.7667L296.061 83.4642L296.123 83.3867L296.288 82.9441L296.679 82.6191L296.866 82.3866L297.234 81.8515L297.624 81.5265L298.187 80.8289L298.515 80.5815C299.336 79.6439 300.149 78.6363 301.039 77.6913L301.345 77.2337L301.462 77.0087L302.048 76.5212L302.43 76.1262L303.469 75.2362L303.656 75.0037L305.155 73.7813L305.49 73.6038C306.09 73.2564 306.613 72.8464 307.143 72.5065C307.541 72.2515 308.547 71.7192 309.395 71.6995L309.387 71.6294L310.725 71.5574L311.275 72.0652L312.043 72.6207L312.372 73.7187L312.425 74.2089L312.43 74.9167L312.379 75.772L312.362 76.2697L312.421 76.8299L312.188 78.6255L312.203 78.7655L312.761 79.3434L313.06 80.1614L313.215 80.2864L313.09 80.4415L313.003 80.9466L313.062 81.5068L313.395 81.9671L313.705 82.2173L314.318 82.6477C315.305 82.613 316.481 82.3458 317.719 82.0011L319.06 81.2913L319.472 81.1764L320.345 80.7291L320.758 80.6142L322.036 79.9819L322.957 79.317L323.58 79.1796L324.187 78.9022L325.333 78.3549C326.136 77.9151 326.931 77.4051 327.727 76.8952L328.375 76.3303L328.718 76.2228L330.308 75.203L330.761 74.8005L331.269 74.2505L331.855 73.763L333.726 72.7133L335.957 71.0584L336.207 70.7484L337.128 70.0835L337.338 70.0611L337.323 69.921L337.533 69.8986L338.118 69.4111L338.243 69.2561L338.664 69.2112L338.904 69.4689L338.934 69.749L338.738 69.9115L338.403 70.0889C337.358 70.9089 336.319 71.7988 335.204 72.6263L334.703 73.2463L334.228 73.4387L333.768 73.7712L333.628 73.7861L332.847 74.4361L332.722 74.5911L332.449 74.6911C332.379 74.6985 332.317 74.776 332.254 74.8536L332.129 75.0086L331.794 75.186L331.724 75.1935C331.069 75.6884 330.343 76.1909 329.61 76.6233L328.557 77.3732L325.773 79.1579L325.5 79.2578L325.438 79.3353L324.61 80.2029L323.884 80.7053L322.919 80.9501L321.928 81.6225L321.46 81.8849L320.845 82.0923L320.02 82.3221L319.537 82.4444L319.272 82.6144L318.999 82.7144L318.797 82.8068C318.251 83.0067 317.699 83.1366 317.146 83.2664L316.243 83.4337L315.915 83.6811L315.643 83.7811L315.067 83.7008L314.662 83.8858L314.095 83.8756L313.954 83.8905C313.122 84.0503 312.347 83.4248 311.539 83.1569C311.096 82.9917 310.716 82.749 310.531 82.3438L310.431 82.0711C310.324 81.7285 310.286 81.3783 310.242 80.9582L310.167 80.2579L310.357 79.3876L310.573 78.0897L310.503 78.0972L310.628 77.9422L311.059 75.3464L310.989 75.3539L310.834 75.2288L311.062 74.7086C311.089 73.6433 310.79 72.8254 309.857 72.7125C309.429 72.6873 309.267 72.4922 308.729 72.7621L308.066 73.187L307.551 73.667C307.481 73.6745 307.488 73.7446 307.418 73.752L306.052 74.8895L305.935 75.1145L305.739 75.277L304.739 76.5171L304.208 76.8571L304.113 77.2922L302.114 79.1347L301.842 79.2346L301.319 79.6446L301.046 79.7445L300.826 80.3347L300.31 80.8147L300.115 80.9772L299.593 81.3871L299.147 81.8596L298.89 82.0996L298.669 82.6898L298.029 83.3248L297.451 83.8823C296.513 85.0449 295.644 86.2 294.636 87.3701L294.401 87.8202L294.323 87.7576L293.753 88.3852C293.683 88.3927 293.683 88.3927 293.62 88.4702L293.565 88.6177L293.363 88.7102L293.448 88.8427L293.463 88.9828L293.23 88.7952L293.05 89.0977L292.707 89.2051L292.125 89.0549L291.777 88.4545L291.628 87.054L291.991 85.8111L292.296 85.3536L292.921 84.5785L293.717 84.0686L293.695 83.8585L293.765 83.851L293.912 83.9061L293.882 83.626L294.077 83.4635L294.298 82.8733L294.55 81.9256L294.856 81.468L294.958 81.1029L295.844 79.4501ZM348.938 77.6048L348.407 77.9448L347.767 78.5798L346.831 79.1047L346.216 79.312L345.888 79.5595L345.833 79.707L345.638 79.8695L344.765 80.3169L344.165 80.6643L344.11 80.8118L343.915 80.9743L343.439 81.1667L342.449 81.8391L342.051 82.0941L341.075 82.9066L340.538 83.1765L340.14 83.4314L339.414 83.9339L338.814 84.2813L338.409 84.4662L337.311 84.796L336.383 85.3908L335.557 85.6206L334.36 85.6778L333.612 85.9701L332.251 85.8321C331.528 85.6968 330.931 85.4065 330.521 84.8836L330.211 84.6334L330.236 84.2058C330.106 83.653 330.039 83.0228 330.244 82.2926L330.214 82.0125L330.555 80.5595L330.966 79.0992L331.053 78.594L331.454 77.7013L331.884 77.0887L331.994 76.7937L332.377 76.3986C332.495 76.1736 332.612 75.9486 332.792 75.646L333.263 74.7458L333.421 74.2332L333.586 73.7906L333.773 73.5581L333.909 72.8354L334.472 72.1378L334.869 71.8828L335.105 71.4328L335.675 70.8052L336.766 68.4222L337.004 67.3344L337.67 66.2718L338.115 65.7992L338.336 65.2091L338.593 64.9691L338.659 64.2539L338.621 63.9037L338.911 63.3061L339.364 62.9036L339.559 62.7411L339.699 62.7262L339.684 62.5861L340.122 62.0435L340.583 61.7111C340.825 61.331 341.146 61.0135 341.643 61.0312C341.713 61.0237 341.791 61.0863 341.868 61.1488L342.063 60.9863L342.118 60.8388L342.531 60.7239L343.099 60.7341L343.626 61.0319L343.664 61.382L343.606 62.1673L343.198 62.99L342.58 63.8351L342.392 64.0676L342.135 64.3076L341.995 64.3225L341.59 64.5075L340.519 65.7551L340.416 66.1202L340.361 66.2677L339.485 67.3528C339.43 67.5003 339.298 67.5853 339.235 67.6628L339.21 68.0905L338.639 68.718L338.224 69.4706L337.724 70.0907L337.614 70.3857L337.161 70.7882L336.933 71.3084L336.815 71.5334L336.08 72.6035L335.156 73.9062L334.741 74.6588L334.388 75.334L333.76 76.7468C333.267 77.4368 333.204 77.5143 333.149 77.6619L332.794 78.9747L332.714 79.5499L332.28 80.8002L332.017 82.3157L332.062 82.7359L332.012 83.5912C332.219 84.2065 332.297 84.269 332.304 84.339L332.599 84.4492L333.012 84.3343L333.222 84.3119L333.72 84.3295L334.125 84.1446L334.538 84.0297L334.833 84.1398L335.183 84.1025L336.616 83.5953L336.826 83.5728C337.161 83.3954 337.574 83.2805 337.979 83.0956L338.307 82.8481L339.095 82.2681L339.688 81.8507L341.051 81.351L342.127 80.8112L342.742 80.6038L345.066 79.1516L345.176 78.8565L345.596 78.8116L346.789 78.0468L346.852 77.9692L346.969 77.7442L347.5 77.4043L347.71 77.3818L347.89 77.0793L348.295 76.8944L348.826 76.5544L349.481 76.0595L350.074 75.642L350.784 74.9995L350.972 74.767L351.76 74.1871L352.095 74.0096L352.353 73.7696L353.734 72.7722L353.944 72.7498L354.397 72.3473L354.732 72.1698L355.059 71.9224C355.199 71.9074 355.192 71.8374 355.262 71.8299L355.575 71.4424L356.043 71.1799L356.293 70.8699L356.753 70.5374L357.416 70.1125L357.744 69.865C358.266 69.4551 358.852 68.9676 359.577 68.4652L359.687 68.1701L359.897 68.1477L360.115 68.1952L360.37 68.593L360.19 68.8955L359.995 69.058L359.597 69.313L359.479 69.538L359.332 69.483L359.262 69.4904L359.277 69.6305L358.419 70.2179L358.209 70.2403L356.18 71.8027L355.602 72.3602L355.032 72.9877L354.424 73.2651L354.026 73.5201C352.793 74.5726 351.622 75.5475 350.506 76.3749L350.263 76.755L350.068 76.9175L349.258 77.2873L349.063 77.4498L348.938 77.6048ZM351.28 44.491L350.99 45.0886L350.534 46.1288L350.291 46.5089L350.111 46.8114L350.119 46.8814L349.433 47.0963L348.818 47.3036L348.28 47.5735L347.765 48.0535L347.702 48.1311L347.437 48.301L347.147 48.8986L346.469 49.1835L346.021 50.2938L345.343 50.5786L345.101 50.9587L344.67 51.5713L344.685 51.7113L343.967 52.2838L343.837 51.731L344.095 51.491C344.087 51.421 344.213 51.266 344.19 51.0559L344.903 49.7757L344.703 49.2304L345.081 48.1276L345.247 47.685L345.857 46.7699L346.288 46.1573L346.42 46.0724L347.108 45.2198L347.351 44.8397L347.874 44.4297L348.234 43.8247L348.304 43.8172L348.554 43.5071L348.414 43.5221L348.749 43.3447L348.764 43.4847L349.202 42.9422L349.88 42.6573L350.5 43.1577L351.23 43.363L351.103 44.1558L351.28 44.491ZM369.022 65.4025L366.7 70.1835L366.62 70.7587L366.51 71.0537L366.462 71.2713L366.057 71.4562C365.774 72.1239 365.491 72.7915 365.138 73.4666L365.083 73.6142L365.058 74.0418L364.683 74.5069C364.613 74.5143 364.62 74.5844 364.62 74.5844C365.023 75.0372 365.425 75.49 365.758 75.9503L365.983 76.0679L366.308 76.4581L366.54 76.6458L366.975 76.741L367.06 76.8736L367.12 77.4338L367.312 77.909L367.457 78.6018L367.72 79.0696L367.882 79.2647L367.82 79.3422C368.274 80.2852 368.519 81.2507 368.841 82.2787L368.856 82.4187L369.204 83.0191L369.116 83.5242L369.593 84.6773L369.753 85.5102L369.655 86.583L369.845 87.696L369.897 88.1862L369.832 88.9014L369.712 89.7642L369.694 90.2619L369.684 90.8296L369.391 92.065L369.336 92.2125C369.303 92.5701 369.278 92.9978 369.183 93.4329L369.398 94.1182L369.553 94.2433L369.427 94.3983L369.045 94.7933L369.035 95.3611L369.032 95.9988L369.062 96.2789L369.014 96.4965L368.826 96.729L368.161 97.7916C368.018 98.4443 367.798 99.0345 367.585 99.6946L367.832 100.022L367.73 100.387L367.214 100.867L366.884 101.753L366.969 101.885L366.836 101.97L366.554 102.638L366.528 103.066L366.411 103.291L366.338 103.936L366.055 104.603L366.052 105.241L365.862 106.111L365.682 106.414L365.064 107.259L364.899 107.702L364.531 108.237L364.03 108.857L363.85 109.159L363.38 110.06L362.994 111.092L362.556 111.635L362.446 111.93L361.976 112.83L361.811 113.273L361.105 114.623L359.979 116.018C358.247 119.036 356.368 121.999 354.411 124.899L354.301 125.194L353.683 126.04L353.298 127.072L352.992 127.53L352.625 128.065L351.749 129.15L351.444 129.608L350.928 130.088L349.527 132.22L349.464 132.298L349.479 132.438L349.277 132.53L347.25 135.438C347.195 135.586 347.07 135.741 346.945 135.896L346.96 136.036L347.13 136.301L346.757 136.128L346.695 136.206L346.71 136.346L346.404 136.803L346.334 136.811L345.746 137.936L344.22 140.224L343.679 141.132L341.735 142.827L339.839 144.304L340.134 144.414L340.024 144.709L340.047 144.919L339.829 144.872L339.737 144.669L339.199 144.939L339.051 144.884L338.989 144.961L338.981 144.891L338.631 144.929L338.004 144.358L337.634 143.548C337.736 143.183 337.839 142.818 337.872 142.46L337.734 141.837L337.742 141.907L337.594 141.852L337.549 141.432L337.342 140.817L337.345 140.179L337.322 139.969L337.362 139.681L337.34 139.471L337.185 139.346L337.248 139.269L337.325 139.331L337.413 138.826L337.468 138.679L337.6 138.594L337.641 138.306L337.843 138.214L337.906 138.136L338.181 137.398L338.051 136.846L337.991 136.285L338.149 135.773L338.557 134.95L338.895 134.135L339.085 133.265C339.136 132.409 339.333 131.609 339.524 130.739L339.509 130.599L339.604 130.164L339.674 130.156C339.762 129.651 339.997 129.201 340.155 128.688C341.073 126.678 341.634 124.635 342.203 122.662L342.263 121.239L342.226 120.889L342.804 120.331L343.072 119.523L343.049 119.313L343.174 119.158L343.74 117.823C344.023 117.155 344.236 116.495 344.448 115.835L344.433 115.695L344.544 115.4L344.584 115.112L344.779 114.95L345.212 113.7L345.4 113.467L346.296 111.247L346.273 111.036L346.508 110.586L346.549 110.299L346.831 109.631L347.555 107.783L347.805 107.473L348.143 106.658L348.929 104.733L349.079 104.15L349.612 103.172L350.806 100.424L351.089 99.7564L351.387 99.2289L351.497 98.9338C351.614 98.7087 351.662 98.4912 351.787 98.3362L351.93 97.6835L353.492 94.4003L353.73 93.3125L354.763 91.7148L356.325 88.4316L357.651 85.5985L358.25 83.9056L358.602 83.2305L359.048 82.7579L361.363 77.907L361.693 77.0218L361.833 77.0068L362.061 76.4867L362.046 76.3466L362.234 76.1141L362.697 75.1439C362.542 75.0188 362.457 74.8862 362.372 74.7537L361.884 74.1683L361.504 73.9255L361.474 73.6454L361.249 73.5278L361.002 73.2001L360.777 73.0825L360.219 72.5046L359.127 71.5588C357.684 70.6505 354.865 71.4473 353.775 69.8639L353.473 69.6837L353.435 69.3336L353.545 69.0385L353.718 68.6659L353.788 68.6584L354.178 68.3334L354.108 68.3409L354.163 68.1934L354.429 68.0234L354.819 67.6984L355.294 67.506L355.364 67.4985L355.427 67.421L355.629 67.3286L355.762 67.2436L355.747 67.1035L355.817 67.0961L355.824 67.1661L356.245 67.1212L356.322 67.1838C356.462 67.1688 356.602 67.1539 356.735 67.0689C358.035 66.6467 358.596 66.5868 359.296 66.512L359.896 66.1646L362.63 65.2352L363.658 64.913L365.309 64.4534L366.057 64.161L366.602 63.9611L367.14 63.6912L367.585 63.2187L367.725 63.2038L368.028 63.3839L368.308 63.354L368.791 63.2316C368.783 63.1616 368.783 63.1616 368.846 63.0841L369.822 60.2884L370.51 59.4358L370.535 59.0082L371.113 58.4507L371.591 57.6205L374.026 51.9068C374.122 51.4717 374.357 51.0216 374.592 50.5715L374.507 50.4389L374.54 50.0813L375 49.7488L375.721 48.5386L376.199 47.7085L376.449 47.3985L377.067 46.5534L377.49 45.8708C377.963 44.3329 378.941 42.8827 379.64 41.4624C380.025 40.4296 380.713 39.5771 381.331 38.732L381.379 38.5144L382.004 37.7393L382.177 37.3668C382.695 36.249 383.431 35.1789 384.089 34.0462L384.199 33.7511L385.67 31.6108L386.008 30.7957L387.52 28.3678L388.395 27.2827L388.388 27.2127L388.483 26.7775L388.826 26.6701L388.936 26.3751L389.789 25.0799L390.189 24.1872L390.512 23.2319L390.74 22.7118L391.045 22.2543L391.396 22.2169L391.568 21.8443L391.421 21.7892L391.398 21.5791L391.626 21.059L391.976 21.0216L391.946 20.7415L392.071 20.5865L392.182 20.2914L392.167 20.1514L392.394 19.6313L392.379 19.4912L392.534 19.6163L392.8 19.4463L392.917 19.2213L393.057 19.2063L393.12 19.1288L393.698 18.5713L394.313 18.364L394.641 18.1165L394.726 18.2491L394.851 18.0941L395.506 17.5991L395.819 17.2116L395.937 16.9865L395.914 16.7764L396.124 16.754L396.217 16.9566L396.825 16.6792L397.315 16.6269L397.942 17.1973L398.452 17.9928L398.126 19.5857L396.023 20.4478L395.975 20.6654L395.482 21.3555L395.082 22.2482L394.799 22.9158L393.163 23.5155L392.42 24.5156L392.66 24.7733L392.225 24.6781L392.092 24.7631L391.111 26.851C389.202 29.5338 386.525 33.6444 384.771 36.4523C383.805 38.6803 382.689 39.5077 381.575 41.6806C379.258 45.1861 377.911 49.1546 375.369 52.5425L374.899 53.4426C374.568 54.3279 374.16 55.1505 373.667 55.8406L373.462 56.5708L372.601 57.796L371.297 60.8391L371.265 61.1967L371.287 61.4068L371.092 61.5693L370.959 61.6543L370.504 62.6945L370.644 62.6796L371.057 62.5647C373.44 61.6727 375.684 60.7956 377.07 60.506L377.91 60.4163C379.155 60.1416 380.891 59.8146 382.837 59.4651C383.39 59.3353 384.005 59.1279 384.628 58.9906C385.181 58.8607 385.741 58.8009 386.294 58.671C387.071 58.6588 389.01 58.2393 390.395 57.9497C390.948 57.8198 392.714 57.7729 392.729 57.913L392.876 57.9681L393.054 58.3032L392.789 58.4732L390.548 58.7125L390.478 58.72L388.112 59.1143L387.706 59.2992L387.636 59.3067C386.719 59.3339 385.963 59.5562 385.215 59.8486L385.208 59.7786C384.585 59.9159 384.095 59.9682 383.69 60.1532L383.487 60.2456L382.717 60.3279C381.744 60.5026 378.84 61.1669 377.937 61.3341L377.702 61.7842L377.547 61.6591L377.057 61.7114L376.839 61.6638L376.589 61.9739L376.449 61.9888C375.141 62.341 373.637 62.8557 372.352 63.4179L371.206 63.9652L369.921 64.5275L369.57 64.5649C369.32 64.8749 369.14 65.1775 369.022 65.4025ZM366.052 99.9292L366.21 99.4166L366.625 98.6639L366.97 97.9188L367.018 97.7012L367.08 97.6237L367.388 96.5284L367.374 96.3884L367.809 94.5003L367.93 93.6375L368.083 92.4171L368.14 91.6319L368.098 90.574L368.281 89.6337L368.346 88.9184L368.562 87.6205C368.468 86.0724 368.296 84.4618 368.053 82.8586L367.976 82.7961L367.839 82.1733L367.664 81.2004L367.302 80.46L367.202 80.1873L366.499 78.9166L366.174 78.5264L365.942 78.3387L365.602 77.8084C364.967 77.1679 364.354 76.7376 363.797 76.1597L363.727 76.1671L363.209 77.2849L363.161 77.5024L363.098 77.5799L362.856 77.96L362.908 78.4502L362.345 79.1478L362.055 79.7454L361.654 80.6381L361.467 80.8706L359.898 84.0837C359.082 85.7291 357.778 86.789 356.97 88.5043C356.389 89.6996 355.816 90.9648 355.313 92.2226L355.155 92.7353L354.858 93.2629C354.795 93.3404 354.732 93.4179 354.74 93.4879L354.542 94.2881L354.087 95.3284L352.712 98.379L352.144 100.352L351.478 101.415C351.368 101.71 351.266 102.075 351.085 102.377L351.1 102.517L350.873 103.038L349.701 105.996L349.698 106.633L349.198 107.254L348.883 108.279L348.615 109.087L347.829 111.012L346.893 113.52L346.647 114.538L346.114 115.516C345.769 116.261 345.501 117.068 345.163 117.884L342.985 123.357L342.457 125.043L342.097 125.648C340.602 129.561 340.665 134.796 340.104 138.822L340.111 138.892L340.289 139.227L340.448 140.06L340.541 140.263L341.712 139.288L345.292 135.01L345.62 134.762L346.19 134.135L347.922 131.117L348.665 130.117L349.213 129.279L351.49 126.061L353.524 123.223L354.455 121.991L355.709 119.803L356.349 119.168L357.57 117.338L357.93 116.733L357.923 116.663L357.986 116.585L359.685 113.925L360.511 111.712L361.291 111.062L362.452 108.671L362.43 108.461L362.548 108.236L362.743 108.074L362.783 107.786L362.853 107.778L362.915 107.701L362.901 107.561L363.143 107.181C363.544 106.288 363.937 105.325 364.407 104.425L364.973 103.09L364.958 102.95L365.09 102.865L365.068 102.655L365.351 101.987L365.406 101.84L366.052 99.9292ZM366.619 65.4467L364.913 66.0538L363.535 66.4135L362.81 66.9159L362.194 67.1233L361.797 67.3782L360.909 67.6855L360.238 68.0404L359.763 68.2328L359.078 68.4477L359.333 68.8454C360.863 69.2486 359.142 69.7157 360.337 70.2963L360.345 70.3663L360.548 70.2739L360.563 70.4139C361.168 70.7743 361.555 71.087 361.873 71.4072L362.035 71.6024L362.478 71.7676L362.943 72.1429L363.105 72.338L363.39 73.0159L363.7 73.2661L363.708 73.3361L364.814 71.0932L365.012 70.2929L365.74 69.1528L367.449 65.9247L367.732 65.257L367.842 64.9619L367.452 65.2869L367.094 65.2543C366.899 65.4168 366.759 65.4317 366.619 65.4467ZM402.175 62.9953C402.143 63.3529 402.11 63.7105 402.007 64.0756L401.787 64.6658C401.732 64.8133 401.824 65.0159 401.777 65.2335L401.431 65.9786L401.016 66.7313L400.431 67.2187L399.805 67.9938L399.562 68.3739L399.25 68.7614L398.734 69.2414L398.602 69.3264C397.523 70.5039 396.157 71.6414 394.784 72.7088L394.799 72.8489L394.589 72.8713L393.871 73.4438L393.878 73.5138L393.753 73.6688L393.473 73.6987C393.411 73.7762 393.411 73.7762 393.341 73.7837L393.363 73.9938L393.083 74.0237L392.568 74.5037L392.498 74.5112L392.185 74.8987L391.71 75.0911L391.467 75.4712L391.014 75.8737L390.741 75.9736L389.979 76.1259L389.713 76.2959L389.301 76.4108L389.161 76.4257C388.085 76.9656 387.15 77.4904 386.199 77.8752L385.941 78.1152L385.739 78.2077L385.496 78.5878L385.294 78.6802L384.788 78.5925L384.298 78.6449L382.96 78.7169L381.685 78.7115L381.677 78.6414C381.607 78.6489 381.475 78.7339 381.405 78.7414C380.977 78.7162 380.689 78.6761 380.324 78.5735C380.022 78.3933 378.476 77.85 378.354 77.3673L378.287 76.7371L378.084 76.8295L377.969 76.4168L378.325 75.104L378.688 73.8611L378.923 73.4111L379.674 72.481L380.126 72.0785L380.244 71.8535L381.345 70.886L382.283 69.7234L382.456 69.3508L382.706 69.0408L384.119 67.6858L384.502 67.2907L384.845 67.1833L384.97 67.0283L385.493 66.6183L385.61 66.3933L385.695 66.5259L387.241 65.0859L387.554 64.6984L387.757 64.6059L388.342 64.1184L388.773 63.5058L389.343 62.8783L390.286 62.4235L391.114 61.5559L391.644 61.216L392.237 60.7985C392.893 60.3036 393.471 59.7461 394.063 59.3286L393.068 59.2933C392.585 59.4157 392.173 59.5305 391.753 59.5754L391.55 59.6679L391.487 59.7454L391.27 59.6978L390.429 59.7875C389.807 59.9249 389.051 60.1472 388.281 60.2295L388.211 60.2369L386.608 60.479L385.745 60.3586L385.295 60.1234L385.048 59.7957L385.065 59.298L385.536 58.3978L386.073 58.1279L386.759 57.9131L387.452 57.7683L388.034 57.9185L389.115 58.0865C390.165 57.9743 391.293 57.9247 392.506 58.0076L393.261 57.7853L394.389 57.7357L395.697 57.3835L395.915 57.4311L397.09 57.1639C397.293 57.0714 397.488 56.9089 397.683 56.7464L398.269 56.259L398.799 55.919L399.002 55.8266L399.329 55.5791L399.882 55.4492L400.505 55.3119C400.987 55.1895 401.47 55.0671 401.968 55.0848L402.451 54.9624L402.683 55.1501C402.971 55.1902 403.196 55.3078 403.498 55.488L405.437 55.0685L405.499 54.991L406.317 54.6912L407.36 54.509L408.443 54.0392L408.856 53.9243L409.549 53.7795L410.949 53.6299L411.502 53.5L412.35 53.4803L412.42 53.4728C412.7 53.4429 413.05 53.4055 413.323 53.3056C413.673 53.2682 414.086 53.1533 414.506 53.1084L414.778 53.0085L414.911 52.9235L415.051 52.9085L415.206 53.0336L415.626 52.9888L416.031 52.8038L416.522 52.7515L417.159 52.7542L417.299 52.7393L417.782 52.6169L418.225 52.7821L418.435 52.7597L418.707 52.6597L419.275 52.6699L419.563 52.71C420.418 52.7604 421.133 52.8256 421.568 52.9208L421.871 53.101L422.151 53.0711L422.391 53.3287C422.834 53.494 423.214 53.7367 423.664 53.9719L423.804 53.957L424.036 54.1446L424.401 54.2473L424.656 54.645L424.981 55.0353L425.004 55.2454L424.621 55.6404L424.463 56.153L423.953 57.3408L423.717 57.7909L423.725 57.8609C423.662 57.9384 423.6 58.0159 423.607 58.0859L423.372 58.536L422.967 58.7209L422.907 58.1607L423.025 57.9357L423.01 57.7956C423.05 57.508 423.222 57.1354 423.333 56.8404L423.435 56.4753L423.791 55.1624C423.783 55.0924 423.706 55.0298 423.691 54.8898L423.443 54.5621L422.706 54.2867L422.101 53.9264L421.02 53.7584C419.442 53.5728 417.482 53.7822 416.361 53.9019L415.311 54.014L414.478 54.1738C413.707 54.2561 413.372 54.4335 412.679 54.5783C409.621 55.1175 407.48 55.6294 405.479 56.1264L405.346 56.2114L404.731 56.4188L404.403 56.6662L403.275 56.7159C402.17 56.9756 401.072 57.3053 399.826 57.58L399.288 57.8499L398.728 57.9097L397.483 58.1844L397.155 58.4319C397.878 58.5672 398.538 58.78 399.05 58.9377L399.191 58.9228L399.423 59.1104L399.571 59.1655L399.873 59.3457L400.471 59.636L401.408 60.4566L401.671 60.9244L402.111 61.7273L402.175 62.9953ZM399.176 66.0779C399.653 65.2478 400.069 64.4951 400.274 63.7649L400.229 63.3447L400.442 62.6846L400.408 61.6967L400.4 61.6267L399.975 60.9638L399.51 60.5885L398.982 60.2907L398.385 60.0004L397.872 59.8426L397.22 59.6999L396.622 59.4095L396.187 59.3144C396.117 59.3218 396.039 59.2593 396.039 59.2593C395.189 59.9167 394.423 60.7068 393.252 61.6817L392.674 62.2392L392.229 62.7117L389.865 64.4516L389.217 65.0165L388.757 65.349L387.454 66.4089L387.391 66.4865L387.071 66.804L386.08 67.4764L385.3 68.1263L384.582 68.6988L384.262 69.0163L383.356 69.8213L383.293 69.8988L382.62 70.8914L382.08 71.7991L381.782 72.3267C381.712 72.3341 381.719 72.4042 381.649 72.4116C381.219 73.0242 380.866 73.6993 380.716 74.282L380.731 74.4221L380.691 74.7097L380.588 75.0748L380.633 75.4949L380.578 75.6425L380.53 75.86C380.66 76.4128 380.853 76.888 381.233 77.1307L381.373 77.1158L381.823 77.351C381.963 77.3361 382.11 77.3911 382.25 77.3762C384.576 77.2694 385.044 77.007 387.273 75.9899C388.223 75.6051 389.229 75.0728 390.164 74.5479L390.219 74.4003L390.429 74.3779L391.225 73.868L391.725 73.2479L392.848 72.4906L393.121 72.3906L393.261 72.3757L395.275 70.6732L395.463 70.4407L395.595 70.3557C396.111 69.8757 396.618 69.3257 397.126 68.7757L397.307 68.4731L397.424 68.2481L397.807 67.8531L398.175 67.318L398.347 66.9454L398.62 66.8455L398.73 66.5504L398.918 66.3179L399.035 66.0928L399.176 66.0779ZM400.127 56.4147L402.19 55.8402C401.67 55.6124 400.797 56.0598 400.127 56.4147ZM418.422 67.2097L418.297 67.3647L418.187 67.6598L418.695 67.1097L419.601 66.3048L419.858 66.0648L419.991 65.9798L420.131 65.9648L420.124 65.8948L420.661 65.6249L420.351 65.3747L420.771 65.3298L421.905 64.0047L422.115 63.9823L423.116 62.7422L424.294 61.8372L425.387 60.7997L425.512 60.6447L425.582 60.6373L426.801 59.4447L426.863 59.3672L428.675 57.7573L428.682 57.8273L429.853 56.8523L430.166 56.4648L430.438 56.3649L431.024 55.8774L431.149 55.7224L431.219 55.7149L432.529 54.725L433.03 54.1049L433.42 53.7799L434.426 53.2476L435.121 52.4651L435.847 51.9626L437.265 51.3154L437.865 50.968C438.326 50.6355 439.121 50.1256 440.057 49.6007L440.439 49.2057L441.647 48.5809L442.863 48.0261L443.058 47.8636L443.651 47.4462L444.392 47.0838L444.859 46.8213L445.762 46.6541C446.915 46.1768 448.013 45.8471 448.931 45.8199L449.336 45.635L449.646 45.8852C450.011 45.9878 450.314 46.168 450.547 46.3557C450.624 46.4182 450.702 46.4808 450.717 46.6208L451.267 47.1287L451.321 48.9644L450.66 50.7348L449.85 51.1047L449.079 51.1869L448.607 50.7416L448.532 50.0413L448.212 50.3588L448.174 50.0087L448.307 49.9237L448.34 49.5661L448.217 49.0833L447.98 48.1879L447.662 47.8677L446.627 48.1199L445.691 48.6448L445.349 48.7522L444.781 48.742L444.048 49.1744L443.635 49.2893L440.894 50.1487C439.623 50.851 438.563 51.5309 438.165 51.7859L437.767 52.0408L437.455 52.4283L434.811 54.1981L433.827 54.9405L433.452 55.4056L432.196 56.2479L431.869 56.4954L431.291 57.0529L430.315 57.8654L429.947 58.4004L428.059 59.9479L425.317 62.7905L424.964 63.4656L424.511 63.8681L423.705 64.9457L422.947 65.8057L422.682 65.9757L422.159 66.3857L421.721 66.9282L421.666 67.0758L421.158 67.6258L420.603 68.3934L420.29 68.7809L420.032 69.0209L419.407 69.796L419.179 70.3161L418.921 70.5561L418.679 70.9361L418.046 71.6412L416.982 72.9588L416.692 73.5564L416.449 73.9365L416.167 74.6041L416.071 75.0393L416.016 75.1868L415.914 75.5519L415.538 76.0169L414.508 76.9769L413.86 77.5419L413.214 77.4692L412.812 77.0164L412.805 76.9463C412.642 76.7512 412.55 76.5486 412.59 76.261L412.56 75.9809L412.685 75.8259L412.805 74.9631L412.68 75.1181L412.58 74.8455L412.738 74.3328L412.928 73.4626L413.344 72.71L413.399 72.5624L413.384 72.4224L413.641 72.1824L413.814 71.8098L413.799 71.6697L414.377 71.1122L414.517 71.0973L414.712 70.9348L415.426 69.6545L415.841 68.9019L416.044 68.8095L416.319 68.0718L416.627 66.9765L417.072 66.504L417.167 66.0688L417.833 65.0062L418.028 64.8437L418.789 63.3459L418.759 63.0658L419.792 61.468L420.366 60.2028L420.601 59.7527L420.884 59.0851L420.931 58.8675L421.056 58.7125L421.472 57.9598L421.449 57.7498L421.795 57.0046L422.207 56.8897L422.432 57.0073L422.8 56.4723L422.958 55.9596L422.991 55.602L422.968 55.3919L422.673 55.2818L422.861 55.0493L422.806 55.1968L422.986 54.8942L422.908 54.8317L422.666 55.2117C422.353 55.5993 422.035 55.279 421.998 54.9289L422.123 54.7739L422.108 54.6338L422.156 54.4163L422.328 54.0437L422.384 53.8962L422.221 53.701L422.159 53.7785L421.793 53.6759L421.771 53.4658L421.896 53.3108L422.169 53.2108L422.029 53.2258L422.161 53.1408L422.021 53.1558L421.921 52.8831L422.156 52.433L422.529 52.6057L422.702 52.2332L422.672 51.953L422.719 51.7355L422.572 51.6804L422.915 51.573L422.877 51.2228L423.01 51.1379L423.15 51.1229L423.4 50.8129L423.75 50.7755L424.248 50.7932L424.605 50.8258L424.871 50.6558L424.856 50.5158L425.113 50.2758L425.401 50.3159L425.611 50.2935L425.766 50.4186L425.703 50.4961L425.368 50.6735C425.951 50.8238 426.268 51.144 426.376 51.4867L426.453 51.5492L426.406 51.7668C426.496 52.6071 425.9 53.6623 425.227 54.6549L425.312 54.7875L424.646 55.8502L424.234 55.9651L423.678 56.7327L423.435 57.1127L423.278 57.6253L423.208 57.6328C422.91 58.1604 422.619 58.758 422.244 59.2231C422.252 59.2931 422.174 59.2306 422.174 59.2306L421.821 59.9057L421.726 60.3408L421.498 60.8609L420.98 61.9786L420.612 62.5137L420.502 62.8088L420.157 63.5539L419.459 64.9742L419.081 66.077L418.735 66.8222L418.422 67.2097ZM483.697 65.905L482.665 65.5195L482.472 65.0443C482.395 64.9817 482.317 64.9192 482.31 64.8491C482.07 64.5915 482.025 64.1713 482.043 63.6736L482.02 63.4635L482.085 62.7483L482.393 61.653L482.669 60.9153L482.974 60.4578L483.53 59.6902L484.118 58.565L484.603 57.8048L484.721 57.5798L484.761 57.2922L485.301 56.3846L485.467 55.942L485.569 55.5769L485.539 55.2967L485.344 55.4592L485.204 55.4742L484.674 55.8141L484.401 55.9141L482.825 57.074L482.317 57.624L481.879 58.1665L481.404 58.3589L480.936 58.6214L479.618 59.5413L479.383 59.9913L478.602 60.6413L478.205 60.8963L477.034 61.8712L475.745 63.0712L475.565 63.3738L475.323 63.7538L474.917 63.9387L474.785 64.0237C474.527 64.2637 474.262 64.4337 474.074 64.6662L473.747 64.9137L473.286 65.2462L472.646 65.8812L472.248 66.1361C471.272 66.9486 470.407 67.466 469.917 67.5183L469.847 67.5258L469.854 67.5958L469.512 67.7033L469.209 67.5231L468.899 67.2729L468.397 66.5474C468.149 66.2197 468.082 65.5895 468.272 64.7192L468.325 63.2262L468.35 62.7985L468.626 62.0609L468.821 61.8984L469.316 60.5706L469.497 60.268L470.468 58.7478L470.813 58.0026L470.938 57.8476L470.986 57.6301L471.604 56.785L471.761 56.2723L472.004 55.8923L473.22 53.3543L474.397 51.1038L475.25 49.8087L476.401 47.9859L475.351 48.0981L473.998 48.0301L473.725 48.13L473.577 48.0749C473.585 48.145 473.515 48.1524 473.515 48.1524L472.392 48.9098L471.626 49.6999L469.372 51.1446L468.794 51.7021L466.523 53.6445L465.127 54.5019L464.924 54.5943L464.479 55.0669L464.417 55.1444L464.151 55.3143L462.208 57.0093L461.365 57.7368L460.809 58.5043L459.543 59.9144L458.567 60.7269C458.38 60.9594 458.185 61.1219 457.99 61.2844L457.589 62.1771L457.401 62.4096L456.909 63.0997L456.371 63.3696L456.198 63.7422L456.058 63.7571L455.933 63.9121L455.723 63.9346L455.48 64.3146L455.348 64.3996L453.636 66.2822L453.589 66.4998L453.268 66.8173L453.011 67.0573L452.878 67.1423L452.05 68.0098L451.675 68.4749L451.605 68.4823L450.909 69.2649L450.932 69.475L450.792 69.4899L450.659 69.5749L450.041 70.42L449.205 71.2175L448.9 71.6751L448.845 71.8226L448.22 72.5977L447.789 73.2102L447.506 73.8779L447.334 74.2505L446.998 74.4279L446.796 74.5204L446.733 74.5979L446.686 74.8155L446.631 74.963L446.303 75.2105L446.248 75.358L446.263 75.4981L446.145 75.7231L446.168 75.9332L445.917 76.2432L445.925 76.3132L445.777 76.2582L445.575 76.3506L445.45 76.5057L445.38 76.5131L445.317 76.5906L444.927 76.9156L444.109 77.2154L443.969 77.2304L443.961 77.1604L443.486 77.3528L443.136 77.3902L442.778 77.3575L442.608 77.0924L442.211 77.3473L442.063 77.2923L441.738 76.902L441.498 76.6443L441.508 76.0766L441.651 75.4239L441.839 75.1914L441.761 75.1289L441.801 74.8413L442.122 74.5238L442.364 74.1437L442.993 72.7309L444.299 71.0332L444.361 70.9557L444.401 70.6681L444.604 70.5757L445.247 69.3029L445.677 68.6904L446.03 68.0152L446.14 67.7202L446.321 67.4176L446.736 66.665L446.721 66.5249L447.049 66.2774L447.221 65.9049L447.574 65.2297L448.648 63.3444L449.016 62.8093L449.243 62.2892L450.395 60.4665L450.685 59.8688L451.773 58.1236L452.487 56.8434L452.659 56.4708L452.795 55.7481L452.89 55.3129L453.21 54.9954L453.545 54.818L453.64 54.3828L453.765 54.2278L453.743 54.0177L453.658 53.8852L453.776 53.6601L453.746 53.38L453.918 53.0074L453.848 53.0149L453.911 52.9374L453.988 53L454.184 52.8375L454.231 52.6199L454.371 52.6049L454.364 52.5349L454.747 52.1399L454.949 52.0474L455.397 50.9372L455.835 50.3946L456.055 49.8045L455.908 49.7494L456.206 49.2218L456.323 48.9968L456.433 48.7017L456.426 48.6317L456.348 48.5691L456.341 48.4991L456.411 48.4916L456.414 47.8539L456.479 47.1387L456.597 46.9136L456.942 46.1685L457.597 45.6735L457.892 45.7837L457.862 45.5035L458.058 45.341L458.268 45.3186L458.385 45.0936L458.728 44.9861L459.491 44.8339L459.911 44.789L460.276 44.8917L460.509 45.0793L460.553 45.4995L460.263 46.0971L460.301 46.4472L460.198 46.8123L459.795 48.3428L458.757 49.2327L458.046 49.8752L457.983 49.9527L457.348 51.2955L457.363 51.4356L457.128 51.8856L457.11 52.3833L456.952 52.8959L456.842 53.191L456.584 53.431L456.522 53.5085L456.389 53.5935L456.334 53.741L456.194 53.756L456.154 54.0436L455.904 54.3536L455.521 54.7486L455.05 55.6488L454.69 56.2539L454.477 56.9141L454.29 57.1466L453.579 57.7891L452.851 58.9292L452.391 59.2617L451.725 60.3244L451.74 60.4644L451.302 61.007L450.769 61.9846L450.626 62.6373L450.391 63.0874L449.968 63.77L449.921 63.9876L449.405 64.4676L448.857 65.3052L448.144 66.5854L447.493 67.7881L446.89 68.7733L445.824 70.7287L445.469 72.0415L445.359 72.3366L445.421 72.2591L445.701 72.2292L445.896 72.0667L446.106 72.0442L446.239 71.9592L446.364 71.8042L446.762 71.5493L446.795 71.1917L447.1 70.7341L447.427 70.4866L448.098 70.1317L448.683 69.6442L449.316 68.9392L449.441 68.7842L449.574 68.6992L449.957 68.3042L450.707 67.3741L452.168 65.8015L452.691 65.3916L454.042 64.1141L454.41 63.579L454.535 63.424L454.933 63.169L455.838 62.364L456.254 61.6114L456.526 61.5115L457.432 60.7065L457.995 60.0089L458.323 59.7614L458.378 59.6139L459.574 58.2113L460.034 57.8789L460.73 57.0963L460.91 56.7938L461.3 56.4688L461.87 55.8412L462.393 55.4313L463.011 54.5862L464.682 52.9912L465.19 52.4411L465.558 51.9061L466.759 51.2112L467.609 50.5538L467.845 50.1037L467.992 50.1588L468.25 49.9188L468.522 49.8188L468.968 49.3463L469.093 49.1913L469.561 48.9289L470.146 48.4414L470.949 48.0015L471.932 47.2591L472.042 46.964L473.033 46.2916L475.019 45.6545L476.492 44.8598L477.17 44.5749L477.575 44.39L477.77 44.2275L477.903 44.1425L478.043 44.1275L477.918 44.2825L478.556 44.2853L478.843 44.3254L479.338 44.9808L479.273 45.696L479.093 45.9986C478.762 46.8838 478.019 47.8839 477.604 48.6365C477.486 48.8616 477.353 48.9466 477.298 49.0941L476.791 49.6441L476.445 50.3893L475.444 51.6294L474.771 52.622L474.654 52.8471L474.161 53.5372L472.599 56.8203L471.846 58.3881L471.325 60.1436L471.255 60.1511L471.262 60.2211L470.642 61.7039L470.466 62.7142L470.286 63.0168L470.161 63.1718L470.003 63.6844L469.948 63.832L470.07 64.3147L470.27 64.86L470.378 65.2026L470.548 65.4678L470.64 65.6704L470.718 65.7329L471.723 65.2006L471.996 65.1007C472.386 64.7757 472.769 64.3807 473.214 63.9081L473.527 63.5206L473.862 63.3432C474.378 62.8632 474.815 62.3206 475.323 61.7706L476.096 61.0506L476.479 60.6556L478.033 59.2856L480.805 56.7231L481.04 56.273L481.297 56.033L481.765 55.7706L482.045 55.7407C482.17 55.5857 482.303 55.5007 482.436 55.4157L482.623 55.1832L482.678 55.0357L482.671 54.9656L482.796 54.8106L482.844 54.5931L482.836 54.523L483.164 54.2755L483.086 54.213L483.156 54.2055L483.304 54.2606L483.506 54.1681L483.632 54.0131L483.772 53.9982L484.309 53.7282L484.8 53.6759L485.135 53.4984L485.352 53.546L485.29 53.6235L485.772 53.5012L485.835 53.4237L486.193 53.4563L486.558 53.559L486.79 53.7466L486.828 54.0968L486.765 54.1743L486.835 54.1668L486.71 54.3218L486.417 55.5571L486.439 55.7672L486.179 56.645L485.639 57.5526L485.331 58.6479L485.165 59.0905L484.805 59.6956L484.077 60.8358L483.849 61.3559L483.504 62.101L483.283 62.6912L483.148 63.4139L483.37 64.1693L483.905 64.5371C484.496 64.7574 485.421 64.8002 486.386 64.5554L486.799 64.4406L486.807 64.5106C486.877 64.5031 486.939 64.4256 487.009 64.4181L487.072 64.3406L487.267 64.1781L488.1 64.0183L488.77 63.6634L489.168 63.4085L489.533 63.5112L489.728 63.3487L489.791 63.2712L490.203 63.1563L491.592 62.2289L492.442 61.5715L492.855 61.4566L493.238 61.0615L493.448 61.0391L494.368 60.3742L494.781 60.2593L495.179 60.0043L496.044 59.4869L496.902 58.8995L498.758 57.7097L498.953 57.5472L501.34 56.0175L501.598 55.7775L502.471 55.3301L502.798 55.0827L503.649 54.4252L504.102 54.0227L504.374 53.9228L504.622 54.2505L504.582 54.5381L504.246 54.7155L504.114 54.8005L503.786 55.048L503.668 55.273L503.543 55.428L503.131 55.5429L501.172 57.0978L500.657 57.5778L500.446 57.6003L499.651 58.1102L499.066 58.5977L498.73 58.7751L498.605 58.9301L498.403 59.0226L497.28 59.78L496.882 60.0349L496.554 60.2824L496.164 60.6074L495.899 60.7774L495.641 61.0174L495.048 61.4348L494.916 61.5198L494.58 61.6972L494.323 61.9372L493.722 62.2847L492.779 62.7395L491.579 63.4343L491.056 63.8443L490.768 63.8042L490.098 64.1591C489.895 64.2516 489.7 64.414 489.428 64.514L489.295 64.599L488.952 64.7064L488.134 65.0062L488.142 65.0762L488.002 65.0912L487.604 65.3462L487.191 65.4611L486.841 65.4985C486.366 65.6909 485.953 65.8058 485.463 65.8581L484.763 65.9329C484.483 65.9628 484.195 65.9227 483.908 65.8826L483.697 65.905Z" fill="#2B9191"/>
</g>
<g>
<path d="M31.583 158.353C34.0032 157.765 37.1573 157.027 39.5394 156.486C40.2861 156.316 39.9147 156.431 40.4301 156.316C41.4377 156.09 42.3687 155.857 43.36 155.639C43.6885 155.567 43.2909 155.707 43.6352 155.63C45.5201 155.212 47.3841 154.767 49.3226 154.329C58.8355 152.182 68.2929 150.057 77.8459 147.945C81.0745 147.231 84.974 146.43 88.2372 145.677C88.6183 145.589 88.3767 145.576 88.4482 145.555C89.5689 145.221 89.2186 145.434 89.9644 145.287C92.8839 144.712 96.2735 143.975 99.1238 143.323C100.34 143.045 99.0898 143.179 100.332 142.986C100.418 142.972 100.125 143.111 100.461 143.046C101.221 142.897 102.651 142.572 103.235 142.451C104.362 142.217 104.547 142.176 105.608 141.947C107.053 141.634 108.785 141.297 110.376 140.936C110.713 140.859 110.25 140.88 110.786 140.75C111.323 140.621 112.747 140.32 113.229 140.235C113.712 140.149 113.521 140.254 113.608 140.249C114.331 140.215 115.933 139.702 116.142 139.653C119.967 138.76 123.206 138.165 126.868 137.389C129.599 136.809 132.489 136.168 135.057 135.633C135.078 135.629 135.1 135.624 135.121 135.62C138.162 134.987 140.893 134.462 143.896 133.83C144.215 133.763 143.822 133.748 144.211 133.667C148.343 132.798 152.393 131.973 156.567 131.185C156.982 131.106 156.465 131.296 156.881 131.223C159.43 130.771 163.436 130.123 164.847 129.472C166.55 129.142 168.666 128.731 170.211 128.494C171.21 128.341 170.267 128.622 171.474 128.341C171.746 128.277 171.375 128.272 171.784 128.183C173.507 127.809 175.393 127.458 177.081 127.082C177.425 127.005 177.317 126.955 177.412 126.923C178.212 126.66 179.615 126.554 179.926 126.505C182.25 126.138 183.92 125.773 186.052 125.357C186.547 125.261 185.944 125.283 186.419 125.187C188.893 124.689 191.398 124.21 193.853 123.777C194.396 123.681 193.913 123.855 194.174 123.814C195.321 123.629 195.545 123.433 196.642 123.255C196.874 123.217 196.757 123.309 196.8 123.308C197.479 123.296 198.017 123.024 198.185 122.988C200.306 122.53 201.696 122.439 203.737 122.026C203.981 121.976 203.414 121.997 204.101 121.863C208.705 120.963 213.623 120.063 218.162 119.29C218.873 119.168 218.378 119.324 218.423 119.324C219.179 119.307 219.623 119.059 219.855 119.01C221.683 118.627 223.418 118.447 224.625 118.029C232.34 116.684 240.058 115.195 247.778 114.017C247.876 114.002 247.714 114.109 247.91 114.078C250.268 113.71 249.795 113.671 251.323 113.257C251.708 113.153 252.927 113.122 253.034 113.116C253.425 113.097 253.047 113.278 253.177 113.265C254.25 113.153 254.014 112.811 255.444 112.565C255.488 112.558 255.312 112.659 255.433 112.645C255.81 112.602 256.175 112.511 256.547 112.472C257.398 112.382 257.728 112.51 258.993 112.187C259.153 112.146 258.87 111.978 260.155 111.77C260.668 111.687 262.93 111.3 263.566 111.207C264.201 111.114 263.777 111.254 263.823 111.25C265.543 111.051 264.902 111.197 265.778 111.184C266.653 111.17 266.364 110.9 266.706 110.807C267.049 110.714 268.307 110.578 268.62 110.552C268.933 110.526 268.555 110.632 268.832 110.601C270.664 110.391 269.603 110.315 270.194 110.166C271.585 109.816 272.721 109.863 274.014 109.673C274.364 109.621 274.07 109.616 274.38 109.56C275.608 109.34 276.359 109.289 277.747 108.996C277.974 108.948 279.082 108.628 279.829 108.609C279.935 108.606 279.65 108.71 280.176 108.638C280.96 108.53 282.378 108.312 283.218 108.158C283.838 108.044 283.11 108.067 283.898 107.97C284.248 107.926 283.611 108.084 284.268 107.998C284.922 107.913 286.585 107.644 287.217 107.541C287.848 107.438 287.492 107.425 287.542 107.412C287.847 107.336 289.053 107.11 289.16 107.093C294.557 106.229 299.566 105.566 304.825 104.725C305.238 104.659 304.952 104.631 305.015 104.62C306.425 104.375 305.338 104.731 306.335 104.643C306.171 104.523 306.758 104.459 307.752 104.293C308.231 104.213 307.961 104.198 308.004 104.185C308.704 103.995 309.216 104.027 309.347 104.03C309.83 104.039 310.33 103.867 310.659 103.872C310.988 103.877 310.261 104.067 311.217 103.921C311.477 103.831 310.748 103.807 311.471 103.677C314.198 103.185 319.33 102.53 321.531 102.22C323.73 101.909 324.44 101.797 325.725 101.628C328.047 101.325 327.184 101.354 328.618 101.105C330.058 100.856 329.388 101.184 329.603 101.203C329.814 101.222 330.027 101.14 330.284 101.131C330.539 101.122 329.999 101.233 330.592 101.158C331.186 101.083 332.793 100.765 332.997 100.684C333.426 100.514 332.679 100.505 334.254 100.322C334.345 100.312 334.06 100.412 334.407 100.369C337.158 100.026 340.025 99.6268 342.777 99.2847C343.154 99.2379 342.826 99.3485 343.046 99.3219C345.333 99.0459 344.503 99.0517 345.738 98.7606C345.479 98.9572 346.184 98.9578 347.92 98.7195C348.965 98.5765 348.776 98.533 349.445 98.3926C349.646 98.3504 350.392 98.296 350.522 98.2459C350.951 98.0815 350.236 98.0595 352.039 97.8628C352.118 97.8543 351.875 97.9451 352.148 97.9116C353.91 97.6961 354.117 97.5584 356.001 97.2931C357.481 97.0848 360.132 96.7985 361.83 96.5849C361.817 96.7573 363.414 96.5062 364.051 96.3063C365.153 96.1662 366.349 96.0033 367.416 95.8802C367.78 95.8381 367.547 95.9167 367.594 95.9159C368.308 95.9043 368.77 95.7327 369.005 95.6978C371.563 95.3238 373.668 95.1353 376.121 94.7418C376.208 94.7278 376.336 94.6 377.005 94.5962C377.049 94.5963 376.24 94.7499 377.401 94.606C378.564 94.4619 380.757 94.2422 382.343 93.9922C382.728 93.9315 383.695 93.7224 384.491 93.6913C384.597 93.6873 384.486 93.7321 384.64 93.73C385.136 93.7224 385.389 93.5823 385.977 93.6007C386.564 93.6192 387.77 93.5352 389.387 93.2711C389.439 93.2629 389.813 93.1321 390.325 93.0701C391.14 92.9712 392.308 92.844 393.156 92.7389C393.56 92.6889 393.295 92.6702 393.365 92.6607C396.075 92.2992 398.019 92.1075 400.953 91.7706C401.491 91.7088 403.031 91.4564 404.083 91.3824C405.235 91.3009 404.095 91.6753 406.711 91.3021C407.758 91.1522 409.053 90.7037 410.967 90.6277C414.627 90.156 418.128 89.8182 421.774 89.3429C421.939 89.3214 422.453 89.1861 422.842 89.1422C423.42 89.0771 423.742 89.0749 424.155 89.0293C425.888 88.8393 427.476 88.6273 429.159 88.4393C429.798 88.3678 429.578 88.4277 430.341 88.3422C431.104 88.2566 431.608 88.154 432.648 88.0574C433.44 87.9839 434.202 87.9876 435.229 87.8806C435.258 87.7887 435.959 87.7107 437.208 87.5465C437.449 87.5149 437.187 87.5141 437.301 87.4976C437.762 87.43 438.194 87.4064 438.633 87.3402C438.74 87.3242 438.742 87.2945 438.829 87.2798C439.569 87.1537 440.809 87.0811 441.022 87.0684C441.838 87.02 442.214 86.9405 442.84 86.8874C443.465 86.8342 442.535 86.959 443.265 86.8875C444.768 86.7399 446.751 86.5136 448.245 86.3489C448.848 86.2822 448.433 86.2921 448.519 86.2817C449.765 86.1346 451.036 86.0317 451.723 85.8857C452.613 85.9688 452.477 85.785 454.28 85.6236C454.422 85.611 454.611 85.6737 454.068 85.7461C453.526 85.8185 452.699 85.8835 451.948 85.9863C451.77 86.0105 450.76 86.204 450.622 86.2246C449.538 86.3849 449.371 86.2729 449.312 86.2721C448.651 86.2676 447.424 86.4934 447.097 86.5366C445.575 86.7357 444.283 86.8621 443.018 87.0259C442.192 87.1328 442.121 87.2322 441.472 87.3035C439.315 87.5411 438.55 87.496 436.545 87.8403C436.116 87.9142 436.556 87.9682 435 88.0653C434.901 88.0717 433.749 88.128 433.089 88.2527C433.004 88.2686 433.011 88.2991 432.899 88.3146C432.152 88.4182 431.65 88.4515 430.838 88.558C430.025 88.6645 429.051 88.7965 428.125 88.894C427.566 88.9528 426.845 88.9767 426.577 88.993C425.82 89.0383 425.024 89.2023 424.554 89.2049C424.079 89.2073 424.985 89.0217 423.754 89.1304C423.718 89.2208 423.624 89.3205 423.561 89.4149C420.882 89.7279 418.226 90.0141 415.501 90.3434C415.164 90.3843 415.514 90.3914 415.153 90.4365C413.632 90.6268 412.302 90.7513 410.735 90.9548C409.521 91.1125 408.199 91.3269 406.938 91.4949C406.167 91.4793 404.248 91.7503 402.873 91.909C402.39 91.9648 402.419 91.9313 402.075 91.9637C400.777 92.0866 401.395 92.1106 401.042 92.1697C399.531 92.4239 399.374 92.2155 397.589 92.4407C397.494 92.4524 396.354 92.7169 396.197 92.7445C395.194 92.9197 396.024 92.7228 395.392 92.7923C394.233 92.9197 393.45 92.987 392.079 93.1956C391.681 93.2561 390.735 93.4543 389.955 93.4911C389.852 93.496 389.903 93.4474 389.821 93.4552C388.336 93.6005 388.315 93.7368 387.476 93.8886C386.638 94.0407 385.327 94.1148 385.059 94.1217C384.359 94.1409 385.585 94.0249 385.622 94.0134C386.053 93.8775 385.106 94.0114 384.381 94.0965C384.26 93.9785 383.25 94.1142 383.631 94.1853C383.674 94.1928 384.235 94.109 384.381 94.0965C383.762 94.306 382.654 94.4656 381.414 94.5003C380.833 94.5165 381.372 94.3793 379.626 94.6275C378.828 94.741 379.149 94.794 378.447 94.9101C376.845 95.1757 374.748 95.3589 373.101 95.5878C372.503 95.671 373.092 95.6469 372.684 95.7057C371.6 95.8619 370.64 95.948 369.556 96.1114C369.457 96.1262 369.705 96.1498 369.367 96.1951C366.822 96.5379 364.542 96.8048 361.861 97.1635C360.562 97.3371 358.251 97.6816 356.912 97.8574C354.602 98.1605 351.7 98.4707 349.717 98.7658C348.421 98.9585 348.714 98.9789 348.164 99.0968C347.102 99.3248 345.189 99.4475 344.931 99.4607C344.923 99.461 346.034 99.2915 345.436 99.3434C345.082 99.327 344.943 99.4587 344.931 99.4607C344.761 99.4698 342.538 99.767 342.098 99.841C341.858 99.8813 342.001 99.9201 341.875 99.9401C338.893 100.413 335.909 100.855 332.889 101.262C332.836 101.268 332.906 101.19 332.781 101.206C331.03 101.428 329.93 101.671 328.489 101.931C327.052 102.191 325.906 102.343 325.035 102.352C323.949 102.526 322.381 102.704 321.479 102.806C320.578 102.907 320.472 103.059 320.394 103.074C317.947 103.525 316.51 103.662 313.952 104.035C312.735 104.212 310.329 104.598 309.017 104.814C307.98 104.985 307.349 105.049 306.396 105.217C306.267 105.24 306.407 105.281 306.368 105.29C305.312 105.529 305.802 105.298 305.577 105.305C304.763 105.33 304.26 105.353 302.899 105.611C302.585 105.671 301.7 106.033 301.127 106.136C300.382 106.269 300.651 106.146 299.872 106.288C299.805 106.3 299.826 106.347 299.343 106.42C297.099 106.762 294.648 107.12 292.321 107.496C292.003 107.548 292.423 107.561 291.964 107.637C289.81 107.99 287.446 108.368 285.339 108.672C284.82 108.746 285.135 108.637 285.02 108.639C284.315 108.65 283.36 108.955 283.199 108.985C279.357 109.684 276.409 110.032 272.496 110.751C272.284 110.79 270.667 111.226 269.91 111.212C269.859 111.211 269.109 111.191 268.483 111.396C268.445 111.409 268.907 111.406 268.12 111.531C267.334 111.656 266.078 111.919 264.983 112.022C264.637 112.055 263.804 112.049 262.801 112.337C262.736 112.356 261.202 112.884 260.607 112.803C260.511 112.789 260.575 112.584 259.37 112.891C259.139 112.949 259.57 112.919 258.96 113.051C258.026 113.253 256.76 113.42 255.624 113.704C255.426 113.753 254.593 114.031 253.89 114.053C253.78 114.056 253.973 113.957 253.609 114.013C251.879 114.279 250.079 114.638 248.314 114.903C247.689 114.997 247.989 114.837 247.335 114.924C246.681 115.01 245.367 115.215 244.695 115.383C244.023 115.551 244.795 115.585 243.778 115.78C239.4 116.618 235 117.31 230.581 118.101C229.931 118.217 230.48 118.179 229.523 118.356C226.004 119.002 219.839 120.204 216.76 120.647C214.286 121.003 217.36 120.345 215.476 120.653C214.567 120.803 213.623 121.187 213.405 121.235C211.276 121.702 209.766 121.896 207.833 122.291C207.434 122.373 207.842 122.38 207.502 122.449C206.337 122.685 205.113 122.881 204.018 123.097C203.526 123.195 203.628 123.24 203.173 123.322C202.084 123.52 201.116 123.678 200.041 123.825C199.943 123.838 200.582 123.634 199.774 123.787C198.466 124.034 196.829 124.29 195.328 124.644C194.883 124.749 194.893 124.896 193.908 124.984C193.701 125.003 193.927 124.78 192.829 125.149C192.64 125.211 190.823 125.774 189.879 125.824C189.631 125.838 188.986 125.817 188.456 125.944C188.384 125.962 188.69 125.982 188.248 126.077C186.691 126.408 185.047 126.723 183.436 127.067C183.006 127.159 183.664 127.112 183.023 127.247C181.26 127.616 179.027 128.039 177.327 128.352C176.695 128.468 177.117 128.314 177.07 128.316C176.308 128.345 175.903 128.592 175.659 128.65C174.144 129.011 172.963 129.17 171.552 129.474C171.162 129.558 171.455 129.578 171.378 129.601C170.585 129.829 171.158 129.572 170.644 129.659C169.204 129.905 167.604 130.234 166.148 130.539C165.614 130.651 166.232 130.618 165.754 130.717C162.972 131.296 160.056 131.882 157.291 132.397C156.771 132.493 157.083 132.358 156.972 132.365C156.205 132.408 155.14 132.782 154.891 132.848C153.757 133.148 153.298 133.179 152.284 133.4C147.439 134.456 141.331 135.684 136.677 136.633C136.22 136.727 135.769 136.818 135.325 136.909C129.986 137.994 125.434 138.898 120.196 140.023C119.833 140.101 120.219 140.113 119.906 140.182C115.873 141.058 111.814 141.883 107.722 142.781C107.392 142.853 107.886 142.835 107.357 142.953C106.27 143.197 104.885 143.487 103.77 143.697C103.226 143.8 103.937 143.576 103.39 143.68C102.116 143.925 100.751 144.211 99.4422 144.504C98.8851 144.629 99.7454 144.531 99.0197 144.687C94.0279 145.761 89.2689 146.79 84.2551 147.764C83.9113 147.831 83.5776 147.742 82.855 147.929C82.8094 147.983 82.8233 148.032 82.8093 148.082C75.4932 149.68 68.6303 151.106 61.2841 152.691C60.9851 152.755 61.5167 152.71 60.9378 152.835C57.5862 153.557 54.3065 154.28 50.8032 154.977C50.4554 155.046 50.6109 154.905 49.5923 155.144C49.4131 155.186 47.8737 155.536 47.4781 155.644C47.4245 155.659 47.7169 155.643 47.2188 155.752C44.2762 156.398 41.3823 157.013 38.5102 157.613C38.0494 157.709 38.53 157.562 38.2017 157.63C35.8734 158.117 33.3351 158.702 31.0786 159.164C29.5677 159.474 30.112 159.294 29.298 159.416C29.1831 159.434 28.2476 159.642 28.1919 159.622C28.0499 159.571 28.483 159.381 28.2781 159.339C28.2448 159.332 27.4932 159.516 27.4894 159.501C27.4894 159.501 27.4894 159.501 27.4894 159.501C27.4884 159.497 27.5525 159.475 27.7189 159.425C27.7702 159.41 28.6736 159.183 28.8929 159.116C29.0458 159.069 28.7587 159.102 29.0723 159.014C29.3857 158.925 29.7397 158.871 30.2598 158.731C30.7792 158.59 30.541 158.606 31.583 158.353ZM317.421 103.263C316.579 103.322 316.492 103.579 317.383 103.387C317.426 103.378 317.464 103.26 317.421 103.263ZM418.224 89.8949C417.116 89.9551 416.378 90.1467 417.158 90.1087C417.939 90.0702 418.561 89.8762 418.224 89.8949ZM429.521 88.5275C428.233 88.6241 428.056 88.8562 429.423 88.6546C429.503 88.6429 429.596 88.5218 429.521 88.5275ZM32.9997 158.571C32.9881 158.571 32.3202 158.719 32.3045 158.724C31.958 158.843 33.2938 158.549 32.9997 158.571ZM440.74 87.199C440.338 87.2181 439.195 87.3774 439.693 87.3538C440.094 87.3346 441.24 87.1749 440.74 87.199ZM274.07 109.794C274.056 109.793 273.574 109.869 273.588 109.889C273.632 109.955 274.298 109.824 274.07 109.794ZM459.864 85.0751C457.017 85.3815 455.287 85.4302 458.378 85.1107C458.939 85.0526 457.176 85.2848 457.89 85.2196C459.197 85.0992 460.056 84.9218 461.4 84.8214C461.642 84.803 460.026 85.0577 459.859 85.0759C459.861 85.0756 459.862 85.0754 459.864 85.0751ZM316.899 103.048C316.882 103.048 316.214 103.144 316.198 103.15C315.848 103.279 317.194 103.085 316.899 103.048ZM246.009 114.404C245.971 114.402 244.422 114.667 244.373 114.683C243.591 114.967 246.722 114.432 246.009 114.404ZM361.857 96.5858C362.579 96.4234 363.453 96.3012 364.047 96.3067C363.319 96.3979 362.588 96.4935 361.857 96.5858Z" fill="#2B9191"/>
</g>
</svg>
