<svg version="1.1" xmlns="http://www.w3.org/2000/svg" xmlns:xlink="http://www.w3.org/1999/xlink" width="15.443px" height="13.482px" viewBox="0 0 15.443 13.482"><title>vimeo</title><path id="Path_10" class="st0" d="M8.866,3.634c1.759-1.056,2.706,0.432,1.8,2.115s-1.732,2.79-2.162,2.79s-0.756-1.133-1.25-3.1C6.747,3.402,6.747-0.272,4.628,0.145C2.628,0.545,0,3.677,0,3.677l0.623,0.821c0,0,1.293-1.02,1.724-0.512s2.088,6.666,2.634,7.8c0.477,1,1.8,2.312,3.246,1.374c1.446-0.938,6.276-5.057,7.139-9.925C16.229-1.633,9.565-0.601,8.866,3.634z"/></svg>