<svg width="26" height="18" viewBox="0 0 26 18" fill="none" xmlns="http://www.w3.org/2000/svg">
<path d="M12.8219 17.8726C12.7431 17.8726 4.94084 17.8658 3.00711 17.3427C2.4733 17.1972 1.987 16.9141 1.59677 16.5219C1.20655 16.1297 0.926041 15.6419 0.783268 15.1074C0.421823 13.0989 0.245946 11.0614 0.257861 9.02067C0.245986 6.97956 0.421862 4.94169 0.783268 2.9328C0.926041 2.39825 1.20655 1.91051 1.59677 1.51828C1.987 1.12604 2.4733 0.843044 3.00711 0.697535C4.94084 0.168701 12.7431 0.168701 12.8219 0.168701C12.9008 0.168701 20.703 0.168701 22.6379 0.697535C23.1715 0.843218 23.6576 1.1263 24.0476 1.51852C24.4376 1.91074 24.7179 2.39839 24.8606 2.9328C25.2221 4.94168 25.3979 6.97956 25.386 9.02067C25.3981 11.0618 25.2222 13.0997 24.8606 15.1085C24.7178 15.6427 24.4374 16.1301 24.0474 16.5222C23.6573 16.9142 23.1714 17.1971 22.6379 17.3427C20.703 17.8646 12.9008 17.8726 12.8219 17.8726ZM10.2509 5.28457V12.7556L16.8196 9.02067L10.252 5.28571L10.2509 5.28457Z" fill="white"/>
</svg>
